<?xml version="1.0" encoding="UTF-8"?>
<svg width="53px" height="51px" viewBox="0 0 53 51" version="1.1" xmlns="http://www.w3.org/2000/svg" xmlns:xlink="http://www.w3.org/1999/xlink">
    <title>28</title>
    <g id="Page-1" stroke="none" stroke-width="1" fill="none" fill-rule="evenodd">
        <path d="M36.6367188,50.8945312 C36.6367188,50.8554688 36.65625,50.8359375 36.6953125,50.8359375 C36.734375,50.8359375 36.7539062,50.8164062 36.7539062,50.7773438 L36.7539062,50.7773438 L36.8125,50.71875 L36.8125,49.8984375 C36.8125,49.859375 36.7929688,49.8398438 36.7539062,49.8398438 C36.7539062,49.8007812 36.734375,49.78125 36.6953125,49.78125 C36.65625,49.8203125 36.6367188,49.8203125 36.6367188,49.78125 L36.6367188,49.78125 L35.3476562,49.8398438 L33.4726562,48.375 C33.3164062,48.296875 33.21875,48.1992188 33.1796875,48.0820312 C33.0234375,47.9257812 32.9257812,47.8085938 32.8867188,47.7304688 C32.8085938,47.6523438 32.7402344,47.5351562 32.6816406,47.3789062 C32.6230469,47.2226562 32.5742188,47.0859375 32.5351562,46.96875 L32.5351562,46.96875 L31.4804687,42.046875 L50.8164062,42.046875 C51.0117188,42.0859375 51.2070312,42.0566406 51.4023438,41.9589844 C51.5976562,41.8613281 51.7734375,41.7539062 51.9296875,41.6367188 C52.046875,41.5195312 52.1445312,41.3535156 52.2226562,41.1386719 C52.3007812,40.9238281 52.3398438,40.7382812 52.3398438,40.5820312 L52.3398438,40.5820312 L52.3398438,2.02734375 C52.3398438,1.87109375 52.3007812,1.68554688 52.2226562,1.47070312 C52.1445312,1.25585938 52.046875,1.08984375 51.9296875,0.97265625 C51.7734375,0.85546875 51.5976562,0.748046875 51.4023438,0.650390625 C51.2070312,0.552734375 51.0117188,0.5234375 50.8164062,0.5625 L50.8164062,0.5625 L2.18359375,0.50390625 C1.67578125,0.58203125 1.32421875,0.73828125 1.12890625,0.97265625 C0.81640625,1.28515625 0.66015625,1.65625 0.66015625,2.0859375 L0.66015625,2.0859375 L0.66015625,40.5234375 C0.66015625,40.953125 0.81640625,41.3242188 1.12890625,41.6367188 C1.32421875,41.8710938 1.67578125,42.0273438 2.18359375,42.1054688 L2.18359375,42.1054688 L21.5195312,42.1054688 L20.4648438,46.96875 C20.4257812,47.0859375 20.3769531,47.2226562 20.3183594,47.3789062 C20.2597656,47.5351562 20.1914062,47.6523438 20.1132812,47.7304688 L20.1132812,47.7304688 L19.8789062,48.0820312 C19.8007812,48.1992188 19.6835938,48.296875 19.5273438,48.375 L19.5273438,48.375 L17.6523438,49.8398438 L16.3632812,49.78125 C16.3632812,49.8203125 16.34375,49.8203125 16.3046875,49.78125 C16.265625,49.78125 16.2460938,49.8007812 16.2460938,49.8398438 L16.2460938,49.8398438 L16.2460938,49.8984375 C16.2070312,49.8984375 16.1875,49.9375 16.1875,50.015625 L16.1875,50.015625 L16.1875,50.6015625 C16.1875,50.6796875 16.2070312,50.71875 16.2460938,50.71875 L16.2460938,50.71875 L16.2460938,50.7773438 C16.2460938,50.8164062 16.265625,50.8359375 16.3046875,50.8359375 C16.34375,50.8359375 16.3632812,50.8554688 16.3632812,50.8945312 L16.3632812,50.8945312 L36.6367188,50.8359375 L36.6367188,50.8945312 Z M50.8164062,41.6953125 L31.3046875,41.6953125 L21.7539062,41.6367188 L2.18359375,41.6367188 C1.91015625,41.6757812 1.65625,41.578125 1.421875,41.34375 C1.1484375,41.1484375 1.01171875,40.8945312 1.01171875,40.5820312 L1.01171875,40.5820312 L1.01171875,2.02734375 C1.01171875,1.75390625 1.1484375,1.48046875 1.421875,1.20703125 C1.65625,0.97265625 1.91015625,0.875 2.18359375,0.9140625 L2.18359375,0.9140625 L50.8164062,0.85546875 C51.2070312,0.93359375 51.4804688,1.05078125 51.6367188,1.20703125 C51.7148438,1.36328125 51.7929688,1.5 51.8710938,1.6171875 C51.9492188,1.734375 51.9882812,1.890625 51.9882812,2.0859375 L51.9882812,2.0859375 L51.9882812,40.5234375 C51.9882812,40.71875 51.9492188,40.875 51.8710938,40.9921875 L51.8710938,40.9921875 L51.6367188,41.34375 C51.4804688,41.5 51.2070312,41.6171875 50.8164062,41.6953125 L50.8164062,41.6953125 Z M2.828125,34.1953125 L50.171875,34.1367188 C50.2890625,34.1757812 50.3964844,34.1660156 50.4941406,34.1074219 C50.5917969,34.0488281 50.6796875,33.9804688 50.7578125,33.9023438 C50.9140625,33.7851562 50.9921875,33.609375 50.9921875,33.375 L50.9921875,33.375 L50.9921875,2.4375 C50.9921875,2.359375 50.9726562,2.26171875 50.9335938,2.14453125 C50.8945312,2.02734375 50.8359375,1.9296875 50.7578125,1.8515625 C50.5234375,1.6953125 50.328125,1.63671875 50.171875,1.67578125 L50.171875,1.67578125 L2.828125,1.6171875 C2.7890625,1.65625 2.69140625,1.67578125 2.53515625,1.67578125 C2.37890625,1.75390625 2.28125,1.8125 2.2421875,1.8515625 C2.0859375,2.046875 2.0078125,2.26171875 2.0078125,2.49609375 L2.0078125,2.49609375 L2.0078125,33.3164062 C2.0078125,33.5117188 2.02734375,33.6289062 2.06640625,33.6679688 C2.14453125,33.9414062 2.30078125,34.078125 2.53515625,34.078125 C2.61328125,34.1171875 2.671875,34.1367188 2.7109375,34.1367188 C2.75,34.1367188 2.7890625,34.15625 2.828125,34.1953125 L2.828125,34.1953125 Z M50.171875,33.84375 L2.828125,33.7851562 C2.7890625,33.8242188 2.75,33.8242188 2.7109375,33.7851562 L2.7109375,33.7851562 L2.53515625,33.6679688 C2.49609375,33.6679688 2.45703125,33.6289062 2.41796875,33.5507812 C2.37890625,33.4726562 2.359375,33.4140625 2.359375,33.375 L2.359375,33.375 L2.359375,2.4375 C2.359375,2.4375 2.37890625,2.3984375 2.41796875,2.3203125 L2.41796875,2.3203125 L2.53515625,2.14453125 C2.57421875,2.14453125 2.6328125,2.10546875 2.7109375,2.02734375 C2.75,1.98828125 2.7890625,1.98828125 2.828125,2.02734375 L2.828125,2.02734375 L50.171875,1.96875 C50.2109375,2.0078125 50.2695312,2.02734375 50.3476562,2.02734375 L50.3476562,2.02734375 L50.4648438,2.14453125 L50.5820312,2.3203125 C50.6210938,2.359375 50.640625,2.41796875 50.640625,2.49609375 L50.640625,2.49609375 L50.640625,33.3164062 C50.640625,33.4335938 50.6210938,33.5117188 50.5820312,33.5507812 L50.5820312,33.5507812 L50.4648438,33.6679688 C50.4179688,33.7148438 50.3851562,33.7476562 50.3664062,33.7664062 L50.3476562,33.7851562 C50.2695312,33.7851562 50.2109375,33.8046875 50.171875,33.84375 L50.171875,33.84375 Z M26.5,3.19921875 C26.578125,3.23828125 26.65625,3.21875 26.734375,3.140625 L26.734375,3.140625 L26.9101562,3.0234375 C26.9882812,3.0234375 27.0273438,2.984375 27.0273438,2.90625 L27.0273438,2.90625 L27.0273438,2.49609375 C26.9882812,2.45703125 26.9492188,2.3984375 26.9101562,2.3203125 C26.8710938,2.2421875 26.8125,2.203125 26.734375,2.203125 C26.6171875,2.203125 26.5390625,2.18359375 26.5,2.14453125 C26.4609375,2.18359375 26.4023438,2.203125 26.3242188,2.203125 C26.2851562,2.203125 26.2265625,2.2421875 26.1484375,2.3203125 C26.0703125,2.3984375 26.0214844,2.45703125 26.0019531,2.49609375 C25.9824219,2.53515625 25.9726562,2.61328125 25.9726562,2.73046875 C25.9726562,2.76953125 25.9824219,2.828125 26.0019531,2.90625 C26.0214844,2.984375 26.0703125,3.0234375 26.1484375,3.0234375 L26.1484375,3.0234375 L26.3242188,3.140625 C26.4023438,3.21875 26.4609375,3.23828125 26.5,3.19921875 Z M26.6171875,3.0234375 C26.578125,3.0625 26.5390625,3.0625 26.5,3.0234375 C26.4609375,3.0625 26.421875,3.0625 26.3828125,3.0234375 L26.3828125,3.0234375 L26.265625,2.90625 C26.2265625,2.90625 26.2070312,2.8671875 26.2070312,2.7890625 L26.2070312,2.7890625 L26.1484375,2.73046875 L26.265625,2.4375 C26.3046875,2.3984375 26.34375,2.37890625 26.3828125,2.37890625 C26.421875,2.37890625 26.4609375,2.359375 26.5,2.3203125 C26.5390625,2.359375 26.578125,2.37890625 26.6171875,2.37890625 C26.65625,2.37890625 26.6953125,2.3984375 26.734375,2.4375 L26.734375,2.4375 L26.8515625,2.5546875 L26.8515625,2.7890625 L26.8515625,2.7890625 L26.6171875,3.0234375 Z M4.17578125,32.2617188 L48.8242188,32.203125 C48.8632812,32.2421875 48.9023438,32.2421875 48.9414062,32.203125 C48.9414062,32.1640625 48.9609375,32.1445312 49,32.1445312 L49,32.1445312 L49,3.66796875 C48.9609375,3.66796875 48.9414062,3.6484375 48.9414062,3.609375 C48.9023438,3.5703125 48.8632812,3.5703125 48.8242188,3.609375 L48.8242188,3.609375 L4.17578125,3.55078125 L4.1171875,3.609375 C4.078125,3.609375 4.05859375,3.62890625 4.05859375,3.66796875 L4.05859375,3.66796875 L4,3.7265625 L4,32.0859375 C4,32.125 4.01953125,32.1445312 4.05859375,32.1445312 C4.05859375,32.1835938 4.078125,32.203125 4.1171875,32.203125 L4.1171875,32.203125 L4.17578125,32.2617188 Z M4.3515625,31.8515625 L4.3515625,3.9609375 L48.6484375,4.01953125 L48.6484375,31.7929688 L4.3515625,31.8515625 Z M26.5,37.2421875 C26.5390625,37.2421875 26.578125,37.2226562 26.6171875,37.1835938 C26.6953125,37.1835938 26.7734375,37.1445312 26.8515625,37.0664062 C26.890625,37.0664062 26.96875,37.0078125 27.0859375,36.890625 L27.0859375,36.890625 L27.1445312,36.65625 L27.1445312,36.4804688 C27.1054688,36.5195312 27.0859375,36.5195312 27.0859375,36.4804688 L27.0859375,36.4804688 L26.96875,36.4804688 L26.9101562,36.5390625 L26.8515625,36.5976562 C26.8125,36.5976562 26.7929688,36.6171875 26.7929688,36.65625 C26.7539062,36.6953125 26.734375,36.6953125 26.734375,36.65625 C26.65625,36.65625 26.6171875,36.7148438 26.6171875,36.8320312 C26.578125,36.8710938 26.5585938,36.9101562 26.5585938,36.9492188 C26.5195312,36.9492188 26.5,36.96875 26.5,37.0078125 L26.5,37.0078125 L26.5,37.2421875 Z M26.1484375,39.7617188 L26.2070312,39.703125 L26.265625,39.703125 C26.3046875,39.703125 26.34375,39.6835938 26.3828125,39.6445312 L26.3828125,39.6445312 L26.7929688,39.6445312 C26.7929688,39.6835938 26.8125,39.703125 26.8515625,39.703125 L26.8515625,39.703125 L26.96875,39.703125 C26.96875,39.7421875 26.9882812,39.7617188 27.0273438,39.7617188 L27.0273438,39.7617188 L27.203125,39.7617188 L27.3789062,39.6445312 L27.4960938,39.5273438 L27.6132812,39.4101562 L27.671875,39.3515625 L27.671875,39.3515625 L27.671875,39.234375 L27.7304688,39.1757812 L27.7890625,39.0585938 L27.7890625,39 C27.7890625,39 27.8085938,38.9609375 27.8476562,38.8828125 L27.8476562,38.8828125 L27.7890625,38.8242188 C27.75,38.8242188 27.7304688,38.8046875 27.7304688,38.765625 C27.6914062,38.765625 27.6523438,38.7460938 27.6132812,38.7070312 C27.5351562,38.7070312 27.4960938,38.6289062 27.4960938,38.4726562 C27.4570312,38.4335938 27.4375,38.3945312 27.4375,38.3554688 C27.3984375,38.3164062 27.3789062,38.2578125 27.3789062,38.1796875 C27.3789062,38.1015625 27.4179688,37.984375 27.4960938,37.828125 C27.5351562,37.7109375 27.6328125,37.6328125 27.7890625,37.59375 L27.7890625,37.59375 L27.671875,37.4179688 C27.6328125,37.4179688 27.59375,37.3984375 27.5546875,37.359375 C27.3984375,37.28125 27.2617188,37.2421875 27.1445312,37.2421875 L27.1445312,37.2421875 L26.9101562,37.2421875 C26.8710938,37.28125 26.8320312,37.3007812 26.7929688,37.3007812 C26.7539062,37.3398438 26.7148438,37.359375 26.6757812,37.359375 L26.6757812,37.359375 L26.6171875,37.359375 L26.5585938,37.4179688 L26.5,37.4179688 C26.4609375,37.4179688 26.4414062,37.3984375 26.4414062,37.359375 L26.4414062,37.359375 L26.3828125,37.359375 C26.34375,37.359375 26.3046875,37.3398438 26.265625,37.3007812 L26.265625,37.3007812 L26.2070312,37.3007812 C26.1679688,37.3007812 26.1484375,37.28125 26.1484375,37.2421875 L26.1484375,37.2421875 L25.8554688,37.2421875 L25.796875,37.3007812 L25.6796875,37.3007812 C25.640625,37.3398438 25.6015625,37.359375 25.5625,37.359375 C25.5625,37.3984375 25.5429688,37.4179688 25.5039062,37.4179688 C25.4257812,37.4960938 25.3867188,37.5546875 25.3867188,37.59375 C25.3476562,37.6328125 25.3085938,37.6523438 25.2695312,37.6523438 L25.2695312,37.6523438 L25.2109375,37.9453125 C25.171875,37.984375 25.1523438,38.0234375 25.1523438,38.0625 L25.1523438,38.0625 L25.1523438,38.3554688 C25.1523438,38.4335938 25.171875,38.4921875 25.2109375,38.53125 L25.2109375,38.53125 L25.2109375,38.6484375 C25.2109375,38.8046875 25.25,38.921875 25.328125,39 C25.328125,39.078125 25.3671875,39.15625 25.4453125,39.234375 C25.4453125,39.3515625 25.484375,39.4101562 25.5625,39.4101562 L25.5625,39.4101562 L25.6796875,39.5273438 C25.6796875,39.6054688 25.71875,39.6445312 25.796875,39.6445312 C25.8359375,39.6835938 25.875,39.703125 25.9140625,39.703125 C25.9140625,39.7421875 25.9335938,39.7617188 25.9726562,39.7617188 L25.9726562,39.7617188 L26.1484375,39.7617188 Z M36.4609375,50.484375 L16.5390625,50.4257812 L16.5390625,50.1914062 L17.7109375,50.1328125 C17.7109375,50.171875 17.7304688,50.171875 17.7695312,50.1328125 C17.7695312,50.171875 17.7890625,50.171875 17.828125,50.1328125 L17.828125,50.1328125 L19.7617188,48.6679688 C19.8789062,48.5898438 19.9960938,48.4824219 20.1132812,48.3457031 C20.2304688,48.2089844 20.3476562,48.0820312 20.4648438,47.9648438 C20.5429688,47.8476562 20.6113281,47.7011719 20.6699219,47.5253906 C20.7285156,47.3496094 20.7773438,47.1835938 20.8164062,47.0273438 L20.8164062,47.0273438 L21.9296875,42.1054688 L31.0703125,42.1054688 L32.1835938,46.96875 C32.2617188,47.203125 32.3203125,47.3789062 32.359375,47.4960938 L32.359375,47.4960938 L32.59375,47.9648438 C32.671875,48.1210938 32.7695312,48.2382812 32.8867188,48.3164062 C33.0429688,48.4726562 33.1601562,48.609375 33.2382812,48.7265625 L33.2382812,48.7265625 L35.171875,50.0742188 L35.171875,50.1328125 L35.2304688,50.1328125 L35.2890625,50.1914062 L36.4609375,50.1328125 L36.4609375,50.484375 Z" id="28" fill="currentColor" fill-rule="nonzero"></path>
    </g>
</svg>