<?xml version="1.0" encoding="UTF-8"?>
<svg width="57px" height="49px" viewBox="0 0 57 49" version="1.1" xmlns="http://www.w3.org/2000/svg" xmlns:xlink="http://www.w3.org/1999/xlink">
    <title>29</title>
    <g id="Page-1" stroke="none" stroke-width="1" fill="none" fill-rule="evenodd">
        <path d="M39.984375,48.8945312 C40.0234375,48.8554688 40.0625,48.8359375 40.1015625,48.8359375 L40.1015625,48.8359375 L40.1601562,48.71875 L40.1601562,47.8984375 L40.1015625,47.78125 C40.0625,47.8203125 40.0234375,47.8203125 39.984375,47.78125 L39.984375,47.78125 L37.6992188,47.8398438 L35.8242188,46.375 C35.6679688,46.296875 35.5703125,46.1992188 35.53125,46.0820312 C35.375,45.9257812 35.2773438,45.8085938 35.2382812,45.7304688 C35.1601562,45.6523438 35.0917969,45.5351562 35.0332031,45.3789062 C34.9746094,45.2226562 34.9257812,45.0859375 34.8867188,44.96875 L34.8867188,44.96875 L33.8320312,40.046875 L54.8085938,40.046875 C55.0429688,40.0859375 55.2480469,40.0566406 55.4238281,39.9589844 C55.5996094,39.8613281 55.765625,39.7539062 55.921875,39.6367188 C56.234375,39.3242188 56.390625,38.9726562 56.390625,38.5820312 L56.390625,38.5820312 L56.390625,2.078125 C56.390625,1.8828125 56.3417969,1.6875 56.2441406,1.4921875 C56.1464844,1.296875 56.0390625,1.12109375 55.921875,0.96484375 C55.765625,0.84765625 55.5996094,0.740234375 55.4238281,0.642578125 C55.2480469,0.544921875 55.0429688,0.515625 54.8085938,0.5546875 L54.8085938,0.5546875 L2.19140625,0.49609375 C1.95703125,0.53515625 1.75195312,0.57421875 1.57617188,0.61328125 C1.40039062,0.65234375 1.25390625,0.76953125 1.13671875,0.96484375 C0.98046875,1.16015625 0.853515625,1.3359375 0.755859375,1.4921875 C0.658203125,1.6484375 0.609375,1.86328125 0.609375,2.13671875 L0.609375,2.13671875 L0.609375,38.5234375 C0.609375,38.9140625 0.78515625,39.2851562 1.13671875,39.6367188 C1.33203125,39.8710938 1.68359375,40.0273438 2.19140625,40.1054688 L2.19140625,40.1054688 L23.1679688,40.1054688 L22.1132812,44.96875 C22.0742188,45.0859375 22.0253906,45.2226562 21.9667969,45.3789062 C21.9082031,45.5351562 21.8398438,45.6523438 21.7617188,45.7304688 L21.7617188,45.7304688 L21.5273438,46.0820312 C21.4492188,46.1992188 21.3320312,46.296875 21.1757812,46.375 L21.1757812,46.375 L19.2421875,47.8398438 L17.015625,47.78125 C16.9765625,47.8203125 16.9570312,47.8203125 16.9570312,47.78125 C16.9179688,47.78125 16.8984375,47.8007812 16.8984375,47.8398438 L16.8984375,47.8398438 L16.8398438,47.8984375 L16.8398438,48.71875 C16.8398438,48.7578125 16.859375,48.7773438 16.8984375,48.7773438 C16.8984375,48.8164062 16.9179688,48.8359375 16.9570312,48.8359375 L16.9570312,48.8359375 L17.015625,48.8945312 L39.984375,48.8359375 L39.984375,48.8945312 Z M55.9804688,32.3125 L1.01953125,32.2539062 L1.01953125,2.078125 C1.01953125,1.6875 1.13671875,1.4140625 1.37109375,1.2578125 C1.64453125,0.984375 1.91796875,0.88671875 2.19140625,0.96484375 L2.19140625,0.96484375 L54.8085938,0.90625 L55.2773438,1.0234375 C55.4726562,1.0625 55.609375,1.140625 55.6875,1.2578125 C55.765625,1.375 55.8339844,1.4921875 55.8925781,1.609375 C55.9511719,1.7265625 55.9804688,1.90234375 55.9804688,2.13671875 L55.9804688,2.13671875 L55.9804688,32.3125 Z M28.5,2.4296875 C28.5390625,2.390625 28.578125,2.37109375 28.6171875,2.37109375 C28.6171875,2.37109375 28.61875,2.36953125 28.621875,2.36640625 L28.659375,2.32890625 C28.678125,2.31015625 28.703125,2.28515625 28.734375,2.25390625 L28.734375,2.25390625 L28.8515625,2.13671875 L28.8515625,1.90234375 L28.734375,1.78515625 C28.6953125,1.78515625 28.65625,1.765625 28.6171875,1.7265625 C28.578125,1.6875 28.5390625,1.6875 28.5,1.7265625 C28.4609375,1.6875 28.421875,1.6875 28.3828125,1.7265625 C28.34375,1.765625 28.3046875,1.78515625 28.265625,1.78515625 C28.2265625,1.82421875 28.2070312,1.86328125 28.2070312,1.90234375 C28.1679688,1.94140625 28.1484375,1.98046875 28.1484375,2.01953125 C28.1484375,2.09765625 28.1679688,2.13671875 28.2070312,2.13671875 C28.2070312,2.17578125 28.2265625,2.21484375 28.265625,2.25390625 C28.296875,2.28515625 28.321875,2.31015625 28.340625,2.32890625 L28.378125,2.36640625 L28.378125,2.36640625 C28.4203125,2.36953125 28.4609375,2.390625 28.5,2.4296875 Z M3.24609375,30.4375 L53.7539062,30.3789062 C53.7929688,30.4179688 53.8320312,30.4179688 53.8710938,30.3789062 C53.8710938,30.3398438 53.890625,30.3203125 53.9296875,30.3203125 L53.9296875,30.3203125 L53.9296875,3.30859375 C53.890625,3.30859375 53.8710938,3.2890625 53.8710938,3.25 C53.8320312,3.2109375 53.7929688,3.2109375 53.7539062,3.25 L53.7539062,3.25 L3.24609375,3.19140625 L3.1875,3.25 C3.1484375,3.25 3.12890625,3.26953125 3.12890625,3.30859375 L3.12890625,3.30859375 L3.0703125,3.3671875 L3.0703125,30.2617188 C3.0703125,30.3007812 3.08984375,30.3203125 3.12890625,30.3203125 C3.12890625,30.359375 3.1484375,30.3789062 3.1875,30.3789062 L3.1875,30.3789062 L3.24609375,30.4375 Z M3.421875,30.0273438 L3.421875,3.6015625 L53.578125,3.66015625 L53.578125,29.96875 L3.421875,30.0273438 Z M54.8085938,39.6953125 L33.5390625,39.6953125 L23.4609375,39.6367188 L2.19140625,39.6367188 C2.03515625,39.6757812 1.87890625,39.65625 1.72265625,39.578125 C1.56640625,39.5 1.44921875,39.421875 1.37109375,39.34375 C1.13671875,39.1484375 1.01953125,38.8945312 1.01953125,38.5820312 L1.01953125,38.5820312 L1.01953125,32.6054688 L55.9804688,32.6640625 L55.9804688,38.5234375 C55.9804688,38.7578125 55.9609375,38.9140625 55.921875,38.9921875 C55.84375,39.109375 55.7558594,39.2265625 55.6582031,39.34375 C55.5605469,39.4609375 55.4335938,39.5390625 55.2773438,39.578125 L55.2773438,39.578125 L54.8085938,39.6953125 Z M28.5,35.2421875 C28.5390625,35.2421875 28.578125,35.2226562 28.6171875,35.1835938 C28.6953125,35.1835938 28.7734375,35.1445312 28.8515625,35.0664062 C28.890625,35.0664062 28.96875,35.0078125 29.0859375,34.890625 L29.0859375,34.890625 L29.1445312,34.65625 L29.1445312,34.4804688 C29.1054688,34.5195312 29.0859375,34.5195312 29.0859375,34.4804688 L29.0859375,34.4804688 L28.96875,34.4804688 L28.9101562,34.5390625 L28.8515625,34.5976562 C28.8125,34.5976562 28.7929688,34.6171875 28.7929688,34.65625 C28.7539062,34.6953125 28.734375,34.6953125 28.734375,34.65625 C28.65625,34.65625 28.6171875,34.7148438 28.6171875,34.8320312 C28.578125,34.8710938 28.5585938,34.9101562 28.5585938,34.9492188 C28.5195312,34.9492188 28.5,34.96875 28.5,35.0078125 L28.5,35.0078125 L28.5,35.2421875 Z M28.1484375,37.7617188 L28.2070312,37.703125 L28.265625,37.703125 C28.3046875,37.703125 28.34375,37.6835938 28.3828125,37.6445312 L28.3828125,37.6445312 L28.7929688,37.6445312 C28.7929688,37.6835938 28.8125,37.703125 28.8515625,37.703125 L28.8515625,37.703125 L28.96875,37.703125 C28.96875,37.7421875 28.9882812,37.7617188 29.0273438,37.7617188 L29.0273438,37.7617188 L29.203125,37.7617188 L29.3789062,37.6445312 L29.4960938,37.5273438 L29.6132812,37.4101562 L29.671875,37.3515625 L29.671875,37.3515625 L29.671875,37.234375 L29.7304688,37.1757812 L29.7890625,37.0585938 L29.7890625,37 C29.7890625,37 29.8085938,36.9609375 29.8476562,36.8828125 L29.8476562,36.8828125 L29.7890625,36.8242188 C29.75,36.8242188 29.7304688,36.8046875 29.7304688,36.765625 C29.6914062,36.765625 29.6523438,36.7460938 29.6132812,36.7070312 C29.5351562,36.7070312 29.4960938,36.6289062 29.4960938,36.4726562 C29.4570312,36.4335938 29.4375,36.3945312 29.4375,36.3554688 C29.3984375,36.3164062 29.3789062,36.2578125 29.3789062,36.1796875 C29.3789062,36.1015625 29.4179688,35.984375 29.4960938,35.828125 C29.5351562,35.7109375 29.6328125,35.6328125 29.7890625,35.59375 L29.7890625,35.59375 L29.671875,35.4179688 C29.6328125,35.4179688 29.59375,35.3984375 29.5546875,35.359375 C29.3984375,35.28125 29.2617188,35.2421875 29.1445312,35.2421875 L29.1445312,35.2421875 L28.9101562,35.2421875 C28.8710938,35.28125 28.8320312,35.3007812 28.7929688,35.3007812 C28.7539062,35.3398438 28.7148438,35.359375 28.6757812,35.359375 L28.6757812,35.359375 L28.6171875,35.359375 L28.5585938,35.4179688 L28.5,35.4179688 C28.4609375,35.4179688 28.4414062,35.3984375 28.4414062,35.359375 L28.4414062,35.359375 L28.3828125,35.359375 C28.34375,35.359375 28.3046875,35.3398438 28.265625,35.3007812 L28.265625,35.3007812 L28.2070312,35.3007812 C28.1679688,35.3007812 28.1484375,35.28125 28.1484375,35.2421875 L28.1484375,35.2421875 L27.8554688,35.2421875 L27.796875,35.3007812 L27.6796875,35.3007812 C27.640625,35.3398438 27.6015625,35.359375 27.5625,35.359375 C27.5625,35.3984375 27.5429688,35.4179688 27.5039062,35.4179688 C27.4257812,35.4960938 27.3867188,35.5546875 27.3867188,35.59375 C27.3476562,35.6328125 27.3085938,35.6523438 27.2695312,35.6523438 L27.2695312,35.6523438 L27.2109375,35.9453125 C27.171875,35.984375 27.1523438,36.0234375 27.1523438,36.0625 L27.1523438,36.0625 L27.1523438,36.3554688 C27.1523438,36.4335938 27.171875,36.4921875 27.2109375,36.53125 L27.2109375,36.53125 L27.2109375,36.6484375 C27.2109375,36.7265625 27.2304688,36.7851562 27.2695312,36.8242188 C27.2695312,36.9414062 27.3085938,37.0390625 27.3867188,37.1171875 C27.3867188,37.1953125 27.4257812,37.2734375 27.5039062,37.3515625 C27.5820312,37.4296875 27.640625,37.46875 27.6796875,37.46875 L27.6796875,37.46875 L27.6796875,37.5273438 C27.6796875,37.6054688 27.71875,37.6445312 27.796875,37.6445312 C27.8359375,37.6835938 27.875,37.703125 27.9140625,37.703125 C27.9140625,37.7421875 27.9335938,37.7617188 27.9726562,37.7617188 L27.9726562,37.7617188 L28.1484375,37.7617188 Z M39.8085938,48.484375 L17.1914062,48.4257812 L17.1914062,48.1914062 L19.3007812,48.1328125 C19.3007812,48.171875 19.3203125,48.171875 19.359375,48.1328125 C19.359375,48.171875 19.3789062,48.171875 19.4179688,48.1328125 L19.4179688,48.1328125 L21.4101562,46.6679688 C21.5273438,46.5898438 21.6445312,46.4824219 21.7617188,46.3457031 C21.8789062,46.2089844 21.9960938,46.0820312 22.1132812,45.9648438 C22.1914062,45.8476562 22.2597656,45.7011719 22.3183594,45.5253906 C22.3769531,45.3496094 22.4257812,45.1835938 22.4648438,45.0273438 L22.4648438,45.0273438 L23.578125,40.1054688 L33.421875,40.1054688 L34.5351562,44.96875 C34.6132812,45.203125 34.671875,45.3789062 34.7109375,45.4960938 C34.7890625,45.6523438 34.8671875,45.8085938 34.9453125,45.9648438 C35.0234375,46.1210938 35.1210938,46.2382812 35.2382812,46.3164062 C35.3945312,46.4726562 35.5117188,46.609375 35.5898438,46.7265625 L35.5898438,46.7265625 L37.5234375,48.0742188 L37.5234375,48.1328125 L37.5820312,48.1328125 L37.640625,48.1914062 L39.8085938,48.1328125 L39.8085938,48.484375 Z" id="29" fill="currentColor" fill-rule="nonzero"></path>
    </g>
</svg>