<?xml version="1.0" encoding="UTF-8"?>
<svg width="41px" height="27px" viewBox="0 0 41 27" version="1.1" xmlns="http://www.w3.org/2000/svg" xmlns:xlink="http://www.w3.org/1999/xlink">
    <title>65</title>
    <g id="Page-1" stroke="none" stroke-width="1" fill="none" fill-rule="evenodd">
        <path d="M40.0703125,26.8359375 C40.265625,26.8359375 40.4609375,26.7382812 40.65625,26.5429688 C40.8515625,26.3476562 40.9492188,26.1523438 40.9492188,25.9570312 L40.9492188,25.9570312 L40.9492188,24.84375 L40.8320312,24.7851562 L40.8320312,24.7265625 L40.7734375,24.7265625 L37.7851562,22.9101562 L37.7851562,0.87890625 C37.7851562,0.64453125 37.7070312,0.44921875 37.5507812,0.29296875 C37.3945312,0.13671875 37.1992188,0.05859375 36.9648438,0.05859375 L36.9648438,0.05859375 L4.03515625,0.05859375 C3.80078125,0.05859375 3.60546875,0.13671875 3.44921875,0.29296875 C3.29296875,0.44921875 3.21484375,0.64453125 3.21484375,0.87890625 L3.21484375,0.87890625 L3.21484375,22.9101562 L0.28515625,24.7265625 L0.2265625,24.7265625 L0.16796875,24.7851562 C0.12890625,24.7851562 0.08984375,24.8046875 0.05078125,24.84375 L0.05078125,24.84375 L0.05078125,25.9570312 C0.05078125,26.1523438 0.1484375,26.3476562 0.34375,26.5429688 C0.5390625,26.7382812 0.734375,26.8359375 0.9296875,26.8359375 L0.9296875,26.8359375 L40.0703125,26.8359375 Z M37.4335938,22.8515625 L3.625,22.8515625 L3.625,0.87890625 C3.625,0.80078125 3.6640625,0.68359375 3.7421875,0.52734375 C3.78125,0.44921875 3.87890625,0.41015625 4.03515625,0.41015625 L4.03515625,0.41015625 L36.9648438,0.41015625 C37.1601562,0.41015625 37.2773438,0.44921875 37.3164062,0.52734375 C37.3945312,0.68359375 37.4335938,0.80078125 37.4335938,0.87890625 L37.4335938,0.87890625 L37.4335938,22.8515625 Z M20.5,1.5234375 C20.578125,1.5234375 20.65625,1.484375 20.734375,1.40625 C20.8125,1.328125 20.8515625,1.25 20.8515625,1.171875 C20.8515625,1.09375 20.8125,1.015625 20.734375,0.9375 C20.6953125,0.9375 20.65625,0.91796875 20.6171875,0.87890625 L20.6171875,0.87890625 L20.3828125,0.87890625 L20.3242188,0.9375 C20.2460938,1.015625 20.2070312,1.09375 20.2070312,1.171875 C20.2070312,1.2109375 20.2265625,1.25 20.265625,1.2890625 C20.265625,1.328125 20.2851562,1.3671875 20.3242188,1.40625 C20.3242188,1.484375 20.3828125,1.5234375 20.5,1.5234375 Z M36.3203125,21.9726562 C36.359375,21.9726562 36.3984375,21.953125 36.4375,21.9140625 L36.4375,21.9140625 L36.5546875,21.796875 L36.5546875,1.9921875 C36.515625,1.9921875 36.4960938,1.97265625 36.4960938,1.93359375 C36.4570312,1.93359375 36.4277344,1.92382812 36.4082031,1.90429688 C36.3886719,1.88476562 36.359375,1.875 36.3203125,1.875 L36.3203125,1.875 L4.62109375,1.875 L4.50390625,1.9921875 L4.50390625,21.796875 C4.50390625,21.8359375 4.5234375,21.8554688 4.5625,21.8554688 C4.5625,21.9335938 4.6015625,21.9726562 4.6796875,21.9726562 L4.6796875,21.9726562 L36.3203125,21.9726562 Z M36.1445312,21.5625 L4.85546875,21.5625 L4.85546875,2.28515625 L36.1445312,2.28515625 L36.1445312,21.5625 Z M22.1992188,25.4296875 L18.8007812,25.4296875 C18.6445312,25.4296875 18.5273438,25.3710938 18.4492188,25.2539062 C18.3710938,25.0976562 18.3320312,25 18.3320312,24.9609375 L18.3320312,24.9609375 L18.3320312,24.84375 C18.2929688,24.84375 18.2734375,24.8242188 18.2734375,24.7851562 L18.2734375,24.7851562 L18.15625,24.7265625 L0.9296875,24.7265625 L3.44921875,23.203125 L37.5507812,23.203125 L40.0703125,24.7265625 L22.84375,24.7265625 L22.7265625,24.7851562 L22.7265625,24.84375 C22.6875,24.8828125 22.6679688,24.921875 22.6679688,24.9609375 C22.6679688,25 22.6289063,25.0976562 22.5507812,25.2539062 C22.5117188,25.3710938 22.3945312,25.4296875 22.1992188,25.4296875 L22.1992188,25.4296875 Z M40.0703125,26.4257812 L0.9296875,26.4257812 C0.7734375,26.4257812 0.65625,26.3867188 0.578125,26.3085938 C0.5,26.2304688 0.4609375,26.1132812 0.4609375,25.9570312 L0.4609375,25.9570312 L0.4609375,25.1367188 L17.9804688,25.1367188 C17.9804688,25.2539062 18.078125,25.4101562 18.2734375,25.6054688 C18.390625,25.7226562 18.5664062,25.78125 18.8007812,25.78125 L18.8007812,25.78125 L22.1992188,25.78125 C22.4335938,25.78125 22.609375,25.7226562 22.7265625,25.6054688 C22.921875,25.4101562 23.0195312,25.2539062 23.0195312,25.1367188 L23.0195312,25.1367188 L40.5390625,25.1367188 L40.5390625,25.9570312 C40.5390625,26.1132812 40.5,26.2304688 40.421875,26.3085938 C40.34375,26.3867188 40.2265625,26.4257812 40.0703125,26.4257812 L40.0703125,26.4257812 Z M39.8359375,25.78125 L39.8945312,25.7226562 C39.8945312,25.7226562 39.9140625,25.6835938 39.953125,25.6054688 L39.953125,25.6054688 L39.953125,25.4882812 C39.9140625,25.4882812 39.875,25.46875 39.8359375,25.4296875 L39.8359375,25.4296875 L38.2539062,25.4296875 L38.2539062,25.4882812 C38.2148438,25.5273438 38.1953125,25.5664062 38.1953125,25.6054688 C38.1953125,25.6445312 38.2148438,25.6640625 38.2539062,25.6640625 L38.2539062,25.6640625 L38.2539062,25.7226562 C38.2539062,25.7617188 38.2734375,25.78125 38.3125,25.78125 L38.3125,25.78125 L39.8359375,25.78125 Z" id="65" fill="currentColor" fill-rule="nonzero"></path>
    </g>
</svg>