<?xml version="1.0" encoding="UTF-8"?>
<svg width="43px" height="41px" viewBox="0 0 43 41" version="1.1" xmlns="http://www.w3.org/2000/svg" xmlns:xlink="http://www.w3.org/1999/xlink">
    <title>19</title>
    <g id="Page-1" stroke="none" stroke-width="1" fill="none" fill-rule="evenodd">
        <path d="M41.0117188,40.8359375 C41.4023438,40.8359375 41.7539062,40.6796875 42.0664062,40.3671875 C42.3007812,40.1328125 42.4179688,39.8203125 42.4179688,39.4296875 C42.4179688,39 42.3007812,38.6484375 42.0664062,38.375 C41.7929688,38.140625 41.4414062,38.0234375 41.0117188,38.0234375 L41.0117188,38.0234375 L39.078125,38.0234375 L39.078125,35.9140625 L42.359375,35.9140625 L42.359375,35.9140625 L42.392334,35.8481445 L42.392334,35.8481445 L42.4179688,35.796875 L42.4179688,0.23046875 L42.359375,0.171875 L0.69921875,0.171875 C0.66015625,0.171875 0.62109375,0.19140625 0.58203125,0.23046875 L0.58203125,0.23046875 L0.58203125,35.796875 C0.58203125,35.875 0.62109375,35.9140625 0.69921875,35.9140625 L0.69921875,35.9140625 L3.921875,35.9140625 L3.921875,38.0234375 L1.98828125,38.0234375 C1.55859375,38.0234375 1.2265625,38.140625 0.9921875,38.375 C0.71875,38.6484375 0.58203125,39 0.58203125,39.4296875 C0.58203125,39.8203125 0.71875,40.1328125 0.9921875,40.3671875 C1.2265625,40.6796875 1.55859375,40.8359375 1.98828125,40.8359375 L1.98828125,40.8359375 L41.0117188,40.8359375 Z M7.90625,35.5625 L0.93359375,35.5625 L0.93359375,0.5234375 L7.90625,0.5234375 L7.90625,35.5625 Z M34.7421875,1.34375 L8.2578125,1.34375 L8.2578125,0.5234375 L34.7421875,0.5234375 L34.7421875,1.34375 Z M42.0664062,35.5625 L35.09375,35.5625 L35.09375,0.5234375 L42.0664062,0.5234375 L42.0664062,35.5625 Z M9.078125,34.625 L8.2578125,34.625 L8.2578125,1.75390625 L34.7421875,1.75390625 L34.7421875,34.625 L33.921875,34.625 L33.921875,2.69140625 C33.8828125,2.69140625 33.8632812,2.671875 33.8632812,2.6328125 C33.8242188,2.6328125 33.7949219,2.62304688 33.7753906,2.60351562 L33.7526042,2.58723958 C33.7352431,2.57855903 33.7135417,2.57421875 33.6875,2.57421875 L33.6875,2.57421875 L9.25390625,2.57421875 L9.078125,2.75 L9.078125,34.625 Z M33.5117188,19.6835938 L9.48828125,19.6835938 L9.48828125,2.984375 L33.5117188,2.984375 L33.5117188,19.6835938 Z M14,35.5625 L9.48828125,35.5625 L9.48828125,20.0351562 L14,20.0351562 L14,35.5625 Z M28.6484375,22.1445312 L14.3515625,22.1445312 L14.3515625,20.0351562 L28.6484375,20.0351562 L28.6484375,22.1445312 Z M33.5117188,35.5625 L29,35.5625 L29,20.0351562 L33.5117188,20.0351562 L33.5117188,35.5625 Z M28.6484375,35.5625 L14.3515625,35.5625 L14.3515625,22.4960938 L28.6484375,22.4960938 L28.6484375,35.5625 Z M21.5,28.765625 C21.6953125,28.765625 21.890625,28.6679688 22.0859375,28.4726562 C22.28125,28.2773438 22.3789062,28.0820312 22.3789062,27.8867188 C22.3789062,27.6523438 22.28125,27.4375 22.0859375,27.2421875 C21.9296875,27.0859375 21.734375,27.0078125 21.5,27.0078125 C21.265625,27.0078125 21.0703125,27.0859375 20.9140625,27.2421875 C20.71875,27.4375 20.6210938,27.6523438 20.6210938,27.8867188 C20.6210938,28.0820312 20.71875,28.2773438 20.9140625,28.4726562 C21.109375,28.6679688 21.3046875,28.765625 21.5,28.765625 Z M21.5,28.3554688 C21.34375,28.3554688 21.2265625,28.3164062 21.1484375,28.2382812 C21.0703125,28.1601562 21.03125,28.0429688 21.03125,27.8867188 C21.03125,27.7304688 21.0703125,27.6132812 21.1484375,27.5351562 C21.2265625,27.4570312 21.34375,27.4179688 21.5,27.4179688 C21.65625,27.4179688 21.7734375,27.4570312 21.8515625,27.5351562 C21.9296875,27.6132812 21.96875,27.7304688 21.96875,27.8867188 C21.96875,28.0429688 21.9296875,28.1601562 21.8515625,28.2382812 C21.7734375,28.3164062 21.65625,28.3554688 21.5,28.3554688 Z M36.8515625,38.0234375 L6.1484375,38.0234375 L6.1484375,35.9140625 L8.140625,35.9140625 C8.1796875,35.9140625 8.19921875,35.8945312 8.19921875,35.8554688 L8.19921875,35.8554688 L8.2578125,35.796875 L8.2578125,35.0351562 L9.078125,35.0351562 L9.078125,35.7382812 C9.078125,35.7773438 9.09765625,35.796875 9.13671875,35.796875 C9.13671875,35.875 9.17578125,35.9140625 9.25390625,35.9140625 L9.25390625,35.9140625 L33.8046875,35.9140625 L33.8632812,35.8554688 C33.8632812,35.8554688 33.8828125,35.8164062 33.921875,35.7382812 L33.921875,35.7382812 L33.921875,35.0351562 L34.7421875,35.0351562 L34.7421875,35.7382812 C34.7421875,35.7773438 34.7617188,35.796875 34.8007812,35.796875 L34.8007812,35.796875 L34.8007812,35.8554688 C34.8007812,35.8945312 34.8203125,35.9140625 34.859375,35.9140625 L34.859375,35.9140625 L36.8515625,35.9140625 L36.8515625,38.0234375 Z M41.0117188,40.4257812 L1.98828125,40.4257812 C1.71484375,40.4257812 1.48046875,40.328125 1.28515625,40.1328125 C1.05078125,39.9375 0.93359375,39.703125 0.93359375,39.4296875 C0.93359375,39.078125 1.05078125,38.8242188 1.28515625,38.6679688 C1.48046875,38.4726562 1.71484375,38.375 1.98828125,38.375 L1.98828125,38.375 L3.921875,38.375 L3.921875,38.84375 C3.921875,38.921875 3.9609375,38.9609375 4.0390625,38.9609375 L4.0390625,38.9609375 L4.21484375,38.9609375 C4.21484375,38.9609375 4.21606445,38.9584961 4.21850586,38.9536133 L4.2734375,38.84375 L4.2734375,35.9140625 L5.73828125,35.9140625 L5.73828125,38.7851562 C5.73828125,38.8242188 5.7578125,38.84375 5.796875,38.84375 L5.796875,38.84375 L5.796875,38.9023438 C5.796875,38.9414062 5.81640625,38.9609375 5.85546875,38.9609375 L5.85546875,38.9609375 L6.03125,38.9609375 L6.08984375,38.9023438 C6.08984375,38.9023438 6.109375,38.8632812 6.1484375,38.7851562 L6.1484375,38.7851562 L6.1484375,38.375 L36.8515625,38.375 L36.8515625,38.7851562 C36.8515625,38.8242188 36.8710938,38.84375 36.9101562,38.84375 C36.9101562,38.921875 36.9492188,38.9609375 37.0273438,38.9609375 L37.0273438,38.9609375 L37.1445312,38.9609375 C37.1835938,38.9609375 37.203125,38.9414062 37.203125,38.9023438 L37.203125,38.9023438 L37.2617188,38.84375 L37.2617188,35.9140625 L38.7265625,35.9140625 L38.7265625,38.84375 C38.7265625,38.921875 38.765625,38.9609375 38.84375,38.9609375 L38.84375,38.9609375 L39.0195312,38.9609375 C39.0195312,38.9609375 39.020752,38.9584961 39.0231934,38.9536133 L39.078125,38.84375 L39.078125,38.375 L41.0117188,38.375 C41.2460938,38.375 41.5,38.4726562 41.7734375,38.6679688 C41.96875,38.8632812 42.0664062,39.1171875 42.0664062,39.4296875 C42.0664062,39.703125 41.96875,39.9375 41.7734375,40.1328125 C41.5,40.328125 41.2460938,40.4257812 41.0117188,40.4257812 L41.0117188,40.4257812 Z" id="19" fill="currentColor" fill-rule="nonzero"></path>
    </g>
</svg>