<?xml version="1.0" encoding="UTF-8"?>
<svg width="35px" height="33px" viewBox="0 0 35 33" version="1.1" xmlns="http://www.w3.org/2000/svg" xmlns:xlink="http://www.w3.org/1999/xlink">
    <title>12</title>
    <g id="Page-1" stroke="none" stroke-width="1" fill="none" fill-rule="evenodd">
        <path d="M31.796875,23.6367188 C31.796875,23.6367188 31.8164062,23.5976562 31.8554688,23.5195312 L31.8554688,23.5195312 L31.8554688,0.375 C31.8164062,0.375 31.7871094,0.365234375 31.7675781,0.345703125 L31.7447917,0.329427083 C31.7274306,0.320746528 31.7057292,0.31640625 31.6796875,0.31640625 L31.6796875,0.31640625 L3.26171875,0.31640625 L3.14453125,0.43359375 L3.14453125,23.5195312 L3.3203125,23.6367188 L31.796875,23.6367188 Z M31.5039062,23.2851562 L3.49609375,23.2851562 L3.49609375,0.7265625 L31.5039062,0.7265625 L31.5039062,23.2851562 Z M29.1015625,20.9414062 C29.1015625,20.9414062 29.1210938,20.9023438 29.1601562,20.8242188 L29.1601562,20.8242188 L29.1601562,3.0703125 C29.1210938,3.0703125 29.0917969,3.06054688 29.0722656,3.04101562 C29.0527344,3.02148438 29.0234375,3.01171875 28.984375,3.01171875 L28.984375,3.01171875 L5.95703125,3.01171875 L5.83984375,3.12890625 L5.83984375,20.8242188 C5.83984375,20.9023438 5.87890625,20.9414062 5.95703125,20.9414062 L5.95703125,20.9414062 L29.1015625,20.9414062 Z M28.8085938,20.5898438 L6.19140625,20.5898438 L6.19140625,3.421875 L28.8085938,3.421875 L28.8085938,20.5898438 Z M33.671875,32.8359375 C33.7109375,32.8359375 33.7695312,32.796875 33.8476562,32.71875 C33.8476562,32.71875 33.8671875,32.6796875 33.90625,32.6015625 L33.90625,32.6015625 L33.90625,31.78125 L34.375,31.78125 C34.4140625,31.78125 34.453125,31.7617188 34.4921875,31.7226562 C34.4921875,31.7226562 34.5117188,31.6835938 34.5507812,31.6054688 L34.5507812,31.6054688 L34.5507812,24.6914062 C34.5117188,24.6914062 34.4921875,24.671875 34.4921875,24.6328125 L34.4921875,24.6328125 L0.56640625,24.6328125 L0.5078125,24.6914062 C0.46875,24.6914062 0.44921875,24.7109375 0.44921875,24.75 L0.44921875,24.75 L0.44921875,31.6054688 C0.44921875,31.6445312 0.46875,31.6640625 0.5078125,31.6640625 C0.5078125,31.7421875 0.546875,31.78125 0.625,31.78125 L0.625,31.78125 L1.09375,31.78125 L1.09375,32.6015625 C1.09375,32.6796875 1.1328125,32.71875 1.2109375,32.71875 C1.2109375,32.796875 1.25,32.8359375 1.328125,32.8359375 L1.328125,32.8359375 L33.671875,32.8359375 Z M10.5859375,31.3710938 L0.80078125,31.3710938 L0.80078125,24.984375 L10.5859375,24.984375 L10.5859375,31.3710938 Z M24.0625,31.3710938 L10.9375,31.3710938 L10.9375,24.984375 L24.0625,24.984375 L24.0625,31.3710938 Z M31.6796875,31.8984375 C31.484375,31.8984375 31.2695312,31.8203125 31.0351562,31.6640625 L31.0351562,31.6640625 L30.859375,31.546875 L30.859375,31.546875 L30.784375,31.471875 C30.75625,31.44375 30.7421875,31.4296875 30.7421875,31.4296875 C30.703125,31.4296875 30.6835938,31.4101562 30.6835938,31.3710938 L30.6835938,31.3710938 L24.4140625,31.3710938 L24.4140625,24.984375 L34.1992188,24.984375 L34.1992188,31.3710938 L32.6757812,31.3710938 L32.6757812,31.4296875 L32.6171875,31.4296875 L32.3828125,31.6640625 C32.34375,31.703125 32.3046875,31.7226562 32.265625,31.7226562 C32.2265625,31.7226562 32.1679688,31.7421875 32.0898438,31.78125 C31.9335938,31.859375 31.796875,31.8984375 31.6796875,31.8984375 Z M23.3007812,29.0859375 C23.3398438,29.0859375 23.3789062,29.0664062 23.4179688,29.0273438 C23.4179688,29.0273438 23.4375,28.9882812 23.4765625,28.9101562 L23.4765625,28.9101562 L23.4765625,27.3867188 C23.4375,27.3867188 23.4082031,27.3769531 23.3886719,27.3574219 L23.3658854,27.3411458 C23.3485243,27.3324653 23.3268229,27.328125 23.3007812,27.328125 L23.3007812,27.328125 L11.640625,27.328125 L11.5234375,27.4453125 L11.5234375,28.9101562 C11.5234375,28.9492188 11.5429688,28.96875 11.5820312,28.96875 C11.5820312,29.046875 11.6210938,29.0859375 11.6992188,29.0859375 L11.6992188,29.0859375 L23.3007812,29.0859375 Z M33.5546875,29.0859375 C33.59375,29.0859375 33.6328125,29.0664062 33.671875,29.0273438 C33.671875,29.0273438 33.6914062,28.9882812 33.7304688,28.9101562 L33.7304688,28.9101562 L33.7304688,27.3867188 C33.6914062,27.3867188 33.6621094,27.3769531 33.6425781,27.3574219 L33.6197917,27.3411458 C33.6024306,27.3324653 33.5807292,27.328125 33.5546875,27.328125 L33.5546875,27.328125 L25,27.328125 L24.8828125,27.4453125 L24.8828125,28.9101562 C24.8828125,28.9492188 24.9023438,28.96875 24.9414062,28.96875 C24.9414062,29.046875 24.9804688,29.0859375 25.0585938,29.0859375 L25.0585938,29.0859375 L33.5546875,29.0859375 Z M5.6640625,29.203125 C5.8984375,29.203125 6.09375,29.125 6.25,28.96875 C6.4453125,28.7734375 6.54296875,28.578125 6.54296875,28.3828125 C6.54296875,28.1484375 6.4453125,27.9335938 6.25,27.7382812 C6.09375,27.5820312 5.8984375,27.5039062 5.6640625,27.5039062 C5.4296875,27.5039062 5.234375,27.5820312 5.078125,27.7382812 C4.8828125,27.9335938 4.78515625,28.1484375 4.78515625,28.3828125 C4.78515625,28.578125 4.8828125,28.7734375 5.078125,28.96875 C5.234375,29.125 5.4296875,29.203125 5.6640625,29.203125 Z M23.125,28.6757812 L11.875,28.6757812 L11.875,27.7382812 L23.125,27.7382812 L23.125,28.6757812 Z M33.3789062,28.6757812 L25.234375,28.6757812 L25.234375,27.7382812 L33.3789062,27.7382812 L33.3789062,28.6757812 Z M5.6640625,28.8515625 C5.5078125,28.8515625 5.390625,28.8125 5.3125,28.734375 C5.234375,28.65625 5.1953125,28.5390625 5.1953125,28.3828125 C5.1953125,28.2265625 5.234375,28.109375 5.3125,28.03125 C5.4296875,27.9140625 5.546875,27.8554688 5.6640625,27.8554688 C5.78125,27.8554688 5.8984375,27.9140625 6.015625,28.03125 C6.09375,28.109375 6.1328125,28.2265625 6.1328125,28.3828125 C6.1328125,28.5390625 6.09375,28.65625 6.015625,28.734375 C5.9375,28.8125 5.8203125,28.8515625 5.6640625,28.8515625 Z M31.6796875,31.6640625 C31.796875,31.6640625 31.9042969,31.6347656 32.0019531,31.5761719 C32.0996094,31.5175781 32.1875,31.4492188 32.265625,31.3710938 C32.3828125,31.2539062 32.4414062,31.078125 32.4414062,30.84375 C32.4414062,30.6484375 32.3828125,30.4726562 32.265625,30.3164062 C32.1484375,30.1601562 31.953125,30.0820312 31.6796875,30.0820312 C31.4453125,30.0820312 31.2695312,30.1601562 31.1523438,30.3164062 C31.0742188,30.3945312 31.015625,30.4726562 30.9765625,30.5507812 C30.9375,30.6289062 30.9179688,30.7265625 30.9179688,30.84375 C30.9179688,31.0390625 30.9960938,31.2148438 31.1523438,31.3710938 C31.3476562,31.5664062 31.5234375,31.6640625 31.6796875,31.6640625 Z M31.6796875,31.2539062 C31.5625,31.2539062 31.4648438,31.2148438 31.3867188,31.1367188 C31.3085938,31.0585938 31.2695312,30.9609375 31.2695312,30.84375 C31.2695312,30.7265625 31.3085938,30.6289062 31.3867188,30.5507812 C31.4648438,30.4726562 31.5625,30.4335938 31.6796875,30.4335938 C31.796875,30.4335938 31.8945312,30.4726562 31.9726562,30.5507812 C32.0507812,30.6289062 32.0898438,30.7265625 32.0898438,30.84375 C32.0898438,30.9609375 32.0507812,31.0585938 31.9726562,31.1367188 C31.8945312,31.2148438 31.796875,31.2539062 31.6796875,31.2539062 Z M33.4960938,32.4257812 L1.50390625,32.4257812 L1.50390625,31.78125 L30.5078125,31.78125 C30.546875,31.8203125 30.6054688,31.8691406 30.6835938,31.9277344 C30.7617188,31.9863281 30.859375,32.0351562 30.9765625,32.0742188 C31.0546875,32.1132812 31.1523438,32.1523438 31.2695312,32.1914062 C31.3867188,32.2304688 31.5234375,32.25 31.6796875,32.25 C31.8359375,32.25 31.9726562,32.2304688 32.0898438,32.1914062 L32.0898438,32.1914062 L32.4414062,32.0742188 C32.5195312,32.0351562 32.5976562,31.9863281 32.6757812,31.9277344 C32.7539062,31.8691406 32.8125,31.8203125 32.8515625,31.78125 L32.8515625,31.78125 L33.4960938,31.78125 L33.4960938,32.4257812 Z" id="12" fill="currentColor" fill-rule="nonzero"></path>
    </g>
</svg>