<?xml version="1.0" encoding="UTF-8"?>
<svg width="29px" height="41px" viewBox="0 0 29 41" version="1.1" xmlns="http://www.w3.org/2000/svg" xmlns:xlink="http://www.w3.org/1999/xlink">
    <title>10</title>
    <g id="Page-1" stroke="none" stroke-width="1" fill="none" fill-rule="evenodd">
        <path d="M5.7109375,40.8359375 C5.75,40.8359375 5.7890625,40.8164062 5.828125,40.7773438 C5.828125,40.7773438 5.84765625,40.7382812 5.88671875,40.6601562 L5.88671875,40.6601562 L5.88671875,39.4882812 L6.12109375,39.4882812 C6.31640625,39.4882812 6.47265625,39.5078125 6.58984375,39.546875 C6.70703125,39.5859375 6.8828125,39.6054688 7.1171875,39.6054688 C7.234375,39.6445312 7.44921875,39.703125 7.76171875,39.78125 L7.76171875,39.78125 L9.109375,39.9570312 C9.34375,40.0351562 9.58789062,40.0839844 9.84179688,40.1035156 C10.0957031,40.1230469 10.3789062,40.1523438 10.6914062,40.1914062 C11.2382812,40.2695312 11.8339844,40.3378906 12.4785156,40.3964844 C13.1230469,40.4550781 13.796875,40.484375 14.5,40.484375 C14.8515625,40.484375 15.203125,40.4746094 15.5546875,40.4550781 C15.90625,40.4355469 16.2382812,40.40625 16.5507812,40.3671875 C17.2148438,40.2890625 17.8105469,40.2304688 18.3378906,40.1914062 C18.8652344,40.1523438 19.3828125,40.0742188 19.890625,39.9570312 C20.125,39.9179688 20.359375,39.8886719 20.59375,39.8691406 C20.828125,39.8496094 21.0429688,39.8203125 21.2382812,39.78125 L21.2382812,39.78125 L21.8828125,39.6054688 C22.1171875,39.6054688 22.2929688,39.5859375 22.4101562,39.546875 C22.5273438,39.5078125 22.6835938,39.4882812 22.8789062,39.4882812 L22.8789062,39.4882812 L23.1132812,39.4882812 L23.1132812,40.6601562 C23.1132812,40.6992188 23.1328125,40.71875 23.171875,40.71875 C23.171875,40.796875 23.2109375,40.8359375 23.2890625,40.8359375 L23.2890625,40.8359375 L26.6289062,40.8359375 C26.6679688,40.8359375 26.7265625,40.796875 26.8046875,40.71875 C26.8046875,40.71875 26.8242188,40.6796875 26.8632812,40.6015625 L26.8632812,40.6015625 L26.8632812,36.0898438 L27.9765625,36.0898438 C28.015625,36.0898438 28.0546875,36.0703125 28.09375,36.03125 L28.09375,36.03125 L28.1523438,36.03125 L28.2109375,35.9140625 L28.2109375,1.40234375 C28.1328125,1.40234375 28.09375,1.36328125 28.09375,1.28515625 L28.09375,1.28515625 L28.0351562,1.28515625 L26.8046875,1.16796875 C26.4140625,1.12890625 25.9648438,1.08984375 25.4570312,1.05078125 C24.9492188,1.01171875 24.3828125,0.97265625 23.7578125,0.93359375 C22.46875,0.85546875 21.0234375,0.787109375 19.421875,0.728515625 C17.8203125,0.669921875 16.1796875,0.640625 14.5,0.640625 L14.5,0.640625 L11.9804688,0.640625 C11.1601562,0.640625 10.359375,0.66015625 9.578125,0.69921875 C9.16796875,0.71875 8.77001953,0.73828125 8.38427734,0.7578125 L7.26367188,0.81640625 C6.54101562,0.85546875 5.8671875,0.89453125 5.2421875,0.93359375 C3.9921875,1.01171875 2.9765625,1.08984375 2.1953125,1.16796875 L2.1953125,1.16796875 L0.96484375,1.28515625 L0.7890625,1.4609375 L0.7890625,35.9140625 C0.7890625,35.953125 0.80859375,35.9726562 0.84765625,35.9726562 C0.84765625,36.0117188 0.8671875,36.03125 0.90625,36.03125 L0.90625,36.03125 L0.96484375,36.03125 C0.96484375,36.0703125 0.984375,36.0898438 1.0234375,36.0898438 L1.0234375,36.0898438 L2.13671875,36.0898438 L2.13671875,40.6015625 C2.13671875,40.6796875 2.17578125,40.71875 2.25390625,40.71875 C2.25390625,40.796875 2.29296875,40.8359375 2.37109375,40.8359375 L2.37109375,40.8359375 L5.7109375,40.8359375 Z M11.6289062,35.7382812 L1.19921875,35.7382812 L1.19921875,1.63671875 C1.51171875,1.55859375 2.078125,1.5 2.8984375,1.4609375 L2.8984375,1.4609375 L6.00390625,1.28515625 C7.25390625,1.20703125 8.6015625,1.13867188 10.046875,1.08007812 C11.4921875,1.02148438 12.9765625,0.9921875 14.5,0.9921875 L14.5,0.9921875 L16.7851562,0.9921875 C17.5273438,0.9921875 18.2695312,1.01171875 19.0117188,1.05078125 C20.4960938,1.12890625 21.84375,1.19726562 23.0546875,1.25585938 C24.265625,1.31445312 25.3007812,1.3828125 26.1601562,1.4609375 C26.9414062,1.5 27.4882812,1.55859375 27.8007812,1.63671875 L27.8007812,1.63671875 L27.8007812,35.7382812 L17.3710938,35.7382812 L17.3710938,34.4492188 L17.3125,34.390625 L11.7460938,34.390625 C11.7070312,34.390625 11.6679688,34.4101562 11.6289062,34.4492188 L11.6289062,34.4492188 L11.6289062,35.7382812 Z M14.5,4.390625 C14.6953125,4.390625 14.890625,4.29296875 15.0859375,4.09765625 C15.28125,3.90234375 15.3789062,3.70703125 15.3789062,3.51171875 C15.3789062,3.27734375 15.28125,3.0625 15.0859375,2.8671875 C14.9296875,2.7109375 14.734375,2.6328125 14.5,2.6328125 C14.265625,2.6328125 14.0703125,2.7109375 13.9140625,2.8671875 C13.71875,3.0625 13.6210938,3.27734375 13.6210938,3.51171875 C13.6210938,3.70703125 13.71875,3.90234375 13.9140625,4.09765625 C14.109375,4.29296875 14.3046875,4.390625 14.5,4.390625 Z M14.5,3.98046875 C14.34375,3.98046875 14.2265625,3.94140625 14.1484375,3.86328125 C14.0703125,3.78515625 14.03125,3.66796875 14.03125,3.51171875 C14.03125,3.35546875 14.0703125,3.23828125 14.1484375,3.16015625 C14.265625,3.04296875 14.3828125,2.984375 14.5,2.984375 C14.6171875,2.984375 14.734375,3.04296875 14.8515625,3.16015625 C14.9296875,3.23828125 14.96875,3.35546875 14.96875,3.51171875 C14.96875,3.66796875 14.9296875,3.78515625 14.8515625,3.86328125 C14.7734375,3.94140625 14.65625,3.98046875 14.5,3.98046875 Z M25.28125,21.265625 C25.3203125,21.265625 25.3789062,21.2265625 25.4570312,21.1484375 C25.4570312,21.1484375 25.4765625,21.109375 25.515625,21.03125 L25.515625,21.03125 L25.4570312,20.9140625 C25.4179688,20.9140625 25.3984375,20.8945312 25.3984375,20.8554688 L25.3984375,20.8554688 L24.109375,20.8554688 L24.109375,6.3828125 L25.3984375,6.3828125 L25.4570312,6.32421875 C25.4570312,6.32421875 25.458252,6.32177734 25.4606934,6.31689453 L25.4899902,6.25830078 L25.4899902,6.25830078 L25.515625,6.20703125 L25.515625,6.08984375 C25.4765625,6.08984375 25.4375,6.0703125 25.3984375,6.03125 L25.3984375,6.03125 L3.6015625,6.03125 C3.5234375,6.109375 3.484375,6.16796875 3.484375,6.20703125 C3.484375,6.24609375 3.50390625,6.265625 3.54296875,6.265625 C3.54296875,6.34375 3.58203125,6.3828125 3.66015625,6.3828125 L3.66015625,6.3828125 L4.890625,6.3828125 L4.890625,20.8554688 L3.66015625,20.8554688 L3.6015625,20.9140625 C3.5625,20.9140625 3.54296875,20.9335938 3.54296875,20.9726562 L3.54296875,20.9726562 L3.484375,21.03125 C3.484375,21.109375 3.5234375,21.1484375 3.6015625,21.1484375 C3.6015625,21.2265625 3.640625,21.265625 3.71875,21.265625 L3.71875,21.265625 L25.28125,21.265625 Z M23.7578125,20.8554688 L5.2421875,20.8554688 L5.2421875,6.3828125 L23.7578125,6.3828125 L23.7578125,20.8554688 Z M15.203125,26.65625 L15.2617188,26.5976562 L15.3203125,26.5390625 C15.3203125,26.5390625 15.3398438,26.5 15.3789062,26.421875 L15.3789062,26.421875 L15.3789062,26.3632812 C15.3007812,26.3632812 15.2617188,26.3242188 15.2617188,26.2460938 L15.2617188,26.2460938 L4.3046875,26.2460938 L4.1875,26.3632812 L4.1875,26.4804688 C4.1875,26.5195312 4.20703125,26.5390625 4.24609375,26.5390625 C4.24609375,26.578125 4.265625,26.5976562 4.3046875,26.5976562 L4.3046875,26.5976562 L4.36328125,26.65625 L15.203125,26.65625 Z M24.6367188,29.3515625 C24.6757812,29.3515625 24.6953125,29.3320312 24.6953125,29.2929688 C24.734375,29.2929688 24.7539062,29.2734375 24.7539062,29.234375 L24.7539062,29.234375 L24.8125,29.1757812 L24.8125,26.3632812 C24.7734375,26.3632812 24.7539062,26.34375 24.7539062,26.3046875 L24.7539062,26.3046875 L24.6367188,26.2460938 L16.4921875,26.2460938 L16.375,26.3632812 L16.3164062,26.421875 L16.3164062,27.828125 L16.375,27.828125 C16.375,27.8671875 16.3945312,27.8867188 16.4335938,27.8867188 C16.4335938,27.9648438 16.4726562,28.0039062 16.5507812,28.0039062 L16.5507812,28.0039062 L17.8984375,28.0039062 C18.328125,28.0039062 18.640625,28.0234375 18.8359375,28.0625 C19.421875,28.140625 19.9101562,28.2578125 20.3007812,28.4140625 C20.4960938,28.53125 20.6914062,28.6289062 20.8867188,28.7070312 C20.9648438,28.7460938 21.0625,28.7851562 21.1796875,28.8242188 C21.296875,28.8632812 21.3945312,28.9023438 21.4726562,28.9414062 L21.4726562,28.9414062 L22,29.1171875 C22.1953125,29.1953125 22.390625,29.2539062 22.5859375,29.2929688 C22.78125,29.3320312 23.015625,29.3515625 23.2890625,29.3515625 L23.2890625,29.3515625 L24.6367188,29.3515625 Z M24.4609375,28.9414062 L23.2890625,28.9414062 C22.9765625,28.9414062 22.7617188,28.921875 22.6445312,28.8828125 C22.2539062,28.8828125 21.9023438,28.7851562 21.5898438,28.5898438 C21.5117188,28.5507812 21.4238281,28.5117188 21.3261719,28.4726562 C21.2285156,28.4335938 21.140625,28.3945312 21.0625,28.3554688 C20.8671875,28.2773438 20.671875,28.1796875 20.4765625,28.0625 C20.359375,28.0234375 20.2421875,27.984375 20.125,27.9453125 C20.0078125,27.90625 19.890625,27.8671875 19.7734375,27.828125 C19.5,27.75 19.2070312,27.6914062 18.8945312,27.6523438 C18.5820312,27.6132812 18.25,27.59375 17.8984375,27.59375 L17.8984375,27.59375 L16.7265625,27.59375 L16.7265625,26.65625 L24.4609375,26.65625 L24.4609375,28.9414062 Z M15.203125,28.0039062 L15.3789062,27.828125 L15.3789062,27.7109375 C15.3007812,27.7109375 15.2617188,27.671875 15.2617188,27.59375 L15.2617188,27.59375 L4.3046875,27.59375 L4.1875,27.7109375 L4.1875,27.828125 C4.1875,27.8671875 4.20703125,27.8867188 4.24609375,27.8867188 C4.24609375,27.9257812 4.265625,27.9453125 4.3046875,27.9453125 L4.3046875,27.9453125 L4.36328125,28.0039062 L15.203125,28.0039062 Z M14.5,32.8085938 C14.734375,32.8085938 14.9296875,32.7304688 15.0859375,32.5742188 C15.28125,32.3789062 15.3789062,32.1835938 15.3789062,31.9882812 C15.3789062,31.7539062 15.28125,31.5390625 15.0859375,31.34375 C14.9296875,31.1875 14.734375,31.109375 14.5,31.109375 C14.265625,31.109375 14.0703125,31.1875 13.9140625,31.34375 C13.71875,31.5390625 13.6210938,31.7539062 13.6210938,31.9882812 C13.6210938,32.1835938 13.71875,32.3789062 13.9140625,32.5742188 C14.0703125,32.7304688 14.265625,32.8085938 14.5,32.8085938 Z M14.5,32.4570312 C14.34375,32.4570312 14.2265625,32.3984375 14.1484375,32.28125 C14.0703125,32.125 14.03125,32.0273438 14.03125,31.9882812 C14.03125,31.8320312 14.0703125,31.7148438 14.1484375,31.6367188 C14.265625,31.5195312 14.3828125,31.4609375 14.5,31.4609375 C14.6171875,31.4609375 14.734375,31.5195312 14.8515625,31.6367188 C14.9296875,31.7148438 14.96875,31.8320312 14.96875,31.9882812 C14.96875,32.0273438 14.9296875,32.125 14.8515625,32.28125 C14.8125,32.3984375 14.6953125,32.4570312 14.5,32.4570312 Z M5.53515625,40.4257812 L2.546875,40.4257812 L2.546875,36.0898438 L11.8046875,36.0898438 C11.84375,36.0898438 11.8828125,36.0703125 11.921875,36.03125 L11.921875,36.03125 L11.9804688,36.03125 L11.9804688,34.7421875 L17.0195312,34.7421875 L17.0195312,35.9726562 C17.0195312,36.0117188 17.0390625,36.03125 17.078125,36.03125 L17.078125,36.03125 L17.1367188,36.03125 C17.1367188,36.0703125 17.15625,36.0898438 17.1953125,36.0898438 L17.1953125,36.0898438 L26.453125,36.0898438 L26.453125,40.4257812 L23.4648438,40.4257812 L23.4648438,39.4882812 L24.9882812,39.4882812 L25.046875,39.4296875 L25.1054688,39.3710938 L25.1054688,39.3710938 L25.1640625,39.2539062 L25.1640625,39.1953125 C25.0859375,39.1953125 25.046875,39.15625 25.046875,39.078125 L25.046875,39.078125 L22.8789062,39.078125 C22.7617188,39.1171875 22.6054688,39.1367188 22.4101562,39.1367188 C22.3320312,39.1757812 22.234375,39.1953125 22.1171875,39.1953125 C22,39.1953125 21.9023438,39.2148438 21.8242188,39.2539062 C21.7460938,39.2929688 21.6484375,39.3125 21.53125,39.3125 C21.4140625,39.3125 21.296875,39.3320312 21.1796875,39.3710938 C20.75,39.4492188 20.3007812,39.5273438 19.8320312,39.6054688 C19.3632812,39.6835938 18.8554688,39.7617188 18.3085938,39.8398438 C17.7226562,39.9179688 17.1171875,39.9765625 16.4921875,40.015625 C15.8671875,40.0546875 15.203125,40.0742188 14.5,40.0742188 C13.796875,40.0742188 13.1328125,40.0546875 12.5078125,40.015625 C11.8828125,39.9765625 11.296875,39.9179688 10.75,39.8398438 C10.1640625,39.7617188 9.63671875,39.6835938 9.16796875,39.6054688 C8.69921875,39.5273438 8.25,39.4492188 7.8203125,39.3710938 C7.703125,39.3320312 7.5859375,39.3125 7.46875,39.3125 C7.3515625,39.3125 7.25390625,39.2929688 7.17578125,39.2539062 C7.09765625,39.2148438 7.00976562,39.1953125 6.91210938,39.1953125 C6.81445312,39.1953125 6.7265625,39.1757812 6.6484375,39.1367188 C6.4140625,39.1367188 6.23828125,39.1171875 6.12109375,39.078125 L6.12109375,39.078125 L4.01171875,39.078125 L3.89453125,39.1953125 L3.8359375,39.2539062 C3.8359375,39.2929688 3.85546875,39.3125 3.89453125,39.3125 C3.89453125,39.390625 3.93359375,39.4296875 4.01171875,39.4296875 L4.01171875,39.4296875 L4.01171875,39.4882812 L5.53515625,39.4882812 L5.53515625,40.4257812 Z" id="10" fill="currentColor" fill-rule="nonzero"></path>
    </g>
</svg>