<?xml version="1.0" encoding="UTF-8"?>
<svg width="25px" height="31px" viewBox="0 0 25 31" version="1.1" xmlns="http://www.w3.org/2000/svg" xmlns:xlink="http://www.w3.org/1999/xlink">
    <title>23</title>
    <g id="Page-1" stroke="none" stroke-width="1" fill="none" fill-rule="evenodd">
        <path d="M23.4570312,30.8359375 C23.6523438,30.8359375 23.828125,30.7578125 23.984375,30.6015625 C24.1015625,30.484375 24.1601562,30.3085938 24.1601562,30.0742188 L24.1601562,30.0742188 L24.1601562,0.77734375 C24.1601562,0.50390625 24.1015625,0.328125 23.984375,0.25 C23.828125,0.1328125 23.6523438,0.07421875 23.4570312,0.07421875 L23.4570312,0.07421875 L1.54296875,0.07421875 C1.38671875,0.07421875 1.2109375,0.1328125 1.015625,0.25 C0.8984375,0.328125 0.83984375,0.50390625 0.83984375,0.77734375 L0.83984375,0.77734375 L0.83984375,30.0742188 C0.83984375,30.3085938 0.8984375,30.484375 1.015625,30.6015625 C1.171875,30.7578125 1.34765625,30.8359375 1.54296875,30.8359375 L1.54296875,30.8359375 L23.4570312,30.8359375 Z M23.4570312,30.4257812 L1.54296875,30.4257812 C1.50390625,30.4257812 1.46484375,30.40625 1.42578125,30.3671875 C1.38671875,30.3671875 1.34765625,30.3476562 1.30859375,30.3085938 C1.23046875,30.3085938 1.19140625,30.2304688 1.19140625,30.0742188 L1.19140625,30.0742188 L1.19140625,0.77734375 C1.19140625,0.69921875 1.23046875,0.62109375 1.30859375,0.54296875 C1.38671875,0.46484375 1.46484375,0.42578125 1.54296875,0.42578125 L1.54296875,0.42578125 L23.4570312,0.42578125 C23.5351562,0.42578125 23.6132812,0.46484375 23.6914062,0.54296875 C23.7695312,0.62109375 23.8085938,0.69921875 23.8085938,0.77734375 L23.8085938,0.77734375 L23.8085938,30.0742188 C23.8085938,30.2304688 23.7695312,30.3085938 23.6914062,30.3085938 C23.6523438,30.3476562 23.6132812,30.3671875 23.5742188,30.3671875 C23.5351562,30.40625 23.4960938,30.4257812 23.4570312,30.4257812 L23.4570312,30.4257812 Z M23.046875,23.3359375 C23.046875,23.3359375 23.0480957,23.3334961 23.0505371,23.3286133 L23.1054688,23.21875 L23.1054688,1.1875 C23.0664062,1.1875 23.046875,1.16796875 23.046875,1.12890625 L23.046875,1.12890625 L2.01171875,1.12890625 C1.93359375,1.20703125 1.89453125,1.265625 1.89453125,1.3046875 L1.89453125,1.3046875 L1.89453125,23.21875 L2.01171875,23.3359375 L23.046875,23.3359375 Z M22.7539062,22.984375 L2.24609375,22.984375 L2.3046875,1.48046875 L22.7539062,1.48046875 L22.7539062,22.984375 Z M12.5,9.68359375 C12.6171875,9.68359375 12.7148438,9.6640625 12.7929688,9.625 C12.8710938,9.625 13.0273438,9.546875 13.2617188,9.390625 C13.4960938,9.234375 13.6328125,9.09765625 13.671875,8.98046875 L13.671875,8.98046875 L13.7890625,8.74609375 C13.828125,8.66796875 13.8476562,8.58984375 13.8476562,8.51171875 L13.8476562,8.51171875 L13.8476562,8.1015625 L13.6132812,8.1015625 C13.5742188,8.140625 13.5351562,8.16015625 13.4960938,8.16015625 C13.3398438,8.23828125 13.2421875,8.296875 13.203125,8.3359375 C13.1640625,8.375 13.125,8.39453125 13.0859375,8.39453125 L13.0859375,8.39453125 L12.8515625,8.62890625 C12.8125,8.66796875 12.7929688,8.70703125 12.7929688,8.74609375 C12.7929688,8.78515625 12.7734375,8.82421875 12.734375,8.86328125 C12.65625,8.94140625 12.6171875,9.01953125 12.6171875,9.09765625 C12.5390625,9.33203125 12.5,9.48828125 12.5,9.56640625 L12.5,9.56640625 L12.5,9.68359375 Z M11.6210938,14.9570312 C11.6601562,14.9570312 11.6992188,14.9375 11.7382812,14.8984375 C11.8164062,14.8984375 11.875,14.8789062 11.9140625,14.8398438 C11.953125,14.8398438 11.9921875,14.8203125 12.03125,14.78125 C12.109375,14.78125 12.2265625,14.7421875 12.3828125,14.6640625 L12.3828125,14.6640625 L12.9101562,14.6640625 C12.9882812,14.7421875 13.0859375,14.78125 13.203125,14.78125 C13.28125,14.8203125 13.3398438,14.8496094 13.3789062,14.8691406 C13.4179688,14.8886719 13.4765625,14.8984375 13.5546875,14.8984375 L13.5546875,14.8984375 L13.671875,14.8984375 C13.7109375,14.9375 13.75,14.9570312 13.7890625,14.9570312 C13.90625,14.9570312 14.0039062,14.9179688 14.0820312,14.8398438 C14.1601562,14.8398438 14.2578125,14.78125 14.375,14.6640625 L14.375,14.6640625 L14.4335938,14.6054688 C14.5117188,14.5273438 14.5898438,14.4101562 14.6679688,14.2539062 L14.6679688,14.2539062 L14.84375,14.078125 C14.84375,14 14.9023438,13.9023438 15.0195312,13.7851562 L15.0195312,13.7851562 L15.1367188,13.609375 C15.1367188,13.53125 15.15625,13.4726562 15.1953125,13.4335938 L15.1953125,13.4335938 L15.1953125,13.375 C15.1953125,13.3359375 15.2148438,13.296875 15.2539062,13.2578125 L15.2539062,13.2578125 L15.2539062,13.1992188 L15.3125,13.140625 L15.078125,12.9648438 C15.0390625,12.9648438 15,12.9453125 14.9609375,12.90625 C14.921875,12.8671875 14.8828125,12.8476562 14.84375,12.8476562 C14.6484375,12.6523438 14.53125,12.4765625 14.4921875,12.3203125 C14.4140625,12.0859375 14.375,11.890625 14.375,11.734375 C14.375,11.3828125 14.4335938,11.1289062 14.5507812,10.9726562 C14.6679688,10.8554688 14.7460938,10.7578125 14.7851562,10.6796875 C14.9023438,10.5625 15.0195312,10.484375 15.1367188,10.4453125 C15.0976562,10.3671875 15.0195312,10.2695312 14.9023438,10.1523438 C14.6679688,9.95703125 14.453125,9.83984375 14.2578125,9.80078125 C14.1015625,9.80078125 13.9648438,9.78125 13.8476562,9.7421875 L13.8476562,9.7421875 L13.5546875,9.7421875 C13.515625,9.78125 13.4375,9.80078125 13.3203125,9.80078125 C13.0859375,9.87890625 12.9492188,9.91796875 12.9101562,9.91796875 C12.7539062,9.99609375 12.65625,10.0351562 12.6171875,10.0351562 L12.6171875,10.0351562 L12.5585938,10.09375 C12.5195312,10.09375 12.5,10.0742188 12.5,10.0351562 L12.5,10.0351562 L12.3828125,10.0351562 C12.3828125,10.0351562 12.3804209,10.0343591 12.3756378,10.0327647 L12.3182398,10.013632 C12.2608418,9.99449936 12.1651786,9.96261161 12.03125,9.91796875 C11.953125,9.83984375 11.8554688,9.80078125 11.7382812,9.80078125 C11.6601562,9.80078125 11.6015625,9.78125 11.5625,9.7421875 L11.5625,9.7421875 L11.2109375,9.7421875 L10.8007812,9.91796875 C10.7617188,9.95703125 10.703125,9.9765625 10.625,9.9765625 L10.625,9.9765625 L10.4492188,10.09375 L10.2734375,10.2695312 C10.1171875,10.3476562 10.0195312,10.4648438 9.98046875,10.6210938 C9.94140625,10.6992188 9.90234375,10.7871094 9.86328125,10.8847656 C9.82421875,10.9824219 9.8046875,11.0703125 9.8046875,11.1484375 C9.765625,11.265625 9.73632812,11.3730469 9.71679688,11.4707031 C9.69726562,11.5683594 9.6875,11.6757812 9.6875,11.7929688 C9.6875,11.9492188 9.7265625,12.1445312 9.8046875,12.3789062 C9.8046875,12.5351562 9.82421875,12.6523438 9.86328125,12.7304688 C9.86328125,12.8867188 9.8828125,12.984375 9.921875,13.0234375 C9.9609375,13.140625 10,13.2480469 10.0390625,13.3457031 C10.078125,13.4433594 10.1171875,13.53125 10.15625,13.609375 C10.234375,13.765625 10.3320312,13.921875 10.4492188,14.078125 C10.4882812,14.1953125 10.5664062,14.3125 10.6835938,14.4296875 L10.6835938,14.4296875 L10.9179688,14.6640625 C11.0351562,14.78125 11.1328125,14.8398438 11.2109375,14.8398438 C11.2890625,14.9179688 11.3867188,14.9570312 11.5039062,14.9570312 L11.5039062,14.9570312 L11.6210938,14.9570312 Z" id="23" fill="currentColor" fill-rule="nonzero"></path>
    </g>
</svg>