<?xml version="1.0" encoding="UTF-8"?>
<svg width="47px" height="46px" viewBox="0 0 47 46" version="1.1" xmlns="http://www.w3.org/2000/svg" xmlns:xlink="http://www.w3.org/1999/xlink">
    <title>24</title>
    <g id="Page-1" stroke="none" stroke-width="1" fill="none" fill-rule="evenodd">
        <path d="M40.84375,45.8359375 C41.078125,45.8359375 41.2539062,45.8164062 41.3710938,45.7773438 L41.3710938,45.7773438 L41.8398438,45.7773438 C41.9960938,45.7773438 42.1328125,45.7578125 42.25,45.71875 L42.25,45.71875 L42.5429688,45.71875 C43.4804688,45.5625 44.203125,45.25 44.7109375,44.78125 C44.984375,44.546875 45.1992188,44.2636719 45.3554688,43.9316406 C45.5117188,43.5996094 45.6679688,43.2382812 45.8242188,42.8476562 C45.8242188,42.5742188 45.84375,42.3789062 45.8828125,42.2617188 C45.921875,42.1445312 45.9414062,41.9492188 45.9414062,41.6757812 C45.9414062,41.4023438 45.9609375,41.1875 46,41.03125 C46.0390625,40.796875 46.0390625,40.5429688 46,40.2695312 L46,40.2695312 L46.0585938,6.2265625 C46.0195312,6.03125 46,5.77734375 46,5.46484375 C46,5.15234375 45.9804688,4.91796875 45.9414062,4.76171875 C45.9023438,4.64453125 45.8828125,4.44921875 45.8828125,4.17578125 C45.8828125,4.09765625 45.84375,3.94140625 45.765625,3.70703125 C45.609375,2.92578125 45.2578125,2.26171875 44.7109375,1.71484375 C44.203125,1.16796875 43.5,0.875 42.6015625,0.8359375 C42.4453125,0.796875 42.3183594,0.767578125 42.2207031,0.748046875 C42.1230469,0.728515625 41.9960938,0.71875 41.8398438,0.71875 L41.8398438,0.71875 L5.1015625,0.71875 C4.9453125,0.71875 4.81835938,0.728515625 4.72070312,0.748046875 C4.62304688,0.767578125 4.49609375,0.796875 4.33984375,0.8359375 C3.48046875,0.875 2.77734375,1.16796875 2.23046875,1.71484375 C1.99609375,1.94921875 1.78125,2.23242188 1.5859375,2.56445312 C1.390625,2.89648438 1.25390625,3.27734375 1.17578125,3.70703125 C1.09765625,3.94140625 1.05859375,4.09765625 1.05859375,4.17578125 C1.05859375,4.44921875 1.0390625,4.64453125 1,4.76171875 C0.9609375,4.91796875 0.94140625,5.15234375 0.94140625,5.46484375 C0.94140625,5.77734375 0.921875,6.03125 0.8828125,6.2265625 L0.8828125,6.2265625 L0.94140625,40.2695312 C0.90234375,40.5429688 0.90234375,40.796875 0.94140625,41.03125 C0.98046875,41.1875 1,41.4023438 1,41.6757812 C1,41.9492188 1.01953125,42.1445312 1.05859375,42.2617188 C1.09765625,42.3789062 1.1171875,42.5742188 1.1171875,42.8476562 C1.2734375,43.2382812 1.4296875,43.5996094 1.5859375,43.9316406 C1.7421875,44.2636719 1.95703125,44.546875 2.23046875,44.78125 C2.73828125,45.25 3.4609375,45.5625 4.3984375,45.71875 L4.3984375,45.71875 L4.75,45.71875 C4.828125,45.7578125 4.9453125,45.7773438 5.1015625,45.7773438 L5.1015625,45.7773438 L5.5703125,45.7773438 C5.6875,45.8164062 5.86328125,45.8359375 6.09765625,45.8359375 L6.09765625,45.8359375 L40.84375,45.8359375 Z M41.78125,45.4257812 L5.16015625,45.4257812 C4.96484375,45.4257812 4.7109375,45.3867188 4.3984375,45.3085938 C3.578125,45.2304688 2.953125,44.9570312 2.5234375,44.4882812 C2.015625,44.0585938 1.68359375,43.4726562 1.52734375,42.7304688 C1.44921875,42.4960938 1.41015625,42.3203125 1.41015625,42.203125 C1.41015625,41.96875 1.390625,41.7929688 1.3515625,41.6757812 C1.2734375,41.4804688 1.2734375,41.265625 1.3515625,41.03125 C1.3515625,40.71875 1.33203125,40.4648438 1.29296875,40.2695312 L1.29296875,40.2695312 L1.3515625,6.2265625 C1.3125,5.953125 1.3125,5.69921875 1.3515625,5.46484375 L1.3515625,5.46484375 L1.3515625,4.8203125 C1.3515625,4.546875 1.37109375,4.3515625 1.41015625,4.234375 C1.44921875,4.1171875 1.46875,3.9609375 1.46875,3.765625 C1.625,3.375 1.77148438,3.03320312 1.90820312,2.74023438 C2.04492188,2.44726562 2.25,2.18359375 2.5234375,1.94921875 C2.9140625,1.59765625 3.55859375,1.34375 4.45703125,1.1875 C4.49609375,1.1484375 4.59375,1.12890625 4.75,1.12890625 C4.9453125,1.12890625 5.08203125,1.109375 5.16015625,1.0703125 L5.16015625,1.0703125 L41.78125,1.0703125 C41.859375,1.109375 41.9960938,1.12890625 42.1914062,1.12890625 C42.3476562,1.12890625 42.4453125,1.1484375 42.484375,1.1875 C42.953125,1.265625 43.3339844,1.36328125 43.6269531,1.48046875 C43.9199219,1.59765625 44.203125,1.75390625 44.4765625,1.94921875 C44.7109375,2.18359375 44.8964844,2.44726562 45.0332031,2.74023438 C45.1699219,3.03320312 45.3164062,3.375 45.4726562,3.765625 C45.4726562,3.9609375 45.4921875,4.1171875 45.53125,4.234375 C45.5703125,4.3515625 45.5898438,4.546875 45.5898438,4.8203125 C45.5898438,5.1328125 45.609375,5.34765625 45.6484375,5.46484375 C45.6484375,5.77734375 45.6289062,6.03125 45.5898438,6.2265625 L45.5898438,6.2265625 L45.6484375,40.2695312 C45.609375,40.5429688 45.609375,40.796875 45.6484375,41.03125 C45.6484375,41.34375 45.6289062,41.5585938 45.5898438,41.6757812 C45.5507812,41.7929688 45.53125,41.96875 45.53125,42.203125 C45.53125,42.3203125 45.4921875,42.4960938 45.4140625,42.7304688 C45.2578125,43.4335938 44.9453125,44.0195312 44.4765625,44.4882812 C44.0078125,44.9570312 43.3632812,45.2304688 42.5429688,45.3085938 C42.2304688,45.3867188 41.9765625,45.4257812 41.78125,45.4257812 L41.78125,45.4257812 Z M41.546875,34.703125 C41.859375,34.703125 42.1523438,34.5664062 42.4257812,34.2929688 C42.5039062,34.2148438 42.5917969,34.0976562 42.6894531,33.9414062 C42.7871094,33.7851562 42.8164062,33.609375 42.7773438,33.4140625 L42.7773438,33.4140625 L42.8359375,6.28515625 C42.7578125,5.89453125 42.6210938,5.6015625 42.4257812,5.40625 C42.2695312,5.2890625 42.1328125,5.20117188 42.015625,5.14257812 C41.8984375,5.08398438 41.7226562,5.0546875 41.4882812,5.0546875 L41.4882812,5.0546875 L5.62890625,5.0546875 C5.27734375,5.0546875 4.984375,5.171875 4.75,5.40625 C4.59375,5.5234375 4.49609375,5.66015625 4.45703125,5.81640625 L4.45703125,5.81640625 L4.33984375,6.28515625 L4.3984375,33.4140625 C4.359375,33.765625 4.4765625,34.0585938 4.75,34.2929688 C4.9453125,34.5664062 5.21875,34.703125 5.5703125,34.703125 L5.5703125,34.703125 L41.546875,34.703125 Z M41.4882812,34.2929688 L5.62890625,34.2929688 C5.43359375,34.2929688 5.31640625,34.2734375 5.27734375,34.234375 C5.19921875,34.1953125 5.1015625,34.1367188 4.984375,34.0585938 C4.8671875,33.9804688 4.80859375,33.8828125 4.80859375,33.765625 C4.76953125,33.6875 4.75,33.6289062 4.75,33.5898438 C4.75,33.5507812 4.73046875,33.4921875 4.69140625,33.4140625 L4.69140625,33.4140625 L4.75,6.28515625 C4.7109375,6.08984375 4.7890625,5.89453125 4.984375,5.69921875 C5.1796875,5.50390625 5.375,5.40625 5.5703125,5.40625 L5.5703125,5.40625 L41.546875,5.40625 C41.625,5.40625 41.7324219,5.43554688 41.8691406,5.49414062 C42.0058594,5.55273438 42.1132812,5.62109375 42.1914062,5.69921875 C42.3476562,5.93359375 42.40625,6.12890625 42.3671875,6.28515625 L42.3671875,6.28515625 L42.4257812,33.4140625 C42.3867188,33.4921875 42.3671875,33.609375 42.3671875,33.765625 C42.2890625,33.921875 42.2304688,34.0195312 42.1914062,34.0585938 C41.9960938,34.2148438 41.7617188,34.2929688 41.4882812,34.2929688 L41.4882812,34.2929688 Z M41.078125,33.4140625 C41.1953125,33.4140625 41.2929688,33.375 41.3710938,33.296875 L41.3710938,33.296875 L41.4296875,33.0625 L41.4296875,6.578125 C41.4296875,6.5390625 41.4199219,6.49023438 41.4003906,6.43164062 L41.3841146,6.37630208 C41.375434,6.34157986 41.3710938,6.31119792 41.3710938,6.28515625 L41.3710938,6.28515625 L41.078125,6.2265625 L5.921875,6.2265625 C5.8828125,6.265625 5.84375,6.28515625 5.8046875,6.28515625 L5.8046875,6.28515625 L5.6875,6.40234375 C5.6875,6.48046875 5.66796875,6.5390625 5.62890625,6.578125 L5.62890625,6.578125 L5.6875,33.0625 C5.6484375,33.1015625 5.6484375,33.140625 5.6875,33.1796875 L5.6875,33.1796875 L5.8046875,33.296875 C5.8046875,33.375 5.8828125,33.4140625 6.0390625,33.4140625 L6.0390625,33.4140625 L41.078125,33.4140625 Z M41.078125,33.0625 L6.0390625,33.0625 L6.0390625,6.578125 L41.078125,6.578125 L41.078125,33.0625 Z M7.796875,42.9648438 C8.6171875,42.9648438 9.3203125,42.671875 9.90625,42.0859375 C10.4921875,41.5 10.7851562,40.796875 10.7851562,39.9765625 C10.7851562,39.15625 10.4921875,38.453125 9.90625,37.8671875 C9.3203125,37.28125 8.6171875,36.9882812 7.796875,36.9882812 C6.9765625,36.9882812 6.2734375,37.28125 5.6875,37.8671875 C5.1015625,38.453125 4.80859375,39.15625 4.80859375,39.9765625 C4.80859375,40.796875 5.1015625,41.5 5.6875,42.0859375 C6.2734375,42.671875 6.9765625,42.9648438 7.796875,42.9648438 Z M38.96875,42.9648438 C39.7890625,42.9648438 40.4921875,42.671875 41.078125,42.0859375 C41.6640625,41.5 41.9570312,40.796875 41.9570312,39.9765625 C41.9570312,39.15625 41.6640625,38.453125 41.078125,37.8671875 C40.4921875,37.28125 39.7890625,36.9882812 38.96875,36.9882812 C38.1484375,36.9882812 37.4453125,37.28125 36.859375,37.8671875 C36.2734375,38.453125 35.9804688,39.15625 35.9804688,39.9765625 C35.9804688,40.796875 36.2734375,41.5 36.859375,42.0859375 C37.4453125,42.671875 38.1484375,42.9648438 38.96875,42.9648438 Z M7.796875,42.6132812 C7.09375,42.6132812 6.48828125,42.359375 5.98046875,41.8515625 C5.43359375,41.3828125 5.16015625,40.7578125 5.16015625,39.9765625 C5.16015625,39.2734375 5.43359375,38.6484375 5.98046875,38.1015625 C6.48828125,37.59375 7.09375,37.3398438 7.796875,37.3398438 C8.5390625,37.3398438 9.1640625,37.59375 9.671875,38.1015625 C10.1796875,38.6875 10.4335938,39.3125 10.4335938,39.9765625 C10.4335938,40.71875 10.1796875,41.34375 9.671875,41.8515625 C9.1640625,42.359375 8.5390625,42.6132812 7.796875,42.6132812 Z M38.96875,42.6132812 C38.265625,42.6132812 37.6601562,42.359375 37.1523438,41.8515625 C36.6054688,41.3828125 36.3320312,40.7578125 36.3320312,39.9765625 C36.3320312,39.2734375 36.6054688,38.6484375 37.1523438,38.1015625 C37.6601562,37.59375 38.265625,37.3398438 38.96875,37.3398438 C39.7109375,37.3398438 40.3359375,37.59375 40.84375,38.1015625 C41.3515625,38.6875 41.6054688,39.3125 41.6054688,39.9765625 C41.6054688,40.71875 41.3515625,41.34375 40.84375,41.8515625 C40.3359375,42.359375 39.7109375,42.6132812 38.96875,42.6132812 Z M31.0585938,42.671875 C31.7226562,42.671875 32.2890625,42.4375 32.7578125,41.96875 C33.1875,41.5390625 33.4023438,40.9921875 33.4023438,40.328125 L33.4023438,40.328125 L33.4023438,40.0351562 C33.4023438,39.4101562 33.1875,38.84375 32.7578125,38.3359375 C32.25,37.90625 31.6835938,37.6914062 31.0585938,37.6914062 L31.0585938,37.6914062 L15.9414062,37.6914062 C15.2773438,37.6914062 14.7304688,37.90625 14.3007812,38.3359375 C13.8320312,38.8046875 13.5976562,39.3710938 13.5976562,40.0351562 L13.5976562,40.0351562 L13.5976562,40.328125 C13.5976562,40.9921875 13.8320312,41.5390625 14.3007812,41.96875 C14.7304688,42.4375 15.2773438,42.671875 15.9414062,42.671875 L15.9414062,42.671875 L31.0585938,42.671875 Z M31.0585938,42.3203125 L15.9414062,42.3203125 C15.4726562,42.3203125 15.0234375,42.1054688 14.59375,41.6757812 C14.3984375,41.4804688 14.2421875,41.2753906 14.125,41.0605469 C14.0078125,40.8457031 13.9492188,40.6015625 13.9492188,40.328125 L13.9492188,40.328125 L13.9492188,40.0351562 C13.9492188,39.7617188 14.0078125,39.5078125 14.125,39.2734375 C14.2421875,39.0390625 14.3984375,38.8242188 14.59375,38.6289062 C14.984375,38.2382812 15.4335938,38.0429688 15.9414062,38.0429688 L15.9414062,38.0429688 L31.0585938,38.0429688 C31.6054688,38.0429688 32.0742188,38.2382812 32.4648438,38.6289062 C32.8554688,39.0195312 33.0507812,39.4882812 33.0507812,40.0351562 L33.0507812,40.0351562 L33.0507812,40.328125 C33.0507812,40.8359375 32.8554688,41.2851562 32.4648438,41.6757812 C32.2695312,41.8710938 32.0546875,42.0273438 31.8203125,42.1445312 C31.5859375,42.2617188 31.3320312,42.3203125 31.0585938,42.3203125 L31.0585938,42.3203125 Z M23.5585938,39.2148438 L23.734375,39.0976562 C23.7734375,39.0976562 23.8125,39.078125 23.8515625,39.0390625 C23.8515625,38.9609375 23.890625,38.8828125 23.96875,38.8046875 L23.96875,38.8046875 L23.96875,38.5703125 L23.9101562,38.6289062 L23.734375,38.6289062 L23.734375,38.6875 C23.6953125,38.6875 23.65625,38.7070312 23.6171875,38.7460938 C23.6171875,38.7851562 23.5976562,38.8046875 23.5585938,38.8046875 L23.5585938,38.8046875 L23.5585938,38.8632812 L23.5,38.9804688 L23.4414062,39.0390625 L23.4414062,39.2148438 L23.5585938,39.2148438 Z M23.1484375,41.3242188 L23.2070312,41.265625 L23.265625,41.265625 L23.3242188,41.2070312 L23.6757812,41.2070312 C23.6757812,41.2460938 23.6953125,41.265625 23.734375,41.265625 C23.734375,41.265625 23.7734375,41.2851562 23.8515625,41.3242188 L23.8515625,41.3242188 L24.0273438,41.3242188 L24.0859375,41.265625 L24.1445312,41.265625 C24.1445312,41.265625 24.1640625,41.2265625 24.203125,41.1484375 L24.203125,41.1484375 L24.2617188,41.0898438 L24.3789062,40.9726562 L24.4375,40.9140625 L24.4375,40.8554688 C24.4375,40.8164062 24.4570312,40.7773438 24.4960938,40.7382812 L24.4960938,40.7382812 L24.4960938,40.6210938 L24.5546875,40.6210938 L24.4960938,40.5625 L24.4375,40.5039062 C24.359375,40.5039062 24.3203125,40.4648438 24.3203125,40.3867188 C24.28125,40.3476562 24.2617188,40.3085938 24.2617188,40.2695312 C24.2226562,40.2304688 24.203125,40.1914062 24.203125,40.1523438 L24.203125,40.1523438 L24.203125,39.859375 C24.203125,39.8203125 24.2226562,39.78125 24.2617188,39.7421875 C24.2617188,39.625 24.3398438,39.546875 24.4960938,39.5078125 L24.4960938,39.5078125 L24.3789062,39.390625 C24.3398438,39.390625 24.3007812,39.3710938 24.2617188,39.3320312 C24.2226562,39.2929688 24.1835938,39.2734375 24.1445312,39.2734375 L24.1445312,39.2734375 L23.7929688,39.2734375 C23.7539062,39.2734375 23.7148438,39.2929688 23.6757812,39.3320312 L23.6757812,39.3320312 L23.5585938,39.3320312 L23.5,39.390625 L23.4414062,39.390625 C23.4023438,39.390625 23.3828125,39.3710938 23.3828125,39.3320312 L23.3828125,39.3320312 L23.265625,39.3320312 L23.2070312,39.2734375 L22.796875,39.2734375 C22.7578125,39.3125 22.71875,39.3320312 22.6796875,39.3320312 L22.6796875,39.3320312 L22.6210938,39.390625 L22.5039062,39.5078125 C22.4257812,39.5859375 22.3867188,39.6445312 22.3867188,39.6835938 L22.3867188,39.6835938 L22.3867188,39.8007812 C22.3476562,39.8398438 22.328125,39.8789062 22.328125,39.9179688 L22.328125,39.9179688 L22.328125,40.328125 C22.328125,40.3671875 22.3476562,40.40625 22.3867188,40.4453125 L22.3867188,40.4453125 L22.3867188,40.5625 C22.4257812,40.6015625 22.4453125,40.640625 22.4453125,40.6796875 C22.4453125,40.71875 22.4648438,40.7578125 22.5039062,40.796875 C22.5039062,40.8359375 22.5429688,40.8945312 22.6210938,40.9726562 C22.6210938,41.0117188 22.640625,41.03125 22.6796875,41.03125 C22.6796875,41.109375 22.71875,41.1484375 22.796875,41.1484375 L22.796875,41.1484375 L22.796875,41.2070312 C22.796875,41.2460938 22.8164062,41.265625 22.8554688,41.265625 L22.8554688,41.265625 L22.9140625,41.265625 C22.953125,41.3046875 22.9921875,41.3242188 23.03125,41.3242188 L23.03125,41.3242188 L23.1484375,41.3242188 Z" id="24" fill="currentColor" fill-rule="nonzero"></path>
    </g>
</svg>