<?xml version="1.0" encoding="UTF-8"?>
<svg width="33px" height="32px" viewBox="0 0 33 32" version="1.1" xmlns="http://www.w3.org/2000/svg" xmlns:xlink="http://www.w3.org/1999/xlink">
    <title>55</title>
    <g id="Page-1" stroke="none" stroke-width="1" fill="none" fill-rule="evenodd">
        <path d="M26.6367188,31.8359375 C27.5351562,31.8359375 28.3164062,31.796875 28.9804688,31.71875 C29.6445312,31.640625 30.2109375,31.5234375 30.6796875,31.3671875 C31.890625,31.015625 32.4960938,30.3515625 32.4960938,29.375 C32.4960938,28.59375 32.3203125,27.7929688 31.96875,26.9726562 C31.6171875,26.1523438 30.7578125,25.390625 29.390625,24.6875 L29.390625,24.6875 L25.875,22.9296875 C26.7734375,22.109375 27.5253906,21.09375 28.1308594,19.8828125 C28.7363281,18.671875 29.2246094,17.4511719 29.5957031,16.2207031 C29.9667969,14.9902344 30.2304688,13.828125 30.3867188,12.734375 C30.5429688,11.640625 30.6210938,10.8007812 30.6210938,10.2148438 L30.6210938,10.2148438 L30.6210938,9.74609375 C30.6210938,8.53515625 30.5722656,7.32421875 30.4746094,6.11328125 C30.3769531,4.90234375 30.0351562,3.84765625 29.4492188,2.94921875 C29.0976562,2.40234375 28.5019531,1.97265625 27.6621094,1.66015625 C26.8222656,1.34765625 25.9335938,1.11328125 24.9960938,0.95703125 C24.0585938,0.80078125 23.1503906,0.703125 22.2714844,0.6640625 C21.3925781,0.625 20.71875,0.60546875 20.25,0.60546875 L20.25,0.60546875 L12.3398438,0.60546875 C11.7929688,0.60546875 11.0996094,0.625 10.2597656,0.6640625 C9.41992188,0.703125 8.56054688,0.810546875 7.68164062,0.986328125 C6.80273438,1.16210938 5.98242188,1.39648438 5.22070312,1.68945312 C4.45898438,1.98242188 3.90234375,2.40234375 3.55078125,2.94921875 C2.96484375,3.84765625 2.62304688,4.90234375 2.52539062,6.11328125 C2.42773438,7.32421875 2.37890625,8.53515625 2.37890625,9.74609375 L2.37890625,9.74609375 L2.37890625,10.2148438 C2.37890625,10.8007812 2.45703125,11.640625 2.61328125,12.734375 C2.76953125,13.828125 3.03320312,14.9902344 3.40429688,16.2207031 C3.77539062,17.4511719 4.26367188,18.671875 4.86914062,19.8828125 C5.47460938,21.09375 6.2265625,22.109375 7.125,22.9296875 L7.125,22.9296875 L3.609375,24.6875 C2.2421875,25.390625 1.3828125,26.1523438 1.03125,26.9726562 C0.6796875,27.7929688 0.50390625,28.59375 0.50390625,29.375 C0.50390625,30.390625 0.97265625,31.0546875 1.91015625,31.3671875 C2.84765625,31.6796875 4.078125,31.8359375 5.6015625,31.8359375 L5.6015625,31.8359375 L26.6367188,31.8359375 Z M12.75,30.3125 L5.484375,30.3125 C4.3515625,30.3125 3.296875,30.2636719 2.3203125,30.1660156 C1.34375,30.0683594 0.85546875,29.8046875 0.85546875,29.375 C0.85546875,28.515625 1.04101562,27.734375 1.41210938,27.03125 C1.78320312,26.328125 2.57421875,25.6640625 3.78515625,25.0390625 L3.78515625,25.0390625 L7.53515625,23.1640625 C7.61328125,23.0859375 7.65234375,23.0273438 7.65234375,22.9882812 C7.65234375,22.9101562 7.6328125,22.8710938 7.59375,22.8710938 C6.6953125,22.0898438 5.93359375,21.1035156 5.30859375,19.9121094 C4.68359375,18.7207031 4.18554688,17.4902344 3.81445312,16.2207031 C3.44335938,14.9511719 3.1796875,13.7695312 3.0234375,12.6757812 C2.8671875,11.5820312 2.7890625,10.7617188 2.7890625,10.2148438 L2.7890625,10.2148438 L2.7890625,9.74609375 C2.75,8.57421875 2.77929688,7.39257812 2.87695312,6.20117188 C2.97460938,5.00976562 3.296875,3.984375 3.84375,3.125 C4.1953125,2.6171875 4.75195312,2.21679688 5.51367188,1.92382812 C6.27539062,1.63085938 7.09570312,1.41601562 7.97460938,1.27929688 C8.85351562,1.14257812 9.703125,1.0546875 10.5234375,1.015625 C11.34375,0.9765625 11.9492188,0.95703125 12.3398438,0.95703125 L20.25,0.95703125 C21.1484375,0.95703125 22.0664062,0.99609375 23.0039062,1.07421875 C23.9414062,1.15234375 24.8203125,1.27929688 25.640625,1.45507812 C26.4609375,1.63085938 27.1835938,1.85546875 27.8085938,2.12890625 C28.4335938,2.40234375 28.8828125,2.734375 29.15625,3.125 C29.703125,3.984375 30.0253906,5.00976562 30.1230469,6.20117188 C30.2207031,7.39257812 30.25,8.57421875 30.2109375,9.74609375 L30.2109375,9.74609375 L30.2109375,10.2148438 C30.2109375,10.7617188 30.1328125,11.5820312 29.9765625,12.6757812 C29.8203125,13.7695312 29.5566406,14.9511719 29.1855469,16.2207031 C28.8144531,17.4902344 28.3164062,18.7207031 27.6914062,19.9121094 C27.0664062,21.1035156 26.3046875,22.0898438 25.40625,22.8710938 C25.3671875,22.8710938 25.3476562,22.9101562 25.3476562,22.9882812 C25.3476562,23.0273438 25.3867188,23.0859375 25.4648438,23.1640625 L25.4648438,23.1640625 L29.2148438,25.0390625 C30.4257812,25.6640625 31.2167969,26.328125 31.5878906,27.03125 C31.9589844,27.734375 32.1445312,28.515625 32.1445312,29.375 C32.1445312,29.6875 31.65625,29.9414062 30.6796875,30.1367188 C29.8203125,30.2539062 28.5507812,30.3125 26.8710938,30.3125 L26.8710938,30.3125 L20.25,30.3125 C20.3671875,30.1953125 20.4257812,30.0390625 20.4257812,29.84375 C20.4257812,29.6484375 20.3476562,29.4921875 20.1914062,29.375 L20.1914062,29.375 L20.4257812,29.140625 C20.5820312,28.7890625 20.5820312,28.4570312 20.4257812,28.1445312 L20.4257812,28.1445312 L19.6640625,27.03125 C19.546875,26.71875 19.3125,26.5625 18.9609375,26.5625 L18.9609375,26.5625 L14.0976562,26.5625 C13.7460938,26.5625 13.4921875,26.71875 13.3359375,27.03125 L13.3359375,27.03125 L12.5742188,28.1445312 C12.3789062,28.5351562 12.3789062,28.8671875 12.5742188,29.140625 C12.6132812,29.1796875 12.6523438,29.2089844 12.6914062,29.2285156 C12.7304688,29.2480469 12.7695312,29.296875 12.8085938,29.375 C12.6523438,29.4921875 12.5742188,29.6484375 12.5742188,29.84375 C12.5742188,30.0390625 12.6328125,30.1953125 12.75,30.3125 L12.75,30.3125 Z M27.046875,19.765625 C27.1640625,19.765625 27.2226562,19.7070312 27.2226562,19.5898438 L27.2226562,19.5898438 L27.2226562,4.1796875 C27.2226562,4.0625 27.1640625,4.00390625 27.046875,4.00390625 L27.046875,4.00390625 L5.953125,4.00390625 C5.8359375,4.00390625 5.77734375,4.0625 5.77734375,4.1796875 L5.77734375,4.1796875 L5.77734375,19.5898438 C5.77734375,19.7070312 5.8359375,19.765625 5.953125,19.765625 L5.953125,19.765625 L27.046875,19.765625 Z M26.8710938,19.4140625 L6.12890625,19.4140625 L6.12890625,4.35546875 L26.8710938,4.35546875 L26.8710938,19.4140625 Z M16.5,22.4023438 C17.125,22.4023438 17.4375,22.0898438 17.4375,21.4648438 C17.4375,20.8398438 17.125,20.5273438 16.5,20.5273438 C15.875,20.5273438 15.5625,20.8398438 15.5625,21.4648438 C15.5625,22.0898438 15.875,22.4023438 16.5,22.4023438 Z M16.5,22.0507812 C16.109375,22.0507812 15.9140625,21.8554688 15.9140625,21.4648438 C15.9140625,21.1132812 16.109375,20.9375 16.5,20.9375 C16.890625,20.9375 17.0859375,21.1132812 17.0859375,21.4648438 C17.0859375,21.8554688 16.890625,22.0507812 16.5,22.0507812 Z M29.2734375,26.2109375 C29.390625,26.2109375 29.46875,26.1523438 29.5078125,26.0351562 C29.5078125,25.9179688 29.46875,25.859375 29.390625,25.859375 L29.390625,25.859375 L25.9921875,23.984375 C25.9921875,23.9453125 25.9726562,23.9257812 25.9335938,23.9257812 L25.9335938,23.9257812 L7.06640625,23.9257812 L7.06640625,23.9257812 L7.0078125,23.984375 L3.609375,25.859375 C3.53125,25.859375 3.4921875,25.9179688 3.4921875,26.0351562 C3.5703125,26.1523438 3.6484375,26.2109375 3.7265625,26.2109375 L3.7265625,26.2109375 L29.2734375,26.2109375 Z M28.5703125,25.8007812 L4.4296875,25.8007812 L7.125,24.3359375 L25.875,24.3359375 L28.5703125,25.8007812 Z M19.4882812,29.1992188 L13.5117187,29.1992188 C13.2773437,29.1992188 13.0625,29.1015625 12.8671875,28.90625 C12.7890625,28.75 12.7890625,28.5742188 12.8671875,28.3789062 L12.8671875,28.3789062 L13.6289062,27.2070312 C13.8242187,27.0117188 13.9804687,26.9140625 14.0976562,26.9140625 L14.0976562,26.9140625 L18.9609375,26.9140625 C19.1171875,26.9140625 19.2539062,27.0117188 19.3710938,27.2070312 L19.3710938,27.2070312 L20.0742188,28.3789062 C20.2304688,28.5351562 20.25,28.7109375 20.1328125,28.90625 C20.0546875,28.984375 19.9472656,29.0527344 19.8105469,29.1113281 C19.6738281,29.1699219 19.5664062,29.1992188 19.4882812,29.1992188 L19.4882812,29.1992188 Z M19.4882812,30.3125 L13.5117188,30.3125 C13.3554688,30.3125 13.21875,30.2539062 13.1015625,30.1367188 C12.984375,30.0195312 12.9257812,29.921875 12.9257812,29.84375 C12.9257812,29.8046875 12.9648438,29.7460938 13.0429688,29.6679688 C13.1210938,29.5898438 13.2773438,29.5507812 13.5117188,29.5507812 L13.5117188,29.5507812 L19.4882812,29.5507812 C19.7226562,29.5507812 19.8789062,29.5898438 19.9570312,29.6679688 C20.0351562,29.7460938 20.0742188,29.8046875 20.0742188,29.84375 C20.0742188,29.921875 20.015625,30.0195312 19.8984375,30.1367188 C19.78125,30.2539062 19.6445312,30.3125 19.4882812,30.3125 L19.4882812,30.3125 Z M26.6367188,31.484375 L5.6015625,31.484375 C2.984375,31.484375 1.48046875,31.0546875 1.08984375,30.1953125 C1.48046875,30.390625 2.046875,30.5273438 2.7890625,30.6054688 C3.53125,30.6835938 4.4296875,30.7226562 5.484375,30.7226562 L5.484375,30.7226562 L26.8710938,30.7226562 C28.6679688,30.7226562 29.9570312,30.6445312 30.7382812,30.4882812 C31.0117188,30.4101562 31.2363281,30.3515625 31.4121094,30.3125 C31.5878906,30.2734375 31.7539062,30.2148438 31.9101562,30.1367188 C31.6757812,30.5273438 31.2265625,30.8203125 30.5625,31.015625 C29.625,31.328125 28.3164062,31.484375 26.6367188,31.484375 L26.6367188,31.484375 Z" id="55" fill="currentColor" fill-rule="nonzero"></path>
    </g>
</svg>