<?xml version="1.0" encoding="UTF-8"?>
<svg width="45px" height="52px" viewBox="0 0 45 52" version="1.1" xmlns="http://www.w3.org/2000/svg" xmlns:xlink="http://www.w3.org/1999/xlink">
    <title>25</title>
    <g id="Page-1" stroke="none" stroke-width="1" fill="none" fill-rule="evenodd">
        <path d="M34.3359375,51.8359375 C34.7265625,51.8359375 35.078125,51.6796875 35.390625,51.3671875 C35.625,51.1328125 35.7421875,50.8007812 35.7421875,50.3710938 C35.7421875,48.6132812 35.4199219,46.9726562 34.7753906,45.4492188 C34.1308594,43.9257812 33.2421875,42.5976562 32.109375,41.4648438 C30.9765625,40.3320312 29.6777344,39.4433594 28.2128906,38.7988281 C26.7480469,38.1542969 25.15625,37.8125 23.4375,37.7734375 L23.4375,37.7734375 L23.4375,36.0742188 C23.671875,35.9960938 23.8476562,35.9179688 23.9648438,35.8398438 C24.1601563,35.6445312 24.2773438,35.4882812 24.3164062,35.3710938 L24.3164062,35.3710938 L40.6640625,35.3710938 C41.25,35.3710938 41.8066406,35.2539062 42.3339844,35.0195312 C42.8613281,34.7851562 43.3398438,34.4726562 43.7695312,34.0820312 C44.5898438,33.3007812 45,32.265625 45,30.9765625 L45,30.9765625 L45,4.84375 C45,3.515625 44.5898438,2.48046875 43.7695312,1.73828125 C43.3398438,1.34765625 42.8613281,1.03515625 42.3339844,0.80078125 C41.8066406,0.56640625 41.25,0.44921875 40.6640625,0.44921875 L40.6640625,0.44921875 L4.3359375,0.44921875 C3.75,0.44921875 3.203125,0.56640625 2.6953125,0.80078125 C2.1875,1.03515625 1.71875,1.34765625 1.2890625,1.73828125 C0.4296875,2.51953125 0,3.5546875 0,4.84375 L0,4.84375 L0,30.9765625 C0,32.265625 0.4296875,33.3007812 1.2890625,34.0820312 C1.71875,34.4726562 2.1875,34.7851562 2.6953125,35.0195312 C3.203125,35.2539062 3.75,35.3710938 4.3359375,35.3710938 L4.3359375,35.3710938 L20.7421875,35.3710938 C20.78125,35.5273438 20.9179688,35.6835938 21.1523438,35.8398438 C21.2304688,35.9179688 21.3867188,35.9960938 21.6210938,36.0742188 L21.6210938,36.0742188 L21.6210938,37.7734375 C19.9023438,37.8125 18.3203125,38.1542969 16.875,38.7988281 C15.4296875,39.4433594 14.140625,40.3320312 13.0078125,41.4648438 C11.875,42.5976562 10.9765625,43.9257812 10.3125,45.4492188 C9.6484375,46.9726562 9.31640625,48.6132812 9.31640625,50.3710938 C9.31640625,50.7617188 9.453125,51.09375 9.7265625,51.3671875 C9.9609375,51.6796875 10.2929688,51.8359375 10.7226562,51.8359375 L10.7226562,51.8359375 L34.3359375,51.8359375 Z M40.6640625,35.0195312 L4.3359375,35.0195312 C3.203125,35.0195312 2.265625,34.609375 1.5234375,33.7890625 C0.7421875,33.0078125 0.3515625,32.0703125 0.3515625,30.9765625 L0.3515625,30.9765625 L0.3515625,4.84375 C0.3515625,4.296875 0.458984375,3.77929688 0.673828125,3.29101562 C0.888671875,2.80273438 1.171875,2.36328125 1.5234375,1.97265625 C2.3046875,1.19140625 3.2421875,0.80078125 4.3359375,0.80078125 L4.3359375,0.80078125 L40.6640625,0.80078125 C41.7578125,0.80078125 42.6953125,1.19140625 43.4765625,1.97265625 C43.828125,2.36328125 44.1113281,2.80273438 44.3261719,3.29101562 C44.5410156,3.77929688 44.6484375,4.296875 44.6484375,4.84375 L44.6484375,4.84375 L44.6484375,30.9765625 C44.6484375,32.0703125 44.2578125,33.0078125 43.4765625,33.7890625 C42.734375,34.609375 41.796875,35.0195312 40.6640625,35.0195312 L40.6640625,35.0195312 Z M40.6640625,33.9648438 C41.484375,33.9648438 42.1875,33.671875 42.7734375,33.0859375 C43.359375,32.578125 43.6523438,31.875 43.6523438,30.9765625 L43.6523438,30.9765625 L43.6523438,4.84375 C43.6523438,4.0234375 43.359375,3.3203125 42.7734375,2.734375 C42.1875,2.1484375 41.484375,1.85546875 40.6640625,1.85546875 L40.6640625,1.85546875 L4.3359375,1.85546875 C3.515625,1.85546875 2.8125,2.1484375 2.2265625,2.734375 C1.640625,3.3203125 1.34765625,4.0234375 1.34765625,4.84375 L1.34765625,4.84375 L1.34765625,30.9765625 C1.34765625,31.875 1.640625,32.578125 2.2265625,33.0859375 C2.8125,33.671875 3.515625,33.9648438 4.3359375,33.9648438 L4.3359375,33.9648438 L40.6640625,33.9648438 Z M40.6640625,33.6132812 L4.3359375,33.6132812 C3.6328125,33.6132812 3.02734375,33.359375 2.51953125,32.8515625 C2.01171875,32.34375 1.7578125,31.71875 1.7578125,30.9765625 L1.7578125,30.9765625 L1.7578125,4.84375 C1.7578125,4.1015625 2.01171875,3.4765625 2.51953125,2.96875 C3.02734375,2.4609375 3.6328125,2.20703125 4.3359375,2.20703125 L4.3359375,2.20703125 L40.6640625,2.20703125 C41.3671875,2.20703125 41.9726562,2.4609375 42.4804688,2.96875 C42.9882812,3.4765625 43.2421875,4.1015625 43.2421875,4.84375 L43.2421875,4.84375 L43.2421875,30.9765625 C43.2421875,31.71875 42.9882812,32.34375 42.4804688,32.8515625 C41.9726562,33.359375 41.3671875,33.6132812 40.6640625,33.6132812 L40.6640625,33.6132812 Z M40.6640625,31.2109375 C40.703125,31.2109375 40.7226562,31.1914062 40.7226562,31.1523438 C40.7617188,31.1523438 40.78125,31.1328125 40.78125,31.09375 L40.78125,31.09375 L40.8398438,31.0351562 L40.8398438,4.7265625 C40.8007812,4.7265625 40.78125,4.70703125 40.78125,4.66796875 L40.78125,4.66796875 L40.6640625,4.609375 L4.3359375,4.609375 L4.21875,4.66796875 L4.21875,4.7265625 C4.1796875,4.765625 4.16015625,4.8046875 4.16015625,4.84375 L4.16015625,4.84375 L4.16015625,30.9765625 C4.16015625,31.015625 4.1796875,31.0351562 4.21875,31.0351562 L4.21875,31.0351562 L4.21875,31.09375 C4.21875,31.1328125 4.23828125,31.1523438 4.27734375,31.1523438 L4.27734375,31.1523438 L4.3359375,31.2109375 L40.6640625,31.2109375 Z M40.4882812,30.8007812 L4.51171875,30.8007812 L4.51171875,5.01953125 L40.4882812,5.01953125 L40.4882812,30.8007812 Z M23.2617188,35.7226562 L21.8554688,35.7226562 C21.7773438,35.7226562 21.71875,35.703125 21.6796875,35.6640625 C21.6015625,35.6640625 21.5429688,35.6445312 21.5039062,35.6054688 C21.4648438,35.6054688 21.40625,35.5664062 21.328125,35.4882812 L21.328125,35.4882812 L21.1523438,35.3710938 L23.90625,35.3710938 L23.7890625,35.4882812 C23.7109375,35.5664062 23.6523438,35.6054688 23.6132812,35.6054688 C23.5742188,35.6445312 23.515625,35.6640625 23.4375,35.6640625 C23.3984375,35.703125 23.3398438,35.7226562 23.2617188,35.7226562 L23.2617188,35.7226562 Z M23.0273438,37.7734375 L22.03125,37.7734375 L22.03125,36.0742188 L23.0273438,36.0742188 L23.0273438,37.7734375 Z M34.3359375,51.4257812 L10.7226562,51.4257812 C10.4492188,51.4257812 10.2148438,51.3085938 10.0195312,51.0742188 C9.78515625,50.8789062 9.66796875,50.6445312 9.66796875,50.3710938 C9.66796875,48.6914062 9.99023438,47.109375 10.6347656,45.625 C11.2792969,44.140625 12.1679688,42.8320312 13.3007812,41.6992188 C14.3945312,40.6054688 15.6640625,39.7460938 17.109375,39.1210938 C18.5546875,38.4960938 20.0976562,38.1640625 21.7382812,38.125 L21.7382812,38.125 L21.8554688,38.1835938 L23.2617188,38.1835938 L23.3203125,38.125 C24.9609375,38.1640625 26.5136719,38.4960938 27.9785156,39.1210938 C29.4433594,39.7460938 30.7226562,40.6054688 31.8164062,41.6992188 C32.9492188,42.8320312 33.828125,44.140625 34.453125,45.625 C35.078125,47.109375 35.390625,48.6914062 35.390625,50.3710938 C35.390625,50.6445312 35.2929688,50.8789062 35.0976562,51.0742188 C34.8632812,51.3085938 34.609375,51.4257812 34.3359375,51.4257812 L34.3359375,51.4257812 Z M22.6757812,40.5273438 C22.7539062,40.5273438 22.8320312,40.4882812 22.9101562,40.4101562 C22.9101562,40.3710938 22.9296875,40.3320312 22.96875,40.2929688 L22.96875,40.2929688 L23.0859375,40.1757812 L23.1445312,40.1171875 L23.1445312,40.1171875 L23.1445312,39.8242188 L23.0273438,39.8242188 C22.9882812,39.8242188 22.9492188,39.84375 22.9101562,39.8828125 L22.9101562,39.8828125 L22.8515625,39.8828125 L22.734375,40 C22.734375,40.0390625 22.7148438,40.0585938 22.6757812,40.0585938 L22.6757812,40.0585938 L22.6757812,40.1171875 C22.6367188,40.15625 22.6171875,40.1953125 22.6171875,40.234375 C22.5390625,40.3125 22.5,40.390625 22.5,40.46875 L22.5,40.46875 L22.5585938,40.5273438 L22.6757812,40.5273438 Z M22.2070312,42.8710938 L22.265625,42.8125 L22.3242188,42.8125 C22.3632812,42.8125 22.4023438,42.7929688 22.4414062,42.7539062 L22.4414062,42.7539062 L22.7929688,42.7539062 C22.7929688,42.7929688 22.8125,42.8125 22.8515625,42.8125 L22.8515625,42.8125 L22.96875,42.8125 C22.96875,42.8515625 22.9882812,42.8710938 23.0273438,42.8710938 L23.0273438,42.8710938 L23.203125,42.8710938 L23.3203125,42.7539062 L23.3789062,42.7539062 L23.4375,42.6953125 L23.4960938,42.6367188 L23.5546875,42.5195312 C23.59375,42.4804688 23.6132812,42.4414062 23.6132812,42.4023438 L23.6132812,42.4023438 L23.671875,42.34375 L23.7304688,42.2265625 L23.7304688,42.109375 L23.7890625,42.0507812 C23.75,42.0507812 23.7304688,42.03125 23.7304688,41.9921875 L23.7304688,41.9921875 L23.671875,41.9921875 L23.671875,41.9335938 L23.5546875,41.9335938 C23.515625,41.8945312 23.4960938,41.8554688 23.4960938,41.8164062 C23.4570312,41.7773438 23.4375,41.7382812 23.4375,41.6992188 C23.3984375,41.6601562 23.3789062,41.6210938 23.3789062,41.5820312 L23.3789062,41.5820312 L23.3789062,41.2304688 C23.3789062,41.1914062 23.3984375,41.1523438 23.4375,41.1132812 L23.4375,41.1132812 L23.5546875,40.9960938 C23.671875,40.8789062 23.6914062,40.8007812 23.6132812,40.7617188 C23.4960938,40.6445312 23.3984375,40.5859375 23.3203125,40.5859375 L23.3203125,40.5859375 L23.1445312,40.5859375 L23.0859375,40.5273438 L23.0273438,40.5859375 L22.9101562,40.5859375 C22.8710938,40.5859375 22.8320312,40.6054688 22.7929688,40.6445312 L22.7929688,40.6445312 L22.6757812,40.6445312 L22.6171875,40.703125 L22.5,40.703125 C22.4609375,40.703125 22.4414062,40.6835938 22.4414062,40.6445312 L22.4414062,40.6445312 L22.3242188,40.6445312 C22.2851562,40.6445312 22.265625,40.625 22.265625,40.5859375 L22.265625,40.5859375 L21.796875,40.5859375 C21.7578125,40.625 21.71875,40.6445312 21.6796875,40.6445312 L21.6796875,40.6445312 L21.5625,40.7617188 C21.484375,40.8398438 21.4453125,40.8984375 21.4453125,40.9375 C21.3671875,41.015625 21.328125,41.09375 21.328125,41.171875 L21.328125,41.171875 L21.328125,41.2890625 C21.2890625,41.328125 21.2695312,41.3867188 21.2695312,41.4648438 C21.2695312,41.5039062 21.2890625,41.5429688 21.328125,41.5820312 L21.328125,41.5820312 L21.328125,41.7578125 C21.328125,41.796875 21.3476562,41.8359375 21.3867188,41.875 L21.3867188,41.875 L21.3867188,42.0507812 C21.3867188,42.1289062 21.4257812,42.2070312 21.5039062,42.2851562 C21.5039062,42.4023438 21.5429688,42.4609375 21.6210938,42.4609375 C21.6210938,42.578125 21.6601562,42.6367188 21.7382812,42.6367188 C21.7382812,42.7148438 21.7773438,42.7539062 21.8554688,42.7539062 L21.8554688,42.7539062 L21.9140625,42.7539062 C21.9140625,42.8320312 21.953125,42.8710938 22.03125,42.8710938 L22.03125,42.8710938 L22.2070312,42.8710938 Z M26.8945312,48.0859375 C27.2851562,48.0859375 27.6171875,47.9492188 27.890625,47.6757812 C28.1640625,47.4023438 28.3007812,47.0703125 28.3007812,46.6796875 C28.3007812,46.328125 28.1640625,45.9765625 27.890625,45.625 C27.6171875,45.3515625 27.2851562,45.2148438 26.8945312,45.2148438 L26.8945312,45.2148438 L18.1640625,45.2148438 C17.7734375,45.2148438 17.4414062,45.3515625 17.1679688,45.625 C16.8945312,45.9765625 16.7578125,46.328125 16.7578125,46.6796875 C16.7578125,47.0703125 16.8945312,47.4023438 17.1679688,47.6757812 C17.4414062,47.9492188 17.7734375,48.0859375 18.1640625,48.0859375 L18.1640625,48.0859375 L26.8945312,48.0859375 Z M26.8945312,47.734375 L18.1640625,47.734375 C17.890625,47.734375 17.65625,47.6171875 17.4609375,47.3828125 C17.2265625,47.1875 17.109375,46.953125 17.109375,46.6796875 C17.109375,46.3671875 17.2265625,46.09375 17.4609375,45.859375 C17.6171875,45.703125 17.8515625,45.625 18.1640625,45.625 L18.1640625,45.625 L26.8945312,45.625 C27.2070312,45.625 27.4609375,45.703125 27.65625,45.859375 C27.8515625,46.1328125 27.9492188,46.40625 27.9492188,46.6796875 C27.9492188,46.953125 27.8515625,47.1875 27.65625,47.3828125 C27.421875,47.6171875 27.1679688,47.734375 26.8945312,47.734375 L26.8945312,47.734375 Z" id="25" fill="currentColor" fill-rule="nonzero"></path>
    </g>
</svg>