<?xml version="1.0" encoding="UTF-8"?>
<svg width="41px" height="40px" viewBox="0 0 41 40" version="1.1" xmlns="http://www.w3.org/2000/svg" xmlns:xlink="http://www.w3.org/1999/xlink">
    <title>22</title>
    <g id="Page-1" stroke="none" stroke-width="1" fill="none" fill-rule="evenodd">
        <path d="M36.4375,37.1992188 C37.6484375,37.1992188 38.6445312,36.75 39.4257812,35.8515625 C40.1679688,34.9921875 40.5390625,33.859375 40.5390625,32.453125 L40.5390625,32.453125 L40.5390625,29.9335938 C40.5390625,29.9335938 40.5585938,29.8945312 40.5976562,29.8164062 L40.5976562,29.8164062 L40.5976562,26.59375 C40.5585938,24.09375 40.5,21.6621094 40.421875,19.2988281 C40.34375,16.9355469 40.2460938,14.7578125 40.1289062,12.765625 C40.0117188,10.7734375 39.8945312,9.00585938 39.7773438,7.46289062 C39.6601562,5.91992188 39.5625,4.69921875 39.484375,3.80078125 C39.4453125,3.17578125 39.1914062,2.609375 38.7226562,2.1015625 C38.4882812,1.90625 38.234375,1.73046875 37.9609375,1.57421875 C37.6875,1.41796875 37.3945312,1.3203125 37.0820312,1.28125 C36.7695312,1.2421875 36.4179688,1.203125 36.0273438,1.1640625 C35.6367188,1.125 35.2265625,1.06640625 34.796875,0.98828125 C33.8203125,0.87109375 32.6875,0.75390625 31.3984375,0.63671875 C30.03125,0.55859375 28.4589844,0.48046875 26.6816406,0.40234375 C24.9042969,0.32421875 22.84375,0.28515625 20.5,0.28515625 C18.15625,0.28515625 16.0957031,0.32421875 14.3183594,0.40234375 C12.5410156,0.48046875 10.9882812,0.55859375 9.66015625,0.63671875 C8.33203125,0.75390625 7.19921875,0.87109375 6.26171875,0.98828125 C5.32421875,1.10546875 4.5625,1.203125 3.9765625,1.28125 C3.625,1.3203125 3.3125,1.41796875 3.0390625,1.57421875 C2.765625,1.73046875 2.53125,1.90625 2.3359375,2.1015625 C1.8671875,2.5703125 1.59375,3.13671875 1.515625,3.80078125 C1.4375,4.69921875 1.33984375,5.91992188 1.22265625,7.46289062 C1.10546875,9.00585938 0.98828125,10.7734375 0.87109375,12.765625 C0.75390625,14.7578125 0.65625,16.9355469 0.578125,19.2988281 C0.5,21.6621094 0.4609375,24.09375 0.4609375,26.59375 L0.4609375,26.59375 L0.40234375,29.8164062 L0.40234375,32.453125 C0.40234375,33.859375 0.79296875,34.9921875 1.57421875,35.8515625 C2.35546875,36.75 3.33203125,37.1992188 4.50390625,37.1992188 L4.50390625,37.1992188 L36.4375,37.1992188 Z M40.1875,29.640625 L0.8125,29.640625 L0.8125,26.59375 C0.8125,24.09375 0.861328125,21.671875 0.958984375,19.328125 C1.05664062,16.984375 1.1640625,14.796875 1.28125,12.765625 C1.3984375,10.7734375 1.515625,9.00585938 1.6328125,7.46289062 C1.75,5.91992188 1.84765625,4.71875 1.92578125,3.859375 C1.92578125,3.3125 2.140625,2.82421875 2.5703125,2.39453125 C3,1.96484375 3.46875,1.73046875 3.9765625,1.69140625 C4.2890625,1.65234375 4.640625,1.61328125 5.03125,1.57421875 C5.421875,1.53515625 5.8515625,1.4765625 6.3203125,1.3984375 C6.75,1.3203125 7.2578125,1.26171875 7.84375,1.22265625 C8.4296875,1.18359375 9.0546875,1.125 9.71875,1.046875 C11.0859375,0.96875 12.6386719,0.890625 14.3769531,0.8125 C16.1152344,0.734375 18.15625,0.6953125 20.5,0.6953125 C22.84375,0.6953125 24.9042969,0.734375 26.6816406,0.8125 C28.4589844,0.890625 30.0117188,0.96875 31.3398438,1.046875 C32.6679688,1.1640625 33.8007812,1.28125 34.7382812,1.3984375 C35.6757812,1.515625 36.4375,1.61328125 37.0234375,1.69140625 C37.5703125,1.73046875 38.0390625,1.96484375 38.4296875,2.39453125 C38.859375,2.82421875 39.0742188,3.3125 39.0742188,3.859375 C39.1523438,4.71875 39.25,5.91992188 39.3671875,7.46289062 C39.484375,9.00585938 39.6015625,10.7734375 39.71875,12.765625 C39.8359375,14.796875 39.9433594,16.984375 40.0410156,19.328125 C40.1386719,21.671875 40.1875,24.09375 40.1875,26.59375 L40.1875,26.59375 L40.1875,29.640625 Z M20.5,3.625 C20.6171875,3.625 20.7246094,3.59570312 20.8222656,3.53710938 C20.9199219,3.47851562 21.0078125,3.41015625 21.0859375,3.33203125 C21.2421875,3.21484375 21.3203125,3.01953125 21.3203125,2.74609375 C21.3203125,2.51171875 21.2421875,2.31640625 21.0859375,2.16015625 C20.9296875,2.00390625 20.734375,1.92578125 20.5,1.92578125 C20.265625,1.92578125 20.0703125,2.00390625 19.9140625,2.16015625 C19.7578125,2.31640625 19.6796875,2.51171875 19.6796875,2.74609375 C19.6796875,3.01953125 19.7578125,3.21484375 19.9140625,3.33203125 C19.9921875,3.41015625 20.0800781,3.47851562 20.1777344,3.53710938 C20.2753906,3.59570312 20.3828125,3.625 20.5,3.625 Z M20.5,3.21484375 C20.421875,3.21484375 20.3730469,3.20507812 20.3535156,3.18554688 C20.3339844,3.16601562 20.2851562,3.13671875 20.2070312,3.09765625 C20.0898438,3.01953125 20.03125,2.90234375 20.03125,2.74609375 C20.03125,2.58984375 20.0898438,2.4921875 20.2070312,2.453125 L20.2070312,2.453125 L20.3242188,2.3359375 C20.3632812,2.296875 20.421875,2.27734375 20.5,2.27734375 C20.6171875,2.27734375 20.734375,2.3359375 20.8515625,2.453125 C20.9296875,2.53125 20.96875,2.62890625 20.96875,2.74609375 C20.96875,2.90234375 20.9296875,3.01953125 20.8515625,3.09765625 C20.7734375,3.17578125 20.65625,3.21484375 20.5,3.21484375 Z M35.5,26.7695312 C35.734375,26.7695312 35.9296875,26.6914062 36.0859375,26.5351562 C36.2421875,26.3789062 36.3203125,26.1835938 36.3203125,25.9492188 L36.3203125,25.9492188 L36.3203125,23.9570312 C36.3203125,22.1601562 36.3007812,20.34375 36.2617188,18.5078125 C36.2226562,16.671875 36.1640625,14.9335938 36.0859375,13.2929688 L36.0859375,13.2929688 L35.9101562,9.015625 C35.8320312,7.765625 35.7734375,6.84765625 35.734375,6.26171875 C35.734375,6.06640625 35.65625,5.890625 35.5,5.734375 C35.34375,5.578125 35.1484375,5.5 34.9140625,5.5 C34.5234375,5.4609375 33.8984375,5.40234375 33.0390625,5.32421875 C32.609375,5.28515625 32.140625,5.24609375 31.6328125,5.20703125 C31.125,5.16796875 30.5585938,5.12890625 29.9335938,5.08984375 C28.6835938,5.01171875 27.2675781,4.953125 25.6855469,4.9140625 C24.1035156,4.875 22.375,4.85546875 20.5,4.85546875 L20.5,4.85546875 L17.8046875,4.85546875 C16.9453125,4.85546875 16.125,4.875 15.34375,4.9140625 C13.7421875,4.9921875 12.3261719,5.06054688 11.0957031,5.11914062 C9.86523438,5.17773438 8.83984375,5.24609375 8.01953125,5.32421875 C7.19921875,5.36328125 6.53515625,5.421875 6.02734375,5.5 C5.83203125,5.5 5.67578125,5.578125 5.55859375,5.734375 C5.48046875,5.8125 5.421875,5.890625 5.3828125,5.96875 C5.34375,6.046875 5.3046875,6.14453125 5.265625,6.26171875 C5.2265625,6.57421875 5.20703125,6.95507812 5.20703125,7.40429688 C5.20703125,7.85351562 5.1875,8.390625 5.1484375,9.015625 C5.109375,9.640625 5.0703125,10.3144531 5.03125,11.0371094 C4.9921875,11.7597656 4.953125,12.5117188 4.9140625,13.2929688 C4.8359375,14.9335938 4.77734375,16.671875 4.73828125,18.5078125 C4.69921875,20.34375 4.6796875,22.1601562 4.6796875,23.9570312 L4.6796875,23.9570312 L4.6796875,25.9492188 C4.6796875,26.1835938 4.7578125,26.3789062 4.9140625,26.5351562 C5.0703125,26.6914062 5.265625,26.7695312 5.5,26.7695312 L5.5,26.7695312 L35.5,26.7695312 Z M35.5,26.4179688 L5.5,26.4179688 C5.4609375,26.4179688 5.421875,26.3984375 5.3828125,26.359375 L5.3828125,26.359375 L5.20703125,26.2421875 C5.08984375,26.1640625 5.03125,26.0664062 5.03125,25.9492188 L5.03125,25.9492188 L5.03125,23.9570312 C5.03125,22.1601562 5.06054688,20.34375 5.11914062,18.5078125 C5.17773438,16.671875 5.24609375,14.9335938 5.32421875,13.2929688 C5.40234375,11.6523438 5.47070312,10.2167969 5.52929688,8.98632812 C5.58789062,7.75585938 5.63671875,6.84765625 5.67578125,6.26171875 C5.67578125,6.14453125 5.71484375,6.046875 5.79296875,5.96875 C5.87109375,5.890625 5.96875,5.8515625 6.0859375,5.8515625 L6.0859375,5.8515625 L11.125,5.5 C12.3359375,5.421875 13.7324219,5.36328125 15.3144531,5.32421875 C16.8964844,5.28515625 18.625,5.265625 20.5,5.265625 C22.375,5.265625 24.1035156,5.28515625 25.6855469,5.32421875 C27.2675781,5.36328125 28.6835938,5.421875 29.9335938,5.5 L29.9335938,5.5 L34.9140625,5.8515625 C35.03125,5.8515625 35.1289062,5.890625 35.2070312,5.96875 C35.2851562,6.046875 35.3242188,6.14453125 35.3242188,6.26171875 C35.3632812,6.84765625 35.421875,7.75585938 35.5,8.98632812 C35.578125,10.2167969 35.65625,11.6523438 35.734375,13.2929688 C35.8125,14.9335938 35.8710938,16.671875 35.9101562,18.5078125 C35.9492188,20.34375 35.96875,22.1601562 35.96875,23.9570312 L35.96875,23.9570312 L35.96875,25.9492188 C35.96875,26.0664062 35.9296875,26.1640625 35.8515625,26.2421875 C35.734375,26.359375 35.6171875,26.4179688 35.5,26.4179688 L35.5,26.4179688 Z M36.4375,36.8476562 L4.50390625,36.8476562 C3.87890625,36.8476562 3.33203125,36.7207031 2.86328125,36.4667969 C2.39453125,36.2128906 2.00390625,35.8710938 1.69140625,35.4414062 C1.37890625,35.0117188 1.15429688,34.5429688 1.01757812,34.0351562 C0.880859375,33.5273438 0.8125,33 0.8125,32.453125 L0.8125,32.453125 L0.8125,30.0507812 L40.1875,30.0507812 L40.1875,32.453125 C40.1875,33.625 39.8945312,34.6210938 39.3085938,35.4414062 C38.9960938,35.8710938 38.6054688,36.2128906 38.1367188,36.4667969 C37.6679688,36.7207031 37.1015625,36.8476562 36.4375,36.8476562 L36.4375,36.8476562 Z M6.7890625,35.265625 C7.375,35.265625 7.8828125,35.0507812 8.3125,34.6210938 C8.7421875,34.1914062 8.95703125,33.6835938 8.95703125,33.0976562 C8.95703125,32.5117188 8.7421875,32.0039062 8.3125,31.5742188 C7.921875,31.1835938 7.4140625,30.9882812 6.7890625,30.9882812 L6.7890625,30.9882812 L4.85546875,30.9882812 C4.23046875,30.9882812 3.72265625,31.1835938 3.33203125,31.5742188 C2.90234375,32.0039062 2.6875,32.5117188 2.6875,33.0976562 C2.6875,33.6835938 2.90234375,34.1914062 3.33203125,34.6210938 C3.76171875,35.0507812 4.26953125,35.265625 4.85546875,35.265625 L4.85546875,35.265625 L6.7890625,35.265625 Z M27.3554688,32.8046875 C27.6289062,32.8046875 27.9023438,32.7070312 28.1757812,32.5117188 C28.4101562,32.2773438 28.5273438,32.0625 28.5273438,31.8671875 C28.5273438,31.671875 28.4101562,31.4570312 28.1757812,31.2226562 C27.9804688,31.0664062 27.7070312,30.9882812 27.3554688,30.9882812 L27.3554688,30.9882812 L13.5273438,30.9882812 C13.1757812,30.9882812 12.921875,31.0664062 12.765625,31.2226562 C12.4921875,31.4179688 12.3554688,31.6328125 12.3554688,31.8671875 C12.3554688,32.1015625 12.4921875,32.3164062 12.765625,32.5117188 C12.9609375,32.7070312 13.2148438,32.8046875 13.5273438,32.8046875 L13.5273438,32.8046875 L27.3554688,32.8046875 Z M36.1445312,35.265625 C36.7304688,35.265625 37.2382812,35.0507812 37.6679688,34.6210938 C38.0585938,34.2304688 38.2539062,33.7226562 38.2539062,33.0976562 C38.2539062,32.4726562 38.0585938,31.9648438 37.6679688,31.5742188 C37.2773438,31.1835938 36.7695312,30.9882812 36.1445312,30.9882812 L36.1445312,30.9882812 L34.1523438,30.9882812 C33.5664062,30.9882812 33.078125,31.1835938 32.6875,31.5742188 C32.2578125,32.0039062 32.0429688,32.5117188 32.0429688,33.0976562 C32.0429688,33.6835938 32.2578125,34.1914062 32.6875,34.6210938 C33.1171875,35.0507812 33.6054688,35.265625 34.1523438,35.265625 L34.1523438,35.265625 L36.1445312,35.265625 Z M6.7890625,34.8554688 L4.85546875,34.8554688 C4.30859375,34.8554688 3.87890625,34.6796875 3.56640625,34.328125 C3.25390625,33.9375 3.09765625,33.5273438 3.09765625,33.0976562 C3.09765625,32.5898438 3.25390625,32.1796875 3.56640625,31.8671875 C3.91796875,31.515625 4.34765625,31.3398438 4.85546875,31.3398438 L4.85546875,31.3398438 L6.7890625,31.3398438 C7.21875,31.3398438 7.6484375,31.515625 8.078125,31.8671875 C8.390625,32.140625 8.546875,32.5507812 8.546875,33.0976562 C8.546875,33.6054688 8.390625,34.015625 8.078125,34.328125 C7.7265625,34.6796875 7.296875,34.8554688 6.7890625,34.8554688 L6.7890625,34.8554688 Z M27.3554688,32.3945312 L13.5273438,32.3945312 C13.3710938,32.3945312 13.1953125,32.3359375 13,32.21875 C12.84375,32.1015625 12.765625,31.984375 12.765625,31.8671875 C12.765625,31.7109375 12.84375,31.5742188 13,31.4570312 C13.1171875,31.3789062 13.2929688,31.3398438 13.5273438,31.3398438 L13.5273438,31.3398438 L27.3554688,31.3398438 C27.5898438,31.3398438 27.765625,31.3789062 27.8828125,31.4570312 C28.0390625,31.5742188 28.1171875,31.7109375 28.1171875,31.8671875 C28.1171875,31.984375 28.0390625,32.1015625 27.8828125,32.21875 C27.7265625,32.3359375 27.5507812,32.3945312 27.3554688,32.3945312 L27.3554688,32.3945312 Z M36.1445312,34.8554688 L34.1523438,34.8554688 C33.6445312,34.8554688 33.234375,34.6796875 32.921875,34.328125 C32.5703125,33.8984375 32.3945312,33.4882812 32.3945312,33.0976562 C32.3945312,32.6289062 32.5703125,32.21875 32.921875,31.8671875 C33.2734375,31.515625 33.6835938,31.3398438 34.1523438,31.3398438 L34.1523438,31.3398438 L36.1445312,31.3398438 C36.6132812,31.3398438 37.0234375,31.515625 37.375,31.8671875 C37.7265625,32.21875 37.9023438,32.6289062 37.9023438,33.0976562 C37.9023438,33.4882812 37.7265625,33.8984375 37.375,34.328125 C37.1015625,34.6796875 36.6914062,34.8554688 36.1445312,34.8554688 L36.1445312,34.8554688 Z M30.2851562,35.265625 C30.4023438,35.265625 30.5097656,35.2363281 30.6074219,35.1777344 C30.7050781,35.1191406 30.7929688,35.0507812 30.8710938,34.9726562 C31.0273438,34.8554688 31.1054688,34.6601562 31.1054688,34.3867188 C31.1054688,34.1523438 31.0273438,33.9570312 30.8710938,33.8007812 C30.7148438,33.6445312 30.5195312,33.5664062 30.2851562,33.5664062 C30.0507812,33.5664062 29.8554688,33.6445312 29.6992188,33.8007812 C29.5039062,33.9960938 29.40625,34.1914062 29.40625,34.3867188 C29.40625,34.6601562 29.5039062,34.8554688 29.6992188,34.9726562 C29.7773438,35.0507812 29.8652344,35.1191406 29.9628906,35.1777344 C30.0605469,35.2363281 30.1679688,35.265625 30.2851562,35.265625 Z M30.2851562,34.8554688 C30.1289062,34.8554688 30.0117188,34.8164062 29.9335938,34.7382812 C29.8554688,34.6601562 29.8164062,34.5429688 29.8164062,34.3867188 C29.8164062,34.2695312 29.8554688,34.171875 29.9335938,34.09375 C30.0507812,33.9765625 30.1679688,33.9179688 30.2851562,33.9179688 C30.3632812,33.9179688 30.4609375,33.9765625 30.578125,34.09375 C30.6953125,34.2109375 30.7539062,34.3085938 30.7539062,34.3867188 C30.7539062,34.5039062 30.6953125,34.6210938 30.578125,34.7382812 C30.5,34.8164062 30.4023438,34.8554688 30.2851562,34.8554688 Z M34.1523438,39.8359375 C34.3867188,39.8359375 34.6015625,39.7382812 34.796875,39.5429688 C34.953125,39.3867188 35.03125,39.1914062 35.03125,38.9570312 C35.03125,38.7226562 34.953125,38.5273438 34.796875,38.3710938 C34.640625,38.2148438 34.4257812,38.1367188 34.1523438,38.1367188 L34.1523438,38.1367188 L6.7890625,38.1367188 C6.5546875,38.1367188 6.359375,38.2148438 6.203125,38.3710938 C6.046875,38.5273438 5.96875,38.7226562 5.96875,38.9570312 C5.96875,39.1914062 6.046875,39.3867188 6.203125,39.5429688 C6.3984375,39.7382812 6.59375,39.8359375 6.7890625,39.8359375 L6.7890625,39.8359375 L34.1523438,39.8359375 Z M34.1523438,39.4257812 L6.7890625,39.4257812 C6.7109375,39.4257812 6.66210938,39.4160156 6.64257812,39.3964844 C6.62304688,39.3769531 6.57421875,39.3476562 6.49609375,39.3085938 C6.37890625,39.2304688 6.3203125,39.1132812 6.3203125,38.9570312 C6.3203125,38.8007812 6.37890625,38.703125 6.49609375,38.6640625 L6.49609375,38.6640625 L6.61328125,38.546875 C6.65234375,38.5078125 6.7109375,38.4882812 6.7890625,38.4882812 L6.7890625,38.4882812 L34.1523438,38.4882812 C34.2695312,38.4882812 34.3867188,38.546875 34.5039062,38.6640625 C34.5820312,38.7421875 34.6210938,38.8398438 34.6210938,38.9570312 C34.6210938,39.1132812 34.5820312,39.2304688 34.5039062,39.3085938 C34.4257812,39.3867188 34.3085938,39.4257812 34.1523438,39.4257812 L34.1523438,39.4257812 Z" id="22" fill="currentColor" fill-rule="nonzero"></path>
    </g>
</svg>