<?xml version="1.0" encoding="UTF-8"?>
<svg width="41px" height="40px" viewBox="0 0 41 40" version="1.1" xmlns="http://www.w3.org/2000/svg" xmlns:xlink="http://www.w3.org/1999/xlink">
    <title>21</title>
    <g id="Page-1" stroke="none" stroke-width="1" fill="none" fill-rule="evenodd">
        <path d="M36.4375,36.9648438 C37.6875,36.9648438 38.6933594,36.5253906 39.4550781,35.6464844 C40.2167969,34.7675781 40.5976562,33.625 40.5976562,32.21875 L40.5976562,32.21875 L40.5390625,29.5234375 L40.5390625,26.3007812 C40.5390625,23.8007812 40.4902344,21.3789062 40.3925781,19.0351562 C40.2949219,16.6914062 40.1875,14.5234375 40.0703125,12.53125 C39.953125,10.5390625 39.8359375,8.76171875 39.71875,7.19921875 C39.6015625,5.63671875 39.5039062,4.42578125 39.4257812,3.56640625 C39.3867188,2.90234375 39.1425781,2.3359375 38.6933594,1.8671875 C38.2441406,1.3984375 37.6875,1.125 37.0234375,1.046875 C35.8515625,0.8515625 33.9667969,0.63671875 31.3691406,0.40234375 C28.7714844,0.16796875 25.1484375,0.05078125 20.5,0.05078125 C15.890625,0.05078125 12.2675781,0.16796875 9.63085938,0.40234375 C6.99414063,0.63671875 5.08984375,0.8515625 3.91796875,1.046875 C3.25390625,1.125 2.70703125,1.3984375 2.27734375,1.8671875 C1.84765625,2.3359375 1.59375,2.90234375 1.515625,3.56640625 C1.4375,4.42578125 1.33984375,5.63671875 1.22265625,7.19921875 C1.10546875,8.76171875 0.98828125,10.5390625 0.87109375,12.53125 C0.75390625,14.5234375 0.646484375,16.6914062 0.548828125,19.0351562 C0.451171875,21.3789062 0.40234375,23.8007812 0.40234375,26.3007812 L0.40234375,26.3007812 L0.40234375,32.21875 C0.40234375,33.625 0.7734375,34.7675781 1.515625,35.6464844 C2.2578125,36.5253906 3.25390625,36.9648438 4.50390625,36.9648438 L4.50390625,36.9648438 L36.4375,36.9648438 Z M40.1875,29.3476562 L0.75390625,29.3476562 L0.75390625,26.3007812 C0.75390625,23.8007812 0.802734375,21.3789062 0.900390625,19.0351562 C0.998046875,16.6914062 1.10546875,14.5234375 1.22265625,12.53125 C1.33984375,10.5390625 1.45703125,8.76171875 1.57421875,7.19921875 C1.69140625,5.63671875 1.7890625,4.42578125 1.8671875,3.56640625 C1.9453125,3.01953125 2.16992188,2.54101562 2.54101562,2.13085938 C2.91210938,1.72070312 3.390625,1.4765625 3.9765625,1.3984375 C5.1484375,1.203125 7.04296875,0.98828125 9.66015625,0.75390625 C12.2773438,0.51953125 15.890625,0.40234375 20.5,0.40234375 C25.1484375,0.40234375 28.7617188,0.51953125 31.3398438,0.75390625 C33.9179688,0.98828125 35.7929688,1.203125 36.9648438,1.3984375 C37.5507812,1.4765625 38.0292969,1.72070312 38.4003906,2.13085938 C38.7714844,2.54101562 38.9960938,3.01953125 39.0742188,3.56640625 C39.1523438,4.42578125 39.25,5.63671875 39.3671875,7.19921875 C39.484375,8.76171875 39.6015625,10.5390625 39.71875,12.53125 C39.8359375,14.5234375 39.9433594,16.6914062 40.0410156,19.0351562 C40.1386719,21.3789062 40.1875,23.8007812 40.1875,26.3007812 L40.1875,26.3007812 L40.1875,29.3476562 Z M20.4414062,3.44921875 C20.7148438,3.44921875 20.9394531,3.3515625 21.1152344,3.15625 C21.2910156,2.9609375 21.3789062,2.74609375 21.3789062,2.51171875 C21.3789062,1.88671875 21.0664062,1.57421875 20.4414062,1.57421875 C19.8164062,1.57421875 19.5039062,1.88671875 19.5039062,2.51171875 C19.5039062,2.74609375 19.5917969,2.9609375 19.7675781,3.15625 C19.9433594,3.3515625 20.1679688,3.44921875 20.4414062,3.44921875 Z M20.4414062,3.0390625 C20.0898438,3.0390625 19.9140625,2.86328125 19.9140625,2.51171875 C19.9140625,2.12109375 20.0898438,1.92578125 20.4414062,1.92578125 C20.8320312,1.92578125 21.0273438,2.12109375 21.0273438,2.51171875 C21.0273438,2.86328125 20.8320312,3.0390625 20.4414062,3.0390625 Z M35.5,26.3007812 C35.6953125,26.3007812 35.9003906,26.203125 36.1152344,26.0078125 C36.3300781,25.8125 36.4375,25.5976562 36.4375,25.3632812 L36.4375,25.3632812 L36.4375,23.4882812 C36.4375,21.7304688 36.4277344,19.9335938 36.4082031,18.0976562 C36.3886719,16.2617188 36.359375,14.5429688 36.3203125,12.9414062 C36.28125,11.3398438 36.2324219,9.9140625 36.1738281,8.6640625 C36.1152344,7.4140625 36.0664062,6.4765625 36.0273438,5.8515625 C36.0273438,5.65625 35.9296875,5.4609375 35.734375,5.265625 C35.5390625,5.0703125 35.3242188,4.953125 35.0898438,4.9140625 C34.2695312,4.8359375 32.5703125,4.7578125 29.9921875,4.6796875 C27.4140625,4.6015625 24.2304688,4.5625 20.4414062,4.5625 L19.7381668,4.56295776 C16.2580185,4.5675354 13.3186035,4.60644531 10.9199219,4.6796875 C8.36132812,4.7578125 6.65234375,4.8359375 5.79296875,4.9140625 C5.59765625,4.953125 5.40234375,5.0703125 5.20703125,5.265625 C5.01171875,5.4609375 4.89453125,5.65625 4.85546875,5.8515625 C4.81640625,6.9453125 4.76757812,8.22460938 4.70898438,9.68945312 C4.65039062,11.1542969 4.61132812,12.6777344 4.59179688,14.2597656 L4.59179688,14.2597656 L4.53320312,19.0058594 C4.51367188,20.5878906 4.50390625,22.0820312 4.50390625,23.4882812 L4.50390625,23.4882812 L4.50390625,25.3632812 C4.50390625,25.5976562 4.6015625,25.8125 4.796875,26.0078125 C4.9921875,26.203125 5.20703125,26.3007812 5.44140625,26.3007812 L5.44140625,26.3007812 L35.5,26.3007812 Z M35.5,25.9492188 L5.44140625,25.9492188 C5.32421875,25.9492188 5.19726562,25.890625 5.06054688,25.7734375 C4.92382812,25.65625 4.85546875,25.5195312 4.85546875,25.3632812 L4.85546875,25.3632812 L4.85546875,23.4882812 C4.85546875,22.0820312 4.86523438,20.5878906 4.88476562,19.0058594 C4.90429688,17.4238281 4.92382812,15.8417969 4.94335938,14.2597656 C4.96289062,12.6777344 5.00195312,11.1640625 5.06054688,9.71875 C5.11914062,8.2734375 5.1875,6.984375 5.265625,5.8515625 C5.265625,5.7734375 5.33398438,5.66601562 5.47070312,5.52929688 C5.60742188,5.39257812 5.734375,5.32421875 5.8515625,5.32421875 C6.671875,5.24609375 8.36132812,5.15820312 10.9199219,5.06054688 C13.4785156,4.96289062 16.6523438,4.9140625 20.4414062,4.9140625 L21.1446457,4.9146347 C24.624794,4.92035675 27.564209,4.96899414 29.9628906,5.06054688 C32.5214844,5.15820312 34.2304688,5.24609375 35.0898438,5.32421875 C35.2070312,5.32421875 35.3242188,5.39257812 35.4414062,5.52929688 C35.5585938,5.66601562 35.6367188,5.7734375 35.6757812,5.8515625 C35.7148438,6.4765625 35.7539062,7.4140625 35.7929688,8.6640625 C35.8320312,9.9140625 35.8710938,11.3496094 35.9101562,12.9707031 C35.9492188,14.5917969 35.9785156,16.3105469 35.9980469,18.1269531 C36.0175781,19.9433594 36.0273438,21.7304688 36.0273438,23.4882812 L36.0273438,23.4882812 L36.0273438,25.3632812 C36.0273438,25.5195312 35.96875,25.65625 35.8515625,25.7734375 C35.734375,25.890625 35.6171875,25.9492188 35.5,25.9492188 L35.5,25.9492188 Z M36.4375,36.6132812 L4.50390625,36.6132812 C3.21484375,36.6132812 2.26757812,36.1542969 1.66210938,35.2363281 C1.05664062,34.3183594 0.75390625,33.3125 0.75390625,32.21875 L0.75390625,32.21875 L0.75390625,29.6992188 L13.1171875,29.6992188 L13.1171875,31.3984375 C13.1171875,31.6328125 13.2148438,31.8476562 13.4101563,32.0429688 C13.6054688,32.2382812 13.8203125,32.3359375 14.0546875,32.3359375 L14.0546875,32.3359375 L26.828125,32.3359375 C27.0625,32.3359375 27.2773438,32.2382812 27.4726562,32.0429688 C27.6679688,31.8476562 27.765625,31.6328125 27.765625,31.3984375 L27.765625,31.3984375 L27.765625,29.6992188 L40.1875,29.6992188 L40.1875,32.21875 C40.1875,33.3125 39.8847656,34.3183594 39.2792969,35.2363281 C38.6738281,36.1542969 37.7265625,36.6132812 36.4375,36.6132812 L36.4375,36.6132812 Z M26.828125,31.9257812 L14.0546875,31.9257812 C13.9375,31.9257812 13.8203125,31.8671875 13.703125,31.75 C13.5859375,31.6328125 13.5273438,31.515625 13.5273438,31.3984375 L13.5273438,31.3984375 L13.5273438,29.6992188 L27.4140625,29.6992188 L27.4140625,31.3984375 C27.4140625,31.515625 27.3554688,31.6328125 27.2382812,31.75 C27.1210938,31.8671875 26.984375,31.9257812 26.828125,31.9257812 L26.828125,31.9257812 Z M6.96484375,34.9726562 C7.55078125,34.9726562 8.0390625,34.7773438 8.4296875,34.3867188 C8.8203125,33.9960938 9.015625,33.4882812 9.015625,32.8632812 C9.015625,32.2773438 8.8203125,31.7890625 8.4296875,31.3984375 C8.0390625,31.0078125 7.55078125,30.8125 6.96484375,30.8125 L6.96484375,30.8125 L4.6796875,30.8125 C4.09375,30.8125 3.60546875,31.0078125 3.21484375,31.3984375 C2.82421875,31.7890625 2.62890625,32.2773438 2.62890625,32.8632812 C2.62890625,33.4882812 2.82421875,33.9960938 3.21484375,34.3867188 C3.60546875,34.7773438 4.09375,34.9726562 4.6796875,34.9726562 L4.6796875,34.9726562 L6.96484375,34.9726562 Z M36.203125,34.9726562 C36.7890625,34.9726562 37.2871094,34.7773438 37.6972656,34.3867188 C38.1074219,33.9960938 38.3125,33.4882812 38.3125,32.8632812 C38.3125,32.2773438 38.1074219,31.7890625 37.6972656,31.3984375 C37.2871094,31.0078125 36.7890625,30.8125 36.203125,30.8125 L36.203125,30.8125 L33.9765625,30.8125 C33.390625,30.8125 32.9023438,31.0078125 32.5117188,31.3984375 C32.1210938,31.7890625 31.9257812,32.2773438 31.9257812,32.8632812 C31.9257812,33.4882812 32.1210938,33.9960938 32.5117188,34.3867188 C32.9023438,34.7773438 33.390625,34.9726562 33.9765625,34.9726562 L33.9765625,34.9726562 L36.203125,34.9726562 Z M6.96484375,34.5625 L4.6796875,34.5625 C4.171875,34.5625 3.76171875,34.40625 3.44921875,34.09375 C3.13671875,33.78125 2.98046875,33.3710938 2.98046875,32.8632812 C2.98046875,32.3945312 3.13671875,32.0039062 3.44921875,31.6914062 C3.76171875,31.3789062 4.171875,31.2226562 4.6796875,31.2226562 L4.6796875,31.2226562 L6.96484375,31.2226562 C7.43359375,31.2226562 7.82421875,31.3789062 8.13671875,31.6914062 C8.44921875,32.0039062 8.60546875,32.3945312 8.60546875,32.8632812 C8.60546875,33.3710938 8.44921875,33.78125 8.13671875,34.09375 C7.82421875,34.40625 7.43359375,34.5625 6.96484375,34.5625 L6.96484375,34.5625 Z M36.203125,34.5625 L33.9765625,34.5625 C33.46875,34.5625 33.0585938,34.40625 32.7460938,34.09375 C32.4335938,33.78125 32.2773438,33.3710938 32.2773438,32.8632812 C32.2773438,32.3945312 32.4335938,32.0039062 32.7460938,31.6914062 C33.0585938,31.3789062 33.46875,31.2226562 33.9765625,31.2226562 L33.9765625,31.2226562 L36.203125,31.2226562 C36.7109375,31.2226562 37.1210938,31.3789062 37.4335938,31.6914062 C37.7460938,32.0039062 37.9023438,32.3945312 37.9023438,32.8632812 C37.9023438,33.3710938 37.7460938,33.78125 37.4335938,34.09375 C37.1210938,34.40625 36.7109375,34.5625 36.203125,34.5625 L36.203125,34.5625 Z M30.2265625,34.9726562 C30.8515625,34.9726562 31.1640625,34.6601562 31.1640625,34.0351562 C31.1640625,33.4101562 30.8515625,33.0976562 30.2265625,33.0976562 C29.6015625,33.0976562 29.2890625,33.4101562 29.2890625,34.0351562 C29.2890625,34.6601562 29.6015625,34.9726562 30.2265625,34.9726562 Z M30.2265625,34.5625 C29.8359375,34.5625 29.640625,34.3867188 29.640625,34.0351562 C29.640625,33.6445312 29.8359375,33.4492188 30.2265625,33.4492188 C30.578125,33.4492188 30.7539062,33.6445312 30.7539062,34.0351562 C30.7539062,34.3867188 30.578125,34.5625 30.2265625,34.5625 Z M33.9765625,39.8359375 C34.328125,39.8359375 34.5722656,39.7285156 34.7089844,39.5136719 C34.8457031,39.2988281 34.9140625,39.09375 34.9140625,38.8984375 C34.9140625,38.703125 34.8457031,38.4980469 34.7089844,38.2832031 C34.5722656,38.0683594 34.328125,37.9609375 33.9765625,37.9609375 L33.9765625,37.9609375 L6.96484375,37.9609375 C6.61328125,37.9609375 6.36914062,38.0683594 6.23242188,38.2832031 C6.09570312,38.4980469 6.02734375,38.703125 6.02734375,38.8984375 C6.02734375,39.09375 6.09570312,39.2988281 6.23242188,39.5136719 C6.36914062,39.7285156 6.61328125,39.8359375 6.96484375,39.8359375 L6.96484375,39.8359375 L33.9765625,39.8359375 Z M33.9765625,39.484375 L6.96484375,39.484375 C6.69140625,39.484375 6.52539062,39.40625 6.46679688,39.25 C6.40820312,39.09375 6.37890625,38.9765625 6.37890625,38.8984375 C6.37890625,38.78125 6.40820312,38.6542969 6.46679688,38.5175781 C6.52539062,38.3808594 6.69140625,38.3125 6.96484375,38.3125 L6.96484375,38.3125 L33.9765625,38.3125 C34.2109375,38.3125 34.3671875,38.3808594 34.4453125,38.5175781 C34.5234375,38.6542969 34.5625,38.78125 34.5625,38.8984375 C34.5625,39.015625 34.5234375,39.1425781 34.4453125,39.2792969 C34.3671875,39.4160156 34.2109375,39.484375 33.9765625,39.484375 L33.9765625,39.484375 Z" id="21" fill="currentColor" fill-rule="nonzero"></path>
    </g>
</svg>