<?xml version="1.0" encoding="UTF-8"?>
<svg width="31px" height="40px" viewBox="0 0 31 40" version="1.1" xmlns="http://www.w3.org/2000/svg" xmlns:xlink="http://www.w3.org/1999/xlink">
    <title>13</title>
    <g id="Page-1" stroke="none" stroke-width="1" fill="none" fill-rule="evenodd">
        <path d="M27.453125,29.640625 L27.5117188,29.5820312 L27.5703125,29.4648438 L27.5703125,27.53125 L29.9140625,27.53125 C29.953125,27.53125 29.9921875,27.5117188 30.03125,27.4726562 C30.03125,27.4726562 30.0507812,27.4335938 30.0898438,27.3554688 L30.0898438,27.3554688 L30.0898438,1.046875 L30.03125,0.98828125 L1.02734375,0.98828125 C0.98828125,0.98828125 0.94921875,1.0078125 0.91015625,1.046875 L0.91015625,1.046875 L0.91015625,27.3554688 C0.91015625,27.3945312 0.9296875,27.4140625 0.96875,27.4140625 C0.96875,27.4921875 1.0078125,27.53125 1.0859375,27.53125 L1.0859375,27.53125 L3.60546875,27.53125 L3.60546875,29.4648438 L3.6640625,29.5234375 C3.6640625,29.6015625 3.703125,29.640625 3.78125,29.640625 L3.78125,29.640625 L27.453125,29.640625 Z M29.7382812,27.1210938 L1.26171875,27.1210938 L1.26171875,1.33984375 L29.7382812,1.33984375 L29.7382812,27.1210938 Z M26.984375,24.1914062 C27.0625,24.1914062 27.1308594,24.171875 27.1894531,24.1328125 C27.2480469,24.09375 27.3164062,24.0546875 27.3945312,24.015625 C27.4726562,23.9765625 27.5117188,23.8398438 27.5117188,23.6054688 L27.5117188,23.6054688 L27.5117188,4.2109375 C27.5117188,3.9765625 27.4726562,3.83984375 27.3945312,3.80078125 C27.3164062,3.76171875 27.2480469,3.72265625 27.1894531,3.68359375 C27.1308594,3.64453125 27.0625,3.625 26.984375,3.625 L26.984375,3.625 L4.015625,3.625 C3.9375,3.625 3.87890625,3.64453125 3.83984375,3.68359375 C3.80078125,3.72265625 3.7421875,3.76171875 3.6640625,3.80078125 C3.546875,3.83984375 3.48828125,3.9765625 3.48828125,4.2109375 L3.48828125,4.2109375 L3.48828125,23.6054688 C3.48828125,23.8007812 3.546875,23.9375 3.6640625,24.015625 C3.7421875,24.0546875 3.80078125,24.09375 3.83984375,24.1328125 C3.87890625,24.171875 3.9375,24.1914062 4.015625,24.1914062 L4.015625,24.1914062 L26.984375,24.1914062 Z M27.1015625,23.78125 L3.95703125,23.78125 C3.87890625,23.78125 3.83984375,23.7421875 3.83984375,23.6640625 L3.83984375,23.6640625 L3.83984375,4.09375 C3.83984375,4.09375 3.87890625,4.07421875 3.95703125,4.03515625 L3.95703125,4.03515625 L27.1015625,4.03515625 L27.1601562,4.09375 L27.1601562,23.6640625 C27.1601562,23.703125 27.140625,23.7421875 27.1015625,23.78125 L27.1015625,23.78125 Z M27.1601562,29.2890625 L4.015625,29.2890625 L4.015625,27.53125 L27.1601562,27.53125 L27.1601562,29.2890625 Z M3.546875,39.8359375 C3.5859375,39.8359375 3.625,39.8164062 3.6640625,39.7773438 C3.6640625,39.7773438 3.68359375,39.7382812 3.72265625,39.6601562 L3.72265625,39.6601562 L27.453125,39.6601562 L27.5703125,39.71875 C27.5703125,39.796875 27.609375,39.8359375 27.6875,39.8359375 L27.6875,39.8359375 L28.859375,39.8359375 C28.8984375,39.8359375 28.9179688,39.8164062 28.9179688,39.7773438 L28.9179688,39.7773438 L28.9765625,39.7773438 L29.0351562,39.71875 L29.0351562,39.6601562 L29.09375,39.6601562 L29.0351562,39.6015625 L29.0351562,38.6054688 C28.9960938,38.4101562 28.9570312,38.2539062 28.9179688,38.1367188 L28.9179688,38.1367188 L28.8007812,37.7851562 C28.8007812,37.7070312 28.7617188,37.6289062 28.6835938,37.5507812 L28.6835938,37.5507812 L28.9765625,37.5507812 C29.0546875,37.5507812 29.09375,37.5117188 29.09375,37.4335938 L29.09375,37.4335938 L29.1523438,37.375 L29.1523438,30.4609375 C29.1132812,30.4609375 29.09375,30.4414062 29.09375,30.4023438 L29.09375,30.4023438 L28.9765625,30.34375 L2.2578125,30.34375 L2.140625,30.4023438 L2.140625,30.4609375 C2.1015625,30.5 2.08203125,30.5390625 2.08203125,30.578125 L2.08203125,30.578125 L2.08203125,37.375 L2.140625,37.375 L2.140625,37.4335938 C2.140625,37.5117188 2.1796875,37.5507812 2.2578125,37.5507812 L2.2578125,37.5507812 L2.55078125,37.5507812 C2.51171875,37.6289062 2.47265625,37.7167969 2.43359375,37.8144531 C2.39453125,37.9121094 2.35546875,38.0195312 2.31640625,38.1367188 C2.23828125,38.5273438 2.19921875,38.8398438 2.19921875,39.0742188 L2.19921875,39.0742188 L2.19921875,39.4257812 L2.140625,39.5429688 L2.140625,39.6015625 C2.140625,39.640625 2.16015625,39.6601562 2.19921875,39.6601562 L2.19921875,39.6601562 L2.19921875,39.71875 L2.2578125,39.7773438 L2.31640625,39.7773438 C2.31640625,39.8164062 2.3359375,39.8359375 2.375,39.8359375 L2.375,39.8359375 L3.546875,39.8359375 Z M15.2070312,37.609375 L13.0390625,37.609375 C12.3359375,37.609375 11.6328125,37.5898438 10.9296875,37.5507812 C9.484375,37.5117188 8.18554688,37.4726562 7.03320312,37.4335938 C5.88085938,37.3945312 4.89453125,37.3359375 4.07421875,37.2578125 L4.07421875,37.2578125 L2.90234375,37.1992188 L2.43359375,37.1992188 L2.43359375,30.7539062 L28.8007812,30.7539062 L28.8007812,37.1992188 L27.7460938,37.1992188 C27.5507812,37.1992188 27.3164062,37.21875 27.0429688,37.2578125 L27.0429688,37.2578125 L23.8789062,37.4335938 C22.6289062,37.4726562 21.2519531,37.5117188 19.7480469,37.5507812 C18.2441406,37.5898438 16.7304688,37.609375 15.2070312,37.609375 L15.2070312,37.609375 Z M20.5976562,34.3867188 C20.9101562,34.3867188 21.1445312,34.3085938 21.3007812,34.1523438 C21.4960938,33.9570312 21.6132812,33.7617188 21.6523438,33.5664062 L21.6523438,33.5664062 L24.3476562,33.5664062 C24.3867188,33.5664062 24.4453125,33.5273438 24.5234375,33.4492188 L24.5234375,33.4492188 L24.5563965,33.3833008 L24.5563965,33.3833008 L24.5820312,33.3320312 L24.5820312,32.3359375 C24.5429688,32.3359375 24.5039062,32.3164062 24.4648438,32.2773438 L24.4648438,32.2773438 L21.6523438,32.2773438 C21.5742188,32.0039062 21.4570312,31.7890625 21.3007812,31.6328125 C21.1445312,31.4765625 20.9101562,31.3984375 20.5976562,31.3984375 L20.5976562,31.3984375 L20.0117188,31.3984375 C19.7382812,31.3984375 19.5234375,31.4765625 19.3671875,31.6328125 C19.1328125,31.8671875 19.015625,32.0820312 19.015625,32.2773438 L19.015625,32.2773438 L16.203125,32.2773438 C16.125,32.3554688 16.0859375,32.4140625 16.0859375,32.453125 L16.0859375,32.453125 L16.0859375,33.3320312 C16.0859375,33.3710938 16.1054688,33.390625 16.1445312,33.390625 C16.1445312,33.46875 16.1835938,33.5078125 16.2617188,33.5078125 L16.2617188,33.5078125 L16.2617188,33.5664062 L19.015625,33.5664062 C19.015625,33.7226562 19.1328125,33.9179688 19.3671875,34.1523438 C19.5234375,34.3085938 19.7382812,34.3867188 20.0117188,34.3867188 L20.0117188,34.3867188 L20.5976562,34.3867188 Z M20.5976562,34.0351562 L20.0117188,34.0351562 C19.8945312,34.0351562 19.7578125,33.9570312 19.6015625,33.8007812 C19.4453125,33.6445312 19.3671875,33.4882812 19.3671875,33.3320312 L19.3671875,33.3320312 L19.3671875,33.2734375 C19.2890625,33.2734375 19.25,33.234375 19.25,33.15625 L19.25,33.15625 L16.4960938,33.15625 L16.4960938,32.6289062 L19.25,32.6289062 L19.3085938,32.5703125 C19.3085938,32.5703125 19.328125,32.53125 19.3671875,32.453125 C19.3671875,32.2578125 19.4453125,32.0820312 19.6015625,31.9257812 C19.71875,31.8085938 19.8554688,31.75 20.0117188,31.75 L20.0117188,31.75 L20.5976562,31.75 C20.8320312,31.75 21.0078125,31.8085938 21.125,31.9257812 C21.2421875,32.0429688 21.3007812,32.21875 21.3007812,32.453125 L21.3007812,32.453125 L21.3007812,32.5117188 C21.3007812,32.5898438 21.3398438,32.6289062 21.4179688,32.6289062 L21.4179688,32.6289062 L24.171875,32.6289062 L24.171875,33.15625 L21.4179688,33.15625 L21.3007812,33.2734375 L21.3007812,33.3320312 C21.3007812,33.5273438 21.2421875,33.6835938 21.125,33.8007812 C20.96875,33.9570312 20.7929688,34.0351562 20.5976562,34.0351562 L20.5976562,34.0351562 Z M15.0898438,33.9765625 L15.1484375,33.9179688 L15.2070312,33.9179688 L15.265625,33.8007812 L15.265625,32.0429688 L15.1484375,31.9257812 L3.6640625,31.9257812 C3.5859375,31.9257812 3.546875,31.9648438 3.546875,32.0429688 L3.546875,32.0429688 L3.546875,33.859375 C3.546875,33.8984375 3.56640625,33.9179688 3.60546875,33.9179688 L3.60546875,33.9179688 L3.6640625,33.9179688 L3.72265625,33.9765625 L15.0898438,33.9765625 Z M14.8554688,33.625 L3.8984375,33.625 L3.8984375,32.2773438 L14.8554688,32.2773438 L14.8554688,33.625 Z M27.6875,33.5078125 C27.6875,33.5078125 27.7070312,33.46875 27.7460938,33.390625 L27.7460938,33.390625 L27.7460938,32.3359375 L27.6875,32.2773438 L25.578125,32.2773438 C25.5,32.3554688 25.4609375,32.4140625 25.4609375,32.453125 L25.4609375,32.453125 L25.4609375,33.3320312 C25.4609375,33.3710938 25.4804688,33.390625 25.5195312,33.390625 C25.5195312,33.46875 25.5585938,33.5078125 25.6367188,33.5078125 L25.6367188,33.5078125 L27.6875,33.5078125 Z M27.3945312,33.15625 L25.8710938,33.15625 L25.8710938,32.6289062 L27.3945312,32.6289062 L27.3945312,33.15625 Z M5.0703125,36.4375 C5.3046875,36.4375 5.51953125,36.3398438 5.71484375,36.1445312 C5.91015625,35.9492188 6.0078125,35.734375 6.0078125,35.5 C6.0078125,35.265625 5.91015625,35.0507812 5.71484375,34.8554688 C5.55859375,34.6992188 5.34375,34.6210938 5.0703125,34.6210938 C4.796875,34.6210938 4.58203125,34.6992188 4.42578125,34.8554688 C4.23046875,35.0507812 4.1328125,35.265625 4.1328125,35.5 C4.1328125,35.734375 4.23046875,35.9492188 4.42578125,36.1445312 C4.62109375,36.3398438 4.8359375,36.4375 5.0703125,36.4375 Z M5.0703125,36.0859375 C4.9921875,36.0859375 4.93359375,36.0664062 4.89453125,36.0273438 L4.89453125,36.0273438 L4.71875,35.9101562 C4.6015625,35.8320312 4.54296875,35.6953125 4.54296875,35.5 C4.54296875,35.34375 4.6015625,35.2070312 4.71875,35.0898438 C4.796875,35.0117188 4.9140625,34.9726562 5.0703125,34.9726562 C5.265625,34.9726562 5.40234375,35.0117188 5.48046875,35.0898438 C5.55859375,35.1679688 5.59765625,35.3046875 5.59765625,35.5 C5.59765625,35.734375 5.55859375,35.8710938 5.48046875,35.9101562 L5.48046875,35.9101562 L5.3046875,36.0273438 C5.265625,36.0664062 5.1875,36.0859375 5.0703125,36.0859375 Z M27.5703125,36.90625 C27.7265625,36.90625 27.8828125,36.828125 28.0390625,36.671875 C28.15625,36.5546875 28.2148438,36.4179688 28.2148438,36.2617188 C28.2148438,36.0664062 28.15625,35.9101562 28.0390625,35.7929688 C27.921875,35.6757812 27.765625,35.6171875 27.5703125,35.6171875 C27.4140625,35.6171875 27.2773438,35.6757812 27.1601562,35.7929688 C27.0039062,35.9492188 26.9257812,36.1054688 26.9257812,36.2617188 C26.9257812,36.3789062 27.0039062,36.515625 27.1601562,36.671875 C27.3164062,36.828125 27.453125,36.90625 27.5703125,36.90625 Z M27.6875,36.4960938 L27.5117188,36.4960938 C27.4726562,36.4960938 27.453125,36.4765625 27.453125,36.4375 C27.4140625,36.3984375 27.3945312,36.359375 27.3945312,36.3203125 C27.3554688,36.3203125 27.3359375,36.3007812 27.3359375,36.2617188 C27.3359375,36.2226562 27.3554688,36.1835938 27.3945312,36.1445312 C27.3945312,36.0664062 27.4335938,36.0273438 27.5117188,36.0273438 L27.5117188,36.0273438 L27.8046875,36.0273438 C27.8046875,36.0664062 27.8144531,36.1054688 27.8339844,36.1445312 C27.8535156,36.1835938 27.8632812,36.2226562 27.8632812,36.2617188 L27.8632812,36.2617188 L27.8632812,36.3203125 C27.8242188,36.359375 27.8046875,36.3984375 27.8046875,36.4375 C27.765625,36.4765625 27.7265625,36.4960938 27.6875,36.4960938 L27.6875,36.4960938 Z M3.37109375,39.4257812 L2.55078125,39.4257812 L2.55078125,39.1914062 C2.55078125,39.0742188 2.5703125,38.9765625 2.609375,38.8984375 C2.609375,38.78125 2.61914062,38.6640625 2.63867188,38.546875 C2.65820312,38.4296875 2.66796875,38.3320312 2.66796875,38.2539062 C2.70703125,38.1367188 2.74609375,38.0292969 2.78515625,37.9316406 C2.82421875,37.8339844 2.86328125,37.7460938 2.90234375,37.6679688 L2.90234375,37.6679688 L3.01953125,37.5507812 L3.4296875,37.609375 C3.8203125,37.6484375 4.25,37.6679688 4.71875,37.6679688 C5.1875,37.6679688 5.734375,37.6875 6.359375,37.7265625 C7.5703125,37.8046875 8.9375,37.8730469 10.4609375,37.9316406 C11.984375,37.9902344 13.5664062,38.0195312 15.2070312,38.0195312 C16.0664062,38.0195312 16.90625,38.0097656 17.7265625,37.9902344 C18.546875,37.9707031 19.3671875,37.9414062 20.1875,37.9023438 C21.828125,37.8242188 23.2929688,37.765625 24.5820312,37.7265625 C25.8710938,37.6875 26.9257812,37.6484375 27.7460938,37.609375 L27.7460938,37.609375 L28.2734375,37.5507812 C28.2734375,37.5898438 28.2929688,37.6289062 28.3320312,37.6679688 C28.3710938,37.7460938 28.4101562,37.8339844 28.4492188,37.9316406 C28.4882812,38.0292969 28.5078125,38.1367188 28.5078125,38.2539062 C28.5859375,38.4882812 28.625,38.703125 28.625,38.8984375 C28.625,39.0546875 28.6445312,39.1523438 28.6835938,39.1914062 L28.6835938,39.1914062 L28.6835938,39.4257812 L27.8632812,39.4257812 L27.8632812,39.3671875 L27.8046875,39.3671875 C27.8046875,39.328125 27.7851562,39.3085938 27.7460938,39.3085938 L27.7460938,39.3085938 L27.6875,39.3085938 L3.6640625,39.25 L3.4296875,39.25 L3.4296875,39.3085938 L3.37109375,39.4257812 Z" id="13" fill="currentColor" fill-rule="nonzero"></path>
    </g>
</svg>