<?xml version="1.0" encoding="UTF-8"?>
<svg width="27px" height="38px" viewBox="0 0 27 38" version="1.1" xmlns="http://www.w3.org/2000/svg" xmlns:xlink="http://www.w3.org/1999/xlink">
    <title>5</title>
    <g id="Page-1" stroke="none" stroke-width="1" fill="none" fill-rule="evenodd">
        <path d="M24.984375,37.8359375 L25.0429688,37.7773438 C25.1210938,37.7773438 25.1601562,37.7382812 25.1601562,37.6601562 L25.1601562,37.6601562 L25.1601562,32.3867188 L25.6289062,32.3867188 C25.9023438,32.3867188 26.1171875,32.3085938 26.2734375,32.1523438 C26.4296875,31.9960938 26.5078125,31.8007812 26.5078125,31.5664062 L26.5078125,31.5664062 L26.5078125,1.859375 C26.5078125,1.5859375 26.4296875,1.37109375 26.2734375,1.21484375 C26.1171875,1.05859375 25.9023438,0.98046875 25.6289062,0.98046875 L25.6289062,0.98046875 L1.37109375,0.98046875 C1.09765625,0.98046875 0.8828125,1.05859375 0.7265625,1.21484375 C0.5703125,1.37109375 0.4921875,1.5859375 0.4921875,1.859375 L0.4921875,1.859375 L0.4921875,31.5664062 C0.4921875,31.8007812 0.5703125,31.9960938 0.7265625,32.1523438 C0.8828125,32.3085938 1.09765625,32.3867188 1.37109375,32.3867188 L1.37109375,32.3867188 L1.83984375,32.3867188 L1.83984375,37.6601562 C1.83984375,37.6992188 1.859375,37.71875 1.8984375,37.71875 C1.8984375,37.796875 1.9375,37.8359375 2.015625,37.8359375 L2.015625,37.8359375 L24.984375,37.8359375 Z M25.6289062,32.0351562 L1.37109375,32.0351562 C1.21484375,32.0351562 1.09765625,31.9765625 1.01953125,31.859375 L1.01953125,31.859375 L0.90234375,31.6835938 C0.86328125,31.6445312 0.84375,31.6054688 0.84375,31.5664062 L0.84375,31.5664062 L0.84375,1.859375 C0.84375,1.7421875 0.90234375,1.625 1.01953125,1.5078125 C1.09765625,1.4296875 1.21484375,1.390625 1.37109375,1.390625 L1.37109375,1.390625 L25.6289062,1.390625 C25.7851562,1.390625 25.9023438,1.4296875 25.9804688,1.5078125 C26.0976562,1.625 26.15625,1.7421875 26.15625,1.859375 L26.15625,1.859375 L26.15625,31.5664062 C26.15625,31.6054688 26.1367188,31.6445312 26.0976562,31.6835938 L26.0976562,31.6835938 L25.9804688,31.859375 C25.9414062,31.9765625 25.8242188,32.0351562 25.6289062,32.0351562 L25.6289062,32.0351562 Z M23.6953125,21.6054688 C23.734375,21.6054688 23.7539062,21.5859375 23.7539062,21.546875 L23.7539062,21.546875 L23.8125,21.4882812 L23.8125,3.79296875 C23.7734375,3.79296875 23.7539062,3.7734375 23.7539062,3.734375 L23.7539062,3.734375 L23.6367188,3.67578125 L3.36328125,3.67578125 L3.24609375,3.734375 L3.24609375,3.79296875 L3.1875,3.8515625 L3.1875,21.4296875 C3.1875,21.46875 3.20703125,21.4882812 3.24609375,21.4882812 L3.24609375,21.4882812 L3.24609375,21.546875 C3.24609375,21.5859375 3.265625,21.6054688 3.3046875,21.6054688 L3.3046875,21.6054688 L23.6953125,21.6054688 Z M23.4609375,21.2539062 L3.5390625,21.2539062 L3.5390625,4.0859375 L23.4609375,4.0859375 L23.4609375,21.2539062 Z M20.9414062,20.2578125 C21.3710938,20.2578125 21.7421875,20.1015625 22.0546875,19.7890625 C22.328125,19.515625 22.4648438,19.1640625 22.4648438,18.734375 L22.4648438,18.734375 L22.4648438,6.546875 C22.4648438,6.15625 22.328125,5.78515625 22.0546875,5.43359375 C21.703125,5.16015625 21.3320312,5.0234375 20.9414062,5.0234375 L20.9414062,5.0234375 L6.05859375,5.0234375 C5.62890625,5.0234375 5.27734375,5.16015625 5.00390625,5.43359375 C4.69140625,5.74609375 4.53515625,6.1171875 4.53515625,6.546875 L4.53515625,6.546875 L4.53515625,18.734375 C4.53515625,19.203125 4.69140625,19.5546875 5.00390625,19.7890625 C5.23828125,20.1015625 5.58984375,20.2578125 6.05859375,20.2578125 L6.05859375,20.2578125 L20.9414062,20.2578125 Z M20.9414062,19.90625 L6.05859375,19.90625 C5.74609375,19.90625 5.4921875,19.7890625 5.296875,19.5546875 C5.0234375,19.28125 4.88671875,19.0078125 4.88671875,18.734375 L4.88671875,18.734375 L4.88671875,6.546875 C4.88671875,6.2734375 5.0234375,6 5.296875,5.7265625 C5.4921875,5.53125 5.74609375,5.43359375 6.05859375,5.43359375 L6.05859375,5.43359375 L20.9414062,5.43359375 C21.2148438,5.43359375 21.4882812,5.53125 21.7617188,5.7265625 C21.9960938,6.0390625 22.1132812,6.3125 22.1132812,6.546875 L22.1132812,6.546875 L22.1132812,18.734375 C22.1132812,18.96875 21.9960938,19.2421875 21.7617188,19.5546875 C21.5273438,19.7890625 21.2539062,19.90625 20.9414062,19.90625 L20.9414062,19.90625 Z M10.1015625,25.0039062 C10.140625,25.0039062 10.1796875,24.984375 10.21875,24.9453125 L10.21875,24.9453125 L10.3359375,24.828125 C10.3359375,24.7890625 10.3261719,24.7597656 10.3066406,24.7402344 L10.2903646,24.7174479 C10.281684,24.7000868 10.2773438,24.6783854 10.2773438,24.6523438 C10.2382812,24.6523438 10.2089844,24.6425781 10.1894531,24.6230469 C10.1699219,24.6035156 10.140625,24.59375 10.1015625,24.59375 L10.1015625,24.59375 L3.5390625,24.59375 L3.5390625,23.65625 L10.1015625,23.65625 C10.140625,23.65625 10.1992188,23.6171875 10.2773438,23.5390625 C10.2773438,23.5390625 10.296875,23.5 10.3359375,23.421875 L10.3359375,23.421875 L10.3359375,23.3632812 C10.296875,23.3632812 10.2773438,23.34375 10.2773438,23.3046875 C10.2382812,23.3046875 10.2089844,23.2949219 10.1894531,23.2753906 L10.1666667,23.2591146 C10.1493056,23.250434 10.1276042,23.2460938 10.1015625,23.2460938 L10.1015625,23.2460938 L3.36328125,23.2460938 L3.24609375,23.3046875 L3.24609375,23.3632812 L3.1875,23.421875 L3.1875,24.828125 L3.24609375,24.828125 L3.24609375,24.8867188 C3.24609375,24.9257812 3.265625,24.9453125 3.3046875,24.9453125 L3.3046875,24.9453125 L3.36328125,25.0039062 L10.1015625,25.0039062 Z M20.9414062,25.0039062 C20.9804688,25.0039062 21,24.984375 21,24.9453125 C21.0390625,24.9453125 21.0585938,24.9257812 21.0585938,24.8867188 L21.0585938,24.8867188 L21.1171875,24.828125 L21.1171875,23.3632812 C21.078125,23.3632812 21.0585938,23.34375 21.0585938,23.3046875 L21.0585938,23.3046875 L20.9414062,23.2460938 L11.4492188,23.2460938 L11.3320312,23.3632812 L11.2734375,23.421875 L11.2734375,24.828125 L11.3320312,24.828125 C11.3320312,24.90625 11.3710938,24.9453125 11.4492188,24.9453125 L11.4492188,24.9453125 L11.4492188,25.0039062 L20.9414062,25.0039062 Z M23.6367188,25.0039062 C23.6757812,25.0039062 23.6953125,24.984375 23.6953125,24.9453125 C23.734375,24.9453125 23.7539062,24.9257812 23.7539062,24.8867188 L23.7539062,24.8867188 L23.8125,24.828125 L23.8125,23.3632812 C23.7734375,23.3632812 23.7539062,23.34375 23.7539062,23.3046875 L23.7539062,23.3046875 L23.6367188,23.2460938 L22.2304688,23.2460938 L22.1132812,23.3632812 L22.1132812,23.4804688 C22.1132812,23.5195312 22.1328125,23.5390625 22.171875,23.5390625 C22.171875,23.6171875 22.2109375,23.65625 22.2890625,23.65625 L22.2890625,23.65625 L23.4609375,23.65625 L23.4609375,24.59375 L22.2304688,24.59375 L22.1132812,24.7109375 L22.1132812,24.828125 C22.1132812,24.8671875 22.1328125,24.8867188 22.171875,24.8867188 C22.171875,24.9648438 22.2109375,25.0039062 22.2890625,25.0039062 L22.2890625,25.0039062 L23.6367188,25.0039062 Z M20.765625,24.59375 L11.6835938,24.59375 L11.6835938,23.65625 L20.765625,23.65625 L20.765625,24.59375 Z M10.21875,28.34375 L10.2773438,28.2851562 C10.2773438,28.2851562 10.296875,28.2460938 10.3359375,28.1679688 L10.3359375,28.1679688 L10.3359375,28.0507812 C10.296875,28.0507812 10.2578125,28.03125 10.21875,27.9921875 L10.21875,27.9921875 L3.5390625,27.9921875 L3.5390625,26.9960938 L10.21875,26.9960938 L10.2773438,26.9375 C10.2773438,26.9375 10.296875,26.8984375 10.3359375,26.8203125 L10.3359375,26.8203125 L10.3359375,26.703125 C10.296875,26.703125 10.2578125,26.6835938 10.21875,26.6445312 L10.21875,26.6445312 L3.24609375,26.6445312 L3.24609375,26.703125 C3.20703125,26.7421875 3.1875,26.78125 3.1875,26.8203125 L3.1875,26.8203125 L3.1875,28.1679688 C3.1875,28.2070312 3.20703125,28.2265625 3.24609375,28.2265625 L3.24609375,28.2265625 L3.24609375,28.2851562 C3.24609375,28.3242188 3.265625,28.34375 3.3046875,28.34375 L3.3046875,28.34375 L10.21875,28.34375 Z M21,28.34375 C21.0390625,28.34375 21.0585938,28.3242188 21.0585938,28.2851562 L21.0585938,28.2851562 L21.1171875,28.2265625 L21.1171875,26.703125 C21.078125,26.703125 21.0585938,26.6835938 21.0585938,26.6445312 L21.0585938,26.6445312 L11.390625,26.6445312 C11.3125,26.7226562 11.2734375,26.78125 11.2734375,26.8203125 L11.2734375,26.8203125 L11.2734375,28.1679688 C11.2734375,28.2070312 11.2929688,28.2265625 11.3320312,28.2265625 C11.3320312,28.3046875 11.3710938,28.34375 11.4492188,28.34375 L11.4492188,28.34375 L21,28.34375 Z M23.6953125,28.34375 C23.734375,28.34375 23.7539062,28.3242188 23.7539062,28.2851562 L23.7539062,28.2851562 L23.8125,28.2265625 L23.8125,26.703125 C23.7734375,26.703125 23.7539062,26.6835938 23.7539062,26.6445312 L23.7539062,26.6445312 L22.2304688,26.6445312 C22.1914062,26.6445312 22.1523438,26.6640625 22.1132812,26.703125 L22.1132812,26.703125 L22.1132812,26.8789062 C22.1132812,26.9570312 22.1523438,26.9960938 22.2304688,26.9960938 L22.2304688,26.9960938 L23.4609375,26.9960938 L23.4609375,27.9921875 L22.2304688,27.9921875 C22.1914062,27.9921875 22.1523438,28.0117188 22.1132812,28.0507812 L22.1132812,28.0507812 L22.1132812,28.2265625 C22.1132812,28.3046875 22.1523438,28.34375 22.2304688,28.34375 L22.2304688,28.34375 L23.6953125,28.34375 Z M20.765625,27.9921875 L11.6835938,27.9921875 L11.6835938,26.9960938 L20.765625,26.9960938 L20.765625,27.9921875 Z M4.06640625,31.0390625 C4.30078125,31.0390625 4.49609375,30.9609375 4.65234375,30.8046875 C4.80859375,30.6484375 4.88671875,30.453125 4.88671875,30.21875 C4.88671875,29.9453125 4.80859375,29.7304688 4.65234375,29.5742188 C4.49609375,29.4179688 4.30078125,29.3398438 4.06640625,29.3398438 C3.79296875,29.3398438 3.578125,29.4179688 3.421875,29.5742188 C3.265625,29.7304688 3.1875,29.9453125 3.1875,30.21875 C3.1875,30.453125 3.265625,30.6484375 3.421875,30.8046875 C3.578125,30.9609375 3.79296875,31.0390625 4.06640625,31.0390625 Z M4.06640625,30.6875 C3.91015625,30.6875 3.79296875,30.6289062 3.71484375,30.5117188 L3.71484375,30.5117188 L3.59765625,30.3359375 C3.55859375,30.296875 3.5390625,30.2578125 3.5390625,30.21875 C3.5390625,30.1015625 3.59765625,29.984375 3.71484375,29.8671875 C3.83203125,29.75 3.94921875,29.6914062 4.06640625,29.6914062 C4.14453125,29.6914062 4.203125,29.7109375 4.2421875,29.75 L4.2421875,29.75 L4.41796875,29.8671875 C4.49609375,29.90625 4.53515625,30.0234375 4.53515625,30.21875 C4.53515625,30.3359375 4.49609375,30.4335938 4.41796875,30.5117188 C4.30078125,30.6289062 4.18359375,30.6875 4.06640625,30.6875 Z M24.8085938,37.4257812 L2.19140625,37.4257812 L2.19140625,32.3867188 L24.8085938,32.3867188 L24.8085938,37.4257812 Z M3.94921875,36.546875 C4.22265625,36.546875 4.4375,36.46875 4.59375,36.3125 C4.75,36.15625 4.828125,35.9414062 4.828125,35.6679688 C4.828125,35.4335938 4.75,35.2382812 4.59375,35.0820312 C4.3984375,34.8867188 4.18359375,34.7890625 3.94921875,34.7890625 C3.75390625,34.7890625 3.55859375,34.8867188 3.36328125,35.0820312 C3.20703125,35.2382812 3.12890625,35.4335938 3.12890625,35.6679688 C3.12890625,35.9414062 3.20703125,36.15625 3.36328125,36.3125 C3.51953125,36.46875 3.71484375,36.546875 3.94921875,36.546875 Z M3.94921875,36.1367188 C3.91015625,36.1367188 3.8125,36.0976562 3.65625,36.0195312 C3.5390625,35.9414062 3.48046875,35.8242188 3.48046875,35.6679688 C3.48046875,35.4726562 3.5390625,35.3554688 3.65625,35.3164062 C3.8125,35.2382812 3.91015625,35.1992188 3.94921875,35.1992188 C4.10546875,35.1992188 4.22265625,35.2382812 4.30078125,35.3164062 C4.41796875,35.4335938 4.4765625,35.5507812 4.4765625,35.6679688 C4.4765625,35.7851562 4.41796875,35.9023438 4.30078125,36.0195312 C4.22265625,36.0976562 4.10546875,36.1367188 3.94921875,36.1367188 Z" id="5" fill="currentColor" fill-rule="nonzero"></path>
    </g>
</svg>