<?xml version="1.0" encoding="UTF-8"?>
<svg width="53px" height="39px" viewBox="0 0 53 39" version="1.1" xmlns="http://www.w3.org/2000/svg" xmlns:xlink="http://www.w3.org/1999/xlink">
    <title>2</title>
    <g id="Page-1" stroke="none" stroke-width="1" fill="none" fill-rule="evenodd">
        <path d="M52.28125,38.8359375 C52.4375,38.8359375 52.515625,38.7578125 52.515625,38.6015625 L52.515625,38.6015625 L52.515625,35.2617188 L52.4570312,35.203125 L49.8789062,31.1601562 L49.8789062,28.7578125 L51.1679688,28.7578125 C51.2851562,28.7578125 51.34375,28.6992188 51.34375,28.5820312 L51.34375,28.5820312 L51.34375,2.56640625 C51.34375,2.13671875 51.1777344,1.75585938 50.8457031,1.42382812 C50.5136719,1.09179688 50.1328125,0.92578125 49.703125,0.92578125 L49.703125,0.92578125 L2.88671875,0.92578125 C2.45703125,0.92578125 2.06640625,1.09179688 1.71484375,1.42382812 C1.36328125,1.75585938 1.1875,2.13671875 1.1875,2.56640625 L1.1875,2.56640625 L1.1875,28.5820312 C1.1875,28.6992188 1.24609375,28.7578125 1.36328125,28.7578125 L1.36328125,28.7578125 L2.7109375,28.7578125 L2.7109375,31.1601562 L0.484375,35.203125 L0.484375,38.6015625 C0.484375,38.7578125 0.54296875,38.8359375 0.66015625,38.8359375 L0.66015625,38.8359375 L52.28125,38.8359375 Z M50.9921875,28.40625 L1.59765625,28.40625 L1.59765625,2.56640625 C1.59765625,2.25390625 1.734375,1.9609375 2.0078125,1.6875 C2.28125,1.4140625 2.57421875,1.27734375 2.88671875,1.27734375 L2.88671875,1.27734375 L49.703125,1.27734375 C50.015625,1.27734375 50.3085938,1.4140625 50.5820312,1.6875 C50.8554688,1.9609375 50.9921875,2.25390625 50.9921875,2.56640625 L50.9921875,2.56640625 L50.9921875,28.40625 Z M49.703125,2.7421875 C49.8203125,2.7421875 49.8789062,2.68359375 49.8789062,2.56640625 C49.8789062,2.44921875 49.8203125,2.390625 49.703125,2.390625 L49.703125,2.390625 L2.88671875,2.390625 C2.76953125,2.390625 2.7109375,2.44921875 2.7109375,2.56640625 C2.7109375,2.68359375 2.76953125,2.7421875 2.88671875,2.7421875 L2.88671875,2.7421875 L49.703125,2.7421875 Z M31.8320312,25.7695312 C31.9882812,25.7695312 32.0664062,25.7109375 32.0664062,25.59375 L32.0664062,25.59375 L32.0664062,4.03125 C32.0664062,3.9140625 31.9882812,3.85546875 31.8320312,3.85546875 L31.8320312,3.85546875 L2.88671875,3.85546875 C2.76953125,3.85546875 2.7109375,3.9140625 2.7109375,4.03125 C2.7109375,4.1875 2.76953125,4.265625 2.88671875,4.265625 L2.88671875,4.265625 L3.82421875,4.265625 L3.82421875,5.37890625 L2.88671875,5.37890625 C2.76953125,5.37890625 2.7109375,5.4375 2.7109375,5.5546875 C2.7109375,5.671875 2.76953125,5.73046875 2.88671875,5.73046875 L2.88671875,5.73046875 L3.82421875,5.73046875 L3.82421875,6.84375 L2.88671875,6.84375 C2.76953125,6.84375 2.7109375,6.90234375 2.7109375,7.01953125 C2.7109375,7.17578125 2.76953125,7.25390625 2.88671875,7.25390625 L2.88671875,7.25390625 L3.82421875,7.25390625 L3.82421875,8.30859375 L2.88671875,8.30859375 C2.76953125,8.30859375 2.7109375,8.3671875 2.7109375,8.484375 C2.7109375,8.6015625 2.76953125,8.66015625 2.88671875,8.66015625 L2.88671875,8.66015625 L3.82421875,8.66015625 L3.82421875,9.83203125 L2.88671875,9.83203125 C2.76953125,9.83203125 2.7109375,9.890625 2.7109375,10.0078125 C2.7109375,10.125 2.76953125,10.1835938 2.88671875,10.1835938 L2.88671875,10.1835938 L3.82421875,10.1835938 L3.82421875,11.296875 L2.88671875,11.296875 C2.76953125,11.296875 2.7109375,11.3554688 2.7109375,11.4726562 C2.7109375,11.5898438 2.76953125,11.6484375 2.88671875,11.6484375 L2.88671875,11.6484375 L3.82421875,11.6484375 L3.82421875,12.8203125 L2.88671875,12.8203125 C2.76953125,12.8203125 2.7109375,12.8789062 2.7109375,12.9960938 C2.7109375,13.1132812 2.76953125,13.171875 2.88671875,13.171875 L2.88671875,13.171875 L3.82421875,13.171875 L3.82421875,25.59375 C3.82421875,25.7109375 3.8828125,25.7695312 4,25.7695312 L4,25.7695312 L31.8320312,25.7695312 Z M49.703125,4.265625 C49.8203125,4.265625 49.8789062,4.1875 49.8789062,4.03125 C49.8789062,3.9140625 49.8203125,3.85546875 49.703125,3.85546875 L49.703125,3.85546875 L33.3554688,3.85546875 C33.2382812,3.85546875 33.1796875,3.9140625 33.1796875,4.03125 C33.1796875,4.1875 33.2382812,4.265625 33.3554688,4.265625 L33.3554688,4.265625 L49.703125,4.265625 Z M31.65625,25.4179688 L4.17578125,25.4179688 L4.17578125,4.265625 L31.65625,4.265625 L31.65625,25.4179688 Z M29.6054688,24.3046875 C29.8398438,24.3046875 30.0546875,24.2070312 30.25,24.0117188 C30.4453125,23.8164062 30.5429688,23.6015625 30.5429688,23.3671875 L30.5429688,23.3671875 L30.5429688,6.31640625 C30.5429688,6.04296875 30.4453125,5.81835938 30.25,5.64257812 C30.0546875,5.46679688 29.8398438,5.37890625 29.6054688,5.37890625 L29.6054688,5.37890625 L6.2265625,5.37890625 C5.9921875,5.37890625 5.77734375,5.46679688 5.58203125,5.64257812 C5.38671875,5.81835938 5.2890625,6.04296875 5.2890625,6.31640625 L5.2890625,6.31640625 L5.2890625,23.3671875 C5.2890625,23.6015625 5.38671875,23.8164062 5.58203125,24.0117188 C5.77734375,24.2070312 5.9921875,24.3046875 6.2265625,24.3046875 L6.2265625,24.3046875 L29.6054688,24.3046875 Z M49.703125,5.73046875 C49.8203125,5.73046875 49.8789062,5.671875 49.8789062,5.5546875 C49.8789062,5.4375 49.8203125,5.37890625 49.703125,5.37890625 L49.703125,5.37890625 L33.3554688,5.37890625 C33.2382812,5.37890625 33.1796875,5.4375 33.1796875,5.5546875 C33.1796875,5.671875 33.2382812,5.73046875 33.3554688,5.73046875 L33.3554688,5.73046875 L49.703125,5.73046875 Z M29.6054688,23.953125 L6.2265625,23.953125 C5.8359375,23.953125 5.640625,23.7578125 5.640625,23.3671875 L5.640625,23.3671875 L5.640625,6.31640625 C5.640625,5.92578125 5.8359375,5.73046875 6.2265625,5.73046875 L6.2265625,5.73046875 L29.6054688,5.73046875 C29.9960938,5.73046875 30.1914062,5.92578125 30.1914062,6.31640625 L30.1914062,6.31640625 L30.1914062,23.3671875 C30.1914062,23.7578125 29.9960938,23.953125 29.6054688,23.953125 L29.6054688,23.953125 Z M49.703125,7.1953125 C49.8203125,7.1953125 49.8789062,7.13671875 49.8789062,7.01953125 C49.8789062,6.90234375 49.8203125,6.84375 49.703125,6.84375 L49.703125,6.84375 L33.3554688,6.84375 C33.2382812,6.84375 33.1796875,6.90234375 33.1796875,7.01953125 C33.1796875,7.13671875 33.2382812,7.1953125 33.3554688,7.1953125 L33.3554688,7.1953125 L49.703125,7.1953125 Z M49.703125,8.71875 C49.8203125,8.71875 49.8789062,8.66015625 49.8789062,8.54296875 C49.8789062,8.38671875 49.8203125,8.30859375 49.703125,8.30859375 L49.703125,8.30859375 L33.3554688,8.30859375 C33.2382812,8.30859375 33.1796875,8.38671875 33.1796875,8.54296875 C33.1796875,8.66015625 33.2382812,8.71875 33.3554688,8.71875 L33.3554688,8.71875 L49.703125,8.71875 Z M49.703125,10.1835938 C49.8203125,10.1835938 49.8789062,10.125 49.8789062,10.0078125 C49.8789062,9.890625 49.8203125,9.83203125 49.703125,9.83203125 L49.703125,9.83203125 L33.3554688,9.83203125 C33.2382812,9.83203125 33.1796875,9.890625 33.1796875,10.0078125 C33.1796875,10.125 33.2382812,10.1835938 33.3554688,10.1835938 L33.3554688,10.1835938 L49.703125,10.1835938 Z M49.703125,11.6484375 C49.8203125,11.6484375 49.8789062,11.5898438 49.8789062,11.4726562 C49.8789062,11.3554688 49.8203125,11.296875 49.703125,11.296875 L49.703125,11.296875 L33.3554688,11.296875 C33.2382812,11.296875 33.1796875,11.3554688 33.1796875,11.4726562 C33.1796875,11.5898438 33.2382812,11.6484375 33.3554688,11.6484375 L33.3554688,11.6484375 L49.703125,11.6484375 Z M49.703125,13.171875 C49.8203125,13.171875 49.8789062,13.1132812 49.8789062,12.9960938 C49.8789062,12.8789062 49.8203125,12.8203125 49.703125,12.8203125 L49.703125,12.8203125 L33.3554688,12.8203125 C33.2382812,12.8203125 33.1796875,12.8789062 33.1796875,12.9960938 C33.1796875,13.1132812 33.2382812,13.171875 33.3554688,13.171875 L33.3554688,13.171875 L49.703125,13.171875 Z M47.828125,20.9648438 C48.0625,20.9648438 48.2773438,20.8671875 48.4726562,20.671875 C48.6679688,20.4765625 48.765625,20.2617188 48.765625,20.0273438 L48.765625,20.0273438 L48.765625,18.9140625 C48.765625,18.6796875 48.6679688,18.4648438 48.4726562,18.2695312 C48.2773438,18.0742188 48.0625,17.9765625 47.828125,17.9765625 L47.828125,17.9765625 L45.6015625,17.9765625 C45.09375,17.9765625 44.8007812,18.2304688 44.7226562,18.7382812 L44.7226562,18.7382812 L38.921875,18.7382812 C38.8046875,18.7382812 38.7460938,18.796875 38.7460938,18.9140625 L38.7460938,18.9140625 L38.7460938,20.0273438 C38.7460938,20.1445312 38.8046875,20.203125 38.921875,20.203125 L38.921875,20.203125 L44.7226562,20.203125 C44.8007812,20.7109375 45.09375,20.9648438 45.6015625,20.9648438 L45.6015625,20.9648438 L47.828125,20.9648438 Z M47.828125,20.6132812 L45.6015625,20.6132812 C45.484375,20.6132812 45.3671875,20.5546875 45.25,20.4375 C45.1328125,20.3203125 45.0742188,20.1835938 45.0742188,20.0273438 C45.0742188,19.9101562 44.9960938,19.8515625 44.8398438,19.8515625 L44.8398438,19.8515625 L39.0976562,19.8515625 L39.0976562,19.0898438 L44.8398438,19.0898438 C44.9960938,19.0898438 45.0742188,19.03125 45.0742188,18.9140625 C45.0742188,18.796875 45.1328125,18.6796875 45.25,18.5625 C45.3671875,18.4453125 45.484375,18.3867188 45.6015625,18.3867188 L45.6015625,18.3867188 L47.828125,18.3867188 C47.984375,18.3867188 48.1210938,18.4453125 48.2382812,18.5625 C48.3554688,18.6796875 48.4140625,18.796875 48.4140625,18.9140625 L48.4140625,18.9140625 L48.4140625,20.0273438 C48.4140625,20.4179688 48.21875,20.6132812 47.828125,20.6132812 L47.828125,20.6132812 Z M49.5273438,30.984375 L3.0625,30.984375 L3.0625,28.7578125 L49.5273438,28.7578125 L49.5273438,30.984375 Z M52.1054688,38.4257812 L0.8359375,38.4257812 L0.8359375,35.3203125 L3.00390625,31.3945312 L49.5859375,31.3945312 L52.1054688,35.3203125 L52.1054688,38.4257812 Z M37.046875,35.4375 C37.125,35.4375 37.1835938,35.4179688 37.2226562,35.3789062 C37.3007812,35.3007812 37.3007812,35.2421875 37.2226562,35.203125 L37.2226562,35.203125 L36.109375,32.625 C36.109375,32.546875 36.0507812,32.5078125 35.9335938,32.5078125 L35.9335938,32.5078125 L4,32.5078125 C3.8828125,32.5078125 3.82421875,32.546875 3.82421875,32.625 L3.82421875,32.625 L2.7109375,35.203125 C2.671875,35.2421875 2.671875,35.3007812 2.7109375,35.3789062 C2.75,35.4179688 2.80859375,35.4375 2.88671875,35.4375 L2.88671875,35.4375 L37.046875,35.4375 Z M50.0546875,35.4375 C50.2109375,35.4375 50.2890625,35.3789062 50.2890625,35.2617188 C50.2890625,35.2226562 50.2792969,35.203125 50.2597656,35.203125 C50.2402344,35.203125 50.2304688,35.1835938 50.2304688,35.1445312 L50.2304688,35.1445312 L48.765625,32.5664062 C48.7265625,32.5273438 48.6679688,32.5078125 48.5898438,32.5078125 L48.5898438,32.5078125 L40.0351562,32.5078125 C39.9570312,32.5078125 39.8984375,32.5273438 39.859375,32.5664062 L39.859375,32.5664062 L39.859375,32.7421875 L41.3828125,35.3789062 C41.3828125,35.4179688 41.421875,35.4375 41.5,35.4375 L41.5,35.4375 L50.0546875,35.4375 Z M36.7539062,35.0859375 L3.1796875,35.0859375 L4.1171875,32.859375 L35.8164062,32.859375 L36.7539062,35.0859375 Z M49.7617188,35.0859375 L41.6171875,35.0859375 L40.328125,32.859375 L48.4726562,32.859375 L49.7617188,35.0859375 Z" id="2" fill="currentColor" fill-rule="nonzero"></path>
    </g>
</svg>