<?xml version="1.0" encoding="UTF-8"?>
<svg width="21px" height="5px" viewBox="0 0 21 5" version="1.1" xmlns="http://www.w3.org/2000/svg" xmlns:xlink="http://www.w3.org/1999/xlink">
    <title>44</title>
    <g id="Page-1" stroke="none" stroke-width="1" fill="none" fill-rule="evenodd">
        <path d="M20.6367188,4.8359375 L20.6953125,4.77734375 C20.7734375,4.77734375 20.8125,4.73828125 20.8125,4.66015625 L20.8125,4.66015625 L20.8125,0.44140625 C20.7734375,0.44140625 20.734375,0.421875 20.6953125,0.3828125 L20.6953125,0.3828125 L0.36328125,0.3828125 L0.24609375,0.44140625 L0.1875,0.55859375 L0.1875,4.6015625 C0.1875,4.640625 0.20703125,4.66015625 0.24609375,4.66015625 L0.24609375,4.66015625 L0.24609375,4.71875 C0.24609375,4.7578125 0.265625,4.77734375 0.3046875,4.77734375 L0.3046875,4.77734375 L0.36328125,4.8359375 L20.6367188,4.8359375 Z M20.4609375,4.42578125 L0.5390625,4.42578125 L0.5390625,0.734375 L20.4609375,0.734375 L20.4609375,4.42578125 Z M17.2382812,1.96484375 C17.2773438,1.96484375 17.3164062,1.9453125 17.3554688,1.90625 L17.3554688,1.90625 L17.3884277,1.84033203 L17.3884277,1.84033203 L17.4140625,1.7890625 L17.4140625,1.61328125 C17.375,1.61328125 17.3457031,1.60351562 17.3261719,1.58398438 C17.3066406,1.56445312 17.2773438,1.5546875 17.2382812,1.5546875 L17.2382812,1.5546875 L3.703125,1.5546875 L3.5859375,1.671875 L3.5859375,1.7890625 C3.5859375,1.828125 3.60546875,1.84765625 3.64453125,1.84765625 C3.64453125,1.92578125 3.68359375,1.96484375 3.76171875,1.96484375 L3.76171875,1.96484375 L17.2382812,1.96484375 Z" id="44" fill="currentColor" fill-rule="nonzero"></path>
    </g>
</svg>