<?xml version="1.0" encoding="UTF-8"?>
<svg width="21px" height="5px" viewBox="0 0 21 5" version="1.1" xmlns="http://www.w3.org/2000/svg" xmlns:xlink="http://www.w3.org/1999/xlink">
    <title>45</title>
    <g id="Page-1" stroke="none" stroke-width="1" fill="none" fill-rule="evenodd">
        <path d="M20.4609375,4.8359375 C20.5,4.8359375 20.5390625,4.81640625 20.578125,4.77734375 C20.578125,4.77734375 20.5976562,4.73828125 20.6367188,4.66015625 L20.6367188,4.66015625 L20.6367188,0.20703125 C20.5976562,0.20703125 20.5683594,0.197265625 20.5488281,0.177734375 C20.5292969,0.158203125 20.5,0.1484375 20.4609375,0.1484375 L20.4609375,0.1484375 L0.48046875,0.1484375 L0.36328125,0.265625 L0.36328125,4.66015625 C0.36328125,4.69921875 0.3828125,4.71875 0.421875,4.71875 C0.421875,4.796875 0.4609375,4.8359375 0.5390625,4.8359375 L0.5390625,4.8359375 L20.4609375,4.8359375 Z M20.2851562,4.42578125 L0.71484375,4.42578125 L0.71484375,0.55859375 L20.2851562,0.55859375 L20.2851562,4.42578125 Z M18.0585938,1.96484375 C18.1367188,1.96484375 18.2148438,1.92578125 18.2929688,1.84765625 C18.2929688,1.80859375 18.3125,1.76953125 18.3515625,1.73046875 L18.3515625,1.73046875 L18.3515625,1.5546875 L18.3515625,1.5546875 L18.2390625,1.4421875 C18.196875,1.4 18.1757812,1.37890625 18.1757812,1.37890625 L18.1757812,1.37890625 L17.9414062,1.37890625 C17.9023438,1.37890625 17.8828125,1.3984375 17.8828125,1.4375 C17.8046875,1.515625 17.765625,1.59375 17.765625,1.671875 C17.765625,1.7109375 17.7851562,1.73046875 17.8242188,1.73046875 C17.8242188,1.76953125 17.84375,1.80859375 17.8828125,1.84765625 C17.8828125,1.92578125 17.9414062,1.96484375 18.0585938,1.96484375 Z" id="45" fill="currentColor" fill-rule="nonzero"></path>
    </g>
</svg>