<?xml version="1.0" encoding="UTF-8"?>
<svg width="37px" height="23px" viewBox="0 0 37 23" version="1.1" xmlns="http://www.w3.org/2000/svg" xmlns:xlink="http://www.w3.org/1999/xlink">
    <title>66</title>
    <g id="Page-1" stroke="none" stroke-width="1" fill="none" fill-rule="evenodd">
        <path d="M31.859375,22.8359375 C32.1328125,22.8359375 32.4257812,22.8164062 32.7382812,22.7773438 C33.4023438,22.7773438 34.0175781,22.7480469 34.5839844,22.6894531 C35.1503906,22.6308594 35.6484375,22.5429688 36.078125,22.4257812 C36.46875,22.3085938 36.6640625,22.171875 36.6640625,22.015625 L36.6640625,22.015625 L36.6640625,21.8984375 L36.6054688,21.8398438 C36.5273438,21.8398438 36.390625,21.7617188 36.1953125,21.6054688 C36.078125,21.5273438 35.9511719,21.4492188 35.8144531,21.3710938 C35.6777344,21.2929688 35.53125,21.2148438 35.375,21.1367188 L35.375,21.1367188 L34.4375,20.609375 C34.125,20.4140625 33.890625,20.2871094 33.734375,20.2285156 C33.578125,20.1699219 33.421875,20.1015625 33.265625,20.0234375 L33.265625,20.0234375 L33.03125,19.9648438 C33.1484375,19.7695312 33.2070312,19.6132812 33.2070312,19.4960938 L33.2070312,19.4960938 L33.2070312,2.38671875 C33.2070312,1.99609375 33.0703125,1.6640625 32.796875,1.390625 C32.4453125,1.1171875 32.09375,0.98046875 31.7421875,0.98046875 L31.7421875,0.98046875 L5.2578125,0.98046875 C4.8671875,0.98046875 4.53515625,1.1171875 4.26171875,1.390625 C3.94921875,1.625 3.79296875,1.95703125 3.79296875,2.38671875 L3.79296875,2.38671875 L3.79296875,19.4960938 C3.79296875,19.6132812 3.8515625,19.7695312 3.96875,19.9648438 L3.96875,19.9648438 L3.734375,20.0234375 C3.578125,20.1015625 3.421875,20.1699219 3.265625,20.2285156 C3.109375,20.2871094 2.875,20.4140625 2.5625,20.609375 L2.5625,20.609375 L1.625,21.1367188 C1.46875,21.2148438 1.32226562,21.2929688 1.18554688,21.3710938 C1.04882812,21.4492188 0.921875,21.5273438 0.8046875,21.6054688 C0.609375,21.7617188 0.47265625,21.8398438 0.39453125,21.8398438 L0.39453125,21.8398438 L0.3359375,21.8984375 L0.3359375,22.015625 C0.3359375,22.171875 0.55078125,22.3085938 0.98046875,22.4257812 C1.29296875,22.5039062 1.78125,22.5820312 2.4453125,22.6601562 C3.03125,22.7382812 3.64648438,22.7871094 4.29101562,22.8066406 C4.93554688,22.8261719 5.453125,22.8359375 5.84375,22.8359375 L31.859375,22.8359375 Z M32.3867188,19.90625 L4.61328125,19.90625 C4.53515625,19.90625 4.48632812,19.8964844 4.46679688,19.8769531 C4.44726562,19.8574219 4.3984375,19.828125 4.3203125,19.7890625 C4.203125,19.7109375 4.14453125,19.6132812 4.14453125,19.4960938 L4.14453125,19.4960938 L4.14453125,2.38671875 C4.14453125,2.11328125 4.26171875,1.859375 4.49609375,1.625 C4.69140625,1.4296875 4.9453125,1.33203125 5.2578125,1.33203125 L5.2578125,1.33203125 L31.7421875,1.33203125 C32.015625,1.33203125 32.2890625,1.4296875 32.5625,1.625 C32.7578125,1.8984375 32.8554688,2.15234375 32.8554688,2.38671875 L32.8554688,2.38671875 L32.8554688,19.4960938 C32.8554688,19.6523438 32.8164062,19.75 32.7382812,19.7890625 C32.5820312,19.8671875 32.4648438,19.90625 32.3867188,19.90625 L32.3867188,19.90625 Z M18.6171875,2.38671875 C18.65625,2.38671875 18.6953125,2.3671875 18.734375,2.328125 L18.734375,2.328125 L18.7929688,2.2109375 L18.7929688,1.9765625 C18.7929688,1.9375 18.7734375,1.8984375 18.734375,1.859375 L18.734375,1.859375 L18.6757812,1.859375 L18.6171875,1.80078125 L18.3828125,1.80078125 C18.34375,1.83984375 18.3046875,1.859375 18.265625,1.859375 C18.2265625,1.8984375 18.2070312,1.9375 18.2070312,1.9765625 L18.2070312,1.9765625 L18.2070312,2.2109375 C18.2070312,2.25 18.2460938,2.30859375 18.3242188,2.38671875 L18.3242188,2.38671875 L18.6171875,2.38671875 Z M31.3320312,18.3828125 L31.3320312,2.85546875 L5.66796875,2.85546875 L5.66796875,18.3828125 L31.3320312,18.3828125 Z M30.921875,18.03125 L6.078125,18.03125 L6.078125,3.20703125 L30.921875,3.20703125 L30.921875,18.03125 Z M31.15625,22.4257812 L5.84375,22.4257812 C5.140625,22.4257812 4.515625,22.4160156 3.96875,22.3964844 C3.421875,22.3769531 2.93359375,22.3476562 2.50390625,22.3085938 C2.07421875,22.2695312 1.72265625,22.2207031 1.44921875,22.1621094 C1.17578125,22.1035156 0.9609375,22.0546875 0.8046875,22.015625 C0.8828125,21.9765625 1.09765625,21.859375 1.44921875,21.6640625 C1.95703125,21.390625 2.4453125,21.1171875 2.9140625,20.84375 L2.9140625,20.84375 L3.44140625,20.609375 C3.55859375,20.53125 3.6953125,20.4726562 3.8515625,20.4335938 C4.0078125,20.3945312 4.14453125,20.3554688 4.26171875,20.3164062 C4.37890625,20.3164062 4.45703125,20.296875 4.49609375,20.2578125 L4.49609375,20.2578125 L5.375,20.2578125 L2.2109375,21.8398438 L16.4492188,21.8398438 C16.4882812,21.9960938 16.546875,22.0742188 16.625,22.0742188 C16.703125,22.1523438 16.8007812,22.1914062 16.9179688,22.1914062 L16.9179688,22.1914062 L20.0820312,22.1914062 C20.1992188,22.1914062 20.296875,22.1523438 20.375,22.0742188 C20.453125,22.0742188 20.5117188,21.9960938 20.5507812,21.8398438 L20.5507812,21.8398438 L34.7890625,21.8398438 L31.625,20.2578125 L32.5039062,20.2578125 C32.5429688,20.296875 32.640625,20.3164062 32.796875,20.3164062 C32.796875,20.3164062 32.7992666,20.3172034 32.8040497,20.3187978 L32.8614477,20.3379305 C32.9188457,20.3570631 33.0145089,20.3889509 33.1484375,20.4335938 C33.3046875,20.4726562 33.4414062,20.5214844 33.5585938,20.5800781 C33.6757812,20.6386719 33.8515625,20.7265625 34.0859375,20.84375 C34.28125,21 34.5351562,21.1367188 34.8476562,21.2539062 C35.0820312,21.4101562 35.3261719,21.5566406 35.5800781,21.6933594 C35.8339844,21.8300781 36.0390625,21.9375 36.1953125,22.015625 C36.0390625,22.0546875 35.8242188,22.1035156 35.5507812,22.1621094 C35.2773438,22.2207031 34.9257812,22.2695312 34.4960938,22.3085938 C34.0664062,22.3476562 33.578125,22.3769531 33.03125,22.3964844 C32.484375,22.4160156 31.859375,22.4257812 31.15625,22.4257812 L31.15625,22.4257812 Z M20.140625,21.78125 L16.9179688,21.78125 C16.8789062,21.78125 16.859375,21.7617188 16.859375,21.7226562 L16.859375,21.7226562 L16.8007812,21.7226562 L16.8007812,21.4882812 L3.79296875,21.4882812 L6.25390625,20.2578125 L30.7460938,20.2578125 L33.2070312,21.4882812 L20.1992188,21.4882812 L20.1992188,21.7226562 L20.140625,21.78125 Z" id="66" fill="currentColor" fill-rule="nonzero"></path>
    </g>
</svg>