<?xml version="1.0" encoding="UTF-8"?>
<svg width="45px" height="29px" viewBox="0 0 45 29" version="1.1" xmlns="http://www.w3.org/2000/svg" xmlns:xlink="http://www.w3.org/1999/xlink">
    <title>62</title>
    <g id="Page-1" stroke="none" stroke-width="1" fill="none" fill-rule="evenodd">
        <path d="M43.4179688,28.8359375 C43.6523438,28.8359375 43.8671875,28.7382812 44.0625,28.5429688 C44.21875,28.3867188 44.296875,28.1914062 44.296875,27.9570312 L44.296875,27.9570312 L44.296875,26.4921875 C44.2578125,26.4921875 44.2382812,26.4726562 44.2382812,26.4335938 L44.2382812,26.4335938 L44.1796875,26.4335938 L40.8984375,24.5 L40.8984375,0.9453125 C40.8984375,0.7109375 40.8203125,0.515625 40.6640625,0.359375 C40.46875,0.1640625 40.2734375,0.06640625 40.078125,0.06640625 L40.078125,0.06640625 L4.921875,0.06640625 C4.7265625,0.06640625 4.53125,0.1640625 4.3359375,0.359375 C4.1796875,0.515625 4.1015625,0.7109375 4.1015625,0.9453125 L4.1015625,0.9453125 L4.1015625,24.5 L0.8203125,26.4335938 L0.76171875,26.4335938 L0.76171875,26.4921875 L0.703125,26.5507812 L0.703125,27.9570312 C0.703125,28.1914062 0.78125,28.3867188 0.9375,28.5429688 C1.1328125,28.7382812 1.34765625,28.8359375 1.58203125,28.8359375 L1.58203125,28.8359375 L43.4179688,28.8359375 Z M40.546875,24.3828125 L4.453125,24.3828125 L4.453125,0.9453125 C4.453125,0.75 4.51171875,0.6328125 4.62890625,0.59375 C4.78515625,0.515625 4.8828125,0.4765625 4.921875,0.4765625 L4.921875,0.4765625 L40.078125,0.4765625 C40.15625,0.4765625 40.2734375,0.515625 40.4296875,0.59375 C40.5078125,0.6328125 40.546875,0.75 40.546875,0.9453125 L40.546875,0.9453125 L40.546875,24.3828125 Z M22.5,1.6484375 C22.578125,1.6484375 22.65625,1.609375 22.734375,1.53125 C22.8125,1.453125 22.8515625,1.375 22.8515625,1.296875 C22.8515625,1.21875 22.8125,1.140625 22.734375,1.0625 C22.65625,0.984375 22.578125,0.9453125 22.5,0.9453125 C22.421875,0.9453125 22.34375,0.984375 22.265625,1.0625 C22.1875,1.140625 22.1484375,1.21875 22.1484375,1.296875 C22.1484375,1.375 22.1875,1.453125 22.265625,1.53125 C22.34375,1.609375 22.421875,1.6484375 22.5,1.6484375 Z M39.4921875,23.3867188 C39.4921875,23.3867188 39.5117188,23.3476562 39.5507812,23.2695312 L39.5507812,23.2695312 L39.5507812,2.52734375 L39.4921875,2.46875 L5.56640625,2.46875 C5.52734375,2.46875 5.48828125,2.48828125 5.44921875,2.52734375 L5.44921875,2.52734375 L5.44921875,23.2695312 C5.44921875,23.3476562 5.48828125,23.3867188 5.56640625,23.3867188 L5.56640625,23.3867188 L39.4921875,23.3867188 Z M39.1992188,23.0351562 L5.80078125,23.0351562 L5.80078125,2.8203125 L39.1992188,2.8203125 L39.1992188,23.0351562 Z M24.3164062,27.1367188 L20.6835938,27.1367188 C20.6054688,27.1367188 20.546875,27.1171875 20.5078125,27.078125 C20.46875,27.078125 20.4296875,27.0585938 20.390625,27.0195312 C20.3515625,27.0195312 20.3320312,27 20.3320312,26.9609375 L20.3320312,26.9609375 L20.2734375,26.9609375 L20.2734375,26.4921875 L20.2148438,26.4335938 L1.58203125,26.4335938 L4.3359375,24.734375 L40.6640625,24.734375 L43.4179688,26.4335938 L24.84375,26.4335938 C24.8046875,26.4335938 24.765625,26.453125 24.7265625,26.4921875 L24.7265625,26.4921875 L24.7265625,26.9609375 C24.6875,27 24.6484375,27.0195312 24.609375,27.0195312 C24.5703125,27.0585938 24.53125,27.078125 24.4921875,27.078125 C24.453125,27.1171875 24.3945312,27.1367188 24.3164062,27.1367188 L24.3164062,27.1367188 Z M43.4179688,28.4257812 L1.58203125,28.4257812 C1.42578125,28.4257812 1.30859375,28.3867188 1.23046875,28.3085938 C1.15234375,28.2304688 1.11328125,28.1132812 1.11328125,27.9570312 L1.11328125,27.9570312 L1.11328125,26.7851562 L19.921875,26.7851562 L19.921875,26.9609375 C19.921875,27.0390625 20,27.15625 20.15625,27.3125 C20.2734375,27.4296875 20.4492188,27.4882812 20.6835938,27.4882812 L20.6835938,27.4882812 L24.3164062,27.4882812 C24.5898438,27.4882812 24.7851562,27.4296875 24.9023438,27.3125 C25.0195312,27.1953125 25.078125,27.078125 25.078125,26.9609375 L25.078125,26.9609375 L25.078125,26.7851562 L43.8867188,26.7851562 L43.8867188,27.9570312 C43.8867188,28.1132812 43.8476562,28.2304688 43.7695312,28.3085938 C43.6914062,28.3867188 43.5742188,28.4257812 43.4179688,28.4257812 L43.4179688,28.4257812 Z M42.421875,27.4882812 C42.4609375,27.4882812 42.5,27.46875 42.5390625,27.4296875 C42.5390625,27.4296875 42.5585938,27.390625 42.5976562,27.3125 L42.5976562,27.3125 L42.5976562,27.1367188 C42.5585938,27.1367188 42.5292969,27.1269531 42.5097656,27.1074219 L42.4869792,27.0911458 C42.4696181,27.0824653 42.4479167,27.078125 42.421875,27.078125 L42.421875,27.078125 L41.1914062,27.078125 L41.0742188,27.1953125 L41.0742188,27.3125 C41.0742188,27.3515625 41.09375,27.3710938 41.1328125,27.3710938 C41.1328125,27.4492188 41.171875,27.4882812 41.25,27.4882812 L41.25,27.4882812 L42.421875,27.4882812 Z" id="62" fill="currentColor" fill-rule="nonzero"></path>
    </g>
</svg>