<?xml version="1.0" encoding="UTF-8"?>
<svg width="45px" height="29px" viewBox="0 0 45 29" version="1.1" xmlns="http://www.w3.org/2000/svg" xmlns:xlink="http://www.w3.org/1999/xlink">
    <title>60</title>
    <g id="Page-1" stroke="none" stroke-width="1" fill="none" fill-rule="evenodd">
        <path d="M43.0664062,28.8359375 C43.4570312,28.8359375 43.7695312,28.71875 44.0039062,28.484375 C44.1992188,28.2109375 44.296875,27.8984375 44.296875,27.546875 L44.296875,27.546875 L44.296875,26.140625 C44.2578125,26.140625 44.2382812,26.1210938 44.2382812,26.0820312 L44.2382812,26.0820312 L44.1796875,26.0820312 L40.8984375,24.4414062 L40.8984375,0.9453125 C40.8984375,0.7109375 40.8203125,0.515625 40.6640625,0.359375 C40.46875,0.1640625 40.2734375,0.06640625 40.078125,0.06640625 L40.078125,0.06640625 L4.921875,0.06640625 C4.7265625,0.06640625 4.53125,0.1640625 4.3359375,0.359375 C4.1796875,0.515625 4.1015625,0.7109375 4.1015625,0.9453125 L4.1015625,0.9453125 L4.1015625,24.4414062 L0.8203125,26.0820312 L0.703125,26.1992188 L0.703125,27.546875 C0.703125,27.9375 0.8203125,28.25 1.0546875,28.484375 C1.2890625,28.71875 1.58203125,28.8359375 1.93359375,28.8359375 L1.93359375,28.8359375 L43.0664062,28.8359375 Z M40.546875,24.3828125 L4.453125,24.3828125 L4.453125,0.9453125 C4.453125,0.75 4.51171875,0.6328125 4.62890625,0.59375 C4.78515625,0.515625 4.8828125,0.4765625 4.921875,0.4765625 L4.921875,0.4765625 L40.078125,0.4765625 C40.15625,0.4765625 40.2734375,0.515625 40.4296875,0.59375 C40.5078125,0.6328125 40.546875,0.75 40.546875,0.9453125 L40.546875,0.9453125 L40.546875,24.3828125 Z M22.5,1.70703125 C22.5390625,1.70703125 22.578125,1.6875 22.6171875,1.6484375 C22.65625,1.6484375 22.6953125,1.62890625 22.734375,1.58984375 C22.8125,1.58984375 22.8515625,1.51171875 22.8515625,1.35546875 C22.8515625,1.27734375 22.8125,1.19921875 22.734375,1.12109375 C22.6953125,1.12109375 22.65625,1.1015625 22.6171875,1.0625 L22.6171875,1.0625 L22.3828125,1.0625 C22.34375,1.1015625 22.3046875,1.12109375 22.265625,1.12109375 C22.1875,1.19921875 22.1484375,1.27734375 22.1484375,1.35546875 C22.1484375,1.51171875 22.1875,1.58984375 22.265625,1.58984375 C22.3046875,1.62890625 22.34375,1.6484375 22.3828125,1.6484375 C22.421875,1.6875 22.4609375,1.70703125 22.5,1.70703125 Z M38.5546875,23.0351562 L38.6132812,22.9179688 L38.6132812,2.52734375 L38.5546875,2.46875 L6.50390625,2.46875 C6.46484375,2.46875 6.42578125,2.48828125 6.38671875,2.52734375 L6.38671875,2.52734375 L6.38671875,22.9179688 C6.38671875,22.9960938 6.42578125,23.0351562 6.50390625,23.0351562 L6.50390625,23.0351562 L38.5546875,23.0351562 L38.5546875,23.0351562 Z M38.2617188,22.6835938 L6.73828125,22.6835938 L6.73828125,2.8203125 L38.2617188,2.8203125 L38.2617188,22.6835938 Z M24.4921875,27.078125 L20.5078125,27.078125 C20.46875,27.078125 20.4296875,27.0585938 20.390625,27.0195312 C20.3125,27.0195312 20.2734375,26.9804688 20.2734375,26.9023438 L20.2734375,26.9023438 L20.2734375,26.140625 L20.2148438,26.0820312 L1.69921875,26.0820312 L4.3359375,24.734375 L40.6640625,24.734375 L43.3007812,26.0820312 L24.84375,26.0820312 C24.8046875,26.0820312 24.765625,26.1015625 24.7265625,26.140625 L24.7265625,26.140625 L24.7265625,26.9609375 C24.6484375,27.0390625 24.5703125,27.078125 24.4921875,27.078125 L24.4921875,27.078125 Z M43.0664062,28.4257812 L1.93359375,28.4257812 C1.66015625,28.4257812 1.46484375,28.3476562 1.34765625,28.1914062 C1.19140625,27.9570312 1.11328125,27.7421875 1.11328125,27.546875 L1.11328125,27.546875 L1.11328125,26.4335938 L19.921875,26.4335938 L19.921875,26.9023438 C19.921875,27.0976562 20,27.234375 20.15625,27.3125 L20.15625,27.3125 L20.390625,27.4296875 C20.46875,27.46875 20.5664062,27.4882812 20.6835938,27.4882812 L20.6835938,27.4882812 L24.3164062,27.4882812 C24.4335938,27.4882812 24.5410156,27.46875 24.6386719,27.4296875 C24.7363281,27.390625 24.8242188,27.3515625 24.9023438,27.3125 C25.0195312,27.234375 25.078125,27.0976562 25.078125,26.9023438 L25.078125,26.9023438 L25.078125,26.4335938 L43.8867188,26.4335938 L43.8867188,27.546875 C43.8867188,27.8984375 43.828125,28.1132812 43.7109375,28.1914062 C43.4765625,28.3476562 43.2617188,28.4257812 43.0664062,28.4257812 L43.0664062,28.4257812 Z" id="60" fill="currentColor" fill-rule="nonzero"></path>
    </g>
</svg>