<?xml version="1.0" encoding="UTF-8"?>
<svg width="39px" height="24px" viewBox="0 0 39 24" version="1.1" xmlns="http://www.w3.org/2000/svg" xmlns:xlink="http://www.w3.org/1999/xlink">
    <title>64</title>
    <g id="Page-1" stroke="none" stroke-width="1" fill="none" fill-rule="evenodd">
        <path d="M33.7675781,23.8359375 C34.0605469,23.8359375 34.3632812,23.8164062 34.6757812,23.7773438 C36.1210938,23.7773438 37.3125,23.6601562 38.25,23.4257812 C38.71875,23.3085938 38.953125,23.1523438 38.953125,22.9570312 L38.953125,22.9570312 L38.953125,22.8398438 L38.8359375,22.78125 C38.7578125,22.78125 38.6210938,22.703125 38.4257812,22.546875 L38.4257812,22.546875 L37.546875,22.0195312 C37.3515625,21.9414062 37.1757812,21.8535156 37.0195312,21.7558594 C36.8632812,21.6582031 36.7070312,21.5703125 36.5507812,21.4921875 C36.1992188,21.296875 35.9355469,21.1601562 35.7597656,21.0820312 C35.5839844,21.0039062 35.4179688,20.9257812 35.2617188,20.8476562 L35.2617188,20.8476562 L35.0273438,20.7890625 C35.1445312,20.59375 35.203125,20.4179688 35.203125,20.2617188 L35.203125,20.2617188 L35.203125,2.0390625 C35.203125,1.6484375 35.0664062,1.27734375 34.7929688,0.92578125 C34.4414062,0.65234375 34.0703125,0.515625 33.6796875,0.515625 L33.6796875,0.515625 L5.3203125,0.515625 C4.890625,0.515625 4.5390625,0.65234375 4.265625,0.92578125 C3.953125,1.23828125 3.796875,1.609375 3.796875,2.0390625 L3.796875,2.0390625 L3.796875,20.2617188 C3.796875,20.4179688 3.85546875,20.59375 3.97265625,20.7890625 L3.97265625,20.7890625 L3.73828125,20.8476562 C3.58203125,20.9257812 3.41601562,21.0039062 3.24023437,21.0820312 C3.06445313,21.1601562 2.8203125,21.296875 2.5078125,21.4921875 C2.3125,21.5703125 2.13671875,21.6582031 1.98046875,21.7558594 C1.82421875,21.8535156 1.66796875,21.9414062 1.51171875,22.0195312 C1.16015625,22.1757812 0.8671875,22.3515625 0.6328125,22.546875 C0.359375,22.703125 0.203125,22.78125 0.1640625,22.78125 L0.1640625,22.78125 L0.046875,22.8398438 L0.046875,22.9570312 C0.046875,23.1523438 0.28125,23.3085938 0.75,23.4257812 C0.984375,23.5039062 1.23828125,23.5527344 1.51171875,23.5722656 C1.78515625,23.5917969 2.078125,23.6210938 2.390625,23.6601562 C3.015625,23.7382812 3.66015625,23.7871094 4.32421875,23.8066406 C4.98828125,23.8261719 5.5546875,23.8359375 6.0234375,23.8359375 L33.7675781,23.8359375 Z M34.3242188,20.7304688 L4.67578125,20.7304688 C4.51953125,20.7304688 4.40234375,20.6914062 4.32421875,20.6132812 C4.20703125,20.4960938 4.1484375,20.3789062 4.1484375,20.2617188 L4.1484375,20.2617188 L4.1484375,2.0390625 C4.1484375,1.6875 4.265625,1.39453125 4.5,1.16015625 C4.7734375,0.96484375 5.046875,0.8671875 5.3203125,0.8671875 L5.3203125,0.8671875 L33.6796875,0.8671875 C33.953125,0.8671875 34.2265625,0.96484375 34.5,1.16015625 C34.734375,1.39453125 34.8515625,1.6875 34.8515625,2.0390625 L34.8515625,2.0390625 L34.8515625,20.2617188 C34.8515625,20.3789062 34.7929688,20.4960938 34.6757812,20.6132812 C34.5976562,20.6914062 34.4804688,20.7304688 34.3242188,20.7304688 L34.3242188,20.7304688 Z M19.5,2.0390625 C19.578125,2.0390625 19.65625,2 19.734375,1.921875 C19.8125,1.84375 19.8515625,1.765625 19.8515625,1.6875 C19.8515625,1.609375 19.8125,1.53125 19.734375,1.453125 C19.65625,1.375 19.578125,1.3359375 19.5,1.3359375 C19.421875,1.3359375 19.34375,1.375 19.265625,1.453125 C19.1875,1.53125 19.1484375,1.609375 19.1484375,1.6875 C19.1484375,1.765625 19.1875,1.84375 19.265625,1.921875 C19.34375,2 19.421875,2.0390625 19.5,2.0390625 Z M33.2109375,19.0898438 L33.2109375,2.5078125 L5.7890625,2.5078125 L5.7890625,19.0898438 L33.2109375,19.0898438 Z M32.8007812,18.7382812 L6.19921875,18.7382812 L6.19921875,2.859375 L32.8007812,2.859375 L32.8007812,18.7382812 Z M32.9765625,23.4257812 L6.0234375,23.4257812 C5.2421875,23.4257812 4.54882812,23.4160156 3.94335938,23.3964844 C3.33789062,23.3769531 2.8203125,23.3476562 2.390625,23.3085938 C1.4140625,23.2304688 0.80859375,23.1132812 0.57421875,22.9570312 C0.65234375,22.9179688 0.8671875,22.8007812 1.21875,22.6054688 C1.3359375,22.5273438 1.46289062,22.4589844 1.59960938,22.4003906 C1.73632812,22.3417969 1.8828125,22.2734375 2.0390625,22.1953125 C2.1953125,22.1171875 2.33203125,22.0390625 2.44921875,21.9609375 C2.56640625,21.8828125 2.68359375,21.8046875 2.80078125,21.7265625 C3.03515625,21.609375 3.23046875,21.5117188 3.38671875,21.4335938 C3.54296875,21.3554688 3.69921875,21.296875 3.85546875,21.2578125 C4.24609375,21.1796875 4.48046875,21.140625 4.55859375,21.140625 L4.55859375,21.140625 L5.5546875,21.140625 L2.15625,22.78125 L17.3320312,22.78125 C17.3320312,22.9375 17.390625,23.015625 17.5078125,23.015625 C17.5859375,23.09375 17.6835938,23.1328125 17.8007812,23.1328125 L17.8007812,23.1328125 L21.1992188,23.1328125 C21.3164062,23.1328125 21.4140625,23.09375 21.4921875,23.015625 C21.609375,23.015625 21.6679688,22.9375 21.6679688,22.78125 L21.6679688,22.78125 L36.84375,22.78125 L33.4453125,21.140625 L34.734375,21.140625 C34.8515625,21.1796875 34.9882812,21.21875 35.1445312,21.2578125 C35.3007812,21.296875 35.4570312,21.3554688 35.6132812,21.4335938 C35.7304688,21.5117188 35.9160156,21.6191406 36.1699219,21.7558594 C36.4238281,21.8925781 36.7070312,22.0390625 37.0195312,22.1953125 C37.2929688,22.3515625 37.5664062,22.4882812 37.8398438,22.6054688 C38.0742188,22.8007812 38.2695312,22.9179688 38.4257812,22.9570312 C38.1914062,23.1132812 37.6054688,23.2304688 36.6679688,23.3085938 C36.1992188,23.3476562 35.6621094,23.3769531 35.0566406,23.3964844 C34.4511719,23.4160156 33.7578125,23.4257812 32.9765625,23.4257812 L32.9765625,23.4257812 Z M21.1992188,22.78125 L17.8007812,22.78125 L17.7421875,22.7226562 C17.703125,22.7226562 17.6835938,22.703125 17.6835938,22.6640625 L17.6835938,22.6640625 L17.6835938,22.4296875 L3.73828125,22.4296875 L6.31640625,21.140625 L32.6835938,21.140625 L35.2617188,22.4296875 L21.3164062,22.4296875 L21.3164062,22.7226562 C21.2773438,22.7226562 21.2382812,22.7421875 21.1992188,22.78125 L21.1992188,22.78125 Z" id="64" fill="currentColor" fill-rule="nonzero"></path>
    </g>
</svg>