<?xml version="1.0" encoding="UTF-8"?>
<svg width="25px" height="46px" viewBox="0 0 25 46" version="1.1" xmlns="http://www.w3.org/2000/svg" xmlns:xlink="http://www.w3.org/1999/xlink">
    <title>32</title>
    <g id="Page-1" stroke="none" stroke-width="1" fill="none" fill-rule="evenodd">
        <path d="M24.453125,45.8359375 C24.4921875,45.8359375 24.53125,45.8164062 24.5703125,45.7773438 C24.5703125,45.7773438 24.5898438,45.7382812 24.6289062,45.6601562 L24.6289062,45.6601562 L24.6289062,2.06640625 L24.5703125,2.0078125 L22.4609375,2.0078125 L22.4609375,0.66015625 C22.421875,0.66015625 22.4023438,0.640625 22.4023438,0.6015625 L22.4023438,0.6015625 L22.2851562,0.54296875 L0.48828125,0.54296875 L0.37109375,0.66015625 L0.37109375,45.6601562 C0.37109375,45.6992188 0.390625,45.71875 0.4296875,45.71875 C0.4296875,45.796875 0.46875,45.8359375 0.546875,45.8359375 L0.546875,45.8359375 L24.453125,45.8359375 Z M4.70703125,45.4257812 L0.72265625,45.4257812 L0.72265625,0.953125 L22.109375,0.953125 L22.109375,2.0078125 L4.765625,2.0078125 L4.765625,2.06640625 C4.7265625,2.10546875 4.70703125,2.14453125 4.70703125,2.18359375 L4.70703125,2.18359375 L4.70703125,45.4257812 Z M3.4765625,3.12109375 L3.53515625,3.0625 L3.59375,3.00390625 C3.59375,3.00390625 3.61328125,2.96484375 3.65234375,2.88671875 L3.65234375,2.88671875 L3.65234375,2.06640625 C3.61328125,2.06640625 3.57421875,2.046875 3.53515625,2.0078125 L3.53515625,2.0078125 L1.953125,2.0078125 C1.9140625,2.0078125 1.875,2.02734375 1.8359375,2.06640625 L1.8359375,2.06640625 L1.8359375,2.9453125 C1.8359375,2.984375 1.85546875,3.00390625 1.89453125,3.00390625 C1.89453125,3.08203125 1.93359375,3.12109375 2.01171875,3.12109375 L2.01171875,3.12109375 L3.4765625,3.12109375 Z M3.2421875,2.7109375 L2.1875,2.7109375 L2.1875,2.359375 L3.2421875,2.359375 L3.2421875,2.7109375 Z M24.2773438,3.35546875 L5.05859375,3.35546875 L5.05859375,2.359375 L24.2773438,2.359375 L24.2773438,3.35546875 Z M8.33984375,4.9375 L5.05859375,4.9375 L5.05859375,3.70703125 L8.33984375,3.70703125 L8.33984375,4.9375 Z M20.6445312,4.9375 L8.69140625,4.9375 L8.69140625,3.765625 L20.6445312,3.70703125 L20.6445312,4.9375 Z M24.2773438,4.9375 L20.9960938,4.9375 L20.9960938,3.765625 L24.2773438,3.70703125 L24.2773438,4.9375 Z M24.2773438,6.34375 L5.05859375,6.34375 L5.05859375,5.2890625 L24.2773438,5.2890625 L24.2773438,6.34375 Z M2.71484375,7.6328125 C3.02734375,7.6328125 3.30078125,7.515625 3.53515625,7.28125 C3.73046875,7.0859375 3.828125,6.83203125 3.828125,6.51953125 C3.828125,6.28515625 3.73046875,6.03125 3.53515625,5.7578125 C3.26171875,5.5625 2.98828125,5.46484375 2.71484375,5.46484375 C2.44140625,5.46484375 2.20703125,5.5625 2.01171875,5.7578125 C1.77734375,5.9921875 1.66015625,6.24609375 1.66015625,6.51953125 C1.66015625,6.83203125 1.77734375,7.0859375 2.01171875,7.28125 C2.20703125,7.515625 2.44140625,7.6328125 2.71484375,7.6328125 Z M2.71484375,7.22265625 C2.48046875,7.22265625 2.32421875,7.1640625 2.24609375,7.046875 C2.16796875,6.96875 2.109375,6.890625 2.0703125,6.8125 C2.03125,6.734375 2.01171875,6.63671875 2.01171875,6.51953125 C2.01171875,6.32421875 2.08984375,6.1484375 2.24609375,5.9921875 C2.36328125,5.875 2.51953125,5.81640625 2.71484375,5.81640625 C2.91015625,5.81640625 3.0859375,5.875 3.2421875,5.9921875 C3.359375,6.0703125 3.41796875,6.24609375 3.41796875,6.51953125 C3.41796875,6.75390625 3.359375,6.9296875 3.2421875,7.046875 C3.125,7.1640625 2.94921875,7.22265625 2.71484375,7.22265625 Z M24.2773438,12.1445312 L5.05859375,12.1445312 L5.05859375,6.6953125 L24.2773438,6.6953125 L24.2773438,12.1445312 Z M24.2773438,45.4257812 L5.05859375,45.4257812 L5.05859375,12.4960938 L24.2773438,12.4960938 L24.2773438,45.4257812 Z M7.05078125,15.7773438 C7.28515625,15.7773438 7.5,15.6796875 7.6953125,15.484375 C7.8515625,15.328125 7.9296875,15.1328125 7.9296875,14.8984375 C7.9296875,14.6640625 7.8515625,14.46875 7.6953125,14.3125 C7.5,14.1171875 7.28515625,14.0195312 7.05078125,14.0195312 C6.85546875,14.0195312 6.66015625,14.1171875 6.46484375,14.3125 C6.30859375,14.46875 6.23046875,14.6640625 6.23046875,14.8984375 C6.23046875,15.1328125 6.30859375,15.328125 6.46484375,15.484375 C6.66015625,15.6796875 6.85546875,15.7773438 7.05078125,15.7773438 Z M7.05078125,15.3671875 C7.01171875,15.3671875 6.9140625,15.328125 6.7578125,15.25 C6.640625,15.171875 6.58203125,15.0546875 6.58203125,14.8984375 C6.58203125,14.703125 6.640625,14.5859375 6.7578125,14.546875 C6.9140625,14.46875 7.01171875,14.4296875 7.05078125,14.4296875 C7.20703125,14.4296875 7.32421875,14.46875 7.40234375,14.546875 C7.51953125,14.6640625 7.578125,14.78125 7.578125,14.8984375 C7.578125,15.015625 7.51953125,15.1328125 7.40234375,15.25 C7.32421875,15.328125 7.20703125,15.3671875 7.05078125,15.3671875 Z M23.1640625,30.6015625 L23.2226562,30.5429688 C23.2226562,30.5429688 23.223877,30.5405273 23.2263184,30.5356445 L23.28125,30.4257812 L23.28125,30.3085938 C23.2421875,30.3085938 23.203125,30.2890625 23.1640625,30.25 L23.1640625,30.25 L6.171875,30.25 C6.1328125,30.25 6.09375,30.2695312 6.0546875,30.3085938 L6.0546875,30.3085938 L6.0546875,30.484375 C6.0546875,30.5625 6.09375,30.6015625 6.171875,30.6015625 L6.171875,30.6015625 L23.1640625,30.6015625 Z M23.046875,32.0664062 C23.0859375,32.0664062 23.125,32.046875 23.1640625,32.0078125 L23.1640625,32.0078125 L23.28125,31.890625 C23.28125,31.8515625 23.2714844,31.8222656 23.2519531,31.8027344 C23.2324219,31.7832031 23.2226562,31.7539062 23.2226562,31.7148438 C23.1835938,31.7148438 23.1542969,31.7050781 23.1347656,31.6855469 L23.1119792,31.6692708 C23.0946181,31.6605903 23.0729167,31.65625 23.046875,31.65625 L23.046875,31.65625 L6.171875,31.65625 L6.0546875,31.7734375 L6.0546875,31.890625 C6.0546875,31.9296875 6.07421875,31.9492188 6.11328125,31.9492188 C6.11328125,32.0273438 6.15234375,32.0664062 6.23046875,32.0664062 L6.23046875,32.0664062 L23.046875,32.0664062 Z M23.046875,33.53125 C23.0859375,33.53125 23.1445312,33.4921875 23.2226562,33.4140625 L23.2226562,33.4140625 L23.28125,33.296875 L23.28125,33.2382812 C23.2421875,33.2382812 23.2226562,33.21875 23.2226562,33.1796875 C23.1835938,33.1796875 23.1542969,33.1699219 23.1347656,33.1503906 L23.1119792,33.1341146 C23.0946181,33.125434 23.0729167,33.1210938 23.046875,33.1210938 L23.046875,33.1210938 L6.171875,33.1210938 L6.0546875,33.2382812 L6.0546875,33.3554688 C6.0546875,33.3945312 6.07421875,33.4140625 6.11328125,33.4140625 C6.11328125,33.4921875 6.15234375,33.53125 6.23046875,33.53125 L6.23046875,33.53125 L23.046875,33.53125 Z M23.1640625,34.9375 L23.2226562,34.8789062 C23.2226562,34.8789062 23.2421875,34.8398438 23.28125,34.7617188 L23.28125,34.7617188 L23.28125,34.6445312 C23.2421875,34.6445312 23.203125,34.625 23.1640625,34.5859375 L23.1640625,34.5859375 L6.171875,34.5859375 C6.1328125,34.5859375 6.09375,34.6054688 6.0546875,34.6445312 L6.0546875,34.6445312 L6.0546875,34.8203125 C6.0546875,34.8984375 6.09375,34.9375 6.171875,34.9375 L6.171875,34.9375 L23.1640625,34.9375 Z M23.046875,36.4023438 C23.0859375,36.4023438 23.125,36.3828125 23.1640625,36.34375 L23.1640625,36.34375 L23.2226562,36.34375 L23.28125,36.2265625 L23.28125,36.109375 C23.2421875,36.109375 23.203125,36.0898438 23.1640625,36.0507812 L23.1640625,36.0507812 L6.171875,36.0507812 C6.1328125,36.0507812 6.09375,36.0703125 6.0546875,36.109375 L6.0546875,36.109375 L6.0546875,36.2851562 C6.0546875,36.3242188 6.07421875,36.34375 6.11328125,36.34375 L6.11328125,36.34375 L6.171875,36.34375 C6.171875,36.3828125 6.19140625,36.4023438 6.23046875,36.4023438 L6.23046875,36.4023438 L23.046875,36.4023438 Z M23.046875,37.8671875 C23.0859375,37.8671875 23.125,37.8476562 23.1640625,37.8085938 L23.1640625,37.8085938 L23.28125,37.6914062 C23.28125,37.6523438 23.2714844,37.6230469 23.2519531,37.6035156 C23.2324219,37.5839844 23.2226562,37.5546875 23.2226562,37.515625 C23.1835938,37.515625 23.1542969,37.5058594 23.1347656,37.4863281 L23.1119792,37.4700521 C23.0946181,37.4613715 23.0729167,37.4570312 23.046875,37.4570312 L23.046875,37.4570312 L6.171875,37.4570312 L6.0546875,37.5742188 L6.0546875,37.6914062 C6.0546875,37.7304688 6.07421875,37.75 6.11328125,37.75 C6.11328125,37.828125 6.15234375,37.8671875 6.23046875,37.8671875 L6.23046875,37.8671875 L23.046875,37.8671875 Z M23.1640625,39.2734375 L23.2226562,39.2148438 C23.2226562,39.2148438 23.2421875,39.1757812 23.28125,39.0976562 L23.28125,39.0976562 L23.2226562,38.9804688 C23.1835938,38.9804688 23.1640625,38.9609375 23.1640625,38.921875 L23.1640625,38.921875 L6.171875,38.921875 L6.11328125,38.9804688 C6.07421875,38.9804688 6.0546875,39 6.0546875,39.0390625 L6.0546875,39.0390625 L6.0546875,39.15625 C6.0546875,39.234375 6.09375,39.2734375 6.171875,39.2734375 L6.171875,39.2734375 L23.1640625,39.2734375 Z M23.1640625,40.7382812 L23.2226562,40.6796875 C23.2226562,40.6796875 23.2421875,40.640625 23.28125,40.5625 L23.28125,40.5625 L23.28125,40.4453125 C23.2421875,40.4453125 23.203125,40.4257812 23.1640625,40.3867188 L23.1640625,40.3867188 L6.171875,40.3867188 C6.1328125,40.3867188 6.09375,40.40625 6.0546875,40.4453125 L6.0546875,40.4453125 L6.0546875,40.6210938 C6.0546875,40.6992188 6.09375,40.7382812 6.171875,40.7382812 L6.171875,40.7382812 L23.1640625,40.7382812 Z M23.046875,42.203125 C23.0859375,42.203125 23.125,42.1835938 23.1640625,42.1445312 L23.1640625,42.1445312 L23.28125,42.0273438 C23.28125,41.9882812 23.2714844,41.9589844 23.2519531,41.9394531 C23.2324219,41.9199219 23.2226562,41.890625 23.2226562,41.8515625 C23.1835938,41.8515625 23.1542969,41.8417969 23.1347656,41.8222656 C23.1152344,41.8027344 23.0859375,41.7929688 23.046875,41.7929688 L23.046875,41.7929688 L6.171875,41.7929688 L6.0546875,41.9101562 L6.0546875,42.0273438 C6.0546875,42.0664062 6.07421875,42.0859375 6.11328125,42.0859375 C6.11328125,42.1640625 6.15234375,42.203125 6.23046875,42.203125 L6.23046875,42.203125 L23.046875,42.203125 Z M23.046875,43.6679688 C23.0859375,43.6679688 23.1445312,43.6289062 23.2226562,43.5507812 C23.2226562,43.5507812 23.2421875,43.5117188 23.28125,43.4335938 L23.28125,43.4335938 L23.28125,43.375 C23.2421875,43.375 23.2226562,43.3554688 23.2226562,43.3164062 C23.1835938,43.3164062 23.1542969,43.3066406 23.1347656,43.2871094 C23.1152344,43.2675781 23.0859375,43.2578125 23.046875,43.2578125 L23.046875,43.2578125 L6.171875,43.2578125 L6.0546875,43.375 L6.0546875,43.4921875 C6.0546875,43.53125 6.07421875,43.5507812 6.11328125,43.5507812 C6.11328125,43.6289062 6.15234375,43.6679688 6.23046875,43.6679688 L6.23046875,43.6679688 L23.046875,43.6679688 Z" id="32" fill="currentColor" fill-rule="nonzero"></path>
    </g>
</svg>