<?xml version="1.0" encoding="UTF-8"?>
<svg width="25px" height="47px" viewBox="0 0 25 47" version="1.1" xmlns="http://www.w3.org/2000/svg" xmlns:xlink="http://www.w3.org/1999/xlink">
    <title>31</title>
    <g id="Page-1" stroke="none" stroke-width="1" fill="none" fill-rule="evenodd">
        <path d="M22.109375,46.8945312 C22.1875,46.8945312 22.2753906,46.875 22.3730469,46.8359375 C22.4707031,46.796875 22.578125,46.7578125 22.6953125,46.71875 C22.8125,46.6796875 22.96875,46.5625 23.1640625,46.3671875 C23.359375,46.3671875 23.5742188,46.2890625 23.8085938,46.1328125 C23.9648438,46.015625 24.0429688,45.859375 24.0429688,45.6640625 L24.0429688,45.6640625 L24.0429688,42.9101562 C24.0429688,42.7148438 24.0039062,42.5976562 23.9257812,42.5585938 L23.9257812,42.5585938 L23.6914062,42.4414062 C23.6132812,42.4023438 23.5351562,42.3632812 23.4570312,42.3242188 L23.4570312,42.3242188 L23.4570312,1.953125 C23.4570312,1.640625 23.3203125,1.30859375 23.046875,0.95703125 C22.8125,0.72265625 22.5,0.60546875 22.109375,0.60546875 L22.109375,0.60546875 L4.58984375,0.60546875 C4.55078125,0.60546875 4.51171875,0.5859375 4.47265625,0.546875 L4.47265625,0.546875 L4.296875,0.546875 L4.23828125,0.60546875 L3.65234375,0.60546875 L3.59375,0.546875 L3.359375,0.546875 L3.359375,0.60546875 L2.890625,0.60546875 C2.5,0.60546875 2.1875,0.72265625 1.953125,0.95703125 C1.6796875,1.30859375 1.54296875,1.640625 1.54296875,1.953125 L1.54296875,1.953125 L1.54296875,42.3242188 C1.46484375,42.3632812 1.39648438,42.4023438 1.33789062,42.4414062 C1.27929688,42.4804688 1.2109375,42.5195312 1.1328125,42.5585938 C1.015625,42.5976562 0.95703125,42.7148438 0.95703125,42.9101562 L0.95703125,42.9101562 L0.95703125,45.6640625 C0.95703125,45.859375 1.03515625,46.015625 1.19140625,46.1328125 C1.42578125,46.2890625 1.640625,46.3671875 1.8359375,46.3671875 C2.03125,46.5625 2.20703125,46.6796875 2.36328125,46.71875 C2.44140625,46.7578125 2.52929688,46.796875 2.62695312,46.8359375 C2.72460938,46.875 2.8125,46.8945312 2.890625,46.8945312 L2.890625,46.8945312 L22.109375,46.8945312 Z M3.30078125,46.484375 L2.890625,46.484375 C2.7734375,46.484375 2.63671875,46.4453125 2.48046875,46.3671875 C2.44140625,46.328125 2.41210938,46.3085938 2.39257812,46.3085938 C2.37304688,46.3085938 2.34375,46.2890625 2.3046875,46.25 L2.3046875,46.25 L2.12890625,46.0742188 C2.08984375,46.0742188 2.0703125,46.0546875 2.0703125,46.015625 L2.0703125,46.015625 L1.953125,46.015625 C1.8359375,46.015625 1.69921875,45.9765625 1.54296875,45.8984375 C1.42578125,45.8203125 1.3671875,45.7421875 1.3671875,45.6640625 L1.3671875,45.6640625 L1.3671875,42.9101562 C1.3671875,42.8710938 1.38671875,42.8320312 1.42578125,42.7929688 C1.46484375,42.7929688 1.50390625,42.7734375 1.54296875,42.734375 C1.62109375,42.734375 1.6796875,42.7148438 1.71875,42.6757812 L1.71875,42.6757812 L1.8359375,42.6757812 L1.89453125,42.6171875 L1.89453125,42.6171875 L1.953125,42.5 L1.953125,1.953125 C1.953125,1.640625 2.05078125,1.40625 2.24609375,1.25 C2.44140625,1.0546875 2.65625,0.95703125 2.890625,0.95703125 L2.890625,0.95703125 L3.30078125,0.95703125 L3.30078125,46.484375 Z M4.1796875,46.484375 L3.65234375,46.484375 L3.65234375,0.95703125 L4.1796875,0.95703125 L4.1796875,46.484375 Z M22.109375,46.484375 L4.58984375,46.484375 L4.58984375,0.95703125 L22.109375,0.95703125 C22.3046875,0.95703125 22.5390625,1.0546875 22.8125,1.25 C22.96875,1.40625 23.046875,1.640625 23.046875,1.953125 L23.046875,1.953125 L23.046875,42.5 C23.046875,42.5390625 23.0664062,42.5585938 23.1054688,42.5585938 C23.1054688,42.6367188 23.1445312,42.6757812 23.2226562,42.6757812 L23.2226562,42.6757812 L23.3398438,42.6757812 C23.3789062,42.7148438 23.4179688,42.734375 23.4570312,42.734375 C23.4960938,42.7734375 23.5351562,42.7929688 23.5742188,42.7929688 C23.6132812,42.8320312 23.6328125,42.8710938 23.6328125,42.9101562 L23.6328125,42.9101562 L23.6328125,45.6640625 C23.6328125,45.78125 23.59375,45.859375 23.515625,45.8984375 C23.359375,45.9765625 23.203125,46.015625 23.046875,46.015625 L23.046875,46.015625 L22.9296875,46.015625 C22.9296875,46.0546875 22.9101562,46.0742188 22.8710938,46.0742188 C22.8320312,46.1132812 22.8125,46.1425781 22.8125,46.1621094 C22.8125,46.1816406 22.7929688,46.2109375 22.7539062,46.25 L22.7539062,46.25 L22.578125,46.3671875 C22.421875,46.4453125 22.265625,46.484375 22.109375,46.484375 L22.109375,46.484375 Z M10.4492188,3.2421875 C10.4882812,3.2421875 10.5273438,3.22265625 10.5664062,3.18359375 C10.5664062,3.18359375 10.5859375,3.14453125 10.625,3.06640625 L10.625,3.06640625 L10.625,2.890625 C10.5859375,2.890625 10.5566406,2.88085938 10.5371094,2.86132812 C10.5175781,2.84179688 10.4882812,2.83203125 10.4492188,2.83203125 L10.4492188,2.83203125 L5.52734375,2.83203125 L5.46875,2.890625 C5.390625,2.96875 5.3515625,3.02734375 5.3515625,3.06640625 L5.3515625,3.06640625 L5.41015625,3.06640625 C5.41015625,3.14453125 5.44921875,3.18359375 5.52734375,3.18359375 L5.52734375,3.18359375 L5.52734375,3.2421875 L10.4492188,3.2421875 Z M12.9101562,17.7734375 C12.9492188,17.7734375 12.96875,17.7539062 12.96875,17.7148438 C13.0078125,17.7148438 13.0273438,17.6953125 13.0273438,17.65625 L13.0273438,17.65625 L13.0859375,17.5976562 L13.0859375,2.94921875 C13.046875,2.94921875 13.0273438,2.9296875 13.0273438,2.890625 L13.0273438,2.890625 L12.9101562,2.83203125 L11.6796875,2.83203125 L11.5625,2.94921875 L11.5625,17.5976562 C11.5625,17.6367188 11.5820312,17.65625 11.6210938,17.65625 C11.6210938,17.734375 11.6601562,17.7734375 11.7382812,17.7734375 L11.7382812,17.7734375 L12.9101562,17.7734375 Z M12.734375,17.3632812 L11.9140625,17.3632812 L11.9140625,3.2421875 L12.734375,3.2421875 L12.734375,17.3632812 Z M10.4492188,4.765625 C10.4882812,4.765625 10.5273438,4.74609375 10.5664062,4.70703125 L10.5664062,4.70703125 L10.625,4.58984375 L10.625,4.4140625 C10.5859375,4.4140625 10.5566406,4.40429688 10.5371094,4.38476562 C10.5175781,4.36523438 10.4882812,4.35546875 10.4492188,4.35546875 L10.4492188,4.35546875 L5.52734375,4.35546875 L5.46875,4.4140625 C5.390625,4.4921875 5.3515625,4.55078125 5.3515625,4.58984375 L5.3515625,4.58984375 L5.41015625,4.58984375 C5.41015625,4.66796875 5.44921875,4.70703125 5.52734375,4.70703125 L5.52734375,4.70703125 L5.52734375,4.765625 L10.4492188,4.765625 Z M10.4492188,6.2890625 C10.4882812,6.2890625 10.5273438,6.26953125 10.5664062,6.23046875 L10.5664062,6.23046875 L10.625,6.23046875 L10.625,5.9375 C10.5859375,5.9375 10.5566406,5.92773438 10.5371094,5.90820312 C10.5175781,5.88867188 10.4882812,5.87890625 10.4492188,5.87890625 L10.4492188,5.87890625 L5.52734375,5.87890625 L5.46875,5.9375 C5.390625,6.015625 5.3515625,6.07421875 5.3515625,6.11328125 C5.3515625,6.15234375 5.37109375,6.171875 5.41015625,6.171875 C5.41015625,6.2109375 5.4296875,6.23046875 5.46875,6.23046875 L5.46875,6.23046875 L5.52734375,6.23046875 L5.52734375,6.2890625 L10.4492188,6.2890625 Z M10.4492188,7.8125 C10.4882812,7.8125 10.5273438,7.79296875 10.5664062,7.75390625 L10.5664062,7.75390625 L10.625,7.75390625 L10.625,7.51953125 L10.5664062,7.4609375 L5.46875,7.4609375 C5.390625,7.5390625 5.3515625,7.59765625 5.3515625,7.63671875 C5.3515625,7.67578125 5.37109375,7.6953125 5.41015625,7.6953125 C5.41015625,7.734375 5.4296875,7.75390625 5.46875,7.75390625 L5.46875,7.75390625 L5.52734375,7.75390625 L5.52734375,7.8125 L10.4492188,7.8125 Z M10.5664062,9.3359375 C10.5664062,9.3359375 10.567627,9.33349609 10.5700684,9.32861328 L10.625,9.21875 L10.625,9.04296875 L10.5664062,8.984375 L5.46875,8.984375 C5.390625,9.0625 5.3515625,9.12109375 5.3515625,9.16015625 C5.3515625,9.19921875 5.37109375,9.21875 5.41015625,9.21875 C5.41015625,9.296875 5.44921875,9.3359375 5.52734375,9.3359375 L5.52734375,9.3359375 L10.5664062,9.3359375 Z M10.5664062,10.859375 C10.5664062,10.859375 10.5859375,10.8203125 10.625,10.7421875 L10.625,10.7421875 L10.625,10.5664062 L10.5664062,10.5078125 L5.46875,10.5078125 C5.390625,10.5859375 5.3515625,10.6445312 5.3515625,10.6835938 C5.3515625,10.7226562 5.37109375,10.7421875 5.41015625,10.7421875 C5.41015625,10.8203125 5.44921875,10.859375 5.52734375,10.859375 L5.52734375,10.859375 L10.5664062,10.859375 Z M10.5664062,12.3828125 C10.5664062,12.3828125 10.5859375,12.34375 10.625,12.265625 L10.625,12.265625 L10.625,12.0898438 L10.5664062,12.03125 L5.46875,12.03125 C5.390625,12.109375 5.3515625,12.1679688 5.3515625,12.2070312 C5.3515625,12.2460938 5.37109375,12.265625 5.41015625,12.265625 C5.41015625,12.34375 5.44921875,12.3828125 5.52734375,12.3828125 L5.52734375,12.3828125 L10.5664062,12.3828125 Z M20.46875,14.7265625 C20.703125,14.7265625 20.8984375,14.6484375 21.0546875,14.4921875 C21.25,14.296875 21.3476562,14.0820312 21.3476562,13.8476562 C21.3476562,13.6523438 21.25,13.4570312 21.0546875,13.2617188 C20.8984375,13.1054688 20.703125,13.0273438 20.46875,13.0273438 C20.1953125,13.0273438 19.9804688,13.1054688 19.8242188,13.2617188 C19.6679688,13.4179688 19.5898438,13.6132812 19.5898438,13.8476562 C19.5898438,14.1210938 19.6679688,14.3359375 19.8242188,14.4921875 C19.9804688,14.6484375 20.1953125,14.7265625 20.46875,14.7265625 Z M20.46875,14.375 C20.3515625,14.375 20.234375,14.3164062 20.1171875,14.1992188 C20.0390625,14.1210938 20,14.0039062 20,13.8476562 C20,13.7695312 20.0390625,13.6523438 20.1171875,13.4960938 C20.15625,13.4179688 20.2734375,13.3789062 20.46875,13.3789062 C20.6640625,13.3789062 20.78125,13.4179688 20.8203125,13.4960938 C20.8984375,13.6523438 20.9375,13.7695312 20.9375,13.8476562 C20.9375,14.0039062 20.8984375,14.1210938 20.8203125,14.1992188 C20.703125,14.3164062 20.5859375,14.375 20.46875,14.375 Z M10.5664062,13.90625 L10.5993652,13.840332 L10.5993652,13.840332 L10.625,13.7890625 L10.625,13.6132812 L10.5664062,13.5546875 L5.46875,13.5546875 C5.390625,13.6328125 5.3515625,13.6914062 5.3515625,13.7304688 C5.3515625,13.7695312 5.37109375,13.7890625 5.41015625,13.7890625 C5.41015625,13.8671875 5.44921875,13.90625 5.52734375,13.90625 L5.52734375,13.90625 L10.5664062,13.90625 L10.5664062,13.90625 Z M10.5664062,15.4296875 C10.5664062,15.4296875 10.5859375,15.390625 10.625,15.3125 L10.625,15.3125 L10.625,15.1953125 C10.625,15.15625 10.6054688,15.1171875 10.5664062,15.078125 L10.5664062,15.078125 L5.46875,15.078125 L5.3515625,15.2539062 C5.3515625,15.2929688 5.37109375,15.3125 5.41015625,15.3125 C5.41015625,15.390625 5.44921875,15.4296875 5.52734375,15.4296875 L5.52734375,15.4296875 L10.5664062,15.4296875 Z M10.5664062,16.953125 L10.625,16.8359375 L10.625,16.6601562 C10.5859375,16.6601562 10.5664062,16.640625 10.5664062,16.6015625 L10.5664062,16.6015625 L5.52734375,16.6015625 L5.46875,16.6601562 C5.4296875,16.6601562 5.41015625,16.6796875 5.41015625,16.71875 L5.41015625,16.71875 L5.3515625,16.7773438 C5.3515625,16.8164062 5.37109375,16.8359375 5.41015625,16.8359375 C5.41015625,16.9140625 5.44921875,16.953125 5.52734375,16.953125 L5.52734375,16.953125 L10.5664062,16.953125 L10.5664062,16.953125 Z M10.4492188,18.5351562 C10.4882812,18.5351562 10.5273438,18.515625 10.5664062,18.4765625 C10.5664062,18.4765625 10.5859375,18.4375 10.625,18.359375 L10.625,18.359375 L10.625,18.1835938 C10.5859375,18.1835938 10.5566406,18.1738281 10.5371094,18.1542969 C10.5175781,18.1347656 10.4882812,18.125 10.4492188,18.125 L10.4492188,18.125 L5.52734375,18.125 L5.41015625,18.2421875 L5.3515625,18.3007812 C5.3515625,18.3398438 5.37109375,18.359375 5.41015625,18.359375 C5.41015625,18.4375 5.44921875,18.4765625 5.52734375,18.4765625 L5.52734375,18.4765625 L5.52734375,18.5351562 L10.4492188,18.5351562 Z M10.4492188,20.1171875 C10.4882812,20.1171875 10.5273438,20.0976562 10.5664062,20.0585938 C10.5664062,20.0585938 10.5859375,20.0195312 10.625,19.9414062 L10.625,19.9414062 L10.625,19.765625 C10.5859375,19.765625 10.5566406,19.7558594 10.5371094,19.7363281 C10.5175781,19.7167969 10.4882812,19.7070312 10.4492188,19.7070312 L10.4492188,19.7070312 L5.52734375,19.7070312 L5.41015625,19.8242188 L5.3515625,19.8828125 C5.3515625,19.921875 5.37109375,19.9414062 5.41015625,19.9414062 C5.41015625,20.0195312 5.44921875,20.0585938 5.52734375,20.0585938 L5.52734375,20.0585938 L5.52734375,20.1171875 L10.4492188,20.1171875 Z M10.4492188,21.640625 C10.4882812,21.640625 10.5273438,21.6210938 10.5664062,21.5820312 L10.5664062,21.5820312 L10.625,21.4648438 L10.625,21.2890625 C10.5859375,21.2890625 10.5664062,21.2695312 10.5664062,21.2304688 C10.5273438,21.1914062 10.4882812,21.1914062 10.4492188,21.2304688 L10.4492188,21.2304688 L5.52734375,21.171875 L5.52734375,21.2304688 C5.48828125,21.2304688 5.46875,21.25 5.46875,21.2890625 L5.46875,21.2890625 L5.41015625,21.3476562 C5.37109375,21.3476562 5.3515625,21.3671875 5.3515625,21.40625 L5.3515625,21.40625 L5.41015625,21.40625 C5.41015625,21.484375 5.44921875,21.5234375 5.52734375,21.5234375 L5.52734375,21.5234375 L5.52734375,21.5820312 L10.4492188,21.5820312 L10.4492188,21.640625 Z M10.4492188,23.1640625 C10.4882812,23.1640625 10.5273438,23.1445312 10.5664062,23.1054688 C10.5664062,23.1054688 10.5859375,23.0664062 10.625,22.9882812 L10.625,22.9882812 L10.625,22.8125 C10.5859375,22.8125 10.5566406,22.8027344 10.5371094,22.7832031 C10.5175781,22.7636719 10.4882812,22.7539062 10.4492188,22.7539062 L10.4492188,22.7539062 L5.52734375,22.7539062 L5.46875,22.8125 C5.390625,22.890625 5.3515625,22.9492188 5.3515625,22.9882812 L5.3515625,22.9882812 L5.41015625,22.9882812 C5.41015625,23.0664062 5.44921875,23.1054688 5.52734375,23.1054688 L5.52734375,23.1054688 L5.52734375,23.1640625 L10.4492188,23.1640625 Z M10.4492188,24.6875 C10.4882812,24.6875 10.5273438,24.6679688 10.5664062,24.6289062 C10.5664062,24.6289062 10.5859375,24.5898438 10.625,24.5117188 L10.625,24.5117188 L10.625,24.3359375 C10.5859375,24.3359375 10.5566406,24.3261719 10.5371094,24.3066406 C10.5175781,24.2871094 10.4882812,24.2773438 10.4492188,24.2773438 L10.4492188,24.2773438 L5.52734375,24.2773438 L5.46875,24.3359375 C5.390625,24.4140625 5.3515625,24.4726562 5.3515625,24.5117188 L5.3515625,24.5117188 L5.41015625,24.5117188 C5.41015625,24.5898438 5.44921875,24.6289062 5.52734375,24.6289062 L5.52734375,24.6289062 L5.52734375,24.6875 L10.4492188,24.6875 Z M10.4492188,26.2109375 C10.4882812,26.2109375 10.5273438,26.1914062 10.5664062,26.1523438 L10.5664062,26.1523438 L10.625,26.1523438 L10.625,25.9179688 L10.5664062,25.859375 L5.46875,25.859375 C5.390625,25.9375 5.3515625,25.9960938 5.3515625,26.0351562 C5.3515625,26.0742188 5.37109375,26.09375 5.41015625,26.09375 C5.41015625,26.1328125 5.4296875,26.1523438 5.46875,26.1523438 L5.46875,26.1523438 L5.52734375,26.1523438 L5.52734375,26.2109375 L10.4492188,26.2109375 Z M10.5664062,27.734375 C10.5664062,27.734375 10.5859375,27.6953125 10.625,27.6171875 L10.625,27.6171875 L10.625,27.4414062 L10.5664062,27.3828125 L5.46875,27.3828125 C5.390625,27.4609375 5.3515625,27.5195312 5.3515625,27.5585938 L5.3515625,27.5585938 L5.41015625,27.6171875 C5.41015625,27.6953125 5.44921875,27.734375 5.52734375,27.734375 L5.52734375,27.734375 L10.5664062,27.734375 Z M10.5664062,29.2578125 C10.5664062,29.2578125 10.5859375,29.21875 10.625,29.140625 L10.625,29.140625 L10.625,28.9648438 L10.5664062,28.90625 L5.46875,28.90625 C5.390625,28.984375 5.3515625,29.0429688 5.3515625,29.0820312 C5.3515625,29.1210938 5.37109375,29.140625 5.41015625,29.140625 C5.41015625,29.21875 5.44921875,29.2578125 5.52734375,29.2578125 L5.52734375,29.2578125 L10.5664062,29.2578125 Z M10.5664062,30.78125 L10.5993652,30.715332 L10.5993652,30.715332 L10.625,30.6640625 L10.625,30.4882812 L10.5664062,30.4296875 L5.46875,30.4296875 C5.390625,30.5078125 5.3515625,30.5664062 5.3515625,30.6054688 C5.3515625,30.6445312 5.37109375,30.6640625 5.41015625,30.6640625 C5.41015625,30.7421875 5.44921875,30.78125 5.52734375,30.78125 L5.52734375,30.78125 L10.5664062,30.78125 L10.5664062,30.78125 Z M10.5664062,32.3046875 C10.5664062,32.3046875 10.5859375,32.265625 10.625,32.1875 L10.625,32.1875 L10.625,32.0117188 L10.5664062,31.953125 L5.46875,31.953125 C5.390625,32.03125 5.3515625,32.0898438 5.3515625,32.1289062 C5.3515625,32.1679688 5.37109375,32.1875 5.41015625,32.1875 C5.41015625,32.265625 5.44921875,32.3046875 5.52734375,32.3046875 L5.52734375,32.3046875 L10.5664062,32.3046875 Z M10.5664062,33.828125 L10.625,33.7109375 L10.625,33.5351562 L10.5664062,33.4765625 L5.46875,33.4765625 C5.390625,33.5546875 5.3515625,33.6132812 5.3515625,33.6523438 C5.3515625,33.6914062 5.37109375,33.7109375 5.41015625,33.7109375 C5.41015625,33.7890625 5.44921875,33.828125 5.52734375,33.828125 L5.52734375,33.828125 L10.5664062,33.828125 L10.5664062,33.828125 Z M10.5664062,35.3515625 C10.5664062,35.3515625 10.5859375,35.3125 10.625,35.234375 L10.625,35.234375 L10.625,35.0585938 C10.5859375,35.0585938 10.5664062,35.0390625 10.5664062,35 L10.5664062,35 L5.52734375,35 L5.46875,35.0585938 C5.4296875,35.0585938 5.41015625,35.078125 5.41015625,35.1171875 L5.41015625,35.1171875 L5.3515625,35.1757812 C5.3515625,35.2148438 5.37109375,35.234375 5.41015625,35.234375 C5.41015625,35.3125 5.44921875,35.3515625 5.52734375,35.3515625 L5.52734375,35.3515625 L10.5664062,35.3515625 Z M10.4492188,36.9335938 C10.4882812,36.9335938 10.5273438,36.9140625 10.5664062,36.875 C10.5664062,36.875 10.567627,36.8725586 10.5700684,36.8676758 L10.625,36.7578125 L10.625,36.5820312 C10.5859375,36.5820312 10.5664062,36.5625 10.5664062,36.5234375 L10.5664062,36.5234375 L5.52734375,36.5234375 L5.46875,36.5820312 C5.4296875,36.5820312 5.41015625,36.6015625 5.41015625,36.640625 L5.41015625,36.640625 L5.3515625,36.6992188 C5.3515625,36.7382812 5.37109375,36.7578125 5.41015625,36.7578125 C5.41015625,36.8359375 5.44921875,36.875 5.52734375,36.875 L5.52734375,36.875 L5.52734375,36.9335938 L10.4492188,36.9335938 Z M10.4492188,38.4570312 C10.4882812,38.4570312 10.5273438,38.4375 10.5664062,38.3984375 C10.5664062,38.3984375 10.5859375,38.359375 10.625,38.28125 L10.625,38.28125 L10.625,38.1054688 C10.5859375,38.1054688 10.5566406,38.0957031 10.5371094,38.0761719 C10.5175781,38.0566406 10.4882812,38.046875 10.4492188,38.046875 L10.4492188,38.046875 L5.52734375,38.046875 L5.41015625,38.1640625 L5.3515625,38.2226562 C5.3515625,38.2617188 5.37109375,38.28125 5.41015625,38.28125 C5.41015625,38.359375 5.44921875,38.3984375 5.52734375,38.3984375 L5.52734375,38.3984375 L5.52734375,38.4570312 L10.4492188,38.4570312 Z M20.9375,39.921875 C21.1328125,39.921875 21.3085938,39.84375 21.4648438,39.6875 C21.6210938,39.53125 21.6992188,39.3359375 21.6992188,39.1015625 C21.6992188,38.90625 21.6210938,38.7304688 21.4648438,38.5742188 C21.3085938,38.4179688 21.1328125,38.3398438 20.9375,38.3398438 C20.703125,38.3398438 20.5273438,38.4179688 20.4101562,38.5742188 C20.2539062,38.8085938 20.1757812,38.984375 20.1757812,39.1015625 C20.1757812,39.2578125 20.2539062,39.453125 20.4101562,39.6875 C20.5273438,39.84375 20.703125,39.921875 20.9375,39.921875 Z M20.9375,39.5117188 C20.8203125,39.5117188 20.7226562,39.4726562 20.6445312,39.3945312 C20.5664062,39.3164062 20.5273438,39.21875 20.5273438,39.1015625 C20.5273438,39.0234375 20.5664062,38.9453125 20.6445312,38.8671875 C20.7226562,38.7890625 20.8203125,38.75 20.9375,38.75 C21.0546875,38.75 21.1523438,38.7890625 21.2304688,38.8671875 C21.2304688,38.90625 21.25,38.9453125 21.2890625,38.984375 L21.2890625,38.984375 L21.2890625,39.2773438 C21.25,39.3164062 21.2304688,39.3554688 21.2304688,39.3945312 C21.1523438,39.4726562 21.0546875,39.5117188 20.9375,39.5117188 Z M10.4492188,39.9804688 C10.4882812,39.9804688 10.5273438,39.9609375 10.5664062,39.921875 C10.5664062,39.921875 10.5859375,39.8828125 10.625,39.8046875 L10.625,39.8046875 L10.625,39.6289062 C10.5859375,39.6289062 10.5566406,39.6191406 10.5371094,39.5996094 C10.5175781,39.5800781 10.4882812,39.5703125 10.4492188,39.5703125 L10.4492188,39.5703125 L5.52734375,39.5703125 L5.3515625,39.7460938 C5.3515625,39.7851562 5.37109375,39.8046875 5.41015625,39.8046875 C5.41015625,39.8828125 5.44921875,39.921875 5.52734375,39.921875 L5.52734375,39.921875 L5.52734375,39.9804688 L10.4492188,39.9804688 Z M10.4492188,41.5039062 C10.4882812,41.5039062 10.5273438,41.484375 10.5664062,41.4453125 C10.5664062,41.4453125 10.5859375,41.40625 10.625,41.328125 L10.625,41.328125 L10.625,41.1523438 C10.5859375,41.1523438 10.5566406,41.1425781 10.5371094,41.1230469 C10.5175781,41.1035156 10.4882812,41.09375 10.4492188,41.09375 L10.4492188,41.09375 L5.52734375,41.09375 L5.46875,41.1523438 C5.390625,41.2304688 5.3515625,41.2890625 5.3515625,41.328125 L5.3515625,41.328125 L5.41015625,41.328125 C5.41015625,41.40625 5.44921875,41.4453125 5.52734375,41.4453125 L5.52734375,41.4453125 L5.52734375,41.5039062 L10.4492188,41.5039062 Z M20.9375,43.3789062 C21.1328125,43.3789062 21.3085938,43.3007812 21.4648438,43.1445312 C21.6210938,42.9882812 21.6992188,42.8125 21.6992188,42.6171875 C21.6992188,42.34375 21.6210938,42.1484375 21.4648438,42.03125 C21.3085938,41.9140625 21.1328125,41.8554688 20.9375,41.8554688 C20.703125,41.8554688 20.5273438,41.9140625 20.4101562,42.03125 C20.2539062,42.1875 20.1757812,42.3828125 20.1757812,42.6171875 C20.1757812,42.734375 20.1953125,42.8320312 20.234375,42.9101562 C20.2734375,42.9882812 20.3320312,43.0664062 20.4101562,43.1445312 C20.5273438,43.3007812 20.703125,43.3789062 20.9375,43.3789062 Z M20.9375,43.0273438 C20.8203125,43.0273438 20.7226562,42.9882812 20.6445312,42.9101562 C20.5664062,42.8320312 20.5273438,42.734375 20.5273438,42.6171875 C20.5273438,42.5 20.5664062,42.4023438 20.6445312,42.3242188 C20.7226562,42.2460938 20.8203125,42.2070312 20.9375,42.2070312 C21.0546875,42.2070312 21.1523438,42.2460938 21.2304688,42.3242188 C21.2304688,42.3632812 21.2402344,42.4121094 21.2597656,42.4707031 C21.2792969,42.5292969 21.2890625,42.578125 21.2890625,42.6171875 L21.2890625,42.6171875 L21.2304688,42.9101562 C21.1523438,42.9882812 21.0546875,43.0273438 20.9375,43.0273438 Z M10.4492188,43.0273438 C10.4882812,43.0273438 10.5273438,43.0078125 10.5664062,42.96875 C10.5664062,42.96875 10.5859375,42.9296875 10.625,42.8515625 L10.625,42.8515625 L10.625,42.6757812 C10.5859375,42.6757812 10.5566406,42.6660156 10.5371094,42.6464844 C10.5175781,42.6269531 10.4882812,42.6171875 10.4492188,42.6171875 L10.4492188,42.6171875 L5.52734375,42.6171875 L5.46875,42.6757812 C5.390625,42.7539062 5.3515625,42.8125 5.3515625,42.8515625 L5.3515625,42.8515625 L5.41015625,42.8515625 C5.41015625,42.9296875 5.44921875,42.96875 5.52734375,42.96875 L5.52734375,42.96875 L5.52734375,43.0273438 L10.4492188,43.0273438 Z M10.4492188,44.5507812 C10.4882812,44.5507812 10.5273438,44.53125 10.5664062,44.4921875 L10.5664062,44.4921875 L10.625,44.4921875 L10.625,44.2578125 L10.5664062,44.1992188 L5.46875,44.1992188 C5.390625,44.2773438 5.3515625,44.3359375 5.3515625,44.375 C5.3515625,44.4140625 5.37109375,44.4335938 5.41015625,44.4335938 C5.41015625,44.4726562 5.4296875,44.4921875 5.46875,44.4921875 L5.46875,44.4921875 L5.52734375,44.4921875 L5.52734375,44.5507812 L10.4492188,44.5507812 Z" id="31" fill="currentColor" fill-rule="nonzero"></path>
    </g>
</svg>