<?xml version="1.0" encoding="UTF-8"?>
<svg width="37px" height="43px" viewBox="0 0 37 43" version="1.1" xmlns="http://www.w3.org/2000/svg" xmlns:xlink="http://www.w3.org/1999/xlink">
    <title>16</title>
    <g id="Page-1" stroke="none" stroke-width="1" fill="none" fill-rule="evenodd">
        <path d="M18.3828125,42.8359375 C19.1640625,42.8359375 19.9257812,42.8164062 20.6679688,42.7773438 C21.4101563,42.7382812 22.171875,42.6796875 22.953125,42.6015625 C24.4765625,42.4453125 25.8535156,42.2792969 27.0839844,42.1035156 C28.3144531,41.9277344 29.3203125,41.7617188 30.1015625,41.6054688 L30.1015625,41.6054688 L31.2148438,41.4296875 C31.2539062,41.4296875 31.2929688,41.4101562 31.3320312,41.3710938 C31.3320312,41.3710938 31.333252,41.3686523 31.3356934,41.3637695 L31.390625,41.2539062 L31.390625,41.1953125 L30.9804688,37.796875 L32.2695312,37.7382812 L32.328125,37.7382812 L32.4453125,37.6796875 C33.0703125,37.640625 33.6171875,37.6015625 34.0859375,37.5625 C34.5546875,37.5234375 34.9648438,37.4648438 35.3164062,37.3867188 C35.7460938,37.3476562 36.0585938,37.3183594 36.2539062,37.2988281 C36.4492188,37.2792969 36.5664062,37.2695312 36.6054688,37.2695312 L36.6054688,37.2695312 L36.6640625,37.2109375 L36.7226562,37.2109375 L36.78125,37.09375 L36.546875,29.0664062 L36.546875,0.70703125 C36.5078125,0.70703125 36.46875,0.6875 36.4296875,0.6484375 L36.4296875,0.6484375 L36.3710938,0.6484375 C34.8476562,0.5703125 33.34375,0.521484375 31.859375,0.501953125 C30.375,0.482421875 28.890625,0.453125 27.40625,0.4140625 C25.921875,0.4140625 24.4375,0.404296875 22.953125,0.384765625 C21.46875,0.365234375 20.0039062,0.35546875 18.5585938,0.35546875 L18.5585938,0.35546875 L18.4414062,0.35546875 C16.9960938,0.35546875 15.53125,0.365234375 14.046875,0.384765625 C12.5625,0.404296875 11.078125,0.4140625 9.59375,0.4140625 C8.109375,0.453125 6.625,0.482421875 5.140625,0.501953125 C3.65625,0.521484375 2.15234375,0.5703125 0.62890625,0.6484375 L0.62890625,0.6484375 L0.5703125,0.6484375 C0.4921875,0.7265625 0.453125,0.78515625 0.453125,0.82421875 L0.453125,0.82421875 L0.453125,29.0664062 L0.21875,37.09375 C0.21875,37.1328125 0.23828125,37.1523438 0.27734375,37.1523438 C0.27734375,37.1914062 0.296875,37.2109375 0.3359375,37.2109375 L0.3359375,37.2109375 L0.39453125,37.2109375 L0.39453125,37.2695312 C0.43359375,37.2695312 0.560546875,37.2792969 0.775390625,37.2988281 C0.990234375,37.3183594 1.3125,37.3476562 1.7421875,37.3867188 C2.1328125,37.4648438 2.5625,37.5136719 3.03125,37.5332031 C3.5,37.5527344 4.06640625,37.6015625 4.73046875,37.6796875 L4.73046875,37.6796875 L4.7890625,37.7382812 L4.84765625,37.6796875 C4.96484375,37.71875 5.140625,37.7382812 5.375,37.7382812 L5.375,37.7382812 L6.3125,37.796875 L5.9609375,41.1953125 L5.9609375,41.2539062 C5.9609375,41.3320312 6,41.3710938 6.078125,41.3710938 L6.078125,41.3710938 L6.078125,41.4296875 L7.25,41.6054688 C7.6015625,41.6835938 8.01171875,41.7617188 8.48046875,41.8398438 C8.94921875,41.9179688 9.4765625,41.9960938 10.0625,42.0742188 C11.1953125,42.2695312 12.4941406,42.4453125 13.9589844,42.6015625 C15.4238281,42.7578125 16.8984375,42.8359375 18.3828125,42.8359375 Z M18.5,29.1835938 C17.0546875,29.1835938 15.5996094,29.1738281 14.1347656,29.1542969 C12.6699219,29.1347656 11.1953125,29.1054688 9.7109375,29.0664062 C8.2265625,29.0664062 6.7421875,29.046875 5.2578125,29.0078125 C3.7734375,28.96875 2.30859375,28.9296875 0.86328125,28.890625 L0.86328125,28.890625 L0.86328125,1 C2.30859375,0.9609375 3.7734375,0.921875 5.2578125,0.8828125 C6.7421875,0.84375 8.2265625,0.8046875 9.7109375,0.765625 L9.7109375,0.765625 L11.9082031,0.765625 C12.6308594,0.765625 13.3632812,0.74609375 14.1054688,0.70703125 L14.1054688,0.70703125 L22.953125,0.70703125 C23.6953125,0.74609375 24.4277344,0.765625 25.1503906,0.765625 L25.1503906,0.765625 L27.3476562,0.765625 C28.8320312,0.8046875 30.3066406,0.84375 31.7714844,0.8828125 C33.2363281,0.921875 34.6914062,0.9609375 36.1367188,1 L36.1367188,1 L36.1367188,28.890625 C34.6914062,28.9296875 33.2363281,28.96875 31.7714844,29.0078125 C30.3066406,29.046875 28.8320312,29.0664062 27.3476562,29.0664062 C25.8632812,29.1054688 24.3789062,29.1347656 22.8945312,29.1542969 C21.4101562,29.1738281 19.9453125,29.1835938 18.5,29.1835938 Z M18.5585938,26.1367188 C19.6132812,26.1367188 20.6777344,26.1269531 21.7519531,26.1074219 C22.8261719,26.0878906 23.9101562,26.0585938 25.0039062,26.0195312 C27.1523438,25.9414062 29.3007812,25.8242188 31.4492188,25.6679688 C31.4882812,25.6679688 31.5273438,25.6484375 31.5664062,25.609375 C31.5664062,25.609375 31.5859375,25.5703125 31.625,25.4921875 C31.859375,22.015625 31.9765625,18.578125 31.9765625,15.1796875 C31.9765625,11.78125 31.859375,8.36328125 31.625,4.92578125 L31.625,4.92578125 L31.625,4.80859375 C31.5859375,4.80859375 31.5566406,4.79882812 31.5371094,4.77929688 C31.5175781,4.75976562 31.4882812,4.75 31.4492188,4.75 C29.3007812,4.5546875 27.1328125,4.4375 24.9453125,4.3984375 L24.9453125,4.3984375 L23.3339844,4.3984375 C22.8066406,4.3984375 22.2695312,4.37890625 21.7226562,4.33984375 L21.7226562,4.33984375 L15.3359375,4.33984375 C14.7890625,4.37890625 14.2421875,4.3984375 13.6953125,4.3984375 L13.6953125,4.3984375 L12.0546875,4.3984375 C9.90625,4.4375 7.73828125,4.5546875 5.55078125,4.75 L5.55078125,4.75 L5.4921875,4.75 L5.375,4.8671875 L5.375,4.92578125 C5.140625,8.36328125 5.0234375,11.78125 5.0234375,15.1796875 C5.0234375,18.578125 5.140625,22.015625 5.375,25.4921875 C5.375,25.53125 5.39453125,25.5507812 5.43359375,25.5507812 C5.43359375,25.6289062 5.47265625,25.6679688 5.55078125,25.6679688 C7.73828125,25.8242188 9.90625,25.9414062 12.0546875,26.0195312 C13.1484375,26.0585938 14.2324219,26.0878906 15.3066406,26.1074219 C16.3808594,26.1269531 17.4453125,26.1367188 18.5,26.1367188 L18.5,26.1367188 L18.5585938,26.1367188 Z M18.5585938,25.9023438 L18.4414062,25.7265625 C17.4257812,25.7265625 16.390625,25.7167969 15.3359375,25.6972656 C14.28125,25.6777344 13.2265625,25.6484375 12.171875,25.609375 C9.984375,25.53125 7.8359375,25.4140625 5.7265625,25.2578125 C5.609375,23.6171875 5.53125,21.9570312 5.4921875,20.2773438 C5.453125,18.5976562 5.43359375,16.8984375 5.43359375,15.1796875 C5.43359375,13.4609375 5.453125,11.7714844 5.4921875,10.1113281 C5.53125,8.45117188 5.609375,6.80078125 5.7265625,5.16015625 C7.8359375,5.00390625 9.984375,4.88671875 12.171875,4.80859375 C13.2265625,4.76953125 14.28125,4.74023438 15.3359375,4.72070312 C16.390625,4.70117188 17.4257812,4.69140625 18.4414062,4.69140625 L18.4414062,4.69140625 L18.5585938,4.69140625 C19.5742188,4.69140625 20.609375,4.70117188 21.6640625,4.72070312 C22.71875,4.74023438 23.7929688,4.76953125 24.8867188,4.80859375 C27.0742188,4.88671875 29.203125,5.00390625 31.2734375,5.16015625 C31.390625,6.80078125 31.46875,8.45117188 31.5078125,10.1113281 C31.546875,11.7714844 31.5664062,13.4609375 31.5664062,15.1796875 C31.5664062,16.8984375 31.546875,18.5976562 31.5078125,20.2773438 C31.46875,21.9570312 31.390625,23.6171875 31.2734375,25.2578125 C29.203125,25.4140625 27.0742188,25.53125 24.8867188,25.609375 C23.7929688,25.6484375 22.71875,25.6777344 21.6640625,25.6972656 C20.609375,25.7167969 19.5742188,25.7265625 18.5585938,25.7265625 L18.5585938,25.7265625 L18.5585938,25.9023438 Z M18.5585938,28.5976562 C18.7929688,28.5976562 18.9882812,28.5195312 19.1445312,28.3632812 C19.3007812,28.2070312 19.3789062,28.0117188 19.3789062,27.7773438 C19.3789062,27.5039062 19.3007812,27.2890625 19.1445312,27.1328125 C18.9882812,26.9765625 18.7929688,26.8984375 18.5585938,26.8984375 C18.2851562,26.8984375 18.0703125,26.9765625 17.9140625,27.1328125 C17.7578125,27.2890625 17.6796875,27.5039062 17.6796875,27.7773438 C17.6796875,28.0117188 17.7578125,28.2070312 17.9140625,28.3632812 C18.0703125,28.5195312 18.2851562,28.5976562 18.5585938,28.5976562 Z M18.5585938,28.2460938 C18.4023438,28.2460938 18.2851562,28.1875 18.2070312,28.0703125 L18.2070312,28.0703125 L18.0898438,27.8945312 C18.0507812,27.8554688 18.03125,27.8164062 18.03125,27.7773438 C18.03125,27.6601562 18.0898438,27.5429688 18.2070312,27.4257812 C18.3242188,27.3085938 18.4414062,27.25 18.5585938,27.25 C18.6757812,27.25 18.7929688,27.3085938 18.9101562,27.4257812 C18.9882812,27.5039062 19.0273438,27.6210938 19.0273438,27.7773438 C19.0273438,27.8164062 18.9882812,27.9140625 18.9101562,28.0703125 C18.8710938,28.1875 18.7539062,28.2460938 18.5585938,28.2460938 Z M4.5546875,37.328125 L2.50390625,37.09375 C1.56640625,37.0546875 0.94140625,36.9960938 0.62890625,36.9179688 L0.62890625,36.9179688 L0.86328125,29.2421875 L4.7890625,29.359375 L4.5546875,37.328125 Z M32.5039062,37.328125 L32.2695312,29.359375 L36.1367188,29.2421875 L36.3710938,36.9179688 C36.0585938,36.9960938 35.453125,37.0546875 34.5546875,37.09375 L34.5546875,37.09375 L32.5039062,37.328125 Z M18.3828125,37.8554688 C17.1328125,37.8554688 15.9511719,37.8457031 14.8378906,37.8261719 C13.7246094,37.8066406 12.6601562,37.7773438 11.6445312,37.7382812 C10.3164062,37.6601562 9.09570312,37.5917969 7.98242188,37.5332031 C6.86914062,37.4746094 5.86328125,37.40625 4.96484375,37.328125 L4.96484375,37.328125 L5.140625,29.359375 C5.8828125,29.3984375 6.625,29.4179688 7.3671875,29.4179688 L7.3671875,29.4179688 L9.59375,29.4179688 C11.078125,29.4570312 12.5625,29.4863281 14.046875,29.5058594 C15.53125,29.5253906 17.015625,29.5351562 18.5,29.5351562 C19.984375,29.5351562 21.46875,29.5253906 22.953125,29.5058594 C24.4375,29.4863281 25.921875,29.4570312 27.40625,29.4179688 C28.1875,29.4179688 28.9394531,29.4082031 29.6621094,29.3886719 C30.3847656,29.3691406 31.1367188,29.359375 31.9179688,29.359375 L31.9179688,29.359375 L32.1523438,37.328125 L30.8632812,37.4453125 C29.3007812,37.5625 27.4746094,37.6601562 25.3847656,37.7382812 C23.2949219,37.8164062 20.9609375,37.8554688 18.3828125,37.8554688 Z M26.46875,33.8125 C26.78125,33.8125 27.0351562,33.7148438 27.2304688,33.5195312 C27.4257812,33.3632812 27.5625,33.1289062 27.640625,32.8164062 L27.640625,32.8164062 L30.921875,32.8164062 L30.9804688,32.7578125 C30.9804688,32.7578125 31,32.71875 31.0390625,32.640625 L31.0390625,32.640625 L31.0390625,31.46875 C31,31.46875 30.9609375,31.4492188 30.921875,31.4101562 L30.921875,31.4101562 L27.640625,31.4101562 C27.6015625,31.0976562 27.4648438,30.84375 27.2304688,30.6484375 C27.0351562,30.4921875 26.78125,30.4140625 26.46875,30.4140625 L26.46875,30.4140625 L25.765625,30.4140625 C25.453125,30.4140625 25.1992188,30.4921875 25.0039062,30.6484375 C24.8085938,30.84375 24.671875,31.0976562 24.59375,31.4101562 L24.59375,31.4101562 L21.3125,31.4101562 C21.234375,31.4882812 21.1953125,31.546875 21.1953125,31.5859375 L21.1953125,31.5859375 L21.1953125,32.640625 C21.1953125,32.6796875 21.2148438,32.6992188 21.2539062,32.6992188 C21.2539062,32.7773438 21.2929688,32.8164062 21.3710938,32.8164062 L21.3710938,32.8164062 L24.59375,32.8164062 C24.671875,33.1289062 24.8085938,33.3632812 25.0039062,33.5195312 C25.1992188,33.7148438 25.453125,33.8125 25.765625,33.8125 L25.765625,33.8125 L26.46875,33.8125 Z M26.46875,33.4609375 L25.765625,33.4609375 C25.53125,33.4609375 25.3359375,33.3828125 25.1796875,33.2265625 C25.0234375,33.0703125 24.9453125,32.875 24.9453125,32.640625 L24.9453125,32.640625 L24.9453125,32.5234375 L24.8867188,32.4648438 L21.6054688,32.4648438 L21.6054688,31.7617188 L24.8867188,31.7617188 C24.8867188,31.7617188 24.90625,31.7226562 24.9453125,31.6445312 L24.9453125,31.6445312 L24.9453125,31.5859375 C24.9453125,31.3515625 25.0234375,31.15625 25.1796875,31 C25.3359375,30.84375 25.53125,30.765625 25.765625,30.765625 L25.765625,30.765625 L26.46875,30.765625 C26.703125,30.765625 26.8984375,30.84375 27.0546875,31 C27.2109375,31.15625 27.2890625,31.3515625 27.2890625,31.5859375 L27.2890625,31.5859375 L27.2890625,31.6445312 C27.2890625,31.7226562 27.328125,31.7617188 27.40625,31.7617188 L27.40625,31.7617188 L30.6289062,31.7617188 L30.6289062,32.4648438 L27.40625,32.4648438 C27.3671875,32.4648438 27.328125,32.484375 27.2890625,32.5234375 L27.2890625,32.5234375 L27.2890625,32.640625 C27.2890625,32.875 27.2109375,33.0703125 27.0546875,33.2265625 C26.8984375,33.3828125 26.703125,33.4609375 26.46875,33.4609375 L26.46875,33.4609375 Z M19.203125,33.2851562 C19.203125,33.2851562 19.2226562,33.2460938 19.2617188,33.1679688 L19.2617188,33.1679688 L19.2617188,31 L19.203125,30.9414062 L6.8984375,30.9414062 C6.859375,30.9414062 6.8203125,30.9609375 6.78125,31 L6.78125,31 L6.78125,33.1679688 C6.78125,33.2460938 6.8203125,33.2851562 6.8984375,33.2851562 L6.8984375,33.2851562 L19.203125,33.2851562 Z M18.9101562,32.9335938 L7.1328125,32.9335938 L7.1328125,31.2929688 L18.9101562,31.2929688 L18.9101562,32.9335938 Z M18.3828125,42.4257812 C17.09375,42.4257812 15.765625,42.3671875 14.3984375,42.25 C13.0703125,42.1328125 11.8496094,41.9960938 10.7363281,41.8398438 C9.62304688,41.6835938 8.67578125,41.5273438 7.89453125,41.3710938 C7.50390625,41.2929688 7.18164062,41.234375 6.92773438,41.1953125 C6.67382812,41.15625 6.48828125,41.1171875 6.37109375,41.078125 L6.37109375,41.078125 L6.72265625,37.8554688 C8.20703125,37.9726562 9.93554688,38.0703125 11.9082031,38.1484375 C13.8808594,38.2265625 16.0390625,38.265625 18.3828125,38.265625 C21.1953125,38.265625 23.734375,38.2070312 26,38.0898438 C26.8984375,38.0507812 27.7285156,38.0117188 28.4902344,37.9726562 C29.2519531,37.9335938 29.9648438,37.8945312 30.6289062,37.8554688 L30.6289062,37.8554688 L30.9804688,41.078125 C30.8242188,41.1171875 30.6191406,41.15625 30.3652344,41.1953125 C30.1113281,41.234375 29.7695312,41.2929688 29.3398438,41.3710938 C28.9101562,41.4492188 28.4511719,41.5273438 27.9628906,41.6054688 C27.4746094,41.6835938 26.9570312,41.7617188 26.4101562,41.8398438 C25.2382812,41.9960938 23.9589844,42.1328125 22.5722656,42.25 C21.1855469,42.3671875 19.7890625,42.4257812 18.3828125,42.4257812 Z" id="16" fill="currentColor" fill-rule="nonzero"></path>
    </g>
</svg>