<?xml version="1.0" encoding="UTF-8"?>
<svg width="35px" height="38px" viewBox="0 0 35 38" version="1.1" xmlns="http://www.w3.org/2000/svg" xmlns:xlink="http://www.w3.org/1999/xlink">
    <title>7</title>
    <g id="Page-1" stroke="none" stroke-width="1" fill="none" fill-rule="evenodd">
        <path d="M34.375,27.6992188 C34.4140625,27.6992188 34.453125,27.6796875 34.4921875,27.640625 C34.4921875,27.640625 34.5117188,27.6015625 34.5507812,27.5234375 L34.5507812,27.5234375 L34.5507812,0.39453125 L34.4921875,0.3359375 L0.56640625,0.3359375 C0.52734375,0.3359375 0.48828125,0.35546875 0.44921875,0.39453125 L0.44921875,0.39453125 L0.44921875,27.5234375 C0.44921875,27.5625 0.46875,27.5820312 0.5078125,27.5820312 C0.5078125,27.6601562 0.546875,27.6992188 0.625,27.6992188 L0.625,27.6992188 L34.375,27.6992188 Z M34.1992188,27.2890625 L0.80078125,27.2890625 L0.80078125,0.6875 L34.1992188,0.6875 L34.1992188,27.2890625 Z M30.3320312,23.65625 C30.3710938,23.65625 30.4101562,23.6367188 30.4492188,23.5976562 C30.4492188,23.5976562 30.46875,23.5585938 30.5078125,23.4804688 L30.5078125,23.4804688 L30.5078125,4.4375 L30.4492188,4.37890625 L4.609375,4.37890625 C4.5703125,4.37890625 4.53125,4.3984375 4.4921875,4.4375 L4.4921875,4.4375 L4.4921875,23.4804688 C4.4921875,23.5195312 4.51171875,23.5390625 4.55078125,23.5390625 C4.55078125,23.6171875 4.58984375,23.65625 4.66796875,23.65625 L4.66796875,23.65625 L30.3320312,23.65625 Z M30.15625,23.2460938 L4.84375,23.2460938 L4.84375,4.73046875 L30.15625,4.73046875 L30.15625,23.2460938 Z M33.671875,37.8359375 C33.7109375,37.8359375 33.7695312,37.796875 33.8476562,37.71875 C33.8476562,37.71875 33.8671875,37.6796875 33.90625,37.6015625 L33.90625,37.6015625 L33.90625,36.4882812 L34.375,36.4882812 C34.4140625,36.4882812 34.453125,36.46875 34.4921875,36.4296875 C34.4921875,36.4296875 34.5117188,36.390625 34.5507812,36.3125 L34.5507812,36.3125 L34.5507812,28.6953125 C34.5117188,28.6953125 34.4824219,28.6855469 34.4628906,28.6660156 C34.4433594,28.6464844 34.4140625,28.6367188 34.375,28.6367188 L34.375,28.6367188 L0.56640625,28.6367188 L0.44921875,28.7539062 L0.44921875,36.3125 C0.44921875,36.3515625 0.46875,36.3710938 0.5078125,36.3710938 C0.5078125,36.4492188 0.546875,36.4882812 0.625,36.4882812 L0.625,36.4882812 L1.09375,36.4882812 L1.09375,37.6015625 C1.09375,37.6796875 1.1328125,37.71875 1.2109375,37.71875 C1.2109375,37.796875 1.25,37.8359375 1.328125,37.8359375 L1.328125,37.8359375 L33.671875,37.8359375 Z M34.1992188,36.078125 L0.80078125,36.078125 L0.80078125,29.046875 L34.1992188,29.046875 L34.1992188,36.078125 Z M33.1445312,32.3867188 C33.1445312,32.3867188 33.1640625,32.3476562 33.203125,32.2695312 L33.203125,32.2695312 L33.203125,32.09375 C33.1640625,32.09375 33.1445312,32.0742188 33.1445312,32.0351562 L33.1445312,32.0351562 L31.8554688,32.0351562 L31.8554688,31.0390625 L33.1445312,31.0390625 L33.1445312,31.0390625 L33.203125,30.921875 L33.203125,30.7460938 C33.1640625,30.7460938 33.1445312,30.7265625 33.1445312,30.6875 L33.1445312,30.6875 L1.9140625,30.6875 L1.85546875,30.7460938 C1.81640625,30.7460938 1.796875,30.765625 1.796875,30.8046875 L1.796875,30.8046875 L1.796875,30.921875 C1.796875,31 1.8359375,31.0390625 1.9140625,31.0390625 L1.9140625,31.0390625 L19.3164062,31.0390625 L19.3164062,32.0351562 L1.9140625,32.0351562 L1.85546875,32.09375 C1.81640625,32.09375 1.796875,32.1132812 1.796875,32.1523438 L1.796875,32.1523438 L1.796875,32.2695312 L1.97265625,32.3867188 L33.1445312,32.3867188 Z M31.5039062,32.0351562 L19.7265625,32.0351562 L19.7265625,31.0390625 L31.5039062,31.0390625 L31.5039062,32.0351562 Z M2.67578125,35.2578125 C2.91015625,35.2578125 3.10546875,35.1796875 3.26171875,35.0234375 C3.41796875,34.8671875 3.49609375,34.6523438 3.49609375,34.3789062 C3.49609375,34.1445312 3.41796875,33.9492188 3.26171875,33.7929688 C3.10546875,33.6367188 2.91015625,33.5585938 2.67578125,33.5585938 C2.40234375,33.5585938 2.1875,33.6367188 2.03125,33.7929688 C1.875,33.9492188 1.796875,34.1445312 1.796875,34.3789062 C1.796875,34.6523438 1.875,34.8671875 2.03125,35.0234375 C2.1875,35.1796875 2.40234375,35.2578125 2.67578125,35.2578125 Z M2.67578125,34.90625 C2.55859375,34.90625 2.44140625,34.8476562 2.32421875,34.7304688 C2.20703125,34.6132812 2.1484375,34.4960938 2.1484375,34.3789062 C2.1484375,34.3007812 2.16796875,34.2421875 2.20703125,34.203125 L2.20703125,34.203125 L2.32421875,34.0273438 C2.36328125,33.9492188 2.48046875,33.9101562 2.67578125,33.9101562 C2.83203125,33.9101562 2.94921875,33.9492188 3.02734375,34.0273438 C3.10546875,34.1054688 3.14453125,34.2226562 3.14453125,34.3789062 C3.14453125,34.5742188 3.10546875,34.6914062 3.02734375,34.7304688 L3.02734375,34.7304688 L2.8515625,34.8476562 C2.8125,34.8867188 2.75390625,34.90625 2.67578125,34.90625 Z M33.4960938,37.4257812 L1.50390625,37.4257812 L1.50390625,36.4882812 L33.4960938,36.4882812 L33.4960938,37.4257812 Z" id="7" fill="currentColor" fill-rule="nonzero"></path>
    </g>
</svg>