<?xml version="1.0" encoding="UTF-8"?>
<svg width="43px" height="41px" viewBox="0 0 43 41" version="1.1" xmlns="http://www.w3.org/2000/svg" xmlns:xlink="http://www.w3.org/1999/xlink">
    <title>4</title>
    <g id="Page-1" stroke="none" stroke-width="1" fill="none" fill-rule="evenodd">
        <path d="M36.3242188,26.7148438 C36.7539062,26.7148438 37.125,26.5585938 37.4375,26.2460938 C37.75,26.0117188 37.90625,25.6601562 37.90625,25.1914062 L37.90625,25.1914062 L37.90625,2.22265625 C37.90625,1.79296875 37.75,1.421875 37.4375,1.109375 C37.0859375,0.8359375 36.7148438,0.69921875 36.3242188,0.69921875 L36.3242188,0.69921875 L6.67578125,0.69921875 C6.28515625,0.69921875 5.9140625,0.8359375 5.5625,1.109375 C5.25,1.421875 5.09375,1.79296875 5.09375,2.22265625 L5.09375,2.22265625 L5.09375,25.1914062 C5.09375,25.6601562 5.25,26.0117188 5.5625,26.2460938 C5.875,26.5585938 6.24609375,26.7148438 6.67578125,26.7148438 L6.67578125,26.7148438 L36.3242188,26.7148438 Z M36.3242188,26.3632812 L6.67578125,26.3632812 C6.32421875,26.3632812 6.05078125,26.2265625 5.85546875,25.953125 C5.62109375,25.7578125 5.50390625,25.5039062 5.50390625,25.1914062 L5.50390625,25.1914062 L5.50390625,2.22265625 C5.50390625,1.91015625 5.62109375,1.63671875 5.85546875,1.40234375 C6.05078125,1.16796875 6.32421875,1.05078125 6.67578125,1.05078125 L6.67578125,1.05078125 L36.3242188,1.05078125 C36.6757812,1.05078125 36.96875,1.16796875 37.203125,1.40234375 C37.3984375,1.67578125 37.4960938,1.94921875 37.4960938,2.22265625 L37.4960938,2.22265625 L37.4960938,25.1914062 C37.4960938,25.5039062 37.3984375,25.7578125 37.203125,25.953125 C36.9296875,26.2265625 36.6367188,26.3632812 36.3242188,26.3632812 L36.3242188,26.3632812 Z M33.7460938,22.671875 C33.7851562,22.671875 33.8046875,22.6523438 33.8046875,22.6132812 C33.84375,22.6132812 33.8632812,22.59375 33.8632812,22.5546875 L33.8632812,22.5546875 L33.921875,22.4960938 L33.921875,4.80078125 C33.8828125,4.80078125 33.8632812,4.78125 33.8632812,4.7421875 L33.8632812,4.7421875 L9.13671875,4.7421875 L9.13671875,4.80078125 C9.09765625,4.83984375 9.078125,4.87890625 9.078125,4.91796875 L9.078125,4.91796875 L9.078125,22.4960938 L9.13671875,22.4960938 L9.13671875,22.5546875 C9.13671875,22.59375 9.15625,22.6132812 9.1953125,22.6132812 L9.1953125,22.6132812 L9.25390625,22.671875 L33.7460938,22.671875 Z M33.5117188,22.2617188 L9.37109375,22.2617188 L9.37109375,5.09375 L33.5117188,5.09375 L33.5117188,22.2617188 Z M42.359375,40.8359375 C42.3984375,40.8359375 42.4375,40.8164062 42.4765625,40.7773438 C42.4765625,40.7773438 42.4960938,40.7382812 42.5351562,40.6601562 L42.5351562,40.6601562 L42.5351562,27.7695312 L42.4765625,27.7109375 L0.46484375,27.7109375 C0.42578125,27.7109375 0.38671875,27.7304688 0.34765625,27.7695312 L0.34765625,27.7695312 L0.34765625,40.6601562 C0.34765625,40.6992188 0.3671875,40.71875 0.40625,40.71875 C0.40625,40.796875 0.4453125,40.8359375 0.5234375,40.8359375 L0.5234375,40.8359375 L42.359375,40.8359375 Z M42.1835938,32.3984375 L0.69921875,32.3984375 L0.69921875,31.4609375 L18.0429688,31.4609375 C18.0820312,31.4609375 18.140625,31.421875 18.21875,31.34375 C18.21875,31.34375 18.2382812,31.3046875 18.2773438,31.2265625 L18.2773438,31.2265625 L18.2773438,31.1679688 C18.2382812,31.1679688 18.21875,31.1484375 18.21875,31.109375 C18.1796875,31.109375 18.1503906,31.0996094 18.1308594,31.0800781 C18.1113281,31.0605469 18.0820312,31.0507812 18.0429688,31.0507812 L18.0429688,31.0507812 L0.69921875,31.0507812 L0.69921875,30.1132812 L18.0429688,30.1132812 C18.0820312,30.1132812 18.140625,30.0742188 18.21875,29.9960938 L18.21875,29.9960938 L18.2773438,29.8789062 L18.2773438,29.8203125 C18.2382812,29.8203125 18.21875,29.8007812 18.21875,29.7617188 C18.1796875,29.7617188 18.1503906,29.7519531 18.1308594,29.7324219 C18.1113281,29.7128906 18.0820312,29.703125 18.0429688,29.703125 L18.0429688,29.703125 L0.69921875,29.703125 L0.69921875,28.0625 L42.1835938,28.0625 L42.1835938,29.703125 L38.2578125,29.703125 L38.140625,29.8203125 L38.140625,29.9375 C38.140625,29.9765625 38.1601562,29.9960938 38.1992188,29.9960938 C38.1992188,30.0742188 38.2382812,30.1132812 38.3164062,30.1132812 L38.3164062,30.1132812 L42.1835938,30.1132812 L42.1835938,31.0507812 L38.2578125,31.0507812 L38.140625,31.1679688 L38.140625,31.2851562 C38.140625,31.3242188 38.1601562,31.34375 38.1992188,31.34375 C38.1992188,31.421875 38.2382812,31.4609375 38.3164062,31.4609375 L38.3164062,31.4609375 L42.1835938,31.4609375 L42.1835938,32.3984375 Z M27.5351562,31.4609375 C27.5742188,31.4609375 27.59375,31.4414062 27.59375,31.4023438 C27.6328125,31.4023438 27.6523438,31.3828125 27.6523438,31.34375 L27.6523438,31.34375 L27.7109375,31.2851562 L27.7109375,29.8203125 C27.671875,29.8203125 27.6523438,29.8007812 27.6523438,29.7617188 L27.6523438,29.7617188 L27.5351562,29.703125 L19.390625,29.703125 L19.2734375,29.8203125 L19.2148438,29.8789062 L19.2148438,31.2265625 C19.2148438,31.265625 19.234375,31.2851562 19.2734375,31.2851562 C19.2734375,31.3632812 19.3125,31.4023438 19.390625,31.4023438 L19.390625,31.4023438 L19.390625,31.4609375 L27.5351562,31.4609375 Z M36.96875,31.4609375 C37.0078125,31.4609375 37.046875,31.4414062 37.0859375,31.4023438 C37.0859375,31.4023438 37.1054688,31.3632812 37.1445312,31.2851562 L37.1445312,31.2851562 L37.1445312,29.7617188 C37.1054688,29.7617188 37.0761719,29.7519531 37.0566406,29.7324219 L37.0338542,29.7161458 C37.0164931,29.7074653 36.9947917,29.703125 36.96875,29.703125 L36.96875,29.703125 L28.8242188,29.703125 L28.7070312,29.8203125 L28.7070312,31.2851562 C28.7070312,31.3242188 28.7265625,31.34375 28.765625,31.34375 C28.765625,31.421875 28.8046875,31.4609375 28.8828125,31.4609375 L28.8828125,31.4609375 L36.96875,31.4609375 Z M27.3007812,31.0507812 L19.625,31.0507812 L19.625,30.1132812 L27.3007812,30.1132812 L27.3007812,31.0507812 Z M36.7929688,31.0507812 L29.0585938,31.0507812 L29.0585938,30.1132812 L36.7929688,30.1132812 L36.7929688,31.0507812 Z M42.1835938,40.4257812 L0.69921875,40.4257812 L0.69921875,32.8085938 L42.1835938,32.8085938 L42.1835938,40.4257812 Z M2.57421875,36.265625 C2.76953125,36.265625 2.96484375,36.1679688 3.16015625,35.9726562 C3.35546875,35.7773438 3.453125,35.5820312 3.453125,35.3867188 C3.453125,35.1523438 3.35546875,34.9375 3.16015625,34.7421875 C3.00390625,34.5859375 2.80859375,34.5078125 2.57421875,34.5078125 C2.33984375,34.5078125 2.14453125,34.5859375 1.98828125,34.7421875 C1.79296875,34.9375 1.6953125,35.1523438 1.6953125,35.3867188 C1.6953125,35.5820312 1.79296875,35.7773438 1.98828125,35.9726562 C2.18359375,36.1679688 2.37890625,36.265625 2.57421875,36.265625 Z M2.57421875,35.8554688 C2.41796875,35.8554688 2.30078125,35.8164062 2.22265625,35.7382812 C2.14453125,35.6601562 2.10546875,35.5429688 2.10546875,35.3867188 C2.10546875,35.2304688 2.14453125,35.1132812 2.22265625,35.0351562 C2.33984375,34.9179688 2.45703125,34.859375 2.57421875,34.859375 C2.69140625,34.859375 2.80859375,34.9179688 2.92578125,35.0351562 C3.00390625,35.1132812 3.04296875,35.2304688 3.04296875,35.3867188 C3.04296875,35.5429688 3.00390625,35.6601562 2.92578125,35.7382812 C2.84765625,35.8164062 2.73046875,35.8554688 2.57421875,35.8554688 Z" id="4" fill="currentColor" fill-rule="nonzero"></path>
    </g>
</svg>