<?xml version="1.0" encoding="UTF-8"?>
<svg width="35px" height="43px" viewBox="0 0 35 43" version="1.1" xmlns="http://www.w3.org/2000/svg" xmlns:xlink="http://www.w3.org/1999/xlink">
    <title>11</title>
    <g id="Page-1" stroke="none" stroke-width="1" fill="none" fill-rule="evenodd">
        <path d="M8.359375,42.8359375 C8.4765625,42.8359375 8.58398438,42.8164062 8.68164062,42.7773438 C8.77929688,42.7382812 8.88671875,42.6796875 9.00390625,42.6015625 C9.12109375,42.5234375 9.20898438,42.4550781 9.26757812,42.3964844 C9.32617188,42.3378906 9.39453125,42.25 9.47265625,42.1328125 L9.47265625,42.1328125 L25.46875,42.1328125 C25.546875,42.25 25.6152344,42.3378906 25.6738281,42.3964844 C25.7324219,42.4550781 25.8203125,42.5234375 25.9375,42.6015625 C26.0546875,42.6796875 26.1621094,42.7382812 26.2597656,42.7773438 C26.3574219,42.8164062 26.4648438,42.8359375 26.5820312,42.8359375 L26.5820312,42.8359375 L29.2773438,42.8359375 C29.4726562,42.8359375 29.6289062,42.796875 29.7460938,42.71875 C29.8632812,42.640625 30,42.5429688 30.15625,42.4257812 C30.234375,42.3867188 30.3125,42.2695312 30.390625,42.0742188 L30.390625,42.0742188 L30.5078125,41.6054688 L30.4492188,36.2148438 C30.6445312,36.1757812 30.8105469,36.1367188 30.9472656,36.0976562 C31.0839844,36.0585938 31.2109375,36.0195312 31.328125,35.9804688 C31.40625,35.9414062 31.5039062,35.921875 31.6210938,35.921875 C31.7382812,35.921875 31.8359375,35.9023438 31.9140625,35.8632812 C32.109375,35.8242188 32.2265625,35.7949219 32.265625,35.7753906 L32.265625,35.7753906 L32.4414062,35.6875 C32.4804688,35.6875 32.5,35.6679688 32.5,35.6289062 C32.4609375,35.6289062 32.4609375,35.609375 32.5,35.5703125 C32.5390625,35.5703125 32.5390625,35.5507812 32.5,35.5117188 L32.5,35.5117188 L32.5585938,28.3046875 L34.3164062,28.3046875 C34.3945312,28.3046875 34.4335938,28.2851562 34.4335938,28.2460938 L34.4335938,28.2460938 L34.4921875,28.2460938 C34.53125,28.2460938 34.5507812,28.2265625 34.5507812,28.1875 C34.5117188,28.1484375 34.5117188,28.1289062 34.5507812,28.1289062 L34.5507812,28.1289062 L34.4921875,1.1171875 C34.53125,1.078125 34.5507812,1.0390625 34.5507812,1 C34.5117188,1 34.4921875,0.98046875 34.4921875,0.94140625 L34.4921875,0.94140625 L0.44921875,0.94140625 L0.44921875,1 C0.41015625,1.0390625 0.41015625,1.078125 0.44921875,1.1171875 L0.44921875,1.1171875 L0.390625,28.1289062 C0.4296875,28.1289062 0.44921875,28.1484375 0.44921875,28.1875 C0.41015625,28.2265625 0.41015625,28.2460938 0.44921875,28.2460938 L0.44921875,28.2460938 L0.5078125,28.2460938 C0.5078125,28.2851562 0.546875,28.3046875 0.625,28.3046875 L0.625,28.3046875 L2.3828125,28.3046875 L2.44140625,35.5117188 C2.40234375,35.5507812 2.40234375,35.5703125 2.44140625,35.5703125 L2.44140625,35.5703125 L2.5,35.6289062 C2.4609375,35.6679688 2.4609375,35.6875 2.5,35.6875 C2.578125,35.7265625 2.64648438,35.7558594 2.70507812,35.7753906 C2.76367188,35.7949219 2.890625,35.8242188 3.0859375,35.8632812 C3.1640625,35.9023438 3.25195312,35.921875 3.34960938,35.921875 C3.44726562,35.921875 3.5546875,35.9414062 3.671875,35.9804688 C3.75,36.0195312 3.85742188,36.0585938 3.99414063,36.0976562 C4.13085938,36.1367188 4.296875,36.1757812 4.4921875,36.2148438 L4.4921875,36.2148438 L4.43359375,41.6054688 L4.55078125,42.0742188 C4.58984375,42.2304688 4.67773438,42.3574219 4.81445312,42.4550781 C4.95117188,42.5527344 5.078125,42.640625 5.1953125,42.71875 C5.3515625,42.796875 5.5078125,42.8359375 5.6640625,42.8359375 L5.6640625,42.8359375 L8.359375,42.8359375 Z M34.140625,27.953125 L0.80078125,27.953125 L0.7421875,1.29296875 L34.1992188,1.29296875 L34.140625,27.953125 Z M17.4414062,2.81640625 C17.5195312,2.81640625 17.578125,2.796875 17.6171875,2.7578125 C17.6171875,2.7578125 17.65625,2.73828125 17.734375,2.69921875 C17.7734375,2.66015625 17.7929688,2.62109375 17.7929688,2.58203125 C17.7929688,2.54296875 17.8125,2.50390625 17.8515625,2.46484375 C17.8125,2.42578125 17.7929688,2.38671875 17.7929688,2.34765625 C17.7929688,2.30859375 17.7734375,2.26953125 17.734375,2.23046875 L17.734375,2.23046875 L17.659375,2.15546875 C17.63125,2.12734375 17.6171875,2.11328125 17.6171875,2.11328125 L17.6171875,2.11328125 L17.4414062,2.11328125 C17.4023438,2.11328125 17.3828125,2.1328125 17.3828125,2.171875 C17.3046875,2.171875 17.265625,2.19140625 17.265625,2.23046875 L17.265625,2.23046875 L17.1484375,2.34765625 C17.109375,2.38671875 17.109375,2.42578125 17.1484375,2.46484375 C17.109375,2.50390625 17.109375,2.54296875 17.1484375,2.58203125 L17.1484375,2.58203125 L17.265625,2.69921875 C17.265625,2.73828125 17.3046875,2.7578125 17.3828125,2.7578125 L17.3828125,2.7578125 L17.4414062,2.81640625 Z M30.2734375,24.2617188 C30.3515625,24.2617188 30.390625,24.2421875 30.390625,24.203125 L30.390625,24.203125 L30.4492188,24.1445312 C30.4882812,24.1445312 30.5078125,24.125 30.5078125,24.0859375 L30.5078125,24.0859375 L30.4492188,5.16015625 C30.4882812,5.12109375 30.5078125,5.08203125 30.5078125,5.04296875 C30.46875,5.04296875 30.4492188,5.0234375 30.4492188,4.984375 L30.4492188,4.984375 L4.4921875,4.984375 L4.4921875,5.04296875 C4.453125,5.08203125 4.453125,5.12109375 4.4921875,5.16015625 L4.4921875,5.16015625 L4.43359375,24.0859375 L4.4921875,24.0859375 C4.453125,24.125 4.453125,24.1445312 4.4921875,24.1445312 L4.4921875,24.1445312 L4.55078125,24.203125 C4.55078125,24.2421875 4.58984375,24.2617188 4.66796875,24.2617188 L4.66796875,24.2617188 L30.2734375,24.2617188 Z M30.0976562,23.8515625 L4.84375,23.8515625 L4.78515625,5.3359375 L30.15625,5.3359375 L30.0976562,23.8515625 Z M19.6679688,36.6835938 C19.5898438,36.3710938 19.453125,36.1367188 19.2578125,35.9804688 C19.140625,35.9023438 19.0234375,35.8339844 18.90625,35.7753906 C18.7890625,35.7167969 18.6328125,35.6875 18.4375,35.6875 L18.4375,35.6875 L16.5039062,35.6875 C16.3085938,35.6875 16.1523438,35.7167969 16.0351562,35.7753906 C15.9179688,35.8339844 15.8007812,35.9023438 15.6835938,35.9804688 C15.4882812,36.1367188 15.3515625,36.3710938 15.2734375,36.6835938 C14.6484375,36.6835938 14.0429688,36.6738281 13.4570312,36.6542969 C12.8710938,36.6347656 12.3242188,36.6054688 11.8164062,36.5664062 C11.5429688,36.5273438 11.2890625,36.5078125 11.0546875,36.5078125 C10.8203125,36.5078125 10.5859375,36.4882812 10.3515625,36.4492188 L10.3515625,36.4492188 L9.61914062,36.4492188 C9.40429688,36.4492188 9.19921875,36.4296875 9.00390625,36.390625 L9.00390625,36.390625 L8.828125,36.390625 C7.8125,36.3125 6.97265625,36.2246094 6.30859375,36.1269531 C5.64453125,36.0292969 5.05859375,35.921875 4.55078125,35.8046875 C4.27734375,35.765625 4.05273438,35.7265625 3.87695312,35.6875 C3.70117188,35.6484375 3.5546875,35.609375 3.4375,35.5703125 C3.2421875,35.53125 3.02734375,35.4726562 2.79296875,35.3945312 L2.79296875,35.3945312 L2.8515625,28.3046875 L32.0898438,28.3046875 L32.1484375,35.3945312 L31.5625,35.5703125 C31.0546875,35.7265625 30.0976562,35.9023438 28.6914062,36.0976562 C28.3398438,36.1757812 27.9492188,36.234375 27.5195312,36.2734375 C27.0898438,36.3125 26.6210938,36.3515625 26.1132812,36.390625 C25.9179688,36.4296875 25.7128906,36.4492188 25.4980469,36.4492188 L25.4980469,36.4492188 L24.8242188,36.4492188 C24.5507812,36.4882812 24.296875,36.5078125 24.0625,36.5078125 C23.828125,36.5078125 23.5742188,36.5273438 23.3007812,36.5664062 C22.7539062,36.6054688 22.1679688,36.6347656 21.5429688,36.6542969 C20.9179688,36.6738281 20.2929688,36.6835938 19.6679688,36.6835938 Z M25.1757812,32.6992188 C25.3710938,32.6992188 25.5273438,32.6699219 25.6445312,32.6113281 L25.6445312,32.6113281 L26.0546875,32.40625 C26.1328125,32.3671875 26.2109375,32.25 26.2890625,32.0546875 L26.2890625,32.0546875 L26.4648438,31.703125 L30.2734375,31.703125 C30.3515625,31.703125 30.390625,31.6835938 30.390625,31.6445312 L30.390625,31.6445312 L30.4492188,31.5859375 C30.4882812,31.5859375 30.5078125,31.5664062 30.5078125,31.5273438 C30.46875,31.5273438 30.46875,31.5078125 30.5078125,31.46875 L30.5078125,31.46875 L30.4492188,30.1210938 C30.4882812,30.1210938 30.5078125,30.1015625 30.5078125,30.0625 L30.5078125,30.0625 L30.4492188,30.0039062 L30.3320312,29.9453125 L26.40625,29.9453125 C26.40625,29.828125 26.3671875,29.6914062 26.2890625,29.5351562 C26.1328125,29.3789062 26.0351562,29.2617188 25.9960938,29.1835938 C25.9179688,29.1054688 25.8007812,29.046875 25.6445312,29.0078125 C25.4882812,28.96875 25.3515625,28.9492188 25.234375,28.9492188 L25.234375,28.9492188 L24.53125,28.9492188 C24.21875,28.9492188 23.984375,29.0273438 23.828125,29.1835938 C23.5546875,29.4570312 23.4179688,29.7109375 23.4179688,29.9453125 L23.4179688,29.9453125 L19.4921875,29.9453125 L19.375,30.0039062 L19.3164062,30.0625 C19.2773438,30.1015625 19.2773438,30.1210938 19.3164062,30.1210938 L19.3164062,30.1210938 L19.2578125,31.46875 L19.3164062,31.5273438 C19.3164062,31.5664062 19.3359375,31.5859375 19.375,31.5859375 L19.375,31.5859375 L19.4335938,31.6445312 C19.4335938,31.6835938 19.4726562,31.703125 19.5507812,31.703125 L19.5507812,31.703125 L23.359375,31.703125 C23.4375,32.015625 23.5742188,32.25 23.7695312,32.40625 C23.8867188,32.484375 24.0039062,32.5527344 24.1210938,32.6113281 C24.2382812,32.6699219 24.3945312,32.6992188 24.5898438,32.6992188 L24.5898438,32.6992188 L25.1757812,32.6992188 Z M25.234375,32.2890625 L24.53125,32.2890625 C24.296875,32.2890625 24.1210938,32.2109375 24.0039062,32.0546875 C23.9257812,31.9765625 23.8574219,31.8886719 23.7988281,31.7910156 C23.7402344,31.6933594 23.7304688,31.5859375 23.7695312,31.46875 C23.7304688,31.46875 23.7109375,31.4492188 23.7109375,31.4101562 L23.7109375,31.4101562 L23.7109375,31.3515625 C23.671875,31.3515625 23.6523438,31.3320312 23.6523438,31.2929688 L23.6523438,31.2929688 L19.7265625,31.2929688 L19.6679688,30.3554688 L23.59375,30.3554688 L23.59375,30.3554688 L23.6523438,30.296875 C23.6914062,30.296875 23.7109375,30.2773438 23.7109375,30.2382812 C23.671875,30.2382812 23.671875,30.21875 23.7109375,30.1796875 C23.75,30.1796875 23.75,30.1601562 23.7109375,30.1210938 C23.75,30.0429688 23.7695312,29.984375 23.7695312,29.9453125 C23.7695312,29.90625 23.7890625,29.8476562 23.828125,29.7695312 C23.828125,29.5742188 23.9648438,29.4375 24.2382812,29.359375 C24.2773438,29.3203125 24.3945312,29.3007812 24.5898438,29.3007812 L24.5898438,29.3007812 L25.1757812,29.3007812 C25.4101562,29.3007812 25.625,29.3789062 25.8203125,29.5351562 L25.8203125,29.5351562 L25.9960938,29.7695312 C25.9960938,29.8476562 26.0351562,29.9648438 26.1132812,30.1210938 C26.0742188,30.1601562 26.0742188,30.1796875 26.1132812,30.1796875 L26.1132812,30.1796875 L26.1132812,30.2382812 C26.1132812,30.2773438 26.1328125,30.296875 26.171875,30.296875 L26.171875,30.296875 L26.2304688,30.3554688 L30.15625,30.3554688 L30.0976562,31.2929688 L26.171875,31.2929688 C26.171875,31.3320312 26.1523438,31.3515625 26.1132812,31.3515625 C26.0742188,31.390625 26.0742188,31.4101562 26.1132812,31.4101562 C26.1132812,31.4492188 26.09375,31.46875 26.0546875,31.46875 C26.09375,31.5859375 26.0742188,31.6835938 25.9960938,31.7617188 C25.9179688,31.9179688 25.859375,32.015625 25.8203125,32.0546875 C25.78125,32.1328125 25.6933594,32.1914062 25.5566406,32.2304688 C25.4199219,32.2695312 25.3125,32.2890625 25.234375,32.2890625 L25.234375,32.2890625 Z M18.1445312,31.703125 C18.1835938,31.703125 18.203125,31.6835938 18.203125,31.6445312 L18.203125,31.6445312 L18.2617188,31.5859375 C18.3007812,31.5859375 18.3203125,31.5664062 18.3203125,31.5273438 L18.3203125,31.5273438 L18.3789062,31.46875 L18.3203125,30.1210938 C18.359375,30.1210938 18.359375,30.1015625 18.3203125,30.0625 L18.3203125,30.0625 L18.203125,29.9453125 L4.609375,29.9453125 L4.4921875,30.0039062 L4.4921875,30.0625 C4.453125,30.1015625 4.453125,30.1210938 4.4921875,30.1210938 L4.4921875,30.1210938 L4.43359375,31.46875 L4.4921875,31.5273438 C4.453125,31.5664062 4.453125,31.5859375 4.4921875,31.5859375 L4.4921875,31.5859375 L4.55078125,31.6445312 C4.55078125,31.6835938 4.58984375,31.703125 4.66796875,31.703125 L4.66796875,31.703125 L18.1445312,31.703125 Z M17.9101562,31.2929688 L4.84375,31.2929688 L4.78515625,30.3554688 L17.96875,30.3554688 L17.9101562,31.2929688 Z M17.4414062,34.6914062 C17.5976562,34.6914062 17.7148438,34.6621094 17.7929688,34.6035156 C17.8710938,34.5449219 17.96875,34.4765625 18.0859375,34.3984375 C18.203125,34.28125 18.3007812,34.0859375 18.3789062,33.8125 C18.3007812,33.5390625 18.203125,33.34375 18.0859375,33.2265625 C17.96875,33.1484375 17.8710938,33.0800781 17.7929688,33.0214844 C17.7148438,32.9628906 17.5976562,32.9335938 17.4414062,32.9335938 C17.2070312,32.9335938 17.03125,33.03125 16.9140625,33.2265625 L16.9140625,33.2265625 L16.6796875,33.4609375 C16.6015625,33.6171875 16.5820312,33.734375 16.6210938,33.8125 C16.5820312,33.9296875 16.6015625,34.0273438 16.6796875,34.1054688 C16.71875,34.1835938 16.796875,34.28125 16.9140625,34.3984375 C17.03125,34.59375 17.2070312,34.6914062 17.4414062,34.6914062 Z M17.5,34.28125 C17.3828125,34.28125 17.3144531,34.2714844 17.2949219,34.2519531 C17.2753906,34.2324219 17.2265625,34.203125 17.1484375,34.1640625 C17.0703125,34.0859375 17.03125,34.0273438 17.03125,33.9882812 C17.03125,33.9101562 17.0117188,33.8515625 16.9726562,33.8125 C17.0117188,33.7734375 17.03125,33.6953125 17.03125,33.578125 C17.03125,33.5 17.0605469,33.4511719 17.1191406,33.4316406 C17.1777344,33.4121094 17.2265625,33.3828125 17.265625,33.34375 L17.265625,33.34375 L17.5,33.34375 C17.65625,33.34375 17.7734375,33.3828125 17.8515625,33.4609375 C17.8515625,33.5 17.8710938,33.5390625 17.9101562,33.578125 C17.9882812,33.65625 17.9882812,33.734375 17.9101562,33.8125 C17.9882812,33.8515625 17.9882812,33.9101562 17.9101562,33.9882812 C17.8710938,34.0273438 17.8515625,34.0859375 17.8515625,34.1640625 C17.7734375,34.2421875 17.65625,34.28125 17.5,34.28125 Z M19.2578125,36.6835938 L15.6835938,36.6835938 C15.6835938,36.6054688 15.7128906,36.5273438 15.7714844,36.4492188 C15.8300781,36.3710938 15.8984375,36.2929688 15.9765625,36.2148438 C16.09375,36.0976562 16.25,36.0390625 16.4453125,36.0390625 L16.4453125,36.0390625 L18.4960938,36.0390625 C18.7304688,36.0390625 18.90625,36.0976562 19.0234375,36.2148438 C19.1796875,36.3710938 19.2578125,36.5273438 19.2578125,36.6835938 L19.2578125,36.6835938 Z M8.41796875,42.4257812 L5.48828125,42.4257812 C5.41015625,42.4257812 5.37109375,42.40625 5.37109375,42.3671875 C5.29296875,42.3671875 5.234375,42.3476562 5.1953125,42.3085938 C5.0390625,42.2695312 4.9609375,42.1914062 4.9609375,42.0742188 C4.9609375,41.9960938 4.94140625,41.9375 4.90234375,41.8984375 C4.86328125,41.859375 4.84375,41.8203125 4.84375,41.78125 C4.84375,41.703125 4.82421875,41.6445312 4.78515625,41.6054688 L4.78515625,41.6054688 L4.84375,36.2734375 C5.3125,36.3515625 5.87890625,36.4296875 6.54296875,36.5078125 C7.20703125,36.5859375 7.96875,36.6640625 8.828125,36.7421875 C9.6875,36.8203125 10.6640625,36.8886719 11.7578125,36.9472656 C12.8515625,37.0058594 14.0429688,37.0351562 15.3320312,37.0351562 L15.3320312,37.0351562 L15.390625,37.09375 L15.5078125,37.09375 L15.4492188,37.0351562 C15.5664062,37.0742188 15.7421875,37.09375 15.9765625,37.09375 L15.9765625,37.09375 L18.9648438,37.09375 C19.1992188,37.09375 19.3554688,37.0742188 19.4335938,37.0351562 L19.4335938,37.0351562 L19.4921875,37.09375 C19.5703125,37.09375 19.5898438,37.0742188 19.5507812,37.0351562 C20.9179688,37.0351562 22.1289062,37.0058594 23.1835938,36.9472656 C24.2382812,36.8886719 25.2148438,36.8203125 26.1132812,36.7421875 C27.0117188,36.6640625 27.7734375,36.5859375 28.3984375,36.5078125 C29.0234375,36.4296875 29.609375,36.3515625 30.15625,36.2734375 L30.15625,36.2734375 L30.0976562,41.6054688 C30.1367188,41.7226562 30.1171875,41.8203125 30.0390625,41.8984375 C29.9609375,42.0546875 29.9023438,42.1523438 29.8632812,42.1914062 C29.8242188,42.2695312 29.7460938,42.328125 29.6289062,42.3671875 C29.5117188,42.40625 29.4140625,42.4257812 29.3359375,42.4257812 L29.3359375,42.4257812 L26.5234375,42.4257812 C26.484375,42.4257812 26.4160156,42.4160156 26.3183594,42.3964844 C26.2207031,42.3769531 26.1523438,42.328125 26.1132812,42.25 L26.1132812,42.25 L25.9375,42.0742188 C25.859375,41.9960938 25.8203125,41.9375 25.8203125,41.8984375 L25.8203125,41.8984375 L25.703125,41.78125 L9.23828125,41.78125 L9.1796875,41.8398438 L9.12109375,41.8984375 C9.12109375,41.9375 9.08203125,41.9960938 9.00390625,42.0742188 L9.00390625,42.0742188 L8.828125,42.25 C8.7890625,42.328125 8.72070312,42.3769531 8.62304688,42.3964844 C8.52539062,42.4160156 8.45703125,42.4257812 8.41796875,42.4257812 L8.41796875,42.4257812 Z" id="11" fill="currentColor" fill-rule="nonzero"></path>
    </g>
</svg>