<?xml version="1.0" encoding="UTF-8"?>
<svg width="37px" height="31px" viewBox="0 0 37 31" version="1.1" xmlns="http://www.w3.org/2000/svg" xmlns:xlink="http://www.w3.org/1999/xlink">
    <title>46</title>
    <g id="Page-1" stroke="none" stroke-width="1" fill="none" fill-rule="evenodd">
        <path d="M21.078125,20.6992188 L23.7734375,19.9375 C23.8125,19.9765625 23.8320312,19.9765625 23.8320312,19.9375 L23.8320312,19.9375 L23.890625,19.9375 C23.9296875,19.8984375 23.9492188,19.859375 23.9492188,19.8203125 L23.9492188,19.8203125 L23.9492188,19.703125 L19.203125,0.89453125 L19.203125,0.77734375 C19.1640625,0.77734375 19.1445312,0.7578125 19.1445312,0.71875 L19.1445312,0.71875 L19.0859375,0.66015625 C19.046875,0.69921875 19.0078125,0.69921875 18.96875,0.66015625 L18.96875,0.66015625 L17.6210938,1.0703125 C17.6210938,1.03125 17.6015625,1.03125 17.5625,1.0703125 L17.5625,1.0703125 L17.5039062,1.12890625 L17.5039062,1.24609375 L17.796875,2.4765625 L15.2773438,3.0625 L15.21875,3.0625 L15.1601562,3.12109375 L15.1015625,3.23828125 L15.1015625,3.296875 L19.203125,19.5273438 L19.203125,19.5273438 L19.2617188,19.5859375 L19.3203125,19.5859375 C19.3203125,19.625 19.3398438,19.6445312 19.3789062,19.6445312 C19.3789062,19.6054688 19.3984375,19.5859375 19.4375,19.5859375 C19.4375,19.625 19.4570312,19.625 19.4960938,19.5859375 L19.4960938,19.5859375 L19.6132812,19.5859375 C19.6523438,19.625 19.6914062,19.625 19.7304688,19.5859375 C19.8085938,19.625 19.9257812,19.6445312 20.0820312,19.6445312 C20.1601562,19.6445312 20.2578125,19.6933594 20.375,19.7910156 C20.4921875,19.8886719 20.5898438,19.9765625 20.6679688,20.0546875 L20.6679688,20.0546875 L20.84375,20.5234375 C20.8828125,20.5234375 20.9023438,20.5429688 20.9023438,20.5820312 C20.9023438,20.6210938 20.921875,20.6210938 20.9609375,20.5820312 L20.9609375,20.5820312 L21.0195312,20.640625 C21.0195312,20.6796875 21.0390625,20.6796875 21.078125,20.640625 L21.078125,20.640625 L21.078125,20.6992188 Z M21.1953125,20.2890625 C21.1171875,20.015625 21.0195312,19.8203125 20.9023438,19.703125 C20.7851562,19.5859375 20.6679688,19.4882812 20.5507812,19.4101562 L20.5507812,19.4101562 L20.140625,19.234375 C19.9453125,19.234375 19.8085938,19.2148438 19.7304688,19.1757812 L19.7304688,19.1757812 L19.671875,19.234375 L19.6132812,19.234375 C19.5742188,19.2734375 19.5546875,19.2734375 19.5546875,19.234375 L19.5546875,19.234375 L19.4960938,19.2929688 L15.5117188,3.35546875 L18.03125,2.76953125 L18.03125,2.7109375 C18.0703125,2.75 18.109375,2.75 18.1484375,2.7109375 C18.1484375,2.671875 18.1679688,2.65234375 18.2070312,2.65234375 L18.2070312,2.65234375 L18.2070312,2.59375 L17.9140625,1.36328125 L18.9101562,1.12890625 L23.5390625,19.6445312 L21.1953125,20.2890625 Z M35.9023438,30.8359375 C35.9414062,30.8359375 35.9804688,30.8164062 36.0195312,30.7773438 C36.0195312,30.7382812 36.0390625,30.71875 36.078125,30.71875 L36.078125,30.71875 L36.078125,30.6015625 L36.78125,27.9648438 L36.78125,27.8476562 C36.7421875,27.8476562 36.7226562,27.828125 36.7226562,27.7890625 L36.7226562,27.7890625 L36.7226562,27.7304688 C36.6835938,27.7695312 36.6640625,27.7695312 36.6640625,27.7304688 C36.6640625,27.6914062 36.6445312,27.6914062 36.6054688,27.7304688 L36.6054688,27.7304688 L31.625,26.4414062 C31.5859375,26.2851562 31.5078125,26.0996094 31.390625,25.8847656 C31.2734375,25.6699219 31.1367188,25.5039062 30.9804688,25.3867188 C30.9283854,25.3606771 30.8741319,25.3335503 30.8177083,25.3053385 L30.453125,25.1230469 C30.2578125,25.0253906 30.0429688,24.9960938 29.8085938,25.0351562 C29.6914062,24.9570312 29.5742188,24.9570312 29.4570312,25.0351562 C29.2226562,25.1132812 29.0859375,25.1523438 29.046875,25.1523438 C28.890625,25.2304688 28.7734375,25.3085938 28.6953125,25.3867188 C28.6171875,25.4648438 28.5585938,25.5136719 28.5195312,25.5332031 C28.4804688,25.5527344 28.4414062,25.5820312 28.4023438,25.6210938 L28.4023438,25.6210938 L19.2617188,23.3945312 C19.3007812,23.0820312 19.359375,22.828125 19.4375,22.6328125 C19.4765625,22.5546875 19.4960938,22.4863281 19.4960938,22.4277344 C19.4960938,22.3691406 19.515625,22.3007812 19.5546875,22.2226562 L19.5546875,22.2226562 L19.5546875,22.1054688 C19.5546875,22.1054688 19.5351562,22.0664062 19.4960938,21.9882812 C19.4570312,22.0273438 19.4375,22.0273438 19.4375,21.9882812 L19.4338379,21.9663086 C19.4265137,21.9516602 19.4082031,21.9589844 19.3789062,21.9882812 C18.8710938,21.7539062 18.5976562,21.4804688 18.5585938,21.1679688 C18.5195312,21.0507812 18.5,20.8945312 18.5,20.6992188 C18.5,20.5820312 18.5195312,20.5039062 18.5585938,20.4648438 L18.5585938,20.4648438 L18.5585938,20.3476562 C18.5585938,20.2695312 18.578125,20.171875 18.6171875,20.0546875 L18.6171875,20.0546875 L18.6171875,19.5859375 C18.6171875,19.234375 18.5390625,18.84375 18.3828125,18.4140625 C18.1875,18.0234375 17.8359375,17.6328125 17.328125,17.2421875 C17.1328125,17.125 16.8203125,17.0273438 16.390625,16.9492188 L16.390625,16.9492188 L2.85546875,13.4921875 L2.796875,13.4921875 C2.7578125,13.4921875 2.73828125,13.53125 2.73828125,13.609375 L2.73828125,13.609375 L2.73828125,13.5507812 L2.62109375,13.6679688 L1.2734375,19.1171875 L0.27734375,23.1601562 L0.27734375,23.3359375 C0.23828125,23.375 0.21875,23.4726562 0.21875,23.6289062 C0.21875,23.7851562 0.23828125,23.8828125 0.27734375,23.921875 C0.35546875,24.1953125 0.47265625,24.4101562 0.62890625,24.5664062 C0.66796875,24.6445312 0.78515625,24.7226562 0.98046875,24.8007812 L0.98046875,24.8007812 L1.44921875,25.09375 C1.52734375,25.015625 1.5859375,25.015625 1.625,25.09375 C1.6640625,25.1328125 1.7421875,25.1523438 1.859375,25.1523438 C2.015625,25.1523438 2.1328125,25.171875 2.2109375,25.2109375 C2.3671875,25.2890625 2.50390625,25.328125 2.62109375,25.328125 L2.62109375,25.328125 L2.62109375,29.2539062 C2.62109375,29.7226562 2.77734375,30.0742188 3.08984375,30.3085938 C3.24609375,30.4257812 3.41210938,30.5429688 3.58789062,30.6601562 C3.76367188,30.7773438 3.96875,30.8164062 4.203125,30.7773438 L4.203125,30.7773438 L35.9023438,30.8359375 Z M18.9101562,23.3359375 L1.68359375,18.9414062 L2.97265625,13.9609375 L16.2734375,17.2421875 L16.8007812,17.4179688 C16.9570312,17.4960938 17.1035156,17.5839844 17.2402344,17.6816406 C17.3769531,17.7792969 17.5039062,17.8671875 17.6210938,17.9453125 C17.9335938,18.2578125 18.109375,18.6289062 18.1484375,19.0585938 C18.1875,19.3320312 18.2167969,19.5566406 18.2363281,19.7324219 C18.2558594,19.9082031 18.2460938,20.0742188 18.2070312,20.2304688 C18.1914062,20.2773438 18.1789063,20.3148438 18.1695313,20.3429688 L18.1507812,20.3992187 L18.1507812,20.3992187 L18.1484375,20.40625 L18.1484375,20.875 C18.1484375,21.2265625 18.2851562,21.5585938 18.5585938,21.8710938 C18.7148438,22.1054688 18.9101562,22.2421875 19.1445312,22.28125 C19.0664062,22.515625 19.0273438,22.671875 19.0273438,22.75 C18.9882812,22.828125 18.96875,22.9257812 18.96875,23.0429688 C18.9296875,23.0820312 18.9101562,23.1796875 18.9101562,23.3359375 L18.9101562,23.3359375 Z M35.7851562,30.4257812 L35.7851562,30.3671875 L22.4257812,27.0859375 L22.4257812,27.0273438 L22.3085938,27.0273438 L22.3085938,27.0859375 L22.25,27.0859375 L22.25,27.1445312 L22.1914063,27.203125 L21.6054688,29.6640625 C21.5664062,29.703125 21.5273438,29.703125 21.4882812,29.6640625 C21.4492188,29.625 21.4101562,29.6054688 21.3710938,29.6054688 C21.3320312,29.6445312 21.2929688,29.6445312 21.2539062,29.6054688 C21.2148438,29.5273438 21.15625,29.5273438 21.078125,29.6054688 L21.078125,29.6054688 L21.0195312,29.546875 L20.3164062,29.3710938 C20.1601562,29.3320312 20.0039062,29.2929688 19.8476562,29.2539062 C19.6914062,29.2148438 19.515625,29.1757812 19.3203125,29.1367188 C19.125,29.0976562 18.9394531,29.0585938 18.7636719,29.0195312 C18.5878906,28.9804688 18.4023438,28.921875 18.2070312,28.84375 C17.6992188,28.6875 17.2695312,28.5898438 16.9179688,28.5507812 L16.9179688,28.5507812 L16.5078125,28.375 C16.46875,28.4140625 16.4296875,28.4140625 16.390625,28.375 L16.390625,28.375 L16.2734375,28.375 C16.234375,28.375 16.1953125,28.3554688 16.15625,28.3164062 L16.15625,28.3164062 L16.0390625,28.3164062 L2.85546875,24.9765625 L2.85546875,25.0351562 L2.38671875,24.859375 C2.19140625,24.859375 2.0546875,24.8398438 1.9765625,24.8007812 C1.8984375,24.7617188 1.80078125,24.7421875 1.68359375,24.7421875 C1.64453125,24.7421875 1.5859375,24.703125 1.5078125,24.625 C1.234375,24.625 1.02929688,24.5371094 0.892578125,24.3613281 C0.755859375,24.1855469 0.66796875,24.0195312 0.62890625,23.8632812 C0.58984375,23.7070312 0.58984375,23.5507812 0.62890625,23.3945312 L0.62890625,23.3945312 L0.62890625,23.21875 L1.625,19.2929688 L28.4609375,26.0898438 C28.4609375,26.0507812 28.4804688,26.03125 28.5195312,26.03125 C28.5195312,26.0703125 28.5390625,26.0703125 28.578125,26.03125 L28.578125,26.03125 L28.6367188,26.03125 L28.6367188,25.9726562 C28.7539062,25.8554688 28.8320312,25.7578125 28.8710938,25.6796875 C28.9101562,25.640625 29.0078125,25.5820312 29.1640625,25.5039062 C29.2421875,25.5039062 29.359375,25.4648438 29.515625,25.3867188 C29.59375,25.3085938 29.6914062,25.3085938 29.8085938,25.3867188 C30.0039062,25.3476562 30.1894531,25.3769531 30.3652344,25.4746094 C30.5410156,25.5722656 30.6875,25.6601562 30.8046875,25.7382812 C31.1171875,25.9726562 31.2734375,26.265625 31.2734375,26.6171875 L31.2734375,26.6171875 L31.3255208,26.6692708 L31.3255208,26.6692708 L31.3320312,26.6757812 L31.390625,26.7929688 L31.4492188,26.8515625 L36.3710938,28.0234375 L35.7851562,30.4257812 Z M19.671875,21.6367188 C19.828125,21.6757812 19.9550781,21.6660156 20.0527344,21.6074219 C20.1503906,21.5488281 20.2382812,21.4804688 20.3164062,21.4023438 C20.3945312,21.3242188 20.453125,21.2265625 20.4921875,21.109375 C20.53125,20.9921875 20.5507812,20.8945312 20.5507812,20.8164062 C20.5507812,20.5820312 20.4726562,20.3671875 20.3164062,20.171875 L20.3164062,20.171875 L20.0820312,19.9960938 C19.9257812,19.9960938 19.7890625,19.9765625 19.671875,19.9375 C19.59375,19.9765625 19.4960938,19.9960938 19.3789062,19.9960938 C19.1445312,20.0351562 18.9882812,20.1914062 18.9101562,20.4648438 C18.8710938,20.5039062 18.8515625,20.6210938 18.8515625,20.8164062 C18.8515625,20.8945312 18.8710938,20.9921875 18.9101562,21.109375 C18.9492188,21.2265625 19.0078125,21.3242188 19.0859375,21.4023438 C19.1640625,21.4804688 19.2519531,21.5488281 19.3496094,21.6074219 C19.4472656,21.6660156 19.5546875,21.6757812 19.671875,21.6367188 Z M19.671875,21.34375 L19.5546875,21.2265625 C19.359375,21.2265625 19.2617188,21.1484375 19.2617188,20.9921875 C19.2226562,20.953125 19.203125,20.875 19.203125,20.7578125 C19.203125,20.7578125 19.2226562,20.71875 19.2617188,20.640625 C19.2617188,20.5234375 19.359375,20.4257812 19.5546875,20.3476562 C19.59375,20.3085938 19.6328125,20.3085938 19.671875,20.3476562 C19.7890625,20.3085938 19.90625,20.3476562 20.0234375,20.4648438 C20.0625,20.5039062 20.1015625,20.5625 20.140625,20.640625 L20.140625,20.640625 L20.1992188,20.7578125 C20.1992188,20.875 20.1796875,20.953125 20.140625,20.9921875 L20.140625,20.9921875 L19.925,21.2078125 C19.9125,21.2203125 19.90625,21.2265625 19.90625,21.2265625 C19.8671875,21.265625 19.828125,21.2851562 19.7890625,21.2851562 C19.75,21.2851562 19.7109375,21.3046875 19.671875,21.34375 L19.671875,21.34375 Z M14.1054688,26.0898438 C14.1445312,26.0898438 14.1835938,26.0703125 14.2226562,26.03125 L14.2226562,26.03125 L14.28125,26.03125 L14.28125,25.9726562 C14.28125,25.9335938 14.3007812,25.9335938 14.3398438,25.9726562 L14.3398438,25.9726562 L14.5742188,24.859375 L14.6328125,24.859375 L14.6328125,24.8007812 C14.59375,24.8398438 14.5742188,24.8398438 14.5742188,24.8007812 L14.5742188,24.8007812 L14.5742188,24.7421875 C14.5351562,24.7421875 14.515625,24.7226562 14.515625,24.6835938 C14.4765625,24.7226562 14.4570312,24.703125 14.4570312,24.625 L14.4570312,24.625 L6.37109375,22.6328125 C6.33203125,22.671875 6.3125,22.671875 6.3125,22.6328125 C6.2734375,22.6328125 6.25390625,22.6523438 6.25390625,22.6914062 L6.25390625,22.6914062 L6.1953125,22.75 C6.15625,22.75 6.13671875,22.7695312 6.13671875,22.8085938 L6.13671875,22.8085938 L5.84375,23.7460938 L5.84375,23.9804688 C5.8828125,23.9414062 5.90234375,23.9414062 5.90234375,23.9804688 L5.90600586,24.0024414 C5.91333008,24.0170898 5.93164062,24.0097656 5.9609375,23.9804688 L5.9609375,23.9804688 L14.1054688,26.0898438 Z M13.9882812,25.6796875 L6.25390625,23.6875 L6.4296875,23.1015625 L14.1640625,24.9765625 L13.9882812,25.6796875 Z M4.203125,30.4257812 L4.203125,30.3671875 C3.890625,30.40625 3.6171875,30.3085938 3.3828125,30.0742188 C3.265625,29.9960938 3.17773438,29.8691406 3.11914062,29.6933594 C3.06054688,29.5175781 3.03125,29.3710938 3.03125,29.2539062 L3.03125,29.2539062 L3.03125,25.3867188 C3.4609375,25.5429688 3.93945312,25.6796875 4.46679688,25.796875 C4.99414062,25.9140625 5.58984375,26.0507812 6.25390625,26.2070312 C7.42578125,26.4804688 8.79296875,26.8320312 10.3554688,27.2617188 C11.8007812,27.6914062 13.2265625,28.0429688 14.6328125,28.3164062 L14.6328125,28.3164062 L18.4414062,29.3125 L18.7929688,29.3710938 C18.8320312,29.4101562 18.8710938,29.4296875 18.9101562,29.4296875 L18.9101562,29.4296875 L19.0859375,29.4296875 C19.125,29.46875 19.1640625,29.4882812 19.203125,29.4882812 C19.2421875,29.4882812 19.28125,29.5078125 19.3203125,29.546875 L19.3203125,29.546875 L19.3789062,29.4882812 C19.4570312,29.5664062 19.5546875,29.6054688 19.671875,29.6054688 C19.7890625,29.6054688 19.8671875,29.625 19.90625,29.6640625 C19.9453125,29.703125 20.0429688,29.7226562 20.1992188,29.7226562 C20.2382812,29.7226562 20.296875,29.7617188 20.375,29.8398438 L20.375,29.8398438 L21.0195312,29.8984375 C21.0585938,29.9375 21.1171875,29.9570312 21.1953125,29.9570312 C21.234375,29.9570312 21.2734375,29.9765625 21.3125,30.015625 C21.3515625,30.0546875 21.390625,30.0546875 21.4296875,30.015625 C21.46875,30.015625 21.4882812,30.0351562 21.4882812,30.0742188 L21.4882812,30.0742188 L21.6640625,30.0742188 C21.703125,30.1132812 21.7226562,30.1132812 21.7226562,30.0742188 L21.7226562,30.0742188 L21.78125,30.0742188 L21.8398438,30.1328125 L21.8398438,30.015625 C21.8398438,30.0546875 21.859375,30.0546875 21.8984375,30.015625 L21.8984375,30.015625 L21.8984375,29.9570312 L22.5429688,27.4960938 L34.3789062,30.3671875 L4.203125,30.4257812 Z" id="46" fill="currentColor" fill-rule="nonzero"></path>
    </g>
</svg>