<?xml version="1.0" encoding="UTF-8"?>
<svg width="29px" height="39px" viewBox="0 0 29 39" version="1.1" xmlns="http://www.w3.org/2000/svg" xmlns:xlink="http://www.w3.org/1999/xlink">
    <title>9</title>
    <g id="Page-1" stroke="none" stroke-width="1" fill="none" fill-rule="evenodd">
        <path d="M27.4492188,26.1210938 C27.4882812,26.1210938 27.5078125,26.1015625 27.5078125,26.0625 L27.5078125,26.0625 L27.5664062,26.0039062 L27.5078125,25.9453125 L27.5664062,24.8320312 L28.796875,24.8320312 C28.8359375,24.8320312 28.8554688,24.8125 28.8554688,24.7734375 C28.8945312,24.7734375 28.9140625,24.7539062 28.9140625,24.7148438 L28.9140625,24.7148438 L28.9726562,24.65625 L28.9140625,0.80859375 C28.953125,0.80859375 28.953125,0.7890625 28.9140625,0.75 L28.9140625,0.75 L28.8554688,0.69140625 L28.796875,0.6328125 L0.26171875,0.6328125 L0.203125,0.69140625 C0.1640625,0.73046875 0.14453125,0.75 0.14453125,0.75 C0.10546875,0.7890625 0.10546875,0.80859375 0.14453125,0.80859375 L0.14453125,0.80859375 L0.0859375,24.65625 L0.14453125,24.7148438 C0.14453125,24.7539062 0.1640625,24.7734375 0.203125,24.7734375 L0.203125,24.7734375 L0.26171875,24.8320312 L1.375,24.8320312 L1.43359375,25.9453125 C1.39453125,25.984375 1.39453125,26.0039062 1.43359375,26.0039062 L1.43359375,26.0039062 L1.4921875,26.0625 C1.4921875,26.1015625 1.51171875,26.1210938 1.55078125,26.1210938 L1.55078125,26.1210938 L27.4492188,26.1210938 Z M28.5039062,24.4804688 L0.5546875,24.4804688 L0.49609375,0.984375 L28.5625,0.984375 L28.5039062,24.4804688 Z M25.2226562,21.2578125 L25.3398438,21.1992188 L25.3398438,21.1992188 L25.3398438,21.140625 C25.3789062,21.1015625 25.3789062,21.0820312 25.3398438,21.0820312 L25.3398438,21.0820312 L25.3984375,4.20703125 C25.359375,4.20703125 25.359375,4.1875 25.3984375,4.1484375 C25.3984375,4.109375 25.3789062,4.08984375 25.3398438,4.08984375 C25.3007812,4.08984375 25.28125,4.0703125 25.28125,4.03125 L25.28125,4.03125 L3.54296875,4.03125 C3.54296875,4.0703125 3.5234375,4.08984375 3.484375,4.08984375 C3.4453125,4.08984375 3.4453125,4.109375 3.484375,4.1484375 C3.484375,4.1875 3.46484375,4.20703125 3.42578125,4.20703125 L3.42578125,4.20703125 L3.484375,21.0820312 C3.4453125,21.0820312 3.4453125,21.1015625 3.484375,21.140625 L3.484375,21.140625 L3.484375,21.1992188 L3.6015625,21.2578125 L25.2226562,21.2578125 Z M25.046875,20.90625 L3.77734375,20.90625 L3.8359375,4.3828125 L24.9882812,4.3828125 L25.046875,20.90625 Z M27.15625,25.7695312 L1.84375,25.7695312 L1.78515625,24.8320312 L27.2148438,24.8320312 L27.15625,25.7695312 Z M28.09375,38.8359375 C28.1328125,38.8359375 28.1523438,38.8164062 28.1523438,38.7773438 L28.1523438,38.7773438 L28.2109375,38.71875 C28.25,38.71875 28.2695312,38.6992188 28.2695312,38.6601562 L28.2695312,38.6601562 L28.328125,38.6015625 L28.2695312,37.4882812 L28.3867188,37.4882812 C28.4257812,37.4882812 28.4453125,37.46875 28.4453125,37.4296875 C28.484375,37.4296875 28.5039062,37.4101562 28.5039062,37.3710938 L28.5039062,37.3710938 L28.5625,37.3125 L28.5625,32.9765625 L28.5039062,32.859375 L28.5039062,28.5234375 C28.5429688,28.484375 28.5429688,28.4453125 28.5039062,28.40625 C28.4648438,28.40625 28.4453125,28.3867188 28.4453125,28.3476562 L28.4453125,28.3476562 L27.7421875,28.3476562 L27.6835938,27.0585938 C27.7226562,27.0585938 27.7421875,27.0390625 27.7421875,27 C27.703125,26.9609375 27.6835938,26.921875 27.6835938,26.8828125 L27.6835938,26.8828125 L1.4921875,26.8828125 C1.4921875,26.921875 1.47265625,26.9609375 1.43359375,27 L1.41162109,27.0256348 C1.39697266,27.0476074 1.40429688,27.0585938 1.43359375,27.0585938 L1.43359375,27.0585938 L1.375,28.3476562 L0.61328125,28.3476562 C0.61328125,28.3867188 0.59375,28.40625 0.5546875,28.40625 C0.515625,28.4453125 0.515625,28.484375 0.5546875,28.5234375 L0.5546875,28.5234375 L0.5546875,32.859375 L0.49609375,32.9765625 L0.49609375,37.3125 L0.5546875,37.3710938 C0.5546875,37.4101562 0.57421875,37.4296875 0.61328125,37.4296875 L0.61328125,37.4296875 L0.671875,37.4882812 L0.73046875,37.4882812 L0.73046875,38.6015625 L0.7890625,38.6601562 C0.7890625,38.6992188 0.80859375,38.71875 0.84765625,38.71875 L0.84765625,38.71875 L0.90625,38.7773438 C0.90625,38.8164062 0.92578125,38.8359375 0.96484375,38.8359375 L0.96484375,38.8359375 L28.09375,38.8359375 Z M27.390625,28.3476562 L1.78515625,28.3476562 L1.84375,27.234375 L27.3320312,27.234375 L27.390625,28.3476562 Z M28.1523438,32.7421875 L0.90625,32.7421875 L0.90625,28.6992188 L28.1523438,28.6992188 L28.1523438,32.7421875 Z M3.3671875,31.5703125 C3.6015625,31.5703125 3.81640625,31.4726562 4.01171875,31.2773438 C4.20703125,31.0820312 4.28515625,30.8476562 4.24609375,30.5742188 C4.28515625,30.3398438 4.20703125,30.125 4.01171875,29.9296875 C3.81640625,29.734375 3.6015625,29.6367188 3.3671875,29.6367188 C3.171875,29.6367188 2.9375,29.734375 2.6640625,29.9296875 C2.5078125,30.046875 2.390625,30.2617188 2.3125,30.5742188 C2.390625,30.9257812 2.5078125,31.1601562 2.6640625,31.2773438 C2.9375,31.4726562 3.171875,31.5703125 3.3671875,31.5703125 Z M26.7460938,31.6289062 C26.7851562,31.6289062 26.8046875,31.609375 26.8046875,31.5703125 L26.8046875,31.5703125 L26.8632812,31.5117188 L26.8046875,31.453125 L26.8632812,29.9296875 C26.8242188,29.890625 26.8242188,29.8515625 26.8632812,29.8125 L26.8632812,29.8125 L26.7460938,29.7539062 L17.3125,29.7539062 L17.1953125,29.8125 C17.1953125,29.8515625 17.1757812,29.890625 17.1367188,29.9296875 L17.1367188,29.9296875 L17.1953125,31.453125 C17.15625,31.4921875 17.15625,31.5117188 17.1953125,31.5117188 L17.1953125,31.5117188 L17.2539062,31.5703125 C17.2539062,31.609375 17.2734375,31.6289062 17.3125,31.6289062 L17.3125,31.6289062 L26.7460938,31.6289062 Z M3.30859375,31.1601562 C3.26953125,31.1601562 3.20117188,31.1503906 3.10351562,31.1308594 C3.00585938,31.1113281 2.9375,31.0625 2.8984375,30.984375 L2.8984375,30.984375 L2.78125,30.8085938 C2.7421875,30.7695312 2.7421875,30.6914062 2.78125,30.5742188 C2.703125,30.4960938 2.703125,30.4179688 2.78125,30.3398438 L2.78125,30.3398438 L2.8984375,30.1640625 C2.9375,30.0859375 3.00585938,30.0371094 3.10351562,30.0175781 C3.20117188,29.9980469 3.26953125,29.9882812 3.30859375,29.9882812 C3.46484375,29.9882812 3.5625,30.0078125 3.6015625,30.046875 C3.71875,30.125 3.81640625,30.2226562 3.89453125,30.3398438 C3.89453125,30.4570312 3.9140625,30.5351562 3.953125,30.5742188 C3.9140625,30.6523438 3.89453125,30.7304688 3.89453125,30.8085938 L3.89453125,30.8085938 L3.77734375,30.984375 C3.66015625,31.1015625 3.50390625,31.1601562 3.30859375,31.1601562 Z M26.5117188,31.2773438 L17.546875,31.2773438 L17.6054688,30.1054688 L26.453125,30.1054688 L26.5117188,31.2773438 Z M11.7460938,37.1367188 L0.96484375,37.1367188 L0.96484375,33.09375 L11.6875,33.09375 L11.7460938,37.1367188 Z M28.09375,37.1367188 L12.0976562,37.1367188 L12.0390625,33.09375 L28.09375,33.09375 L28.09375,37.1367188 Z M25.9257812,35.2617188 C25.9257812,35.2617188 25.9453125,35.2421875 25.984375,35.203125 C26.0234375,35.203125 26.0429688,35.1835938 26.0429688,35.1445312 C26.0039062,35.1445312 26.0039062,35.125 26.0429688,35.0859375 C26.0820312,35.0859375 26.0820312,35.0664062 26.0429688,35.0273438 L26.0429688,35.0273438 L26.1015625,33.9140625 C26.0625,33.875 26.0429688,33.8359375 26.0429688,33.796875 L26.0429688,33.796875 L25.984375,33.7382812 L14.734375,33.7382812 C14.6953125,33.7773438 14.6953125,33.796875 14.734375,33.796875 C14.734375,33.8359375 14.7148438,33.875 14.6757812,33.9140625 L14.6757812,33.9140625 L14.734375,35.0273438 C14.6953125,35.0664062 14.6953125,35.0859375 14.734375,35.0859375 L14.734375,35.0859375 L14.734375,35.1445312 C14.734375,35.1835938 14.7539062,35.203125 14.7929688,35.203125 L14.7929688,35.203125 L14.8515625,35.2617188 L25.9257812,35.2617188 Z M25.75,34.8515625 L15.0273438,34.8515625 L15.0859375,34.0898438 L25.6914062,34.0898438 L25.75,34.8515625 Z M27.9179688,38.4257812 L1.140625,38.4257812 L1.19921875,37.4882812 L27.859375,37.4882812 L27.9179688,38.4257812 Z" id="9" fill="currentColor" fill-rule="nonzero"></path>
    </g>
</svg>