<?xml version="1.0" encoding="UTF-8"?>
<svg width="35px" height="33px" viewBox="0 0 35 33" version="1.1" xmlns="http://www.w3.org/2000/svg" xmlns:xlink="http://www.w3.org/1999/xlink">
    <title>15</title>
    <g id="Page-1" stroke="none" stroke-width="1" fill="none" fill-rule="evenodd">
        <path d="M31.7382812,23.6367188 C31.7773438,23.6367188 31.796875,23.6171875 31.796875,23.578125 C31.8359375,23.578125 31.8554688,23.5585938 31.8554688,23.5195312 C31.8164062,23.5195312 31.8164062,23.5 31.8554688,23.4609375 L31.8554688,23.4609375 L31.796875,0.55078125 C31.8359375,0.51171875 31.8554688,0.47265625 31.8554688,0.43359375 C31.8164062,0.43359375 31.796875,0.4140625 31.796875,0.375 L31.796875,0.375 L31.6796875,0.31640625 L3.26171875,0.31640625 L3.14453125,0.375 L3.14453125,0.43359375 C3.10546875,0.47265625 3.10546875,0.51171875 3.14453125,0.55078125 L3.14453125,0.55078125 L3.0859375,23.4609375 L3.14453125,23.5195312 C3.10546875,23.5585938 3.10546875,23.578125 3.14453125,23.578125 L3.14453125,23.578125 L3.203125,23.6367188 L31.7382812,23.6367188 Z M31.4453125,23.2851562 L3.49609375,23.2851562 L3.4375,0.7265625 L31.5039062,0.7265625 L31.4453125,23.2851562 Z M29.0429688,20.9414062 C29.0820312,20.9414062 29.1015625,20.921875 29.1015625,20.8828125 C29.140625,20.8828125 29.1601562,20.8632812 29.1601562,20.8242188 C29.1210938,20.8242188 29.1210938,20.8046875 29.1601562,20.765625 L29.1601562,20.765625 L29.1015625,3.24609375 C29.140625,3.20703125 29.1601562,3.16796875 29.1601562,3.12890625 C29.1210938,3.12890625 29.1015625,3.109375 29.1015625,3.0703125 L29.1015625,3.0703125 L28.984375,3.01171875 L6.015625,3.01171875 L5.8984375,3.0703125 L5.83984375,3.0703125 L5.83984375,3.12890625 C5.80078125,3.16796875 5.80078125,3.20703125 5.83984375,3.24609375 L5.83984375,3.24609375 L5.78125,20.765625 L5.83984375,20.8242188 C5.76171875,20.9023438 5.80078125,20.9414062 5.95703125,20.9414062 L5.95703125,20.9414062 L29.0429688,20.9414062 Z M28.75,20.5898438 L6.19140625,20.5898438 L6.1328125,3.421875 L28.8085938,3.421875 L28.75,20.5898438 Z M33.671875,32.8359375 C33.7109375,32.8359375 33.7304688,32.8164062 33.7304688,32.7773438 C33.7695312,32.7773438 33.7890625,32.7578125 33.7890625,32.71875 L33.7890625,32.71875 L33.8476562,32.6601562 C33.8867188,32.6601562 33.8867188,32.640625 33.8476562,32.6015625 L33.8476562,32.6015625 L33.90625,31.78125 L34.375,31.78125 C34.4140625,31.78125 34.4335938,31.7617188 34.4335938,31.7226562 C34.4726562,31.7226562 34.4921875,31.703125 34.4921875,31.6640625 L34.4921875,31.6640625 L34.5507812,31.6054688 L34.4921875,31.546875 L34.5507812,24.8085938 C34.5117188,24.8085938 34.5117188,24.7890625 34.5507812,24.75 C34.5507812,24.7109375 34.53125,24.6914062 34.4921875,24.6914062 C34.453125,24.6914062 34.4335938,24.671875 34.4335938,24.6328125 L34.4335938,24.6328125 L0.5078125,24.6328125 C0.5078125,24.671875 0.48828125,24.6914062 0.44921875,24.6914062 C0.41015625,24.6914062 0.41015625,24.7109375 0.44921875,24.75 C0.44921875,24.7890625 0.4296875,24.8085938 0.390625,24.8085938 L0.390625,24.8085938 L0.44921875,31.546875 C0.41015625,31.5859375 0.41015625,31.6054688 0.44921875,31.6054688 L0.44921875,31.6054688 L0.44921875,31.6640625 C0.44921875,31.703125 0.46875,31.7226562 0.5078125,31.7226562 L0.5078125,31.7226562 L0.56640625,31.78125 L1.03515625,31.78125 L1.09375,32.6015625 C1.0546875,32.640625 1.0546875,32.6601562 1.09375,32.6601562 L1.09375,32.6601562 L1.15234375,32.71875 C1.15234375,32.7578125 1.171875,32.7773438 1.2109375,32.7773438 L1.2109375,32.7773438 L1.26953125,32.8359375 L33.671875,32.8359375 Z M10.5859375,31.3710938 L0.80078125,31.3710938 L0.7421875,24.984375 L10.5273438,24.984375 L10.5859375,31.3710938 Z M24.0039062,31.3710938 L10.9375,31.3710938 L10.8789062,24.984375 L24.0625,24.984375 L24.0039062,31.3710938 Z M31.6796875,31.8984375 C31.4453125,31.8984375 31.3085938,31.8789062 31.2695312,31.8398438 C31.1132812,31.7617188 30.9570312,31.6640625 30.8007812,31.546875 L30.8007812,31.546875 L30.6835938,31.4296875 C30.6445312,31.4296875 30.6445312,31.4101562 30.6835938,31.3710938 L30.6835938,31.3710938 L24.3554688,31.3710938 L24.4140625,24.984375 L34.1992188,24.984375 L34.140625,31.3710938 L32.6757812,31.3710938 L32.6171875,31.4296875 L32.5585938,31.4296875 C32.5976562,31.4296875 32.5976562,31.4492188 32.5585938,31.4882812 L32.5585938,31.4882812 L32.3828125,31.6640625 C32.3046875,31.703125 32.1972656,31.7519531 32.0605469,31.8105469 C31.9238281,31.8691406 31.796875,31.8984375 31.6796875,31.8984375 Z M29.5703125,29.90625 C29.84375,29.90625 30.0976562,29.8085938 30.3320312,29.6132812 C30.4882812,29.4960938 30.6054688,29.2617188 30.6835938,28.9101562 L30.6835938,28.9101562 L33.5546875,28.9101562 L33.5546875,28.9101562 L33.6132812,28.7929688 C33.6132812,28.7539062 33.6328125,28.734375 33.671875,28.734375 L33.671875,28.734375 L33.6132812,27.6796875 C33.6523438,27.640625 33.6523438,27.6015625 33.6132812,27.5625 C33.5742188,27.5625 33.5742188,27.5429688 33.6132812,27.5039062 L33.6132812,27.5039062 L30.625,27.5039062 C30.6640625,27.3085938 30.5664062,27.0546875 30.3320312,26.7421875 C30.0585938,26.546875 29.8242188,26.4492188 29.6289062,26.4492188 L29.6289062,26.4492188 L28.9257812,26.4492188 C28.6523438,26.4492188 28.4179688,26.546875 28.2226562,26.7421875 L28.2226562,26.7421875 L27.9882812,27.09375 C27.8710938,27.2109375 27.8320312,27.3476562 27.8710938,27.5039062 L27.8710938,27.5039062 L25.0585938,27.5039062 C25.0585938,27.5429688 25.0390625,27.5625 25,27.5625 C24.9609375,27.6015625 24.9609375,27.640625 25,27.6796875 L25,27.6796875 L24.9414062,28.734375 C24.9804688,28.734375 25,28.7539062 25,28.7929688 C25,28.8320312 25.0195312,28.8515625 25.0585938,28.8515625 L25.0585938,28.8515625 L25.1171875,28.9101562 L27.8125,28.9101562 C27.890625,29.2226562 28.0273438,29.4570312 28.2226562,29.6132812 C28.4179688,29.8085938 28.671875,29.90625 28.984375,29.90625 L28.984375,29.90625 L29.5703125,29.90625 Z M29.6289062,29.5546875 L28.9257812,29.5546875 C28.7304688,29.5546875 28.5742188,29.4765625 28.4570312,29.3203125 C28.3789062,29.2421875 28.3105469,29.1542969 28.2519531,29.0566406 C28.1933594,28.9589844 28.1835938,28.8515625 28.2226562,28.734375 C28.1835938,28.6953125 28.1835938,28.65625 28.2226562,28.6171875 L28.2226562,28.6171875 L28.1054688,28.5585938 L25.4101562,28.5585938 L25.3515625,27.8554688 L28.1054688,27.8554688 C28.1445312,27.8554688 28.1640625,27.8359375 28.1640625,27.796875 L28.1640625,27.796875 L28.2226562,27.7382812 L28.1640625,27.6796875 C28.203125,27.6015625 28.2226562,27.5429688 28.2226562,27.5039062 C28.2226562,27.4648438 28.2421875,27.40625 28.28125,27.328125 C28.28125,27.2109375 28.3398438,27.1328125 28.4570312,27.09375 C28.6132812,26.9375 28.7890625,26.859375 28.984375,26.859375 L28.984375,26.859375 L29.5703125,26.859375 C29.7265625,26.859375 29.8242188,26.8789062 29.8632812,26.9179688 C30.0585938,26.9960938 30.1953125,27.1328125 30.2734375,27.328125 C30.2734375,27.484375 30.2929688,27.6015625 30.3320312,27.6796875 C30.2929688,27.71875 30.2929688,27.7382812 30.3320312,27.7382812 L30.3320312,27.7382812 L30.390625,27.796875 C30.390625,27.8359375 30.4101562,27.8554688 30.4492188,27.8554688 L30.4492188,27.8554688 L33.3203125,27.8554688 L33.2617188,28.5585938 L30.4492188,28.5585938 L30.3320312,28.6171875 C30.3320312,28.65625 30.3125,28.6953125 30.2734375,28.734375 C30.3515625,28.8515625 30.3515625,28.9492188 30.2734375,29.0273438 C30.1953125,29.1835938 30.1367188,29.28125 30.0976562,29.3203125 C30.0585938,29.3984375 29.9804688,29.4570312 29.8632812,29.4960938 C29.7460938,29.5351562 29.6679688,29.5546875 29.6289062,29.5546875 L29.6289062,29.5546875 Z M23.2421875,29.0859375 C23.3203125,29.0859375 23.359375,29.0664062 23.359375,29.0273438 L23.359375,29.0273438 L23.4179688,28.96875 C23.4570312,28.96875 23.4765625,28.9492188 23.4765625,28.9101562 C23.4375,28.9101562 23.4375,28.890625 23.4765625,28.8515625 L23.4765625,28.8515625 L23.4179688,27.5039062 C23.4570312,27.5039062 23.4765625,27.484375 23.4765625,27.4453125 C23.4375,27.4453125 23.4179688,27.4257812 23.4179688,27.3867188 L23.4179688,27.3867188 L23.3007812,27.328125 L11.640625,27.328125 L11.5234375,27.3867188 L11.5234375,27.4453125 C11.484375,27.484375 11.484375,27.5039062 11.5234375,27.5039062 L11.5234375,27.5039062 L11.4648438,28.8515625 L11.5234375,28.9101562 C11.484375,28.9492188 11.484375,28.96875 11.5234375,28.96875 L11.5234375,28.96875 L11.5820312,29.0273438 C11.5820312,29.0664062 11.6210938,29.0859375 11.6992188,29.0859375 L11.6992188,29.0859375 L23.2421875,29.0859375 Z M5.60546875,29.203125 C5.83984375,29.203125 6.0546875,29.125 6.25,28.96875 C6.3671875,28.8515625 6.46484375,28.65625 6.54296875,28.3828125 C6.46484375,28.0703125 6.3671875,27.8554688 6.25,27.7382812 C6.0546875,27.5820312 5.83984375,27.5039062 5.60546875,27.5039062 C5.37109375,27.5039062 5.1953125,27.5820312 5.078125,27.7382812 C5,27.8164062 4.921875,27.9140625 4.84375,28.03125 C4.765625,28.1484375 4.74609375,28.265625 4.78515625,28.3828125 C4.74609375,28.5 4.765625,28.5976562 4.84375,28.6757812 C4.8828125,28.7539062 4.9609375,28.8515625 5.078125,28.96875 C5.1953125,29.125 5.37109375,29.203125 5.60546875,29.203125 Z M23.0664062,28.6757812 L11.875,28.6757812 L11.8164062,27.7382812 L23.125,27.7382812 L23.0664062,28.6757812 Z M5.6640625,28.8515625 C5.546875,28.8515625 5.46875,28.8320312 5.4296875,28.7929688 C5.2734375,28.7929688 5.1953125,28.7148438 5.1953125,28.5585938 C5.1953125,28.4804688 5.17578125,28.421875 5.13671875,28.3828125 C5.17578125,28.34375 5.1953125,28.265625 5.1953125,28.1484375 L5.1953125,28.1484375 L5.4296875,27.9140625 C5.46875,27.875 5.546875,27.8554688 5.6640625,27.8554688 C5.78125,27.8554688 5.8984375,27.9140625 6.015625,28.03125 C6.015625,28.0703125 6.03515625,28.109375 6.07421875,28.1484375 C6.15234375,28.2265625 6.15234375,28.3046875 6.07421875,28.3828125 C6.15234375,28.421875 6.15234375,28.4804688 6.07421875,28.5585938 C6.03515625,28.5976562 6.015625,28.65625 6.015625,28.734375 C5.9375,28.8125 5.8203125,28.8515625 5.6640625,28.8515625 Z M31.6210938,31.546875 C31.8164062,31.546875 31.9335938,31.5273438 31.9726562,31.4882812 C32.1679688,31.4101562 32.3046875,31.2539062 32.3828125,31.0195312 C32.3828125,30.9023438 32.4023438,30.8046875 32.4414062,30.7265625 C32.4023438,30.6875 32.3828125,30.5898438 32.3828125,30.4335938 L32.3828125,30.4335938 L32.2070312,30.1992188 C32.0507812,30.0429688 31.8554688,29.9648438 31.6210938,29.9648438 C31.5429688,29.9648438 31.4453125,29.984375 31.328125,30.0234375 C31.2109375,30.0625 31.1328125,30.1210938 31.09375,30.1992188 C31.0546875,30.2382812 31.0351562,30.2773438 31.0351562,30.3164062 C31.0351562,30.3554688 31.015625,30.3945312 30.9765625,30.4335938 C30.8984375,30.5898438 30.8789062,30.6875 30.9179688,30.7265625 C30.8789062,30.84375 30.8984375,30.9414062 30.9765625,31.0195312 C31.015625,31.0976562 31.0351562,31.15625 31.0351562,31.1953125 C31.0351562,31.234375 31.0546875,31.2734375 31.09375,31.3125 C31.1328125,31.390625 31.2109375,31.4492188 31.328125,31.4882812 C31.4453125,31.5273438 31.5429688,31.546875 31.6210938,31.546875 Z M31.6796875,31.1367188 C31.5625,31.1367188 31.5039062,31.1171875 31.5039062,31.078125 C31.4648438,31.078125 31.4257812,31.0585938 31.3867188,31.0195312 L31.3867188,31.0195312 L31.2695312,30.9023438 C31.2695312,30.8242188 31.25,30.765625 31.2109375,30.7265625 C31.25,30.6875 31.2695312,30.6289062 31.2695312,30.5507812 C31.2695312,30.5507812 31.2835937,30.5367188 31.3117187,30.5085938 L31.3867188,30.4335938 C31.4257812,30.4335938 31.4648438,30.4140625 31.5039062,30.375 C31.5039062,30.3359375 31.5625,30.3164062 31.6796875,30.3164062 C31.6796875,30.3164062 31.71875,30.3359375 31.796875,30.375 C31.8359375,30.4140625 31.8945312,30.4335938 31.9726562,30.4335938 C31.9726562,30.4726562 31.9921875,30.5214844 32.03125,30.5800781 C32.0703125,30.6386719 32.0703125,30.6875 32.03125,30.7265625 C32.109375,30.765625 32.109375,30.8242188 32.03125,30.9023438 C31.9921875,30.9414062 31.9726562,30.9804688 31.9726562,31.0195312 C31.9335938,31.0585938 31.875,31.078125 31.796875,31.078125 C31.7578125,31.1171875 31.71875,31.1367188 31.6796875,31.1367188 Z M33.4375,32.4257812 L1.50390625,32.4257812 L1.4453125,31.78125 L30.5078125,31.78125 C30.5078125,31.8984375 30.6445312,31.9960938 30.9179688,32.0742188 C30.9960938,32.1132812 31.1035156,32.1523438 31.2402344,32.1914062 C31.3769531,32.2304688 31.5039062,32.25 31.6210938,32.25 L31.6210938,32.25 L31.6796875,32.25 C31.796875,32.25 31.9238281,32.2304688 32.0605469,32.1914062 C32.1972656,32.1523438 32.3046875,32.1132812 32.3828125,32.0742188 C32.65625,31.9960938 32.7929688,31.8984375 32.7929688,31.78125 L32.7929688,31.78125 L33.4960938,31.78125 L33.4375,32.4257812 Z" id="15" fill="currentColor" fill-rule="nonzero"></path>
    </g>
</svg>