<?xml version="1.0" encoding="UTF-8"?>
<svg width="33px" height="31px" viewBox="0 0 33 31" version="1.1" xmlns="http://www.w3.org/2000/svg" xmlns:xlink="http://www.w3.org/1999/xlink">
    <title>51</title>
    <g id="Page-1" stroke="none" stroke-width="1" fill="none" fill-rule="evenodd">
        <path d="M5.25,30.8359375 C5.5234375,30.8359375 5.71875,30.8164062 5.8359375,30.7773438 L5.8359375,30.7773438 L7.76953125,30.7773438 C7.96484375,30.7382812 8.27734375,30.71875 8.70703125,30.71875 C9.09765625,30.71875 9.390625,30.6992188 9.5859375,30.6601562 C9.859375,30.6601562 10.1425781,30.6503906 10.4355469,30.6308594 C10.7285156,30.6113281 10.9921875,30.6015625 11.2265625,30.6015625 L11.2265625,30.6015625 L13.8632812,30.4257812 L13.8632812,30.4257812 L14.5078125,30.4257812 C14.7421875,30.4257812 14.9570312,30.40625 15.1523438,30.3671875 L15.1523438,30.3671875 L16.5,30.3671875 C16.9296875,30.3671875 17.3789062,30.3769531 17.8476562,30.3964844 C18.3164062,30.4160156 18.7851562,30.4257812 19.2539062,30.4257812 C19.4492188,30.4648438 19.6640625,30.484375 19.8984375,30.484375 L19.8984375,30.484375 L20.6015625,30.484375 C21.0703125,30.5234375 21.4804688,30.5527344 21.8320312,30.5722656 C22.1835938,30.5917969 22.4960938,30.6015625 22.7695312,30.6015625 C23.0039062,30.640625 23.2675781,30.6699219 23.5605469,30.6894531 C23.8535156,30.7089844 24.1367188,30.71875 24.4101562,30.71875 L24.4101562,30.71875 L24.7910156,30.71875 C24.9277344,30.71875 25.0742188,30.7382812 25.2304688,30.7773438 L25.2304688,30.7773438 L29.3320312,30.7773438 L30.0351562,30.6015625 C30.4648438,30.4453125 30.8359375,30.2109375 31.1484375,29.8984375 C31.3046875,29.78125 31.4511719,29.6347656 31.5878906,29.4589844 C31.7246094,29.2832031 31.8320312,29.078125 31.9101562,28.84375 L31.9101562,28.84375 L32.0859375,28.140625 C32.125,28.0234375 32.1445312,27.8476562 32.1445312,27.6132812 C32.1054688,27.4960938 32.1054688,27.4375 32.1445312,27.4375 C32.1054688,27.4375 32.1054688,27.4179688 32.1445312,27.3789062 L32.1445312,27.3789062 L32.0859375,27.3789062 L28.8046875,20.9335938 L28.8632812,20.875 L28.8046875,1.24609375 C28.84375,1.20703125 28.84375,1.16796875 28.8046875,1.12890625 C28.765625,1.12890625 28.7460938,1.109375 28.7460938,1.0703125 L28.7460938,1.0703125 L28.6875,1.0703125 L27.4570312,0.953125 C27.0664062,0.9140625 26.6367188,0.875 26.1679688,0.8359375 C25.6992188,0.796875 25.171875,0.73828125 24.5859375,0.66015625 C23.375,0.58203125 22.0664062,0.513671875 20.6601562,0.455078125 C19.2539062,0.396484375 17.8476562,0.3671875 16.4414062,0.3671875 L16.4414062,0.3671875 L14.4199219,0.3671875 C13.7363281,0.3671875 13.0234375,0.38671875 12.28125,0.42578125 C10.8359375,0.50390625 9.53710938,0.591796875 8.38476562,0.689453125 C7.23242188,0.787109375 6.265625,0.875 5.484375,0.953125 L5.484375,0.953125 L4.3125,1.0703125 L4.25390625,1.0703125 L4.13671875,1.12890625 C4.13671875,1.16796875 4.1171875,1.20703125 4.078125,1.24609375 L4.078125,1.24609375 L4.13671875,20.875 C4.09765625,20.9140625 4.09765625,20.9335938 4.13671875,20.9335938 L4.13671875,20.9335938 L0.85546875,27.3789062 C0.85546875,27.4179688 0.8359375,27.4375 0.796875,27.4375 C0.8359375,27.4375 0.85546875,27.4960938 0.85546875,27.6132812 C0.81640625,27.7304688 0.8359375,27.90625 0.9140625,28.140625 L0.9140625,28.140625 L1.08984375,28.84375 C1.16796875,29.078125 1.28515625,29.3125 1.44140625,29.546875 C1.63671875,29.78125 1.9296875,30.0351562 2.3203125,30.3085938 C2.7109375,30.5429688 3.140625,30.6992188 3.609375,30.7773438 L3.609375,30.7773438 L4.48828125,30.7773438 C4.60546875,30.8164062 4.859375,30.8359375 5.25,30.8359375 Z M28.3945312,20.6992188 L4.48828125,20.6992188 L4.546875,1.421875 C4.78125,1.34375 5.328125,1.28515625 6.1875,1.24609375 C6.6171875,1.20703125 7.06640625,1.16796875 7.53515625,1.12890625 C8.00390625,1.08984375 8.51171875,1.05078125 9.05859375,1.01171875 C10.1523438,0.93359375 11.3632812,0.865234375 12.6914062,0.806640625 C14.0195312,0.748046875 15.2695312,0.71875 16.4414062,0.71875 L16.4414062,0.71875 L18.3164062,0.71875 C18.9414062,0.71875 19.5859375,0.73828125 20.25,0.77734375 C21.5390625,0.85546875 22.75,0.93359375 23.8828125,1.01171875 C25.015625,1.08984375 25.9921875,1.16796875 26.8125,1.24609375 C27.6328125,1.32421875 28.1796875,1.3828125 28.453125,1.421875 L28.453125,1.421875 L28.3945312,20.6992188 Z M26.6367188,17.3007812 C26.6757812,17.3007812 26.6953125,17.28125 26.6953125,17.2421875 L26.6953125,17.2421875 L26.7539062,17.1835938 C26.7929688,17.1835938 26.7929688,17.1640625 26.7539062,17.125 L26.7539062,17.125 L26.8125,2.53515625 C26.7734375,2.49609375 26.7539062,2.45703125 26.7539062,2.41796875 L26.7539062,2.41796875 L26.6367188,2.359375 L6.3046875,2.359375 L6.1875,2.41796875 C6.1875,2.45703125 6.16796875,2.49609375 6.12890625,2.53515625 L6.12890625,2.53515625 L6.1875,17.125 C6.1484375,17.1640625 6.1484375,17.1835938 6.1875,17.1835938 L6.1875,17.1835938 L6.24609375,17.2421875 C6.24609375,17.28125 6.265625,17.3007812 6.3046875,17.3007812 L6.3046875,17.3007812 L26.6367188,17.3007812 Z M26.4023438,16.9492188 L6.5390625,16.9492188 L6.59765625,2.7109375 L26.34375,2.7109375 L26.4023438,16.9492188 Z M16.5,19.703125 C16.578125,19.703125 16.6757812,19.6835938 16.7929688,19.6445312 C16.9101562,19.6054688 17.0078125,19.546875 17.0859375,19.46875 C17.1640625,19.390625 17.2324219,19.2929688 17.2910156,19.1757812 C17.3496094,19.0585938 17.359375,18.9414062 17.3203125,18.8242188 C17.359375,18.7460938 17.3398438,18.6289062 17.2617188,18.4726562 L17.2617188,18.4726562 L17.0859375,18.2382812 C17.0078125,18.1601562 16.9101562,18.1015625 16.7929688,18.0625 C16.6757812,18.0234375 16.578125,18.0039062 16.5,18.0039062 C16.265625,18.0039062 16.0703125,18.0820312 15.9140625,18.2382812 C15.7578125,18.3554688 15.640625,18.5507812 15.5625,18.8242188 C15.640625,19.1367188 15.7578125,19.3515625 15.9140625,19.46875 C16.0703125,19.625 16.265625,19.703125 16.5,19.703125 Z M16.4414062,19.3515625 C16.4023438,19.3515625 16.34375,19.3320312 16.265625,19.2929688 C16.1875,19.2539062 16.1484375,19.2148438 16.1484375,19.1757812 L16.1484375,19.1757812 L16.03125,19 C15.9921875,18.921875 15.9921875,18.8632812 16.03125,18.8242188 C15.9921875,18.7460938 15.9921875,18.6875 16.03125,18.6484375 L16.03125,18.6484375 L16.1484375,18.4726562 C16.1484375,18.3945312 16.1875,18.3554688 16.265625,18.3554688 L16.265625,18.3554688 L16.6757812,18.3554688 C16.7148438,18.3945312 16.7636719,18.4335938 16.8222656,18.4726562 C16.8808594,18.5117188 16.9101562,18.5703125 16.9101562,18.6484375 C16.9101562,18.7265625 16.9296875,18.7851562 16.96875,18.8242188 C16.9296875,18.8632812 16.9101562,18.921875 16.9101562,19 C16.9101562,19.078125 16.890625,19.1367188 16.8515625,19.1757812 L16.8515625,19.1757812 L16.6757812,19.2929688 C16.6367188,19.3320312 16.5585938,19.3515625 16.4414062,19.3515625 Z M6.421875,30.4257812 L4.078125,30.4257812 C3.921875,30.4257812 3.82421875,30.40625 3.78515625,30.3671875 L3.78515625,30.3671875 L3.7265625,30.3671875 C3.4921875,30.3671875 3.2578125,30.328125 3.0234375,30.25 C2.515625,30.0546875 2.203125,29.859375 2.0859375,29.6640625 L2.0859375,29.6640625 L1.734375,29.3125 C1.4609375,28.9609375 1.32421875,28.5898438 1.32421875,28.1992188 L1.32421875,28.1992188 L1.20703125,27.7304688 C1.16796875,27.6132812 1.16796875,27.5351562 1.20703125,27.4960938 L1.20703125,27.4960938 L1.1484375,27.4960938 L4.546875,21.109375 L28.3945312,21.109375 L31.7929688,27.4960938 C31.7539062,27.5351562 31.734375,27.6132812 31.734375,27.7304688 C31.734375,27.9257812 31.7148438,28.0820312 31.6757812,28.1992188 L31.6757812,28.1992188 L31.5,28.7851562 C31.4609375,28.9414062 31.34375,29.1171875 31.1484375,29.3125 C31.109375,29.4296875 31.0214844,29.546875 30.8847656,29.6640625 C30.7480469,29.78125 30.6015625,29.8789062 30.4453125,29.9570312 C30.09375,30.2304688 29.703125,30.3671875 29.2734375,30.3671875 L29.2734375,30.3671875 L29.15625,30.3671875 C29.1171875,30.40625 29.0390625,30.4257812 28.921875,30.4257812 L28.921875,30.4257812 L26.578125,30.4257812 C26.3046875,30.4257812 26.0898438,30.40625 25.9335938,30.3671875 L25.9335938,30.3671875 L25.2890625,30.3671875 C24.8984375,30.3671875 24.625,30.3476562 24.46875,30.3085938 L24.46875,30.3085938 L23.5898438,30.3085938 C23.2773438,30.3085938 22.9941406,30.2988281 22.7402344,30.2792969 C22.4863281,30.2597656 22.203125,30.2304688 21.890625,30.1914062 C21.5,30.1914062 21.0703125,30.1816406 20.6015625,30.1621094 C20.1328125,30.1425781 19.6835938,30.1132812 19.2539062,30.0742188 C18.8242188,30.0742188 18.3652344,30.0644531 17.8769531,30.0449219 C17.3886719,30.0253906 16.9296875,30.015625 16.5,30.015625 L16.5,30.015625 L15.1523438,30.015625 C14.7226562,30.015625 14.2832031,30.0253906 13.8339844,30.0449219 C13.3847656,30.0644531 12.9648438,30.09375 12.5742188,30.1328125 C12.1835938,30.171875 11.8125,30.2011719 11.4609375,30.2207031 C11.109375,30.2402344 10.7773438,30.25 10.4648438,30.25 L10.4648438,30.25 L9.5859375,30.25 C9.3125,30.2890625 9.00976562,30.3183594 8.67773438,30.3378906 C8.34570312,30.3574219 8.0234375,30.3671875 7.7109375,30.3671875 L7.7109375,30.3671875 L7.0078125,30.3671875 C6.890625,30.40625 6.6953125,30.4257812 6.421875,30.4257812 L6.421875,30.4257812 Z M13.8046875,27.671875 L14.0390625,27.6132812 C14.3125,27.6132812 14.5273438,27.59375 14.6835938,27.5546875 C14.9179688,27.5546875 15.2011719,27.5449219 15.5332031,27.5253906 C15.8652344,27.5058594 16.1679688,27.4960938 16.4414062,27.4960938 L16.4414062,27.4960938 L17.4375,27.4960938 C17.6328125,27.5351562 17.9257812,27.5546875 18.3164062,27.5546875 C18.5117188,27.59375 18.7265625,27.6132812 18.9609375,27.6132812 C19.078125,27.6523438 19.1757812,27.671875 19.2539062,27.671875 C19.4492188,27.671875 19.5664062,27.6523438 19.6054688,27.6132812 C19.8398438,27.5351562 19.9570312,27.4179688 19.9570312,27.2617188 C19.9570312,27.1835938 19.9765625,27.125 20.015625,27.0859375 C19.9765625,26.96875 19.9570312,26.8320312 19.9570312,26.6757812 C19.9179688,26.6367188 19.859375,26.5390625 19.78125,26.3828125 C19.703125,26.3046875 19.625,26.2363281 19.546875,26.1777344 C19.46875,26.1191406 19.3710938,26.0507812 19.2539062,25.9726562 C19.2148438,25.9726562 19.1953125,25.953125 19.1953125,25.9140625 L19.1953125,25.9140625 L19.078125,25.8554688 L18.9023438,25.6210938 C18.8632812,25.5820312 18.84375,25.5429688 18.84375,25.5039062 C18.84375,25.4648438 18.8242188,25.40625 18.7851562,25.328125 L18.7851562,25.328125 L18.6679688,25.1523438 L25.4648438,25.1523438 L25.6992188,25.796875 L25.7578125,25.8554688 C25.7578125,25.8945312 25.7773438,25.9140625 25.8164062,25.9140625 C25.8164062,25.953125 25.8554688,25.9726562 25.9335938,25.9726562 L25.9335938,25.9726562 L29.859375,25.9726562 C29.8984375,25.9726562 29.9179688,25.953125 29.9179688,25.9140625 L29.9179688,25.9140625 L29.9765625,25.9140625 C30.015625,25.9140625 30.0351562,25.8945312 30.0351562,25.8554688 L30.0351562,25.8554688 L30.09375,25.8554688 C30.0546875,25.8554688 30.0546875,25.8359375 30.09375,25.796875 L30.09375,25.796875 L30.09375,25.7382812 C30.0546875,25.7382812 30.0546875,25.71875 30.09375,25.6796875 L30.09375,25.6796875 L30.0351562,25.6796875 L28.0429688,21.6953125 C28.0039062,21.65625 28.0039062,21.6367188 28.0429688,21.6367188 L28.0429688,21.6367188 L27.9257812,21.578125 L5.015625,21.578125 C5.015625,21.6171875 4.99609375,21.6367188 4.95703125,21.6367188 C4.91796875,21.6367188 4.91796875,21.65625 4.95703125,21.6953125 L4.95703125,21.6953125 L3.31640625,24.859375 L3.375,24.859375 C3.3359375,24.8984375 3.3359375,24.9179688 3.375,24.9179688 L3.375,24.9179688 L3.375,24.9765625 C3.296875,25.0546875 3.31640625,25.09375 3.43359375,25.09375 L3.43359375,25.09375 L3.4921875,25.09375 C3.53125,25.1328125 3.53125,25.1523438 3.4921875,25.1523438 L3.4921875,25.1523438 L14.2148438,25.1523438 L14.2148438,25.328125 C14.1367188,25.484375 14.078125,25.5820312 14.0390625,25.6210938 C13.9609375,25.6992188 13.921875,25.7773438 13.921875,25.8554688 L13.921875,25.8554688 L13.8046875,25.8554688 C13.8046875,25.8945312 13.7851562,25.9140625 13.7460938,25.9140625 L13.7460938,25.9140625 L13.6875,25.9726562 L13.6289062,25.9726562 C13.5507812,26.0507812 13.4726562,26.109375 13.3945312,26.1484375 C13.3164062,26.1875 13.2675781,26.2265625 13.2480469,26.265625 C13.2285156,26.3046875 13.1992188,26.34375 13.1601562,26.3828125 C13.1210938,26.4609375 13.1015625,26.5195312 13.1015625,26.5585938 C13.1015625,26.5976562 13.0820312,26.6367188 13.0429688,26.6757812 C12.9648438,26.8320312 12.9453125,26.96875 12.984375,27.0859375 C12.9453125,27.125 12.984375,27.2421875 13.1015625,27.4375 C13.1796875,27.59375 13.3945312,27.671875 13.7460938,27.671875 L13.7460938,27.671875 L13.8046875,27.671875 Z M29.5664062,25.5625 L25.9921875,25.5625 L25.8164062,24.859375 C25.7382812,24.859375 25.71875,24.8398438 25.7578125,24.8007812 L25.7578125,24.8007812 L25.6992188,24.8007812 C25.6601562,24.8007812 25.640625,24.78125 25.640625,24.7421875 L25.640625,24.7421875 L3.84375,24.7421875 L5.19140625,21.9296875 L27.8085938,21.9882812 L29.5664062,25.5625 Z M19.1953125,27.3203125 L18.9609375,27.2617188 C18.6875,27.2617188 18.4726562,27.2421875 18.3164062,27.203125 C18.0429688,27.1640625 17.7402344,27.1347656 17.4082031,27.1152344 C17.0761719,27.0957031 16.7734375,27.0859375 16.5,27.0859375 C16.1484375,27.0859375 15.8359375,27.0957031 15.5625,27.1152344 C15.2890625,27.1347656 14.9960938,27.1640625 14.6835938,27.203125 C14.4882812,27.2421875 14.2539062,27.2617188 13.9804688,27.2617188 C13.8632812,27.3007812 13.765625,27.3203125 13.6875,27.3203125 C13.6484375,27.3203125 13.5898438,27.3105469 13.5117188,27.2910156 C13.4335938,27.2714844 13.3945312,27.2421875 13.3945312,27.203125 C13.3554688,27.203125 13.3261719,27.1835938 13.3066406,27.1445312 C13.2871094,27.1054688 13.296875,27.0859375 13.3359375,27.0859375 C13.2578125,26.96875 13.2578125,26.8710938 13.3359375,26.7929688 L13.3359375,26.7929688 L13.453125,26.6171875 C13.53125,26.5 13.6679688,26.4023438 13.8632812,26.3242188 L13.8632812,26.3242188 L13.921875,26.265625 C13.9609375,26.265625 13.9804688,26.2460938 13.9804688,26.2070312 C14.0195312,26.2070312 14.0390625,26.1875 14.0390625,26.1484375 L14.0390625,26.1484375 L14.0976562,26.1484375 C14.1757812,26.0703125 14.2636719,25.9628906 14.3613281,25.8261719 C14.4589844,25.6894531 14.5273438,25.5625 14.5664062,25.4453125 C14.5664062,25.40625 14.6054688,25.3085938 14.6835938,25.1523438 L14.6835938,25.1523438 L18.3164062,25.1523438 C18.3164062,25.1914062 18.3554688,25.2890625 18.4335938,25.4453125 L18.4335938,25.4453125 L18.609375,25.796875 C18.6875,25.9921875 18.7851562,26.109375 18.9023438,26.1484375 L18.9023438,26.1484375 L18.9609375,26.2070312 C18.9609375,26.2460938 18.9804688,26.265625 19.0195312,26.265625 L19.0415039,26.2692871 C19.0561523,26.2766113 19.0488281,26.2949219 19.0195312,26.3242188 C19.2148438,26.3632812 19.3125,26.4023438 19.3125,26.4414062 L19.3125,26.4414062 L19.4882812,26.6171875 C19.5664062,26.6953125 19.6054688,26.7539062 19.6054688,26.7929688 C19.6054688,26.9101562 19.625,27.0078125 19.6640625,27.0859375 C19.625,27.0859375 19.625,27.1054688 19.6640625,27.1445312 C19.6640625,27.1835938 19.6445312,27.203125 19.6054688,27.203125 C19.5664062,27.2421875 19.5273438,27.2617188 19.4882812,27.2617188 C19.4492188,27.3007812 19.3515625,27.3203125 19.1953125,27.3203125 L19.1953125,27.3203125 Z" id="51" fill="currentColor" fill-rule="nonzero"></path>
    </g>
</svg>