<?xml version="1.0" encoding="UTF-8"?>
<svg width="45px" height="30px" viewBox="0 0 45 30" version="1.1" xmlns="http://www.w3.org/2000/svg" xmlns:xlink="http://www.w3.org/1999/xlink">
    <title>56</title>
    <g id="Page-1" stroke="none" stroke-width="1" fill="none" fill-rule="evenodd">
        <path d="M43.4179688,29.8359375 C43.5351562,29.8359375 43.6132812,29.8164062 43.6523438,29.7773438 C43.7695312,29.7773438 43.8671875,29.7382812 43.9453125,29.6601562 C44.1015625,29.6601562 44.1992188,29.5820312 44.2382812,29.4257812 C44.2382812,29.3476562 44.2480469,29.2695312 44.2675781,29.1914062 L44.2895508,29.0742188 L44.2895508,29.0742188 L44.296875,28.9570312 L44.296875,27.1992188 L44.1796875,27.0820312 L40.8984375,25.0898438 L40.8984375,1.59375 C40.8984375,1.3203125 40.8203125,1.10546875 40.6640625,0.94921875 C40.5078125,0.79296875 40.3125,0.71484375 40.078125,0.71484375 L40.078125,0.71484375 L4.921875,0.71484375 C4.6875,0.71484375 4.4921875,0.79296875 4.3359375,0.94921875 C4.1796875,1.10546875 4.1015625,1.3203125 4.1015625,1.59375 L4.1015625,1.59375 L4.1015625,25.0898438 L0.8203125,27.0820312 L0.76171875,27.140625 L0.703125,27.1992188 L0.703125,28.546875 C0.703125,28.78125 0.7421875,29.0546875 0.8203125,29.3671875 C0.8984375,29.6796875 1.15234375,29.8359375 1.58203125,29.8359375 L1.58203125,29.8359375 L43.4179688,29.8359375 Z M40.546875,25.03125 L4.453125,25.03125 L4.453125,1.59375 C4.453125,1.3984375 4.51171875,1.28125 4.62890625,1.2421875 L4.62890625,1.2421875 L4.8046875,1.125 C4.84375,1.0859375 4.8828125,1.06640625 4.921875,1.06640625 L4.921875,1.06640625 L40.078125,1.06640625 C40.15625,1.06640625 40.2148438,1.0859375 40.2539062,1.125 L40.2539062,1.125 L40.4296875,1.2421875 C40.5078125,1.28125 40.546875,1.3984375 40.546875,1.59375 L40.546875,1.59375 L40.546875,25.03125 Z M39.4921875,24.0351562 C39.4921875,24.0351562 39.5117188,23.9960938 39.5507812,23.9179688 L39.5507812,23.9179688 L39.5507812,2.35546875 C39.5117188,2.35546875 39.4824219,2.34570312 39.4628906,2.32617188 C39.4433594,2.30664062 39.4140625,2.296875 39.375,2.296875 L39.375,2.296875 L5.56640625,2.296875 L5.44921875,2.4140625 L5.44921875,23.9179688 C5.44921875,23.9960938 5.48828125,24.0351562 5.56640625,24.0351562 L5.56640625,24.0351562 L39.4921875,24.0351562 Z M39.1992188,23.6835938 L5.80078125,23.6835938 L5.80078125,2.70703125 L39.1992188,2.70703125 L39.1992188,23.6835938 Z M43.4179688,27.0820312 L1.58203125,27.0820312 L4.3359375,25.3828125 L40.6640625,25.3828125 L43.4179688,27.0820312 Z M43.6523438,29.4257812 L1.58203125,29.4257812 C1.46484375,29.4257812 1.38671875,29.40625 1.34765625,29.3671875 C1.19140625,29.3671875 1.11328125,29.25 1.11328125,29.015625 L1.11328125,29.015625 L1.11328125,27.4335938 L43.8867188,27.4335938 L43.8867188,29.25 C43.8476562,29.2890625 43.828125,29.328125 43.828125,29.3671875 L43.828125,29.3671875 L43.7695312,29.3671875 C43.7304688,29.40625 43.6914062,29.4257812 43.6523438,29.4257812 L43.6523438,29.4257812 Z M24.2578125,28.3125 C24.3359375,28.3125 24.375,28.2734375 24.375,28.1953125 L24.375,28.1953125 L24.375,28.0195312 L24.375,28.0195312 L24.2578125,27.9609375 L20.6835938,27.9609375 L20.6835938,28.0195312 C20.6445312,28.0585938 20.625,28.0976562 20.625,28.1367188 C20.625,28.1757812 20.6445312,28.1953125 20.6835938,28.1953125 L20.6835938,28.1953125 L20.6835938,28.2539062 C20.6835938,28.2929688 20.703125,28.3125 20.7421875,28.3125 L20.7421875,28.3125 L24.2578125,28.3125 Z M41.1914062,28.3125 C41.1914062,28.3125 41.2109375,28.2734375 41.25,28.1953125 L41.25,28.1953125 L41.25,28.0195312 L41.1914062,27.9609375 L29.53125,27.9609375 C29.4921875,27.9609375 29.453125,27.9804688 29.4140625,28.0195312 L29.4140625,28.0195312 L29.4140625,28.1953125 C29.4140625,28.2734375 29.453125,28.3125 29.53125,28.3125 L29.53125,28.3125 L41.1914062,28.3125 Z" id="56" fill="currentColor" fill-rule="nonzero"></path>
    </g>
</svg>