<?xml version="1.0" encoding="UTF-8"?>
<svg width="31px" height="29px" viewBox="0 0 31 29" version="1.1" xmlns="http://www.w3.org/2000/svg" xmlns:xlink="http://www.w3.org/1999/xlink">
    <title>49</title>
    <g id="Page-1" stroke="none" stroke-width="1" fill="none" fill-rule="evenodd">
        <path d="M28.9765625,28.8359375 C29.3671875,28.8359375 29.7382812,28.6601562 30.0898438,28.3085938 C30.4023438,28.0742188 30.5585938,27.7226562 30.5585938,27.2539062 L30.5585938,27.2539062 L30.5585938,25.8476562 L30.5,25.8476562 L27.8046875,20.4570312 L27.8046875,20.3984375 C27.765625,20.3984375 27.7460938,20.3789062 27.7460938,20.3398438 L27.7460938,20.3398438 L26.8671875,20.3398438 C27.0625,20.2226562 27.1601562,20.0664062 27.1601562,19.8710938 C27.1601562,19.6367188 27.0234375,19.421875 26.75,19.2265625 C26.4765625,19.0703125 26.1054688,18.9921875 25.6367188,18.9921875 L25.6367188,18.9921875 L23.7617188,18.9921875 L23.7617188,18.6992188 L27.6289062,18.6992188 C27.6679688,18.6992188 27.7070312,18.6796875 27.7460938,18.640625 L27.7460938,18.640625 L27.8632812,18.5234375 L27.8632812,2.234375 C27.8242188,2.234375 27.8046875,2.21484375 27.8046875,2.17578125 C27.8046875,2.17578125 27.765625,2.15625 27.6875,2.1171875 C27.609375,2.1171875 27.53125,2.09765625 27.453125,2.05859375 C27.21875,2.01953125 26.9453125,1.9609375 26.6328125,1.8828125 L26.6328125,1.8828125 L23.8203125,1.4140625 C22.6875,1.21875 21.3984375,1.0625 19.953125,0.9453125 C18.5078125,0.828125 17.0234375,0.76953125 15.5,0.76953125 C14.015625,0.76953125 12.53125,0.828125 11.046875,0.9453125 C9.6015625,1.1015625 8.3125,1.26757812 7.1796875,1.44335938 C6.046875,1.61914062 5.12890625,1.765625 4.42578125,1.8828125 L4.42578125,1.8828125 L3.3125,2.1171875 C3.2734375,2.1171875 3.234375,2.13671875 3.1953125,2.17578125 L3.1953125,2.17578125 L3.1953125,2.234375 L3.13671875,2.29296875 L3.13671875,18.5234375 L3.1953125,18.5234375 C3.1953125,18.5625 3.21484375,18.5820312 3.25390625,18.5820312 C3.25390625,18.6601562 3.29296875,18.6992188 3.37109375,18.6992188 L3.37109375,18.6992188 L7.23828125,18.6992188 L7.23828125,18.9921875 L5.36328125,18.9921875 C4.85546875,18.9921875 4.50390625,19.0703125 4.30859375,19.2265625 C3.99609375,19.421875 3.83984375,19.6367188 3.83984375,19.8710938 C3.83984375,20.0664062 3.9375,20.2226562 4.1328125,20.3398438 L4.1328125,20.3398438 L3.25390625,20.3398438 L3.25390625,20.3984375 C3.21484375,20.3984375 3.1953125,20.4179688 3.1953125,20.4570312 L3.1953125,20.4570312 L0.5,25.8476562 L0.44140625,25.8476562 L0.44140625,27.2539062 C0.44140625,27.6835938 0.6171875,28.0351562 0.96875,28.3085938 C1.2421875,28.6601562 1.59375,28.8359375 2.0234375,28.8359375 L2.0234375,28.8359375 L28.9765625,28.8359375 Z M23.4101562,18.9921875 L7.58984375,18.9921875 L7.58984375,18.40625 C7.55078125,18.40625 7.53125,18.3867188 7.53125,18.3476562 L7.53125,18.3476562 L7.4140625,18.2890625 L3.546875,18.2890625 L3.546875,2.46875 C3.6640625,2.4296875 3.84960938,2.38085938 4.10351562,2.32226562 C4.35742188,2.26367188 4.6796875,2.1953125 5.0703125,2.1171875 L5.0703125,2.1171875 L7.82421875,1.70703125 C8.91796875,1.55078125 10.1289062,1.4140625 11.4570312,1.296875 C12.7851562,1.1796875 14.1328125,1.12109375 15.5,1.12109375 C16.8671875,1.12109375 18.2148438,1.1796875 19.5429688,1.296875 C20.8710938,1.4140625 22.0820312,1.55078125 23.1757812,1.70703125 C24.2695312,1.86328125 25.2070312,2 25.9882812,2.1171875 L25.9882812,2.1171875 L27.453125,2.46875 L27.453125,18.2890625 L23.5859375,18.2890625 L23.46875,18.3476562 L23.46875,18.40625 C23.4296875,18.4453125 23.4101562,18.484375 23.4101562,18.5234375 L23.4101562,18.5234375 L23.4101562,18.9921875 Z M24.2890625,16.0039062 C24.328125,16.0039062 24.3476562,15.984375 24.3476562,15.9453125 C24.3867188,15.9453125 24.40625,15.9257812 24.40625,15.8867188 L24.40625,15.8867188 L24.4648438,15.828125 L24.4648438,15.7109375 C24.4257812,15.7109375 24.40625,15.6914062 24.40625,15.6523438 L24.40625,15.6523438 L24.2890625,15.59375 L23.7617188,15.59375 L23.7617188,3.81640625 L24.3476562,3.81640625 C24.3867188,3.81640625 24.40625,3.796875 24.40625,3.7578125 L24.40625,3.7578125 L24.4648438,3.69921875 L24.4648438,3.5234375 C24.4257812,3.5234375 24.40625,3.50390625 24.40625,3.46484375 L24.40625,3.46484375 L6.59375,3.46484375 L6.59375,3.5234375 C6.5546875,3.5625 6.53515625,3.6015625 6.53515625,3.640625 C6.53515625,3.6796875 6.5546875,3.69921875 6.59375,3.69921875 L6.59375,3.69921875 L6.59375,3.7578125 C6.59375,3.796875 6.61328125,3.81640625 6.65234375,3.81640625 L6.65234375,3.81640625 L7.23828125,3.81640625 L7.23828125,15.59375 L6.7109375,15.59375 L6.59375,15.6523438 L6.59375,15.7109375 C6.5546875,15.75 6.53515625,15.7890625 6.53515625,15.828125 L6.53515625,15.828125 L6.59375,15.828125 L6.59375,15.8867188 C6.59375,15.9257812 6.61328125,15.9453125 6.65234375,15.9453125 L6.65234375,15.9453125 L6.7109375,16.0039062 L24.2890625,16.0039062 Z M23.4101562,15.59375 L7.58984375,15.59375 L7.58984375,3.81640625 L23.4101562,3.81640625 L23.4101562,15.59375 Z M15.5,18.3476562 C15.734375,18.3476562 15.9296875,18.2695312 16.0859375,18.1132812 C16.28125,17.9179688 16.3789062,17.703125 16.3789062,17.46875 C16.3789062,17.2734375 16.28125,17.078125 16.0859375,16.8828125 C15.9296875,16.7265625 15.734375,16.6484375 15.5,16.6484375 C15.265625,16.6484375 15.0703125,16.7265625 14.9140625,16.8828125 C14.71875,17.078125 14.6210938,17.2734375 14.6210938,17.46875 C14.6210938,17.703125 14.71875,17.9179688 14.9140625,18.1132812 C15.0703125,18.2695312 15.265625,18.3476562 15.5,18.3476562 Z M15.5,17.9960938 C15.3828125,17.9960938 15.265625,17.9375 15.1484375,17.8203125 C15.0703125,17.7421875 15.03125,17.625 15.03125,17.46875 C15.03125,17.390625 15.0703125,17.2734375 15.1484375,17.1171875 C15.1875,17.0390625 15.3046875,17 15.5,17 C15.6953125,17 15.8125,17.0390625 15.8515625,17.1171875 C15.9296875,17.2734375 15.96875,17.390625 15.96875,17.46875 C15.96875,17.625 15.9296875,17.7421875 15.8515625,17.8203125 C15.734375,17.9375 15.6171875,17.9960938 15.5,17.9960938 Z M7.23828125,20.3398438 L5.36328125,20.3398438 C5.20703125,20.3398438 5.05078125,20.3203125 4.89453125,20.28125 C4.73828125,20.2421875 4.62109375,20.203125 4.54296875,20.1640625 C4.30859375,20.0859375 4.19140625,19.9882812 4.19140625,19.8710938 C4.19140625,19.6757812 4.30859375,19.5585938 4.54296875,19.5195312 C4.62109375,19.4804688 4.73828125,19.4414062 4.89453125,19.4023438 C5.05078125,19.3632812 5.20703125,19.34375 5.36328125,19.34375 L5.36328125,19.34375 L7.23828125,19.34375 L7.23828125,20.3398438 Z M23.4101562,20.3398438 L7.58984375,20.3398438 L7.58984375,19.34375 L23.4101562,19.34375 L23.4101562,20.3398438 Z M25.6367188,20.3398438 L23.7617188,20.3398438 L23.7617188,19.34375 L25.6367188,19.34375 C25.7929688,19.34375 25.9492188,19.3632812 26.1054688,19.4023438 C26.2617188,19.4414062 26.3984375,19.4804688 26.515625,19.5195312 C26.7109375,19.5976562 26.8085938,19.7148438 26.8085938,19.8710938 C26.8085938,19.9882812 26.7109375,20.0859375 26.515625,20.1640625 C26.3984375,20.203125 26.2617188,20.2421875 26.1054688,20.28125 C25.9492188,20.3203125 25.7929688,20.3398438 25.6367188,20.3398438 L25.6367188,20.3398438 Z M28.9765625,28.4257812 L2.0234375,28.4257812 C1.671875,28.4257812 1.3984375,28.3085938 1.203125,28.0742188 C0.96875,27.8789062 0.8515625,27.6054688 0.8515625,27.2539062 L0.8515625,27.2539062 L0.8515625,25.9648438 L3.48828125,20.6914062 L27.5117188,20.6914062 L30.1484375,25.9648438 L30.1484375,27.2539062 C30.1484375,27.6054688 30.0507812,27.8789062 29.8554688,28.0742188 C29.6210938,28.3085938 29.328125,28.4257812 28.9765625,28.4257812 L28.9765625,28.4257812 Z M18.9570312,26.4335938 L19.015625,26.375 C19.015625,26.375 19.0168457,26.3725586 19.0192871,26.3676758 L19.0742188,26.2578125 L19.0742188,26.140625 C19.0351562,26.140625 18.9960938,26.1210938 18.9570312,26.0820312 L18.9570312,26.0820312 L18.3125,26.0820312 L17.7851562,24.4414062 L28.390625,24.4414062 L28.5078125,24.3242188 L28.5078125,24.1484375 L27.1601562,21.453125 C27.1210938,21.453125 27.1015625,21.4335938 27.1015625,21.3945312 L27.1015625,21.3945312 L27.0429688,21.3359375 L4.015625,21.3359375 C3.9765625,21.3359375 3.9375,21.3554688 3.8984375,21.3945312 C3.8984375,21.4335938 3.87890625,21.453125 3.83984375,21.453125 L3.83984375,21.453125 L2.4921875,24.1484375 L2.4921875,24.3242188 L2.55078125,24.3828125 L2.55078125,24.3828125 L2.61669922,24.4157715 L2.61669922,24.4157715 L2.66796875,24.4414062 L13.2148438,24.4414062 L12.6875,26.0820312 L12.0429688,26.0820312 C11.9648438,26.1601562 11.9257812,26.21875 11.9257812,26.2578125 C11.9257812,26.296875 11.9453125,26.3164062 11.984375,26.3164062 C11.984375,26.3945312 12.0234375,26.4335938 12.1015625,26.4335938 L12.1015625,26.4335938 L18.9570312,26.4335938 Z M28.0390625,24.03125 L2.9609375,24.03125 L4.1328125,21.7460938 L26.8671875,21.7460938 L28.0390625,24.03125 Z M17.9609375,26.0820312 L13.0390625,26.0820312 L13.625,24.4414062 L17.375,24.4414062 L17.9609375,26.0820312 Z" id="49" fill="currentColor" fill-rule="nonzero"></path>
    </g>
</svg>