<?xml version="1.0" encoding="UTF-8"?>
<svg width="25px" height="47px" viewBox="0 0 25 47" version="1.1" xmlns="http://www.w3.org/2000/svg" xmlns:xlink="http://www.w3.org/1999/xlink">
    <title>35</title>
    <g id="Page-1" stroke="none" stroke-width="1" fill="none" fill-rule="evenodd">
        <path d="M20,46.8359375 C20.7421875,46.8359375 21.4257812,46.5527344 22.0507812,45.9863281 C22.6757812,45.4199219 23.1835938,44.609375 23.5742188,43.5546875 C23.9648438,42.5390625 24.2871094,41.2695312 24.5410156,39.7460938 C24.7949219,38.2226562 24.9023438,36.4648438 24.8632812,34.4726562 L24.8632812,34.4726562 L24.921875,14.1992188 C24.8828125,11.7382812 24.6386719,9.65820312 24.1894531,7.95898438 C23.7402344,6.25976562 23.0078125,4.84375 21.9921875,3.7109375 C20.9765625,2.578125 19.6972656,1.76757812 18.1542969,1.27929688 C16.6113281,0.791015625 14.7265625,0.546875 12.5,0.546875 C10.3515625,0.546875 8.48632812,0.791015625 6.90429688,1.27929688 C5.32226562,1.76757812 4.04296875,2.578125 3.06640625,3.7109375 C2.08984375,4.84375 1.35742188,6.25976562 0.869140625,7.95898438 C0.380859375,9.65820312 0.15625,11.7382812 0.1953125,14.1992188 L0.1953125,14.1992188 L0.13671875,34.4726562 C0.17578125,36.4648438 0.302734375,38.2226562 0.517578125,39.7460938 C0.732421875,41.2695312 1.0546875,42.5390625 1.484375,43.5546875 C1.9140625,44.609375 2.421875,45.4199219 3.0078125,45.9863281 C3.59375,46.5527344 4.296875,46.8359375 5.1171875,46.8359375 L5.1171875,46.8359375 L20,46.8359375 Z M19.9414062,46.4257812 L5.1171875,46.4257812 C3.7109375,46.4257812 2.59765625,45.390625 1.77734375,43.3203125 C1.34765625,42.3046875 1.04492188,41.0546875 0.869140625,39.5703125 C0.693359375,38.0859375 0.5859375,36.3867188 0.546875,34.4726562 L0.546875,34.4726562 L0.60546875,14.1992188 C0.56640625,11.2695312 0.888671875,8.93554688 1.57226562,7.19726563 C2.25585938,5.45898438 3.14453125,4.12109375 4.23828125,3.18359375 C5.33203125,2.24609375 6.6015625,1.63085938 8.046875,1.33789062 C9.4921875,1.04492188 10.9765625,0.8984375 12.5,0.8984375 L12.5,0.8984375 L12.5585938,0.8984375 C14.0820312,0.8984375 15.5761719,1.04492188 17.0410156,1.33789062 C18.5058594,1.63085938 19.7851562,2.24609375 20.8789062,3.18359375 C21.9335938,4.12109375 22.8027344,5.45898438 23.4863281,7.19726563 C24.1699219,8.93554688 24.4921875,11.2695312 24.453125,14.1992188 L24.453125,14.1992188 L24.5117188,34.4726562 C24.4726562,36.3867188 24.375,38.0859375 24.21875,39.5703125 C24.0625,41.0546875 23.7695312,42.3046875 23.3398438,43.3203125 C22.5195312,45.390625 21.3867188,46.4257812 19.9414062,46.4257812 L19.9414062,46.4257812 Z M12.5,45.4882812 C13.1640625,45.4882812 13.7792969,45.4589844 14.3457031,45.4003906 C14.9121094,45.3417969 15.46875,45.2734375 16.015625,45.1953125 C16.5625,45.1171875 17.0410156,45.0097656 17.4511719,44.8730469 C17.8613281,44.7363281 18.28125,44.5898438 18.7109375,44.4335938 C19.7265625,43.9648438 20.5175781,43.3691406 21.0839844,42.6464844 C21.6503906,41.9238281 22.0703125,41.1132812 22.34375,40.2148438 C22.578125,39.3164062 22.7246094,38.3203125 22.7832031,37.2265625 C22.8417969,36.1328125 22.8515625,35 22.8125,33.828125 L22.8125,33.828125 L22.8710938,16.953125 C22.8320312,15.5859375 22.7539062,14.3457031 22.6367188,13.2324219 C22.5195312,12.1191406 22.3046875,11.09375 21.9921875,10.15625 C21.6796875,9.2578125 21.3183594,8.4765625 20.9082031,7.8125 C20.4980469,7.1484375 20,6.5625 19.4140625,6.0546875 C19.453125,6.015625 19.453125,5.99609375 19.4140625,5.99609375 L19.4140625,5.99609375 L19.3554688,5.9375 L19.296875,5.9375 C18.9453125,5.5859375 18.5253906,5.28320312 18.0371094,5.02929688 C17.5488281,4.77539062 17.03125,4.5703125 16.484375,4.4140625 C15.9375,4.2578125 15.3320312,4.13085938 14.6679688,4.03320312 C14.0039062,3.93554688 13.3007812,3.88671875 12.5585938,3.88671875 C11.7382812,3.88671875 11.015625,3.93554688 10.390625,4.03320312 C9.765625,4.13085938 9.16015625,4.2578125 8.57421875,4.4140625 C8.02734375,4.5703125 7.51953125,4.77539062 7.05078125,5.02929688 C6.58203125,5.28320312 6.1328125,5.5859375 5.703125,5.9375 L5.703125,5.9375 L5.64453125,5.9375 L5.64453125,5.99609375 C5.09765625,6.50390625 4.59960938,7.09960938 4.15039062,7.78320312 C3.70117188,8.46679688 3.33984375,9.2578125 3.06640625,10.15625 C2.79296875,11.09375 2.578125,12.1191406 2.421875,13.2324219 C2.265625,14.3457031 2.20703125,15.5859375 2.24609375,16.953125 L2.24609375,16.953125 L2.1875,33.828125 C2.2265625,34.4140625 2.24609375,34.9902344 2.24609375,35.5566406 C2.24609375,36.1230469 2.265625,36.6796875 2.3046875,37.2265625 C2.3046875,38.28125 2.4609375,39.2773438 2.7734375,40.2148438 C3.0859375,41.1132812 3.49609375,41.9238281 4.00390625,42.6464844 C4.51171875,43.3691406 5.29296875,43.9648438 6.34765625,44.4335938 L6.34765625,44.4335938 L6.40625,44.4335938 C7.1875,44.7460938 8.0859375,45 9.1015625,45.1953125 C10.15625,45.390625 11.2890625,45.4882812 12.5,45.4882812 Z M12.5,6.93359375 C11.5234375,6.93359375 10.5859375,6.875 9.6875,6.7578125 C8.828125,6.6796875 8.125,6.58203125 7.578125,6.46484375 C7.03125,6.34765625 6.6015625,6.23046875 6.2890625,6.11328125 L6.2890625,6.11328125 L6.171875,6.0546875 C6.5625,5.7421875 6.94335938,5.47851562 7.31445312,5.26367188 C7.68554688,5.04882812 8.14453125,4.8828125 8.69140625,4.765625 C9.23828125,4.609375 9.82421875,4.4921875 10.4492188,4.4140625 C11.0742188,4.3359375 11.7773438,4.296875 12.5585938,4.296875 C14.0039062,4.296875 15.2929688,4.453125 16.4257812,4.765625 C17.4023438,5 18.2226562,5.4296875 18.8867188,6.0546875 L18.8867188,6.0546875 L18.7695312,6.11328125 C18.4570312,6.23046875 18.0273438,6.34765625 17.4804688,6.46484375 C16.8945312,6.58203125 16.1914062,6.68945312 15.3710938,6.78710938 C14.5507812,6.88476562 13.59375,6.93359375 12.5,6.93359375 Z M18.59375,44.0820312 L18.1835938,43.9648438 C17.9882812,43.9257812 17.7832031,43.8867188 17.5683594,43.8476562 C17.3535156,43.8085938 17.109375,43.7695312 16.8359375,43.7304688 C16.2890625,43.6523438 15.6445312,43.5742188 14.9023438,43.4960938 C14.1601562,43.4179688 13.3789062,43.3789062 12.5585938,43.3789062 C12.1289062,43.3789062 11.71875,43.3886719 11.328125,43.4082031 C10.9375,43.4277344 10.5664062,43.4570312 10.2148438,43.4960938 C9.47265625,43.5742188 8.81835938,43.6523438 8.25195312,43.7304688 C7.68554688,43.8085938 7.24609375,43.8867188 6.93359375,43.9648438 L6.93359375,43.9648438 L6.5234375,44.0820312 C5.5078125,43.6523438 4.74609375,43.0957031 4.23828125,42.4121094 C3.73046875,41.7285156 3.359375,40.9375 3.125,40.0390625 C2.8515625,39.140625 2.6953125,38.1640625 2.65625,37.109375 C2.6171875,36.0546875 2.578125,34.9609375 2.5390625,33.828125 L2.5390625,33.828125 L2.59765625,16.953125 C2.55859375,15.625 2.6171875,14.4140625 2.7734375,13.3203125 C2.9296875,12.2265625 3.14453125,11.2304688 3.41796875,10.3320312 C3.65234375,9.43359375 3.99414062,8.66210938 4.44335938,8.01757812 C4.89257812,7.37304688 5.3515625,6.81640625 5.8203125,6.34765625 L5.8203125,6.34765625 L6.23046875,6.46484375 C6.46484375,6.54296875 6.89453125,6.66015625 7.51953125,6.81640625 C8.06640625,6.93359375 8.76953125,7.05078125 9.62890625,7.16796875 C10.4882812,7.28515625 11.4453125,7.34375 12.5,7.34375 C13.6328125,7.34375 14.609375,7.28515625 15.4296875,7.16796875 C16.25,7.05078125 16.953125,6.93359375 17.5390625,6.81640625 C18.125,6.69921875 18.5742188,6.58203125 18.8867188,6.46484375 L18.8867188,6.46484375 L19.1796875,6.34765625 C19.765625,6.81640625 20.2539062,7.3828125 20.6445312,8.046875 C21.0351562,8.7109375 21.3867188,9.47265625 21.6992188,10.3320312 C22.0117188,11.2304688 22.2167969,12.2265625 22.3144531,13.3203125 C22.4121094,14.4140625 22.4804688,15.625 22.5195312,16.953125 L22.5195312,16.953125 L22.4609375,33.828125 C22.5,34.9609375 22.4902344,36.0546875 22.4316406,37.109375 C22.3730469,38.1640625 22.2265625,39.140625 21.9921875,40.0390625 C21.5234375,41.9140625 20.390625,43.2617188 18.59375,44.0820312 L18.59375,44.0820312 Z M20,35.9960938 C20.15625,35.9960938 20.3417969,35.9570312 20.5566406,35.8789062 C20.7714844,35.8007812 20.9375,35.6835938 21.0546875,35.5273438 C21.171875,35.4101562 21.2792969,35.2539062 21.3769531,35.0585938 C21.4746094,34.8632812 21.5039062,34.6679688 21.4648438,34.4726562 L21.4648438,34.4726562 L21.5234375,13.90625 C21.484375,13.828125 21.4648438,13.7109375 21.4648438,13.5546875 C21.3867188,13.3984375 21.328125,13.3007812 21.2890625,13.2617188 C21.09375,13.1054688 20.859375,13.0273438 20.5859375,13.0273438 L20.5859375,13.0273438 L4.47265625,13.0273438 C4.27734375,13.0273438 4.16015625,13.046875 4.12109375,13.0859375 C3.80859375,13.1640625 3.65234375,13.3203125 3.65234375,13.5546875 C3.61328125,13.6328125 3.59375,13.6914062 3.59375,13.7304688 C3.59375,13.7695312 3.57421875,13.828125 3.53515625,13.90625 L3.53515625,13.90625 L3.59375,34.4726562 C3.5546875,34.6679688 3.58398438,34.8632812 3.68164062,35.0585938 C3.77929688,35.2539062 3.88671875,35.4101562 4.00390625,35.5273438 C4.12109375,35.6835938 4.28710938,35.8007812 4.50195312,35.8789062 C4.71679688,35.9570312 4.90234375,35.9960938 5.05859375,35.9960938 L5.05859375,35.9960938 L20,35.9960938 Z M19.9414062,35.6445312 L5.1171875,35.6445312 C4.8046875,35.6445312 4.53125,35.5273438 4.296875,35.2929688 C4.1015625,35.0976562 3.96484375,34.8242188 3.88671875,34.4726562 L3.88671875,34.4726562 L3.9453125,13.90625 C3.90625,13.828125 3.92578125,13.75 4.00390625,13.671875 L4.00390625,13.671875 L4.12109375,13.5546875 C4.12109375,13.515625 4.16015625,13.4765625 4.23828125,13.4375 C4.31640625,13.3984375 4.375,13.3789062 4.4140625,13.3789062 L4.4140625,13.3789062 L20.6445312,13.3789062 C20.7617188,13.3789062 20.8789062,13.4375 20.9960938,13.5546875 C20.9960938,13.5546875 21.0101562,13.56875 21.0382812,13.596875 L21.1132812,13.671875 C21.1914062,13.75 21.1914062,13.828125 21.1132812,13.90625 L21.1132812,13.90625 L21.171875,34.4726562 C21.09375,34.8242188 20.9570312,35.0976562 20.7617188,35.2929688 C20.5273438,35.5273438 20.2539062,35.6445312 19.9414062,35.6445312 L19.9414062,35.6445312 Z M19.5898438,34.765625 C19.6289062,34.765625 19.7167969,34.7363281 19.8535156,34.6777344 C19.9902344,34.6191406 20.078125,34.5507812 20.1171875,34.4726562 C20.15625,34.4335938 20.2148438,34.3359375 20.2929688,34.1796875 C20.3710938,34.1015625 20.390625,34.0039062 20.3515625,33.8867188 L20.3515625,33.8867188 L20.4101562,22.7539062 L20.4101562,14.4921875 C20.3710938,14.453125 20.3515625,14.4140625 20.3515625,14.375 L20.3515625,14.375 L20.234375,14.3164062 L4.82421875,14.3164062 L4.70703125,14.375 C4.70703125,14.4140625 4.6875,14.453125 4.6484375,14.4921875 L4.6484375,14.4921875 L4.6484375,22.7539062 L4.70703125,33.8867188 C4.66796875,34.0039062 4.6875,34.1015625 4.765625,34.1796875 C4.84375,34.3359375 4.90234375,34.4335938 4.94140625,34.4726562 C4.98046875,34.5507812 5.06835938,34.6191406 5.20507812,34.6777344 C5.34179688,34.7363281 5.4296875,34.765625 5.46875,34.765625 L5.46875,34.765625 L19.5898438,34.765625 Z M20,18.4179688 L5.05859375,18.4179688 L5.05859375,14.6679688 L20,14.6679688 L20,18.4179688 Z M13.5546875,17.2460938 C13.6328125,17.2460938 13.7402344,17.2167969 13.8769531,17.1582031 C14.0136719,17.0996094 14.1210938,17.03125 14.1992188,16.953125 C14.3554688,16.71875 14.4140625,16.5234375 14.375,16.3671875 C14.4140625,16.171875 14.3554688,15.9570312 14.1992188,15.7226562 C14.1210938,15.6445312 14.0136719,15.5859375 13.8769531,15.546875 C13.7402344,15.5078125 13.6328125,15.4882812 13.5546875,15.4882812 L13.5546875,15.4882812 L11.5039062,15.4882812 C11.4257812,15.4882812 11.328125,15.5078125 11.2109375,15.546875 C11.09375,15.5859375 10.9960938,15.6445312 10.9179688,15.7226562 C10.8398438,15.8007812 10.7714844,15.8984375 10.7128906,16.015625 C10.6542969,16.1328125 10.6445312,16.25 10.6835938,16.3671875 C10.6445312,16.484375 10.6542969,16.5917969 10.7128906,16.6894531 C10.7714844,16.7871094 10.8398438,16.875 10.9179688,16.953125 C11.0351562,17.1484375 11.2304688,17.2460938 11.5039062,17.2460938 L11.5039062,17.2460938 L13.5546875,17.2460938 Z M13.5546875,16.8359375 L11.5039062,16.8359375 C11.4648438,16.8359375 11.40625,16.8261719 11.328125,16.8066406 C11.25,16.7871094 11.2109375,16.7578125 11.2109375,16.71875 L11.2109375,16.71875 L11.09375,16.5429688 C11.015625,16.4648438 10.9960938,16.40625 11.0351562,16.3671875 C10.9960938,16.2890625 11.015625,16.2109375 11.09375,16.1328125 L11.09375,16.1328125 L11.2109375,16.015625 C11.2109375,15.9765625 11.25,15.9375 11.328125,15.8984375 C11.40625,15.859375 11.4648438,15.8398438 11.5039062,15.8398438 L11.5039062,15.8398438 L13.5546875,15.8398438 C13.671875,15.8398438 13.7890625,15.8984375 13.90625,16.015625 C13.90625,16.015625 13.9125,16.021875 13.925,16.034375 L14.0234375,16.1328125 C14.1015625,16.2109375 14.1015625,16.2890625 14.0234375,16.3671875 C14.1015625,16.40625 14.1015625,16.4648438 14.0234375,16.5429688 C13.9453125,16.6210938 13.90625,16.6796875 13.90625,16.71875 C13.828125,16.796875 13.7109375,16.8359375 13.5546875,16.8359375 L13.5546875,16.8359375 Z M20,22.578125 L5.05859375,22.578125 L5.05859375,18.828125 L20,18.828125 L20,22.578125 Z M19.5898438,34.3554688 L5.46875,34.3554688 C5.46875,34.3554688 5.4296875,34.3359375 5.3515625,34.296875 C5.2734375,34.296875 5.234375,34.2773438 5.234375,34.2382812 L5.234375,34.2382812 L5.1171875,34.0625 C5.078125,33.984375 5.078125,33.9257812 5.1171875,33.8867188 L5.1171875,33.8867188 L5.05859375,22.9296875 L20,22.9296875 L19.9414062,33.8867188 C20.0195312,33.9257812 20.0195312,33.984375 19.9414062,34.0625 C19.9023438,34.1015625 19.8828125,34.1601562 19.8828125,34.2382812 C19.84375,34.2773438 19.7851562,34.296875 19.7070312,34.296875 C19.6679688,34.3359375 19.6289062,34.3554688 19.5898438,34.3554688 L19.5898438,34.3554688 Z M12.5585938,28.2617188 C12.8320312,28.2617188 13.1152344,28.203125 13.4082031,28.0859375 C13.7011719,27.96875 13.9453125,27.8125 14.140625,27.6171875 C14.3359375,27.421875 14.4921875,27.1875 14.609375,26.9140625 C14.7265625,26.640625 14.765625,26.3476562 14.7265625,26.0351562 C14.765625,25.7226562 14.7265625,25.4296875 14.609375,25.15625 C14.4921875,24.8828125 14.3359375,24.6484375 14.140625,24.453125 C13.9453125,24.2578125 13.7011719,24.1015625 13.4082031,23.984375 C13.1152344,23.8671875 12.8320312,23.8085938 12.5585938,23.8085938 C11.9335938,23.8085938 11.40625,24.0234375 10.9765625,24.453125 C10.5859375,24.8046875 10.3515625,25.3320312 10.2734375,26.0351562 C10.3515625,26.7382812 10.5859375,27.265625 10.9765625,27.6171875 C11.40625,28.046875 11.9335938,28.2617188 12.5585938,28.2617188 Z M12.5,27.8515625 C12.3046875,27.8515625 12.0800781,27.8027344 11.8261719,27.7050781 C11.5722656,27.6074219 11.3867188,27.4804688 11.2695312,27.3242188 C11.1132812,27.1679688 10.9765625,26.9824219 10.859375,26.7675781 C10.7421875,26.5527344 10.703125,26.3085938 10.7421875,26.0351562 C10.703125,25.8007812 10.7421875,25.5664062 10.859375,25.3320312 C10.9765625,25.0976562 11.1132812,24.9023438 11.2695312,24.7460938 C11.3867188,24.5898438 11.5722656,24.4628906 11.8261719,24.3652344 C12.0800781,24.2675781 12.3046875,24.21875 12.5,24.21875 C12.96875,24.21875 13.4179688,24.3945312 13.8476562,24.7460938 C14.0429688,24.9023438 14.1699219,25.0976562 14.2285156,25.3320312 C14.2871094,25.5664062 14.3359375,25.8007812 14.375,26.0351562 C14.296875,26.6601562 14.1210938,27.0898438 13.8476562,27.3242188 C13.4179688,27.6757812 12.96875,27.8515625 12.5,27.8515625 Z M12.5585938,32.65625 C12.8320312,32.65625 13.0273438,32.5585938 13.1445312,32.3632812 C13.1835938,32.3242188 13.2421875,32.2265625 13.3203125,32.0703125 C13.3984375,31.9921875 13.4179688,31.8945312 13.3789062,31.7773438 C13.4179688,31.6992188 13.3984375,31.5820312 13.3203125,31.4257812 L13.3203125,31.4257812 L13.1445312,31.1914062 C13.0273438,30.9960938 12.8320312,30.8984375 12.5585938,30.8984375 C12.3632812,30.8984375 12.1679688,30.9960938 11.9726562,31.1914062 C11.8164062,31.3085938 11.6992188,31.5039062 11.6210938,31.7773438 C11.6992188,32.0507812 11.8164062,32.2460938 11.9726562,32.3632812 C12.1679688,32.5585938 12.3632812,32.65625 12.5585938,32.65625 Z M12.5,32.2460938 C12.4609375,32.2460938 12.4023438,32.2363281 12.3242188,32.2167969 C12.2460938,32.1972656 12.2070312,32.1679688 12.2070312,32.1289062 L12.2070312,32.1289062 L12.0898438,31.953125 C12.0507812,31.875 12.0507812,31.8164062 12.0898438,31.7773438 C12.0117188,31.6992188 12.0117188,31.6210938 12.0898438,31.5429688 L12.0898438,31.5429688 L12.2070312,31.4257812 C12.2070312,31.3867188 12.2460938,31.3574219 12.3242188,31.3378906 C12.4023438,31.3183594 12.4609375,31.3085938 12.5,31.3085938 L12.5,31.3085938 L12.734375,31.3085938 C12.7734375,31.3476562 12.8222656,31.3769531 12.8808594,31.3964844 C12.9394531,31.4160156 12.96875,31.4648438 12.96875,31.5429688 C12.96875,31.6601562 12.9882812,31.7382812 13.0273438,31.7773438 C12.9882812,31.8164062 12.96875,31.875 12.96875,31.953125 C12.96875,32.03125 12.9492188,32.0898438 12.9101562,32.1289062 C12.8320312,32.1679688 12.7734375,32.1972656 12.734375,32.2167969 C12.6953125,32.2363281 12.6171875,32.2460938 12.5,32.2460938 Z M12.5,45.078125 C11.9140625,45.078125 11.328125,45.0585938 10.7421875,45.0195312 C10.15625,44.9804688 9.62890625,44.921875 9.16015625,44.84375 C8.80859375,44.765625 8.45703125,44.6777344 8.10546875,44.5800781 C7.75390625,44.4824219 7.421875,44.3945312 7.109375,44.3164062 C7.265625,44.2773438 7.44140625,44.2480469 7.63671875,44.2285156 C7.83203125,44.2089844 8.046875,44.1601562 8.28125,44.0820312 C8.828125,44.0039062 9.46289062,43.9355469 10.1855469,43.8769531 C10.9082031,43.8183594 11.6992188,43.7890625 12.5585938,43.7890625 C13.3398438,43.7890625 14.1113281,43.8183594 14.8730469,43.8769531 C15.6347656,43.9355469 16.2695312,44.0039062 16.7773438,44.0820312 C17.0117188,44.1601562 17.2167969,44.2089844 17.3925781,44.2285156 C17.5683594,44.2480469 17.7539062,44.2773438 17.9492188,44.3164062 C17.6367188,44.3945312 17.3144531,44.4824219 16.9824219,44.5800781 C16.6503906,44.6777344 16.2890625,44.765625 15.8984375,44.84375 C15.390625,44.921875 14.8632812,44.9804688 14.3164062,45.0195312 C13.7695312,45.0585938 13.1640625,45.078125 12.5,45.078125 Z" id="35" fill="currentColor" fill-rule="nonzero"></path>
    </g>
</svg>