<?xml version="1.0" encoding="UTF-8"?>
<svg width="26px" height="46px" viewBox="0 0 26 46" version="1.1" xmlns="http://www.w3.org/2000/svg" xmlns:xlink="http://www.w3.org/1999/xlink">
    <title>68</title>
    <g id="Page-1" stroke="none" stroke-width="1" fill="none" fill-rule="evenodd">
        <path d="M25.6289062,45.8359375 C25.7460938,45.8359375 25.8046875,45.796875 25.8046875,45.71875 L25.8046875,45.71875 L25.8046875,4.99609375 C25.8046875,4.83984375 25.7460938,4.76171875 25.6289062,4.76171875 L25.6289062,4.76171875 L20.2382812,4.29296875 L20.2382812,1.3046875 C20.2382812,1.1875 20.1992188,1.12890625 20.1210938,1.12890625 C20.0820312,1.08984375 19.2910156,0.953125 17.7480469,0.71875 C16.2050781,0.484375 13.7929688,0.3671875 10.5117188,0.3671875 C7.30859375,0.3671875 4.92578125,0.484375 3.36328125,0.71875 C1.80078125,0.953125 1.01953125,1.08984375 1.01953125,1.12890625 C0.90234375,1.12890625 0.84375,1.1875 0.84375,1.3046875 L0.84375,1.3046875 L0.84375,45.71875 C0.84375,45.796875 0.90234375,45.8359375 1.01953125,45.8359375 L1.01953125,45.8359375 L25.6289062,45.8359375 Z M19.8867188,7.45703125 L1.1953125,7.45703125 L1.1953125,1.48046875 C1.5078125,1.40234375 2.43554688,1.25585938 3.97851562,1.04101562 C5.52148438,0.826171875 7.69921875,0.71875 10.5117188,0.71875 C13.3242188,0.71875 15.5019531,0.826171875 17.0449219,1.04101562 C18.5878906,1.25585938 19.5351562,1.40234375 19.8867188,1.48046875 L19.8867188,1.48046875 L19.8867188,7.45703125 Z M10.921875,6.4609375 C11.625,6.4609375 12.0351562,6.12890625 12.1523438,5.46484375 L12.1523438,5.46484375 L15.3164062,5.46484375 C15.4726562,5.46484375 15.5507812,5.40625 15.5507812,5.2890625 L15.5507812,5.2890625 L15.5507812,4.29296875 C15.5507812,4.17578125 15.4726562,4.1171875 15.3164062,4.1171875 L15.3164062,4.1171875 L12.1523438,4.1171875 C12.0742188,3.8046875 11.9277344,3.55078125 11.7128906,3.35546875 C11.4980469,3.16015625 11.234375,3.0625 10.921875,3.0625 L10.921875,3.0625 L10.21875,3.0625 C9.90625,3.0625 9.65234375,3.16015625 9.45703125,3.35546875 C9.26171875,3.55078125 9.14453125,3.8046875 9.10546875,4.1171875 L9.10546875,4.1171875 L5.82421875,4.1171875 C5.70703125,4.1171875 5.6484375,4.17578125 5.6484375,4.29296875 L5.6484375,4.29296875 L5.6484375,5.2890625 C5.6484375,5.40625 5.70703125,5.46484375 5.82421875,5.46484375 L5.82421875,5.46484375 L9.10546875,5.46484375 C9.18359375,6.12890625 9.5546875,6.4609375 10.21875,6.4609375 L10.21875,6.4609375 L10.921875,6.4609375 Z M10.921875,6.109375 L10.21875,6.109375 C9.7109375,6.109375 9.45703125,5.8359375 9.45703125,5.2890625 C9.45703125,5.171875 9.3984375,5.11328125 9.28125,5.11328125 L9.28125,5.11328125 L6,5.11328125 L6,4.46875 L9.28125,4.46875 C9.3984375,4.46875 9.45703125,4.41015625 9.45703125,4.29296875 C9.45703125,3.74609375 9.7109375,3.47265625 10.21875,3.47265625 L10.21875,3.47265625 L10.921875,3.47265625 C11.15625,3.47265625 11.3613281,3.55078125 11.5371094,3.70703125 C11.7128906,3.86328125 11.8007812,4.05859375 11.8007812,4.29296875 C11.8007812,4.41015625 11.859375,4.46875 11.9765625,4.46875 L11.9765625,4.46875 L15.1992188,4.46875 L15.1992188,5.11328125 L11.9765625,5.11328125 C11.859375,5.11328125 11.8007812,5.171875 11.8007812,5.2890625 C11.8007812,5.5234375 11.7128906,5.71875 11.5371094,5.875 C11.3613281,6.03125 11.15625,6.109375 10.921875,6.109375 L10.921875,6.109375 Z M25.3945312,45.5429688 L20.2382812,45.5429688 L20.2382812,4.5859375 L25.3945312,5.11328125 L25.3945312,45.5429688 Z M19.8867188,13.7851562 L1.1953125,13.7851562 L1.1953125,7.80859375 L19.8867188,7.80859375 L19.8867188,13.7851562 Z M16.8984375,10.9726562 C17.015625,10.9726562 17.0742188,10.8945312 17.0742188,10.7382812 L17.0742188,10.7382812 L17.0742188,9.2734375 C17.0742188,9.1171875 17.015625,9.0390625 16.8984375,9.0390625 L16.8984375,9.0390625 L4.18359375,9.0390625 C4.10546875,9.0390625 4.06640625,9.09765625 4.06640625,9.21484375 L4.06640625,9.21484375 L4.06640625,10.7382812 C4.06640625,10.8945312 4.10546875,10.9726562 4.18359375,10.9726562 C4.18359375,10.9726562 4.203125,10.953125 4.2421875,10.9140625 L4.2421875,10.9140625 L4.30078125,10.9726562 L16.8984375,10.9726562 Z M16.6640625,10.5625 L4.359375,10.5625 L4.359375,9.390625 L16.6640625,9.390625 L16.6640625,10.5625 Z M19.8867188,19.8789062 L1.1953125,19.8789062 L1.1953125,14.1367188 L19.8867188,14.1367188 L19.8867188,19.8789062 Z M15.0820312,17.359375 C15.1992188,17.359375 15.2578125,17.3007812 15.2578125,17.1835938 L15.2578125,17.1835938 L15.2578125,16.0703125 C15.2578125,15.953125 15.1992188,15.8945312 15.0820312,15.8945312 L15.0820312,15.8945312 L6.05859375,15.8945312 C5.94140625,15.8945312 5.8828125,15.953125 5.8828125,16.0703125 L5.8828125,16.0703125 L5.8828125,17.1835938 C5.8828125,17.3007812 5.94140625,17.359375 6.05859375,17.359375 L6.05859375,17.359375 L15.0820312,17.359375 Z M14.8476562,16.9492188 L6.234375,16.9492188 L6.234375,16.2460938 L14.8476562,16.2460938 L14.8476562,16.9492188 Z M19.8867188,27.1445312 L1.1953125,27.1445312 L1.1953125,20.2890625 L19.8867188,20.2890625 L19.8867188,27.1445312 Z M19.8867188,45.5429688 L1.1953125,45.5429688 L1.1953125,27.4960938 L19.8867188,27.4960938 L19.8867188,45.5429688 Z M10.5117188,31.65625 C11.1757812,31.65625 11.5078125,31.34375 11.5078125,30.71875 C11.5078125,30.4453125 11.4199219,30.2109375 11.2441406,30.015625 C11.0683594,29.8203125 10.8242188,29.7226562 10.5117188,29.7226562 C10.2773438,29.7226562 10.0527344,29.8203125 9.83789062,30.015625 C9.62304688,30.2109375 9.515625,30.4453125 9.515625,30.71875 C9.515625,30.9921875 9.62304688,31.2167969 9.83789062,31.3925781 C10.0527344,31.5683594 10.2773438,31.65625 10.5117188,31.65625 Z M10.5117188,31.3632812 C10.1601562,31.3632812 9.984375,31.1484375 9.984375,30.71875 C9.984375,30.328125 10.1601562,30.1328125 10.5117188,30.1328125 C10.9414062,30.1328125 11.15625,30.328125 11.15625,30.71875 C11.15625,31.1484375 10.9414062,31.3632812 10.5117188,31.3632812 Z M10.5117188,35.640625 C11.3710938,35.640625 11.9960938,35.5039062 12.3867188,35.2304688 C12.7773438,34.9570312 12.9921875,34.8007812 13.03125,34.7617188 C13.0703125,34.7617188 13.0898438,34.7226562 13.0898438,34.6445312 L13.0898438,34.6445312 L13.0898438,33.1210938 C13.0898438,33.0820312 13.0703125,33.0234375 13.03125,32.9453125 L13.03125,32.9453125 L12.9726562,32.8867188 L8.16796875,32.8867188 C8.05078125,32.8867188 7.9921875,32.9648438 7.9921875,33.1210938 L7.9921875,33.1210938 L7.9921875,34.6445312 C7.9921875,34.7226562 8.01171875,34.7617188 8.05078125,34.7617188 C8.05078125,34.8007812 8.265625,34.9570312 8.6953125,35.2304688 C9.125,35.5039062 9.73046875,35.640625 10.5117188,35.640625 Z M10.5117188,35.2890625 C9.88671875,35.2890625 9.38867188,35.1914062 9.01757812,34.9960938 C8.64648438,34.8007812 8.421875,34.6640625 8.34375,34.5859375 L8.34375,34.5859375 L8.34375,33.296875 L12.7382812,33.296875 L12.7382812,34.5859375 C12.6601562,34.6640625 12.4355469,34.8007812 12.0644531,34.9960938 C11.6933594,35.1914062 11.1757812,35.2890625 10.5117188,35.2890625 Z" id="68" fill="currentColor" fill-rule="nonzero"></path>
    </g>
</svg>