<?xml version="1.0" encoding="UTF-8"?>
<svg width="33px" height="27px" viewBox="0 0 33 27" version="1.1" xmlns="http://www.w3.org/2000/svg" xmlns:xlink="http://www.w3.org/1999/xlink">
    <title>54</title>
    <g id="Page-1" stroke="none" stroke-width="1" fill="none" fill-rule="evenodd">
        <path d="M31.3828125,26.8359375 C31.4609375,26.8359375 31.5390625,26.796875 31.6171875,26.71875 C31.734375,26.71875 31.7929688,26.6796875 31.7929688,26.6015625 C31.8710938,26.5625 31.9492188,26.4453125 32.0273438,26.25 C32.1054688,25.9375 32.1445312,25.625 32.1445312,25.3125 L32.1445312,25.3125 L32.1445312,24.609375 C32.1445312,24.0234375 31.9101562,23.3984375 31.4414062,22.734375 C31.2070312,22.421875 30.9628906,22.1484375 30.7089844,21.9140625 C30.4550781,21.6796875 30.2304688,21.4648438 30.0351562,21.2695312 C29.9960938,21.2695312 29.9765625,21.25 29.9765625,21.2109375 C29.9375,21.171875 29.9179688,21.1328125 29.9179688,21.09375 C29.8789062,21.09375 29.8496094,21.0839844 29.8300781,21.0644531 C29.8105469,21.0449219 29.78125,21.0351562 29.7421875,21.0351562 C29.703125,20.9960938 29.6738281,20.9570312 29.6542969,20.9179688 C29.6347656,20.8789062 29.6054688,20.8398438 29.5664062,20.8007812 L29.5664062,20.8007812 L28.1015625,19.3359375 C27.7890625,19.1015625 27.5351562,18.9648438 27.3398438,18.9257812 L27.3398438,18.9257812 L27.1640625,18.9257812 C27.359375,18.8476562 27.4960938,18.7695312 27.5742188,18.6914062 C27.6914062,18.6132812 27.75,18.5546875 27.75,18.515625 L27.75,18.515625 L27.75,18.4570312 C27.75,18.4179688 27.7695312,18.3789062 27.8085938,18.3398438 C27.8476562,18.3007812 27.90625,18.1640625 27.984375,17.9296875 C28.1015625,17.578125 28.1601562,17.0703125 28.1601562,16.40625 L28.1601562,16.40625 L28.1601562,15.234375 C28.1210938,15 28.0917969,14.7460938 28.0722656,14.4726563 C28.0527344,14.1992188 28.0429688,13.9257812 28.0429688,13.6523438 C28.0039062,13.3398438 27.9746094,13.0078125 27.9550781,12.65625 C27.9355469,12.3046875 27.9257812,11.953125 27.9257812,11.6015625 L27.9257812,11.6015625 L27.9257812,10.546875 C27.8867188,10.3515625 27.8671875,10.0585938 27.8671875,9.66796875 C27.8671875,9.27734375 27.8867188,8.984375 27.9257812,8.7890625 L27.9257812,8.7890625 L27.9257812,7.44140625 C27.9257812,7.28515625 27.9453125,7.12890625 27.984375,6.97265625 C27.984375,6.66015625 27.9941406,6.3671875 28.0136719,6.09375 C28.0332031,5.8203125 28.0625,5.56640625 28.1015625,5.33203125 C28.1015625,5.13671875 28.1113281,4.93164062 28.1308594,4.71679688 C28.1503906,4.50195312 28.1601562,4.296875 28.1601562,4.1015625 L28.1601562,4.1015625 L28.1601562,2.63671875 C28.1601562,2.40234375 28.1503906,2.17773438 28.1308594,1.96289063 C28.1113281,1.74804688 28.0820312,1.54296875 28.0429688,1.34765625 C28.0039062,1.15234375 27.9453125,0.986328125 27.8671875,0.849609375 C27.7890625,0.712890625 27.59375,0.5859375 27.28125,0.46875 C27.0078125,0.4296875 26.4609375,0.37109375 25.640625,0.29296875 C25.2109375,0.25390625 24.7226562,0.234375 24.1757812,0.234375 L24.1757812,0.234375 L15.522441,0.234972895 C13.6211336,0.237364477 12.0426897,0.246930804 10.7871094,0.263671875 C9.32226562,0.283203125 8.19921875,0.3125 7.41796875,0.3515625 C6.55859375,0.4296875 5.9921875,0.48828125 5.71875,0.52734375 C5.40625,0.60546875 5.2109375,0.703125 5.1328125,0.8203125 C5.0546875,0.9375 4.99609375,1.09375 4.95703125,1.2890625 C4.91796875,1.484375 4.88867188,1.68945312 4.86914062,1.90429688 C4.84960938,2.11914062 4.83984375,2.34375 4.83984375,2.578125 L4.83984375,2.578125 L4.83984375,4.1015625 C4.83984375,4.296875 4.84960938,4.50195312 4.86914062,4.71679688 C4.88867188,4.93164062 4.91796875,5.13671875 4.95703125,5.33203125 C4.95703125,5.56640625 4.96679688,5.8203125 4.98632812,6.09375 C5.00585938,6.3671875 5.03515625,6.66015625 5.07421875,6.97265625 L5.07421875,6.97265625 L5.07421875,7.44140625 C5.07421875,7.59765625 5.09375,7.75390625 5.1328125,7.91015625 L5.1328125,7.91015625 L5.1328125,11.5429688 C5.09375,11.7382812 5.07421875,11.9140625 5.07421875,12.0703125 L5.07421875,12.0703125 L5.07421875,12.5976562 C5.03515625,12.7929688 5.015625,12.9785156 5.015625,13.1542969 C5.015625,13.3300781 4.99609375,13.4960938 4.95703125,13.6523438 C4.95703125,13.9257812 4.94726562,14.1992188 4.92773438,14.4726563 C4.90820312,14.7460938 4.8984375,15 4.8984375,15.234375 C4.859375,15.390625 4.83984375,15.6054688 4.83984375,15.8789062 L4.83984375,15.8789062 L4.83984375,16.40625 C4.83984375,16.8359375 4.859375,17.1289062 4.8984375,17.2851562 C4.9375,17.5585938 4.98632812,17.7832031 5.04492188,17.9589844 C5.10351562,18.1347656 5.15234375,18.2617188 5.19140625,18.3398438 C5.23046875,18.3789062 5.25,18.4179688 5.25,18.4570312 C5.25,18.5351562 5.30859375,18.6132812 5.42578125,18.6914062 C5.50390625,18.7304688 5.59179688,18.7695312 5.68945312,18.8085938 C5.78710938,18.8476562 5.9140625,18.8867188 6.0703125,18.9257812 L6.0703125,18.9257812 L5.66015625,18.9257812 C5.58203125,18.9648438 5.5234375,18.984375 5.484375,18.984375 C5.4453125,18.984375 5.38671875,19.0039062 5.30859375,19.0429688 C5.07421875,19.1601562 4.83984375,19.3359375 4.60546875,19.5703125 L4.60546875,19.5703125 L4.37109375,19.8046875 C4.29296875,19.8828125 4.21484375,19.9609375 4.13671875,20.0390625 L4.13671875,20.0390625 L3.9609375,20.2734375 C3.921875,20.3125 3.89257812,20.3515625 3.87304688,20.390625 C3.85351562,20.4296875 3.82421875,20.46875 3.78515625,20.5078125 L3.78515625,20.5078125 L3.55078125,20.7421875 C3.43359375,20.8203125 3.3359375,20.9179688 3.2578125,21.0351562 C3.1796875,21.0351562 3.140625,21.0742188 3.140625,21.1523438 C3.0625,21.2304688 3.00390625,21.2695312 2.96484375,21.2695312 C2.76953125,21.4648438 2.54492188,21.6796875 2.29101562,21.9140625 C2.03710938,22.1484375 1.8125,22.421875 1.6171875,22.734375 C1.109375,23.359375 0.85546875,23.984375 0.85546875,24.609375 L0.85546875,24.609375 L0.85546875,25.3125 C0.85546875,25.546875 0.875,25.7226562 0.9140625,25.8398438 C0.9140625,26.1914062 1.01171875,26.4453125 1.20703125,26.6015625 C1.20703125,26.6796875 1.265625,26.71875 1.3828125,26.71875 C1.4609375,26.796875 1.55859375,26.8359375 1.67578125,26.8359375 L1.67578125,26.8359375 L31.3828125,26.8359375 Z M23.2382812,18.9257812 L9.76171875,18.9257812 C9.29296875,18.9257812 8.87304688,18.9160156 8.50195312,18.8964844 C8.13085938,18.8769531 7.80859375,18.8476562 7.53515625,18.8085938 L7.53515625,18.8085938 L6.3046875,18.6328125 C6.03125,18.5546875 5.8359375,18.4765625 5.71875,18.3984375 C5.6796875,18.359375 5.640625,18.3398438 5.6015625,18.3398438 C5.6015625,18.3398438 5.58203125,18.3007812 5.54296875,18.2226562 C5.54296875,18.2226562 5.50390625,18.1054688 5.42578125,17.8710938 C5.26953125,17.4804688 5.19140625,16.9921875 5.19140625,16.40625 C5.19140625,16.171875 5.2109375,15.9960938 5.25,15.8789062 L5.25,15.8789062 L5.25,15.234375 C5.25,14.921875 5.26953125,14.6679688 5.30859375,14.4726562 C5.30859375,14.2382812 5.31835938,13.9648438 5.33789062,13.6523438 C5.35742188,13.3398438 5.38671875,13.0078125 5.42578125,12.65625 L5.42578125,12.65625 L5.42578125,12.1289062 C5.42578125,11.9726562 5.4453125,11.796875 5.484375,11.6015625 L5.484375,11.6015625 L5.484375,11.0742188 C5.484375,10.9179688 5.50390625,10.7421875 5.54296875,10.546875 L5.54296875,10.546875 L5.54296875,9.66796875 C5.54296875,9.39453125 5.53320312,9.1015625 5.51367188,8.7890625 C5.49414062,8.4765625 5.484375,8.1640625 5.484375,7.8515625 C5.4453125,7.5390625 5.41601562,7.23632812 5.39648438,6.94335938 C5.37695312,6.65039062 5.3671875,6.34765625 5.3671875,6.03515625 C5.328125,5.80078125 5.29882812,5.56640625 5.27929688,5.33203125 C5.25976562,5.09765625 5.25,4.8828125 5.25,4.6875 L5.25,4.6875 L5.25,4.1015625 C5.2109375,3.984375 5.19140625,3.80859375 5.19140625,3.57421875 L5.19140625,3.57421875 L5.19140625,3.45703125 C5.19140625,3.06640625 5.2109375,2.79296875 5.25,2.63671875 L5.25,2.63671875 L5.25,1.9921875 C5.25,1.6015625 5.328125,1.26953125 5.484375,0.99609375 C5.6015625,0.87890625 5.9140625,0.80078125 6.421875,0.76171875 C6.6953125,0.72265625 7.01757812,0.703125 7.38867188,0.703125 C7.75976562,0.703125 8.19921875,0.68359375 8.70703125,0.64453125 C9.64453125,0.64453125 10.7675781,0.634765625 12.0761719,0.615234375 C13.3847656,0.595703125 14.859375,0.5859375 16.5,0.5859375 L16.5,0.5859375 L21.0117188,0.5859375 C22.3398438,0.5859375 23.4726562,0.60546875 24.4101562,0.64453125 C25.3476562,0.68359375 26.0898438,0.72265625 26.6367188,0.76171875 C27.1835938,0.83984375 27.4765625,0.91796875 27.515625,0.99609375 L27.515625,0.99609375 L27.6914062,1.46484375 C27.7695312,1.85546875 27.8085938,2.265625 27.8085938,2.6953125 L27.8085938,2.6953125 L27.8085938,4.1015625 C27.7695312,4.21875 27.75,4.4140625 27.75,4.6875 L27.75,4.6875 L27.75,5.33203125 C27.7109375,5.56640625 27.6816406,5.8203125 27.6621094,6.09375 C27.6425781,6.3671875 27.6328125,6.66015625 27.6328125,6.97265625 C27.59375,7.16796875 27.5742188,7.4609375 27.5742188,7.8515625 C27.5351562,8.0078125 27.515625,8.1640625 27.515625,8.3203125 L27.515625,8.3203125 L27.515625,10.546875 C27.515625,10.8984375 27.5253906,11.25 27.5449219,11.6015625 C27.5644531,11.953125 27.59375,12.3046875 27.6328125,12.65625 C27.6328125,13.0078125 27.6425781,13.3398438 27.6621094,13.6523438 C27.6816406,13.9648438 27.7109375,14.2382812 27.75,14.4726562 L27.75,14.4726562 L27.75,15.234375 C27.75,15.546875 27.7695312,15.7617188 27.8085938,15.8789062 L27.8085938,15.8789062 L27.8085938,16.40625 C27.8085938,16.796875 27.7890625,17.0703125 27.75,17.2265625 C27.7109375,17.5 27.6621094,17.7148438 27.6035156,17.8710938 C27.5449219,18.0273438 27.4960938,18.1445312 27.4570312,18.2226562 C27.4179688,18.2617188 27.3984375,18.3007812 27.3984375,18.3398438 C27.3984375,18.3398438 27.359375,18.359375 27.28125,18.3984375 C27.1640625,18.515625 26.9882812,18.59375 26.7539062,18.6328125 C26.5195312,18.671875 26.0898438,18.7304688 25.4648438,18.8085938 C25.1914062,18.8476562 24.8691406,18.8769531 24.4980469,18.8964844 C24.1269531,18.9160156 23.7070312,18.9257812 23.2382812,18.9257812 L23.2382812,18.9257812 Z M16.5,2.51953125 C16.7734375,2.51953125 16.9882812,2.44140625 17.1445312,2.28515625 C17.3007812,2.12890625 17.3789062,1.93359375 17.3789062,1.69921875 C17.3789062,1.42578125 17.3007812,1.2109375 17.1445312,1.0546875 C16.9882812,0.8984375 16.7734375,0.8203125 16.5,0.8203125 C16.265625,0.8203125 16.0703125,0.8984375 15.9140625,1.0546875 C15.71875,1.25 15.6210938,1.46484375 15.6210938,1.69921875 C15.6210938,1.89453125 15.71875,2.08984375 15.9140625,2.28515625 C16.0703125,2.44140625 16.265625,2.51953125 16.5,2.51953125 Z M16.5,2.16796875 C16.34375,2.16796875 16.2265625,2.109375 16.1484375,1.9921875 C16.0703125,1.8359375 16.03125,1.73828125 16.03125,1.69921875 C16.03125,1.54296875 16.0703125,1.42578125 16.1484375,1.34765625 C16.265625,1.23046875 16.3828125,1.171875 16.5,1.171875 C16.6171875,1.171875 16.734375,1.23046875 16.8515625,1.34765625 C16.9296875,1.42578125 16.96875,1.54296875 16.96875,1.69921875 C16.96875,1.73828125 16.9296875,1.8359375 16.8515625,1.9921875 C16.8125,2.109375 16.6953125,2.16796875 16.5,2.16796875 Z M26.7539062,17.9296875 C26.7539062,17.9296875 26.7734375,17.890625 26.8125,17.8125 L26.8125,17.8125 L26.8125,2.75390625 C26.7734375,2.75390625 26.7441406,2.74414062 26.7246094,2.72460938 L26.7018229,2.70833333 C26.6844618,2.69965278 26.6627604,2.6953125 26.6367188,2.6953125 L26.6367188,2.6953125 L6.36328125,2.6953125 L6.24609375,2.75390625 L6.24609375,2.8125 L6.1875,2.87109375 L6.1875,17.7539062 C6.1875,17.7929688 6.20703125,17.8125 6.24609375,17.8125 L6.24609375,17.8125 L6.24609375,17.8710938 C6.24609375,17.9101562 6.265625,17.9296875 6.3046875,17.9296875 L6.3046875,17.9296875 L26.7539062,17.9296875 Z M26.4609375,17.578125 L6.5390625,17.578125 L6.5390625,3.10546875 L26.4609375,3.10546875 L26.4609375,17.578125 Z M31.5,26.4257812 L1.55859375,26.4257812 C1.51953125,26.4257812 1.5,26.40625 1.5,26.3671875 L1.5,26.3671875 L1.44140625,26.3671875 C1.40234375,26.328125 1.3828125,26.2890625 1.3828125,26.25 C1.3828125,26.2109375 1.36328125,26.1523438 1.32421875,26.0742188 C1.24609375,25.7617188 1.20703125,25.46875 1.20703125,25.1953125 L1.20703125,25.1953125 L1.20703125,24.609375 C1.20703125,24.296875 1.28515625,24.0039062 1.44140625,23.7304688 C1.55859375,23.4179688 1.72460938,23.1445312 1.93945312,22.9101562 C2.15429688,22.6757812 2.37890625,22.4414062 2.61328125,22.2070312 L2.61328125,22.2070312 L3.19921875,21.5625 L3.375,21.3867188 C3.453125,21.3867188 3.4921875,21.3476562 3.4921875,21.2695312 C3.609375,21.1914062 3.70703125,21.09375 3.78515625,20.9765625 L3.78515625,20.9765625 L5.19140625,19.5703125 C5.34765625,19.4140625 5.5234375,19.3359375 5.71875,19.3359375 L5.71875,19.3359375 L27.28125,19.3359375 C27.359375,19.375 27.4179688,19.3945312 27.4570312,19.3945312 C27.4960938,19.3945312 27.5546875,19.4140625 27.6328125,19.453125 C27.7109375,19.53125 27.7988281,19.609375 27.8964844,19.6875 C27.9941406,19.765625 28.1210938,19.8632812 28.2773438,19.9804688 C28.3554688,20.0976562 28.4921875,20.2539062 28.6875,20.4492188 L28.6875,20.4492188 L28.8632812,20.625 C28.9023438,20.6640625 28.9414062,20.6933594 28.9804688,20.7128906 C29.0195312,20.7324219 29.0585938,20.7617188 29.0976562,20.8007812 L29.0976562,20.8007812 L29.5078125,21.2695312 C29.5078125,21.3476562 29.546875,21.3867188 29.625,21.3867188 C29.6640625,21.4257812 29.703125,21.4453125 29.7421875,21.4453125 C29.7421875,21.484375 29.7617188,21.5234375 29.8007812,21.5625 C29.8789062,21.640625 29.9667969,21.7382812 30.0644531,21.8554688 C30.1621094,21.9726562 30.2695312,22.0898438 30.3867188,22.2070312 L30.3867188,22.2070312 L31.0898438,22.9101562 C31.5585938,23.4960938 31.7929688,24.0625 31.7929688,24.609375 L31.7929688,24.609375 L31.7929688,25.6640625 C31.7539062,25.8203125 31.7148438,25.9570312 31.6757812,26.0742188 C31.6367188,26.1914062 31.5976562,26.2890625 31.5585938,26.3671875 L31.5585938,26.3671875 L31.5,26.4257812 Z M17.7304688,24.0234375 C17.9648438,24.0234375 18.140625,24.0039062 18.2578125,23.9648438 C18.4140625,23.9257812 18.5507812,23.8769531 18.6679688,23.8183594 C18.7851562,23.7597656 18.9023438,23.6914062 19.0195312,23.6132812 C19.1367188,23.5351562 19.234375,23.4179688 19.3125,23.2617188 C19.3125,23.2226562 19.3320312,23.1835938 19.3710938,23.1445312 L19.3710938,23.1445312 L19.3710938,23.0273438 C19.3710938,22.9882812 19.3613281,22.9394531 19.3417969,22.8808594 C19.3222656,22.8222656 19.3125,22.7734375 19.3125,22.734375 L19.3125,22.734375 L19.078125,22.5 C19.0390625,22.5 19.0195312,22.4804688 19.0195312,22.4414062 L19.0195312,22.4414062 L18.84375,22.265625 C18.765625,22.265625 18.7070312,22.2070312 18.6679688,22.0898438 L18.6679688,22.0898438 L18.6679688,22.03125 L29.15625,22.03125 L29.2148438,21.9726562 L29.2734375,21.9726562 L29.2734375,21.9140625 L29.3320312,21.9140625 L29.3320312,21.7382812 C29.2929688,21.7382812 29.2734375,21.71875 29.2734375,21.6796875 L29.2734375,21.6796875 L27.4570312,19.6875 L27.3984375,19.6289062 L5.6015625,19.6289062 C5.6015625,19.6679688 5.58203125,19.6875 5.54296875,19.6875 L5.54296875,19.6875 L3.66796875,21.6796875 L3.609375,21.7382812 L3.609375,21.9140625 C3.609375,21.9140625 3.6484375,21.9335938 3.7265625,21.9726562 L3.7265625,21.9726562 L3.78515625,21.9726562 L3.78515625,22.03125 L14.390625,22.03125 L14.2734375,22.1484375 C14.2734375,22.2265625 14.234375,22.265625 14.15625,22.265625 L14.15625,22.265625 L14.0976562,22.3242188 L13.921875,22.5 C13.8046875,22.6171875 13.7460938,22.6953125 13.7460938,22.734375 C13.6679688,22.8125 13.6289062,22.9101562 13.6289062,23.0273438 C13.6289062,23.0664062 13.6484375,23.1054688 13.6875,23.1445312 C13.6875,23.1835938 13.7070312,23.2226562 13.7460938,23.2617188 C13.7460938,23.3398438 13.765625,23.3984375 13.8046875,23.4375 C13.84375,23.515625 13.9121094,23.5742188 14.0097656,23.6132812 C14.1074219,23.6523438 14.2148438,23.7109375 14.3320312,23.7890625 C14.6445312,23.9453125 14.9570312,24.0234375 15.2695312,24.0234375 L15.2695312,24.0234375 L17.7304688,24.0234375 Z M28.6875,21.6210938 L4.25390625,21.6210938 L5.77734375,19.9804688 L27.2226562,19.9804688 L28.6875,21.6210938 Z M17.7304688,23.671875 L15.2695312,23.671875 C15.1132812,23.671875 14.9765625,23.6523438 14.859375,23.6132812 C14.7421875,23.5742188 14.6445312,23.5351562 14.5664062,23.4960938 C14.4492188,23.4570312 14.3515625,23.4082031 14.2734375,23.3496094 C14.1953125,23.2910156 14.1367188,23.2421875 14.0976562,23.203125 C14.0585938,23.1640625 14.0390625,23.125 14.0390625,23.0859375 L14.0390625,23.0859375 L13.9804688,23.0273438 C14.0195312,22.9882812 14.0390625,22.9492188 14.0390625,22.9101562 C14.0390625,22.8710938 14.078125,22.8125 14.15625,22.734375 L14.15625,22.734375 L14.2148438,22.734375 L14.3320312,22.6171875 C14.3710938,22.6171875 14.4101562,22.5976562 14.4492188,22.5585938 C14.4492188,22.5195312 14.46875,22.4804688 14.5078125,22.4414062 C14.546875,22.4414062 14.5859375,22.421875 14.625,22.3828125 L14.625,22.3828125 L14.625,22.265625 C14.6640625,22.265625 14.703125,22.2460938 14.7421875,22.2070312 C14.7421875,22.0898438 14.8203125,22.03125 14.9765625,22.03125 L14.9765625,22.03125 L18.0820312,22.03125 C18.1210938,22.03125 18.1601562,22.0507812 18.1992188,22.0898438 L18.1992188,22.0898438 L18.3164062,22.2070312 C18.3554688,22.2460938 18.375,22.2851562 18.375,22.3242188 L18.375,22.3242188 L18.4921875,22.5 C18.5703125,22.578125 18.6289062,22.6171875 18.6679688,22.6171875 L18.6679688,22.6171875 L18.7851562,22.734375 C18.7851562,22.7734375 18.8046875,22.7929688 18.84375,22.7929688 L18.84375,22.7929688 L18.9609375,22.9101562 L18.9609375,23.0273438 L19.0195312,23.0273438 L18.9609375,23.0859375 L18.9609375,23.1445312 L18.9023438,23.203125 C18.8632812,23.2421875 18.8046875,23.2910156 18.7265625,23.3496094 C18.6484375,23.4082031 18.5703125,23.4570312 18.4921875,23.4960938 C18.375,23.5351562 18.2578125,23.5742188 18.140625,23.6132812 C18.0234375,23.6523438 17.8867188,23.671875 17.7304688,23.671875 L17.7304688,23.671875 Z" id="54" fill="currentColor" fill-rule="nonzero"></path>
    </g>
</svg>