<?xml version="1.0" encoding="UTF-8"?>
<svg width="41px" height="47px" viewBox="0 0 41 47" version="1.1" xmlns="http://www.w3.org/2000/svg" xmlns:xlink="http://www.w3.org/1999/xlink">
    <title>17</title>
    <g id="Page-1" stroke="none" stroke-width="1" fill="none" fill-rule="evenodd">
        <path d="M20.8515625,32.7734375 C21.9453125,32.7734375 22.9707031,32.7636719 23.9277344,32.7441406 C24.8847656,32.7246094 25.7734375,32.6953125 26.59375,32.65625 C29.8359375,32.4609375 32.0039062,32.2851562 33.0976562,32.1289062 L33.0976562,32.1289062 L33.9179688,32.0117188 C33.9570312,32.0117188 33.9960938,31.9921875 34.0351562,31.953125 C34.0351562,31.953125 34.0546875,31.9140625 34.09375,31.8359375 L34.09375,31.8359375 L34.09375,31.25 L40.3632812,30.4882812 C40.4023438,30.4882812 40.4414062,30.46875 40.4804688,30.4296875 C40.4804688,30.4296875 40.5,30.390625 40.5390625,30.3125 L40.5390625,30.3125 L40.5390625,0.95703125 L40.4804688,0.8984375 L0.578125,0.8984375 C0.5390625,0.8984375 0.5,0.91796875 0.4609375,0.95703125 L0.4609375,0.95703125 L0.4609375,30.3125 C0.4609375,30.3515625 0.48046875,30.3710938 0.51953125,30.3710938 C0.51953125,30.4492188 0.55859375,30.4882812 0.63671875,30.4882812 L0.63671875,30.4882812 L6.90625,31.25 L6.90625,31.8359375 C6.90625,31.875 6.92578125,31.8945312 6.96484375,31.8945312 C6.96484375,31.9726562 7.00390625,32.0117188 7.08203125,32.0117188 L7.08203125,32.0117188 L7.90234375,32.1289062 C8.17578125,32.1679688 8.52734375,32.2070312 8.95703125,32.2460938 C9.38671875,32.2851562 9.875,32.3242188 10.421875,32.3632812 C11.5546875,32.4804688 12.9804688,32.578125 14.6992188,32.65625 C16.4179688,32.734375 18.46875,32.7734375 20.8515625,32.7734375 Z M6.90625,30.8398438 L0.8125,30.1367188 L0.8125,1.25 L6.90625,1.25 L6.90625,30.8398438 Z M33.7421875,5.99609375 L7.2578125,5.99609375 L7.2578125,1.25 L33.7421875,1.25 L33.7421875,5.99609375 Z M34.09375,30.8398438 L34.09375,1.25 L40.1875,1.25 L40.1875,30.1367188 L34.09375,30.8398438 Z M33.7421875,23.2226562 L7.2578125,23.2226562 L7.2578125,6.40625 L33.7421875,6.40625 L33.7421875,23.2226562 Z M33.7421875,28.203125 L7.2578125,28.203125 L7.2578125,23.5742188 L33.7421875,23.5742188 L33.7421875,28.203125 Z M10.0703125,27.734375 C10.265625,27.734375 10.4609375,27.6367188 10.65625,27.4414062 C10.8125,27.2851562 10.890625,27.0898438 10.890625,26.8554688 C10.890625,26.5820312 10.8125,26.3671875 10.65625,26.2109375 C10.5,26.0546875 10.3046875,25.9765625 10.0703125,25.9765625 C9.796875,25.9765625 9.58203125,26.0546875 9.42578125,26.2109375 C9.26953125,26.3671875 9.19140625,26.5820312 9.19140625,26.8554688 C9.19140625,27.0898438 9.26953125,27.2851562 9.42578125,27.4414062 C9.62109375,27.6367188 9.8359375,27.734375 10.0703125,27.734375 Z M31.046875,27.734375 C31.28125,27.734375 31.4960938,27.6367188 31.6914062,27.4414062 C31.8476562,27.2851562 31.9257812,27.0898438 31.9257812,26.8554688 C31.9257812,26.5820312 31.8476562,26.3671875 31.6914062,26.2109375 C31.5351562,26.0546875 31.3203125,25.9765625 31.046875,25.9765625 C30.8125,25.9765625 30.6171875,26.0546875 30.4609375,26.2109375 C30.3046875,26.3671875 30.2265625,26.5820312 30.2265625,26.8554688 C30.2265625,27.0898438 30.3046875,27.2851562 30.4609375,27.4414062 C30.65625,27.6367188 30.8515625,27.734375 31.046875,27.734375 Z M10.0703125,27.3242188 C9.9140625,27.3242188 9.796875,27.2851562 9.71875,27.2070312 C9.6015625,27.0898438 9.54296875,26.9726562 9.54296875,26.8554688 C9.54296875,26.7382812 9.6015625,26.6210938 9.71875,26.5039062 C9.796875,26.4257812 9.9140625,26.3867188 10.0703125,26.3867188 C10.1484375,26.3867188 10.265625,26.4257812 10.421875,26.5039062 C10.5,26.5429688 10.5390625,26.6601562 10.5390625,26.8554688 C10.5390625,27.0507812 10.5,27.1679688 10.421875,27.2070312 C10.265625,27.2851562 10.1484375,27.3242188 10.0703125,27.3242188 Z M31.046875,27.3242188 C31.0078125,27.3242188 30.9101562,27.2851562 30.7539062,27.2070312 C30.6367188,27.1289062 30.578125,27.0117188 30.578125,26.8554688 C30.578125,26.6601562 30.6367188,26.5429688 30.7539062,26.5039062 C30.9101562,26.4257812 31.0078125,26.3867188 31.046875,26.3867188 C31.203125,26.3867188 31.3203125,26.4257812 31.3984375,26.5039062 C31.515625,26.6210938 31.5742188,26.7382812 31.5742188,26.8554688 C31.5742188,26.9726562 31.515625,27.0898438 31.3984375,27.2070312 C31.3203125,27.2851562 31.203125,27.3242188 31.046875,27.3242188 Z M20.8515625,32.3632812 C19.796875,32.3632812 18.8007812,32.3535156 17.8632812,32.3339844 C16.9257812,32.3144531 16.0664062,32.2851562 15.2851562,32.2460938 C13.6445312,32.1679688 12.2871094,32.0996094 11.2128906,32.0410156 C10.1386719,31.9824219 9.26953125,31.9140625 8.60546875,31.8359375 C7.94140625,31.7578125 7.4921875,31.6992188 7.2578125,31.6601562 L7.2578125,31.6601562 L7.2578125,28.5546875 L33.7421875,28.5546875 L33.7421875,31.6601562 C33.5078125,31.7382812 33.078125,31.796875 32.453125,31.8359375 C32.140625,31.875 31.7792969,31.9140625 31.3691406,31.953125 C30.9589844,31.9921875 30.4804688,32.03125 29.9335938,32.0703125 C28.8398438,32.1484375 27.5507812,32.2167969 26.0664062,32.2753906 C24.5820312,32.3339844 22.84375,32.3632812 20.8515625,32.3632812 Z M36.7304688,46.8359375 L36.7890625,46.7773438 L36.8476562,46.71875 C36.8476562,46.71875 36.8671875,46.6796875 36.90625,46.6015625 L36.90625,46.6015625 L36.90625,44.375 L37.3164062,44.375 C37.3164062,44.375 37.317627,44.3725586 37.3200684,44.3676758 L37.375,44.2578125 L37.375,34.3554688 L37.3164062,34.296875 L3.44921875,34.296875 C3.41015625,34.296875 3.37109375,34.3164062 3.33203125,34.3554688 L3.33203125,34.3554688 L3.33203125,44.2578125 C3.33203125,44.3359375 3.37109375,44.375 3.44921875,44.375 L3.44921875,44.375 L3.80078125,44.375 L3.80078125,46.6015625 C3.80078125,46.6796875 3.83984375,46.71875 3.91796875,46.71875 C3.91796875,46.796875 3.95703125,46.8359375 4.03515625,46.8359375 L4.03515625,46.8359375 L36.7304688,46.8359375 Z M37.0234375,39.3945312 L3.68359375,39.3945312 L3.68359375,34.6484375 L37.0234375,34.6484375 L37.0234375,39.3945312 Z M29.5820312,38.8085938 C29.8554688,38.8085938 30.1289062,38.7109375 30.4023438,38.515625 C30.6367188,38.28125 30.7539062,38.046875 30.7539062,37.8125 L30.7539062,37.8125 L33.9765625,37.8125 C34.015625,37.8125 34.0546875,37.7929688 34.09375,37.7539062 C34.09375,37.7539062 34.1132812,37.7148438 34.1523438,37.6367188 L34.1523438,37.6367188 L34.1523438,36.40625 C34.1132812,36.40625 34.0839844,36.3964844 34.0644531,36.3769531 C34.0449219,36.3574219 34.015625,36.3476562 33.9765625,36.3476562 L33.9765625,36.3476562 L30.7539062,36.3476562 C30.7539062,36.1132812 30.6367188,35.8789062 30.4023438,35.6445312 C30.1289062,35.4492188 29.8554688,35.3515625 29.5820312,35.3515625 L29.5820312,35.3515625 L28.9375,35.3515625 C28.625,35.3515625 28.3710938,35.4492188 28.1757812,35.6445312 C27.9414062,35.8398438 27.7851562,36.0742188 27.7070312,36.3476562 L27.7070312,36.3476562 L24.484375,36.3476562 L24.3671875,36.4648438 L24.3671875,37.6367188 C24.3671875,37.6757812 24.3867188,37.6953125 24.4257812,37.6953125 C24.4257812,37.7734375 24.4648438,37.8125 24.5429688,37.8125 L24.5429688,37.8125 L27.7070312,37.8125 C27.7851562,38.0859375 27.9414062,38.3203125 28.1757812,38.515625 C28.3710938,38.7109375 28.625,38.8085938 28.9375,38.8085938 L28.9375,38.8085938 L29.5820312,38.8085938 Z M6.26171875,37.4023438 C6.53515625,37.4023438 6.75,37.3242188 6.90625,37.1679688 C7.0625,37.0117188 7.140625,36.8164062 7.140625,36.5820312 C7.140625,36.3085938 7.0625,36.09375 6.90625,35.9375 C6.75,35.78125 6.53515625,35.703125 6.26171875,35.703125 C6.02734375,35.703125 5.83203125,35.78125 5.67578125,35.9375 C5.51953125,36.09375 5.44140625,36.3085938 5.44140625,36.5820312 C5.44140625,36.8164062 5.51953125,37.0117188 5.67578125,37.1679688 C5.83203125,37.3242188 6.02734375,37.4023438 6.26171875,37.4023438 Z M29.5820312,38.4570312 L28.9375,38.4570312 C28.7421875,38.4570312 28.546875,38.359375 28.3515625,38.1640625 C28.1953125,38.0078125 28.1171875,37.8125 28.1171875,37.578125 L28.1171875,37.578125 L28.1171875,37.5195312 C28.078125,37.5195312 28.0585938,37.5 28.0585938,37.4609375 C28.0195312,37.4609375 27.9902344,37.4511719 27.9707031,37.4316406 L27.9479167,37.4153646 C27.9305556,37.406684 27.9088542,37.4023438 27.8828125,37.4023438 L27.8828125,37.4023438 L24.71875,37.4023438 L24.71875,36.7578125 L27.8828125,36.7578125 C27.921875,36.7578125 27.9609375,36.7382812 28,36.6992188 L28,36.6992188 L28.1171875,36.5820312 C28.1171875,36.2695312 28.1953125,36.0546875 28.3515625,35.9375 C28.5859375,35.78125 28.78125,35.703125 28.9375,35.703125 L28.9375,35.703125 L29.5820312,35.703125 C29.7382812,35.703125 29.9335938,35.78125 30.1679688,35.9375 C30.3242188,36.0546875 30.4023438,36.2695312 30.4023438,36.5820312 L30.4023438,36.5820312 L30.4609375,36.5820312 C30.4609375,36.6601562 30.5,36.6992188 30.578125,36.6992188 L30.578125,36.6992188 L30.578125,36.7578125 L33.8007812,36.7578125 L33.8007812,37.4023438 L30.578125,37.4023438 L30.4609375,37.5195312 L30.4023438,37.578125 C30.4023438,37.8125 30.3242188,38.0078125 30.1679688,38.1640625 C29.9726562,38.359375 29.7773438,38.4570312 29.5820312,38.4570312 L29.5820312,38.4570312 Z M6.26171875,37.0507812 C6.18359375,37.0507812 6.0859375,36.9921875 5.96875,36.875 C5.8515625,36.7578125 5.79296875,36.6601562 5.79296875,36.5820312 C5.79296875,36.3867188 5.8515625,36.2695312 5.96875,36.2304688 L5.96875,36.2304688 L6.14453125,36.1132812 C6.18359375,36.0742188 6.22265625,36.0546875 6.26171875,36.0546875 C6.37890625,36.0546875 6.49609375,36.1132812 6.61328125,36.2304688 C6.73046875,36.3476562 6.7890625,36.4648438 6.7890625,36.5820312 C6.7890625,36.6210938 6.76953125,36.6601562 6.73046875,36.6992188 L6.73046875,36.6992188 L6.61328125,36.875 C6.57421875,36.9921875 6.45703125,37.0507812 6.26171875,37.0507812 Z M10.5976562,44.0234375 L3.68359375,44.0234375 L3.68359375,39.7460938 L10.5976562,39.7460938 L10.5976562,44.0234375 Z M21.3789062,44.0234375 L11.0078125,44.0234375 L11.0078125,39.7460938 L21.3789062,39.7460938 L21.3789062,44.0234375 Z M37.0234375,44.0234375 L21.7890625,44.0234375 L21.7890625,39.7460938 L37.0234375,39.7460938 L37.0234375,44.0234375 Z M36.0859375,42.8515625 C36.125,42.8515625 36.1445312,42.8320312 36.1445312,42.7929688 L36.1445312,42.7929688 L36.203125,42.734375 L36.203125,40.4492188 C36.1640625,40.4492188 36.1445312,40.4296875 36.1445312,40.390625 L36.1445312,40.390625 L22.6679688,40.390625 C22.5898438,40.46875 22.5507812,40.5273438 22.5507812,40.5664062 L22.5507812,40.5664062 L22.5507812,42.6757812 C22.5507812,42.7148438 22.5703125,42.734375 22.609375,42.734375 C22.609375,42.8125 22.6484375,42.8515625 22.7265625,42.8515625 L22.7265625,42.8515625 L36.0859375,42.8515625 Z M35.8515625,42.5 L22.9609375,42.5 L22.9609375,40.7421875 L35.8515625,40.7421875 L35.8515625,42.5 Z M36.4960938,46.4257812 L4.2109375,46.4257812 L4.2109375,44.375 L36.4960938,44.375 L36.4960938,46.4257812 Z" id="17" fill="currentColor" fill-rule="nonzero"></path>
    </g>
</svg>