<?xml version="1.0" encoding="UTF-8"?>
<svg width="39px" height="46px" viewBox="0 0 39 46" version="1.1" xmlns="http://www.w3.org/2000/svg" xmlns:xlink="http://www.w3.org/1999/xlink">
    <title>20</title>
    <g id="Page-1" stroke="none" stroke-width="1" fill="none" fill-rule="evenodd">
        <path d="M21.1992188,42.7304688 C21.8242188,42.7304688 22.5078125,42.7109375 23.25,42.671875 C24.734375,42.671875 26.1601562,42.6621094 27.5273438,42.6425781 C28.8945312,42.6230469 30.1445312,42.59375 31.2773438,42.5546875 C31.8242188,42.515625 32.2636719,42.4960938 32.5957031,42.4960938 L32.5957031,42.4960938 L33.5039062,42.4960938 C33.6601562,42.4570312 33.8066406,42.4375 33.9433594,42.4375 L34.0833333,42.4309896 C34.1788194,42.422309 34.2786458,42.4049479 34.3828125,42.3789062 C34.7734375,42.3007812 35.0273438,42.203125 35.1445312,42.0859375 C35.3398438,41.9296875 35.515625,41.6953125 35.671875,41.3828125 C35.828125,41.0703125 35.90625,40.6210938 35.90625,40.0351562 C35.9453125,39.5273438 35.984375,39.0097656 36.0234375,38.4824219 C36.0625,37.9550781 36.1015625,37.4179688 36.140625,36.8710938 C36.1796875,36.3242188 36.2089844,35.7871094 36.2285156,35.2597656 C36.2480469,34.7324219 36.296875,34.1953125 36.375,33.6484375 L36.375,33.6484375 L36.7265625,30.3085938 C36.8046875,29.7617187 36.8828125,29.2246094 36.9609375,28.6972656 C37.0390625,28.1699219 37.1171875,27.6328125 37.1953125,27.0859375 L37.1953125,27.0859375 L37.7226562,22.5742188 L37.7226562,22.5742188 L37.9570312,20.5820312 L37.9570312,20.5820312 L38.1914062,18.5898438 C38.2695312,17.3007812 38.3476562,16.0214844 38.4257812,14.7519531 C38.5039062,13.4824219 38.5234375,12.1640625 38.484375,10.796875 C38.5625,9.6640625 38.5625,8.609375 38.484375,7.6328125 C38.4453125,7.1640625 38.4257812,6.72460938 38.4257812,6.31445312 L38.4257812,6.31445312 L38.4257812,5.171875 C38.3867188,4.46875 38.328125,3.8828125 38.25,3.4140625 L38.25,3.4140625 L38.015625,2.53515625 C37.5859375,2.06640625 36.921875,1.6953125 36.0234375,1.421875 C35.515625,1.3046875 34.9980469,1.19726562 34.4707031,1.09960938 C33.9433594,1.00195312 33.3867188,0.9140625 32.8007812,0.8359375 C32.2929688,0.796875 31.4433594,0.7578125 30.2519531,0.71875 C29.0605469,0.6796875 27.8203125,0.640625 26.53125,0.6015625 C25.203125,0.5625 23.8847656,0.533203125 22.5761719,0.513671875 C21.2675781,0.494140625 20.2421875,0.484375 19.5,0.484375 L16.3945312,0.484375 C15.1054688,0.5234375 13.7871094,0.5625 12.4394531,0.6015625 C11.0917969,0.640625 9.8515625,0.6796875 8.71875,0.71875 C7.546875,0.7578125 6.6875,0.806640625 6.140625,0.865234375 C5.59375,0.923828125 5.046875,0.9921875 4.5,1.0703125 C3.9140625,1.1875 3.39648438,1.3046875 2.94726562,1.421875 C2.49804688,1.5390625 2.09765625,1.6953125 1.74609375,1.890625 C1.35546875,2.0859375 1.11132812,2.28125 1.01367188,2.4765625 C0.916015625,2.671875 0.828125,2.984375 0.75,3.4140625 C0.671875,3.8828125 0.603515625,4.46875 0.544921875,5.171875 C0.486328125,5.875 0.45703125,6.6953125 0.45703125,7.6328125 L0.45703125,7.6328125 L0.45703125,9.18554688 C0.45703125,9.71289062 0.4375,10.25 0.3984375,10.796875 C0.4375,12.1640625 0.4765625,13.4824219 0.515625,14.7519531 C0.5546875,16.0214844 0.65234375,17.3007812 0.80859375,18.5898438 C0.92578125,19.8789062 1.0625,21.2070312 1.21875,22.5742188 C1.375,23.9414063 1.5703125,25.4453125 1.8046875,27.0859375 C2,28.53125 2.17578125,29.8984375 2.33203125,31.1875 C2.48828125,32.4765625 2.60546875,33.6875 2.68359375,34.8203125 C2.72265625,35.3671875 2.76171875,35.8945312 2.80078125,36.4023438 C2.83984375,36.9101562 2.87890625,37.3789062 2.91796875,37.8085938 C2.95703125,38.2382812 2.98632812,38.6386719 3.00585938,39.0097656 C3.02539062,39.3808594 3.015625,39.7226562 2.9765625,40.0351562 C3.1328125,41.1679688 3.40625,41.8515625 3.796875,42.0859375 C4.03125,42.2421875 4.28515625,42.3398438 4.55859375,42.3789062 C4.83203125,42.4179688 5.14453125,42.4570312 5.49609375,42.4960938 L5.49609375,42.4960938 L6.375,42.4960938 C6.7265625,42.4960938 7.17578125,42.515625 7.72265625,42.5546875 C8.26953125,42.59375 8.84570312,42.6132812 9.45117188,42.6132812 L9.45117188,42.6132812 L11.4140625,42.6132812 C12.8203125,42.6523438 14.2460937,42.6816406 15.6914062,42.7011719 C17.1367188,42.7207031 18.40625,42.7304688 19.5,42.7304688 L21.1992188,42.7304688 Z M25.4472656,42.3203125 L13.4941406,42.3203125 C12.7714844,42.3203125 12.078125,42.3007812 11.4140625,42.2617188 C10.75,42.2226562 10.1054688,42.203125 9.48046875,42.203125 C8.85546875,42.203125 8.26953125,42.1835938 7.72265625,42.1445312 C6.51171875,42.1445312 5.80859375,42.125 5.61328125,42.0859375 L5.61328125,42.0859375 L5.4375,42.0859375 C5.1640625,42.0859375 4.91015625,42.0664062 4.67578125,42.0273438 C4.44140625,41.9882812 4.2265625,41.890625 4.03125,41.734375 C3.6015625,41.421875 3.40625,40.8554688 3.4453125,40.0351562 L3.4453125,40.0351562 L3.26953125,37.8085938 C3.23046875,37.3789062 3.20117188,36.9101562 3.18164062,36.4023438 C3.16210938,35.8945312 3.11328125,35.3671875 3.03515625,34.8203125 L3.03515625,34.8203125 L2.68359375,31.1875 C2.56640625,29.859375 2.40039062,28.4238281 2.18554688,26.8808594 C1.97070312,25.3378906 1.765625,23.8632812 1.5703125,22.4570313 C1.4921875,21.7929688 1.4140625,21.1289062 1.3359375,20.4648438 C1.2578125,19.8007812 1.19921875,19.1367188 1.16015625,18.4726562 C1.04296875,17.2226562 0.9453125,15.9726562 0.8671875,14.7226562 C0.7890625,13.4726562 0.76953125,12.1640625 0.80859375,10.796875 C0.76953125,10.1328125 0.759765625,9.51757812 0.779296875,8.95117188 C0.798828125,8.38476562 0.828125,7.84765625 0.8671875,7.33984375 C0.90625,6.83203125 0.92578125,6.37304688 0.92578125,5.96289062 C0.92578125,5.55273438 0.9453125,5.19140625 0.984375,4.87890625 C0.984375,4.56640625 0.994140625,4.29296875 1.01367188,4.05859375 C1.03320312,3.82421875 1.0625,3.609375 1.1015625,3.4140625 C1.1796875,3.0625 1.23828125,2.828125 1.27734375,2.7109375 C1.55078125,2.359375 2.13671875,2.046875 3.03515625,1.7734375 C3.46484375,1.65625 3.94335937,1.54882812 4.47070312,1.45117188 C4.99804688,1.35351562 5.5546875,1.28515625 6.140625,1.24609375 C6.6875,1.20703125 7.55664062,1.15820312 8.74804688,1.09960938 C9.93945312,1.04101562 11.1992188,0.9921875 12.5273438,0.953125 L12.5273438,0.953125 L14.4609375,0.953125 C15.0859375,0.953125 15.7304688,0.93359375 16.3945312,0.89453125 C17.0585938,0.85546875 17.6347656,0.8359375 18.1230469,0.8359375 L18.1230469,0.8359375 L20.8183594,0.8359375 C21.3066406,0.8359375 21.8828125,0.85546875 22.546875,0.89453125 C23.2109375,0.93359375 23.8652344,0.953125 24.5097656,0.953125 L24.5097656,0.953125 L26.4726562,0.953125 C27.1367188,0.9921875 27.7714844,1.01171875 28.3769531,1.01171875 C28.9824219,1.01171875 29.5976562,1.03125 30.2226562,1.0703125 C31.3945313,1.1484375 32.2636719,1.20703125 32.8300781,1.24609375 C33.3964844,1.28515625 33.953125,1.34375 34.5,1.421875 C35.6328125,1.65625 36.4921875,1.9296875 37.078125,2.2421875 C37.390625,2.3984375 37.5761719,2.54492188 37.6347656,2.68164062 C37.6933594,2.81835938 37.7617188,3.0625 37.8398438,3.4140625 C37.9179688,3.8046875 37.9765625,4.29296875 38.015625,4.87890625 C38.015625,5.19140625 38.0253906,5.55273438 38.0449219,5.96289062 C38.0644531,6.37304688 38.09375,6.83203125 38.1328125,7.33984375 C38.171875,8.31640625 38.171875,9.46875 38.1328125,10.796875 C38.171875,11.4609375 38.1816406,12.125 38.1621094,12.7890625 C38.1425781,13.453125 38.1132812,14.0976562 38.0742188,14.7226562 C37.9960938,15.9726562 37.9082031,17.2324219 37.8105469,18.5019531 C37.7128906,19.7714844 37.5664062,21.0898438 37.3710938,22.4570313 C37.2929688,23.1601562 37.1953125,23.8925781 37.078125,24.6542969 C36.9609375,25.4160156 36.8632812,26.2070312 36.7851562,27.0273438 C36.7070312,27.5742188 36.6289062,28.1210938 36.5507812,28.6679687 C36.4726562,29.2148438 36.4140625,29.7617188 36.375,30.3085938 L36.375,30.3085938 L36.0234375,33.5898438 C35.9453125,34.1367188 35.8867188,34.6835938 35.8476562,35.2304688 L35.8476562,35.2304688 L35.7304688,36.8710938 C35.6914062,37.4179688 35.6621094,37.9550781 35.6425781,38.4824219 C35.6230469,39.0097656 35.5742188,39.5273438 35.4960938,40.0351562 C35.5351562,40.8945312 35.359375,41.4609375 34.96875,41.734375 C34.7734375,41.890625 34.5488281,41.9882812 34.2949219,42.0273438 C34.0410156,42.0664062 33.7773438,42.0859375 33.5039062,42.0859375 L33.5039062,42.0859375 L33.328125,42.0859375 C33.1328125,42.125 32.4296875,42.1445312 31.21875,42.1445312 C30.671875,42.1835938 30.0859375,42.203125 29.4609375,42.203125 C28.8359375,42.203125 28.1914062,42.2226562 27.5273438,42.2617188 C26.8632812,42.3007812 26.1699219,42.3203125 25.4472656,42.3203125 L25.4472656,42.3203125 Z M19.3828125,3.94140625 C19.6171875,3.94140625 19.8320312,3.86328125 20.0273438,3.70703125 C20.1445312,3.58984375 20.2421875,3.375 20.3203125,3.0625 C20.2421875,2.7890625 20.1445312,2.59375 20.0273438,2.4765625 C19.8320312,2.3203125 19.6171875,2.2421875 19.3828125,2.2421875 C19.1484375,2.2421875 18.9726562,2.3203125 18.8554688,2.4765625 L18.8554688,2.4765625 L18.6210938,2.7109375 C18.5429688,2.8671875 18.5234375,2.984375 18.5625,3.0625 C18.5234375,3.1796875 18.5429688,3.296875 18.6210938,3.4140625 C18.6992188,3.53125 18.7773438,3.62890625 18.8554688,3.70703125 C18.9726562,3.86328125 19.1484375,3.94140625 19.3828125,3.94140625 Z M19.4414062,3.58984375 C19.3242188,3.58984375 19.2460938,3.5703125 19.2070312,3.53125 L19.2070312,3.53125 L19.0898438,3.4140625 C19.0117188,3.3359375 18.9726562,3.27734375 18.9726562,3.23828125 C18.9726562,3.16015625 18.953125,3.1015625 18.9140625,3.0625 C18.953125,3.0234375 18.9726562,2.96484375 18.9726562,2.88671875 C18.9726562,2.84765625 19.0117188,2.7890625 19.0898438,2.7109375 C19.1679688,2.6328125 19.2851562,2.59375 19.4414062,2.59375 L19.4414062,2.59375 L19.6171875,2.59375 C19.6953125,2.59375 19.7539062,2.6328125 19.7929688,2.7109375 C19.7929688,2.7890625 19.8125,2.84765625 19.8515625,2.88671875 C19.9296875,2.92578125 19.9296875,2.984375 19.8515625,3.0625 C19.9296875,3.1015625 19.9296875,3.16015625 19.8515625,3.23828125 C19.8125,3.27734375 19.7929688,3.3359375 19.7929688,3.4140625 C19.6757812,3.53125 19.5585938,3.58984375 19.4414062,3.58984375 Z M33.8554688,29.078125 C33.8945312,29.078125 33.9628906,29.0683594 34.0605469,29.0488281 C34.1582031,29.0292969 34.2265625,28.9804688 34.265625,28.9023438 C34.3046875,28.8242188 34.34375,28.765625 34.3828125,28.7265625 C34.421875,28.6875 34.421875,28.6289062 34.3828125,28.5507812 C34.421875,28.5117188 34.4414062,28.1992188 34.4414062,27.6132812 L34.4414062,27.6132812 L34.4414062,26.6171875 C34.4414062,26.2265625 34.4609375,25.7773438 34.5,25.2695312 C34.5390625,24.7617188 34.5585938,24.2050781 34.5585938,23.5996094 L34.5585938,23.5996094 L34.5585938,21.6367188 C34.5585938,20.9335938 34.5683594,20.2011719 34.5878906,19.4394531 C34.6074219,18.6777344 34.6367188,17.8671875 34.6757812,17.0078125 C34.6367188,15.2890625 34.6367188,13.765625 34.6757812,12.4375 L34.6757812,12.4375 L34.6757812,8.86328125 C34.6367188,8.35546875 34.6171875,7.91601562 34.6171875,7.54492188 L34.6171875,7.54492188 L34.6171875,6.51953125 C34.6171875,5.97265625 34.5976562,5.69921875 34.5585938,5.69921875 C34.5976562,5.54296875 34.5585938,5.40625 34.4414062,5.2890625 C34.3242188,5.171875 34.2070312,5.11328125 34.0898438,5.11328125 L34.0898438,5.11328125 L4.8515625,5.11328125 C4.734375,5.11328125 4.6171875,5.171875 4.5,5.2890625 C4.3828125,5.40625 4.34375,5.54296875 4.3828125,5.69921875 C4.34375,5.69921875 4.32421875,5.97265625 4.32421875,6.51953125 L4.32421875,8.86328125 C4.24609375,9.87890625 4.24609375,11.0703125 4.32421875,12.4375 L4.32421875,12.4375 L4.32421875,14.5761719 C4.32421875,15.3378906 4.3046875,16.1484375 4.265625,17.0078125 C4.3046875,17.8671875 4.33398438,18.6777344 4.35351562,19.4394531 C4.37304688,20.2011719 4.3828125,20.9335938 4.3828125,21.6367188 L4.3828125,21.6367188 L4.3828125,23.5996094 C4.3828125,24.2050781 4.40234375,24.7617188 4.44140625,25.2695312 C4.48046875,25.7773438 4.5,26.2265625 4.5,26.6171875 L4.5,26.6171875 L4.50058594,27.7808594 C4.50410156,28.2589844 4.5234375,28.515625 4.55859375,28.5507812 C4.51953125,28.6289062 4.51953125,28.6875 4.55859375,28.7265625 C4.59765625,28.765625 4.63671875,28.8242188 4.67578125,28.9023438 C4.71484375,28.9804688 4.78320312,29.0292969 4.88085938,29.0488281 C4.97851562,29.0683594 5.046875,29.078125 5.0859375,29.078125 L5.0859375,29.078125 L33.8554688,29.078125 Z M33.8554688,28.7265625 L5.0859375,28.7265625 L5.02734375,28.6679688 C4.98828125,28.6679688 4.96875,28.6484375 4.96875,28.609375 L4.96875,28.609375 L4.91015625,28.5507812 C4.87109375,28.5117188 4.8515625,28.1992188 4.8515625,27.6132812 L4.8515625,27.6132812 L4.8515625,26.6171875 C4.8515625,26.2265625 4.83203125,25.7773438 4.79296875,25.2695312 C4.75390625,24.7617188 4.734375,24.2050781 4.734375,23.5996094 L4.734375,23.5996094 L4.734375,21.6367188 C4.734375,20.2304688 4.72460938,18.6875 4.70507812,17.0078125 C4.68554688,15.328125 4.67578125,13.8046875 4.67578125,12.4375 C4.59765625,11.0703125 4.59765625,9.87890625 4.67578125,8.86328125 C4.71484375,8.35546875 4.734375,7.91601562 4.734375,7.54492188 L4.734375,7.54492188 L4.734375,6.51953125 C4.65625,5.97265625 4.65625,5.69921875 4.734375,5.69921875 C4.6953125,5.66015625 4.6953125,5.62109375 4.734375,5.58203125 C4.7734375,5.58203125 4.79296875,5.5625 4.79296875,5.5234375 L4.79296875,5.5234375 L34.2070312,5.5234375 C34.1679688,5.5625 34.1679688,5.58203125 34.2070312,5.58203125 C34.2460938,5.62109375 34.2460938,5.66015625 34.2070312,5.69921875 C34.2460938,5.69921875 34.265625,5.97265625 34.265625,6.51953125 C34.2265625,7.10546875 34.2265625,7.88671875 34.265625,8.86328125 C34.3046875,9.37109375 34.3242188,9.92773438 34.3242188,10.5332031 L34.3242188,10.5332031 L34.3242188,12.4375 C34.2851562,13.8046875 34.2558594,15.328125 34.2363281,17.0078125 C34.2167969,18.6875 34.2070312,20.2304688 34.2070312,21.6367188 L34.2070312,23.5996094 C34.2070312,24.2050781 34.1875,24.7617188 34.1484375,25.2695312 C34.109375,25.7773438 34.0898438,26.2265625 34.0898438,26.6171875 L34.0898438,26.6171875 L34.0892578,27.7808594 C34.0857422,28.2589844 34.0664062,28.515625 34.03125,28.5507812 L34.03125,28.5507812 L33.9726562,28.609375 C33.9726562,28.6484375 33.953125,28.6679688 33.9140625,28.6679688 L33.9140625,28.6679688 L33.8554688,28.7265625 Z M14.109375,35.9335938 C14.4609375,35.9335938 14.7148438,35.8164062 14.8710938,35.5820312 L14.8710938,35.5820312 L15.1640625,35.2890625 C15.2421875,35.1328125 15.2617188,34.9960938 15.2226562,34.8789062 L15.2226562,34.8789062 L18.5625,34.8789062 C18.6015625,34.8789062 18.6210938,34.859375 18.6210938,34.8203125 L18.6210938,34.8203125 L18.6796875,34.7617188 L18.6210938,34.703125 L18.6796875,33.6484375 C18.640625,33.6484375 18.640625,33.6289062 18.6796875,33.5898438 C18.6796875,33.5507812 18.6601562,33.53125 18.6210938,33.53125 C18.5820312,33.53125 18.5625,33.5117188 18.5625,33.4726562 L18.5625,33.4726562 L15.28125,33.4726562 C15.203125,33.1601562 15.0664062,32.9257812 14.8710938,32.7695312 C14.7539062,32.6914062 14.6367188,32.6230469 14.5195312,32.5644531 C14.4023438,32.5058594 14.2460938,32.4765625 14.0507812,32.4765625 L14.0507812,32.4765625 L13.4648438,32.4765625 C13.2695312,32.4765625 13.1132812,32.5058594 12.9960938,32.5644531 C12.8789062,32.6230469 12.7617188,32.6914062 12.6445312,32.7695312 C12.5273438,32.8476562 12.4394531,32.9453125 12.3808594,33.0625 C12.3222656,33.1796875 12.2539062,33.3164062 12.1757812,33.4726562 L12.1757812,33.4726562 L8.953125,33.4726562 C8.953125,33.5117188 8.93359375,33.53125 8.89453125,33.53125 C8.85546875,33.53125 8.85546875,33.5507812 8.89453125,33.5898438 C8.89453125,33.6289062 8.875,33.6484375 8.8359375,33.6484375 L8.8359375,33.6484375 L8.89453125,34.703125 C8.85546875,34.7421875 8.85546875,34.7617188 8.89453125,34.7617188 L8.89453125,34.7617188 L8.89453125,34.8203125 C8.89453125,34.859375 8.9140625,34.8789062 8.953125,34.8789062 L8.953125,34.8789062 L12.234375,34.8789062 C12.234375,35.0351562 12.2929688,35.171875 12.4101562,35.2890625 C12.4492188,35.3671875 12.5273438,35.4648438 12.6445312,35.5820312 C12.8398438,35.8164062 13.09375,35.9335938 13.40625,35.9335938 L13.40625,35.9335938 L14.109375,35.9335938 Z M25.5351562,35.9335938 C25.8867188,35.9335938 26.140625,35.8164062 26.296875,35.5820312 L26.296875,35.5820312 L26.5898438,35.2890625 C26.6679688,35.1328125 26.7070312,34.9960938 26.7070312,34.8789062 L26.7070312,34.8789062 L29.9882812,34.8789062 C30.0273438,34.8789062 30.046875,34.859375 30.046875,34.8203125 L30.046875,34.8203125 L30.1054688,34.7617188 L30.046875,34.703125 L30.1054688,33.6484375 C30.0664062,33.6484375 30.0664062,33.6289062 30.1054688,33.5898438 C30.1054688,33.5507812 30.0859375,33.53125 30.046875,33.53125 C30.0078125,33.53125 29.9882812,33.5117188 29.9882812,33.4726562 L29.9882812,33.4726562 L26.765625,33.4726562 L26.765625,33.4726562 L26.5605469,33.0625 C26.5019531,32.9453125 26.4140625,32.8476562 26.296875,32.7695312 C26.1796875,32.6914062 26.0625,32.6230469 25.9453125,32.5644531 C25.828125,32.5058594 25.671875,32.4765625 25.4765625,32.4765625 L25.4765625,32.4765625 L24.890625,32.4765625 C24.6953125,32.4765625 24.5390625,32.5058594 24.421875,32.5644531 C24.3046875,32.6230469 24.1875,32.6914062 24.0703125,32.7695312 C23.875,32.9257812 23.7382812,33.1601562 23.6601562,33.4726562 L23.6601562,33.4726562 L20.3789062,33.4726562 C20.3789062,33.5117188 20.359375,33.53125 20.3203125,33.53125 C20.28125,33.53125 20.28125,33.5507812 20.3203125,33.5898438 C20.3203125,33.6289062 20.3007812,33.6484375 20.2617188,33.6484375 L20.2617188,33.6484375 L20.3203125,34.703125 C20.28125,34.7421875 20.28125,34.7617188 20.3203125,34.7617188 L20.3203125,34.7617188 L20.3203125,34.8203125 C20.3203125,34.859375 20.3398438,34.8789062 20.3789062,34.8789062 L20.3789062,34.8789062 L23.71875,34.8789062 C23.6796875,35.0351562 23.71875,35.171875 23.8359375,35.2890625 C23.875,35.3671875 23.953125,35.4648438 24.0703125,35.5820312 C24.265625,35.8164062 24.5195312,35.9335938 24.8320312,35.9335938 L24.8320312,35.9335938 L25.5351562,35.9335938 Z M14.0507812,35.5234375 L13.4648438,35.5234375 C13.2695312,35.5234375 13.1523438,35.5039062 13.1132812,35.4648438 C12.8398438,35.3867188 12.703125,35.2304688 12.703125,34.9960938 C12.6640625,34.9570312 12.6445312,34.9179688 12.6445312,34.8789062 C12.6445312,34.8398438 12.625,34.78125 12.5859375,34.703125 C12.625,34.703125 12.625,34.6835938 12.5859375,34.6445312 L12.5859375,34.6445312 L12.5273438,34.5859375 L12.4101562,34.5273438 L9.1875,34.5273438 L9.24609375,33.8828125 L12.3515625,33.8828125 C12.4296875,33.8828125 12.46875,33.8632812 12.46875,33.8242188 L12.46875,33.8242188 L12.5273438,33.765625 C12.5664062,33.765625 12.5859375,33.7460938 12.5859375,33.7070312 L12.5859375,33.7070312 L12.6445312,33.6484375 C12.6054688,33.53125 12.6152344,33.4238281 12.6738281,33.3261719 C12.7324219,33.2285156 12.8007812,33.140625 12.8789062,33.0625 C12.9960938,32.90625 13.171875,32.828125 13.40625,32.828125 L13.40625,32.828125 L14.109375,32.828125 C14.1875,32.828125 14.2851562,32.8476562 14.4023438,32.8867188 C14.5195312,32.9257812 14.6171875,32.984375 14.6953125,33.0625 C14.8515625,33.296875 14.9101562,33.4921875 14.8710938,33.6484375 L14.8710938,33.6484375 L14.9296875,33.7070312 C14.9296875,33.7460938 14.9492188,33.765625 14.9882812,33.765625 L14.9882812,33.765625 L15.046875,33.8242188 C15.046875,33.8632812 15.0664062,33.8828125 15.1054688,33.8828125 L15.1054688,33.8828125 L18.2695312,33.8828125 L18.328125,34.5273438 L15.046875,34.5273438 L14.9557292,34.6184896 C14.9383681,34.6358507 14.9296875,34.6445312 14.9296875,34.6445312 C14.890625,34.6835938 14.890625,34.703125 14.9296875,34.703125 C14.890625,34.78125 14.8710938,34.8789062 14.8710938,34.9960938 C14.7929688,35.1523438 14.734375,35.25 14.6953125,35.2890625 C14.5,35.4453125 14.2851562,35.5234375 14.0507812,35.5234375 L14.0507812,35.5234375 Z M25.4765625,35.5234375 L24.890625,35.5234375 C24.6953125,35.5234375 24.578125,35.5039062 24.5390625,35.4648438 C24.265625,35.3867188 24.1289062,35.2304688 24.1289062,34.9960938 C24.0898438,34.9570312 24.0703125,34.9179688 24.0703125,34.8789062 C24.0703125,34.8398438 24.0507812,34.78125 24.0117188,34.703125 C24.0507812,34.703125 24.0507812,34.6835938 24.0117188,34.6445312 L24.0117188,34.6445312 L23.953125,34.5859375 L23.8945312,34.5273438 L20.6132812,34.5273438 L20.671875,33.8828125 L23.8359375,33.8828125 C23.875,33.8828125 23.8945312,33.8632812 23.8945312,33.8242188 L23.8945312,33.8242188 L23.953125,33.765625 C23.9921875,33.765625 24.0117188,33.7460938 24.0117188,33.7070312 L24.0117188,33.7070312 L24.0703125,33.6484375 C24.03125,33.53125 24.0410156,33.4238281 24.0996094,33.3261719 C24.1582031,33.2285156 24.2265625,33.140625 24.3046875,33.0625 C24.421875,32.90625 24.5976562,32.828125 24.8320312,32.828125 L24.8320312,32.828125 L25.5351562,32.828125 C25.6132812,32.828125 25.7109375,32.8476562 25.828125,32.8867188 C25.9453125,32.9257812 26.0429688,32.984375 26.1210938,33.0625 C26.2773438,33.296875 26.3359375,33.4921875 26.296875,33.6484375 L26.296875,33.6484375 L26.3554688,33.7070312 C26.3554688,33.7460938 26.375,33.765625 26.4140625,33.765625 L26.4140625,33.765625 L26.4726562,33.8242188 C26.4726562,33.8632812 26.5117188,33.8828125 26.5898438,33.8828125 L26.5898438,33.8828125 L29.6953125,33.8828125 L29.7539062,34.5273438 L26.53125,34.5273438 L26.4140625,34.5859375 L26.4140625,34.5859375 L26.3554688,34.6445312 C26.3164062,34.6835938 26.3164062,34.703125 26.3554688,34.703125 C26.3164062,34.78125 26.296875,34.8789062 26.296875,34.9960938 C26.21875,35.1523438 26.1601562,35.25 26.1210938,35.2890625 C25.9257812,35.4453125 25.7109375,35.5234375 25.4765625,35.5234375 L25.4765625,35.5234375 Z M25.59375,39.859375 C25.6328125,39.859375 25.6523438,39.8398438 25.6523438,39.8007812 L25.6523438,39.8007812 L25.7109375,39.7421875 C25.75,39.7421875 25.75,39.7226562 25.7109375,39.6835938 L25.7109375,39.6835938 L25.7695312,37.6914062 C25.7304688,37.6523438 25.7109375,37.6132812 25.7109375,37.5742188 L25.7109375,37.5742188 L25.6523438,37.515625 C25.6132812,37.515625 25.59375,37.4960938 25.59375,37.4570312 L25.59375,37.4570312 L13.3476562,37.4570312 C13.3476562,37.4960938 13.328125,37.515625 13.2890625,37.515625 L13.2890625,37.515625 L13.2304688,37.5742188 C13.2304688,37.6132812 13.2109375,37.6523438 13.171875,37.6914062 L13.171875,37.6914062 L13.2304688,39.6835938 C13.1914062,39.7226562 13.1914062,39.7421875 13.2304688,39.7421875 L13.2304688,39.7421875 L13.2890625,39.8007812 C13.2890625,39.8398438 13.3085938,39.859375 13.3476562,39.859375 L13.3476562,39.859375 L25.59375,39.859375 Z M25.359375,39.5078125 L13.5820312,39.5078125 L13.640625,37.8671875 L25.3007812,37.8671875 L25.359375,39.5078125 Z M31.6875,45.8359375 C31.7265625,45.8359375 31.7460938,45.8164062 31.7460938,45.7773438 C31.7851562,45.7773438 31.8046875,45.7578125 31.8046875,45.71875 L31.8046875,45.71875 L31.8632812,45.6601562 L31.8046875,45.6015625 C31.84375,45.5625 31.8632812,45.40625 31.8632812,45.1328125 C31.8242188,44.9765625 31.8046875,44.8300781 31.8046875,44.6933594 C31.8046875,44.5566406 31.7851562,44.4101562 31.7460938,44.2539062 C31.6679688,43.9414062 31.5410156,43.6777344 31.3652344,43.4628906 C31.1894531,43.2480469 30.984375,43.1210938 30.75,43.0820312 L30.75,43.0820312 L30.046875,43.0820312 C29.7734375,43.0820312 29.421875,43.0625 28.9921875,43.0234375 C28.5625,42.984375 28.1230469,42.9648438 27.6738281,42.9648438 C27.2246094,42.9648438 26.7265625,42.9453125 26.1796875,42.90625 C25.0859375,42.90625 23.9628906,42.8964844 22.8105469,42.8769531 C21.6582031,42.8574219 20.5351562,42.8476562 19.4414062,42.8476562 L19.4414062,42.8476562 L16.1601562,42.8476562 L9.94921875,43.0234375 C9.51953125,43.0625 9.16796875,43.0820312 8.89453125,43.0820312 L8.89453125,43.0820312 L8.25,43.0820312 C7.9375,43.1601562 7.72265625,43.296875 7.60546875,43.4921875 C7.44921875,43.7265625 7.32226562,43.9902344 7.22460938,44.2832031 C7.12695312,44.5761719 7.09765625,44.859375 7.13671875,45.1328125 C7.13671875,45.40625 7.1171875,45.5625 7.078125,45.6015625 L7.078125,45.6015625 L7.13671875,45.6601562 C7.09765625,45.6992188 7.09765625,45.71875 7.13671875,45.71875 L7.13671875,45.71875 L7.1953125,45.7773438 C7.1953125,45.8164062 7.234375,45.8359375 7.3125,45.8359375 L7.3125,45.8359375 L31.6875,45.8359375 Z M31.5117188,45.4257812 L7.48828125,45.4257812 C7.44921875,45.3085938 7.46875,45.1132812 7.546875,44.8398438 C7.5859375,44.7617188 7.60546875,44.6640625 7.60546875,44.546875 C7.60546875,44.4296875 7.625,44.3125 7.6640625,44.1953125 C7.7421875,43.7265625 7.91796875,43.4921875 8.19140625,43.4921875 C8.38671875,43.453125 8.63085938,43.4335938 8.92382812,43.4335938 C9.21679688,43.4335938 9.578125,43.4140625 10.0078125,43.375 L10.0078125,43.375 L11.3554688,43.375 C11.8242188,43.375 12.3320312,43.3554688 12.8789062,43.3164062 C13.9726562,43.2773438 15.0859375,43.2480469 16.21875,43.2285156 C17.3515625,43.2089844 18.4453125,43.1992188 19.5,43.1992188 C20.4765625,43.1992188 21.5507812,43.2089844 22.7226562,43.2285156 C23.8945312,43.2480469 25.0078125,43.2773438 26.0625,43.3164062 C26.609375,43.3554688 27.1171875,43.375 27.5859375,43.375 L27.5859375,43.375 L28.9335938,43.375 C29.3632812,43.4140625 29.7246094,43.4335938 30.0175781,43.4335938 C30.3105469,43.4335938 30.5351562,43.453125 30.6914062,43.4921875 C30.8867188,43.4921875 31.0039062,43.5507812 31.0429688,43.6679688 C31.2382812,44.0195312 31.375,44.4101562 31.453125,44.8398438 C31.453125,45.1132812 31.4726562,45.3085938 31.5117188,45.4257812 L31.5117188,45.4257812 Z" id="20" fill="currentColor" fill-rule="nonzero"></path>
    </g>
</svg>