<?xml version="1.0" encoding="UTF-8"?>
<svg width="25px" height="47px" viewBox="0 0 25 47" version="1.1" xmlns="http://www.w3.org/2000/svg" xmlns:xlink="http://www.w3.org/1999/xlink">
    <title>36</title>
    <g id="Page-1" stroke="none" stroke-width="1" fill="none" fill-rule="evenodd">
        <path d="M19.8828125,46.8359375 C20.703125,46.8359375 21.40625,46.5527344 21.9921875,45.9863281 C22.578125,45.4199219 23.0859375,44.609375 23.515625,43.5546875 C23.9453125,42.5390625 24.2675781,41.2695312 24.4824219,39.7460938 C24.6972656,38.2226562 24.8242188,36.4648438 24.8632812,34.4726562 L24.8632812,34.4726562 L24.8046875,14.1992188 C24.84375,11.7382812 24.6191406,9.65820312 24.1308594,7.95898438 C23.6425781,6.25976562 22.9101562,4.84375 21.9335938,3.7109375 C20.9570312,2.578125 19.6777344,1.76757812 18.0957031,1.27929688 C16.5136719,0.791015625 14.6484375,0.546875 12.5,0.546875 C10.2734375,0.546875 8.38867188,0.791015625 6.84570312,1.27929688 C5.30273438,1.76757812 4.0234375,2.578125 3.0078125,3.7109375 C1.9921875,4.84375 1.25976562,6.25976562 0.810546875,7.95898438 C0.361328125,9.65820312 0.1171875,11.7382812 0.078125,14.1992188 L0.078125,14.1992188 L0.13671875,34.4726562 C0.09765625,36.4648438 0.205078125,38.2226562 0.458984375,39.7460938 C0.712890625,41.2695312 1.03515625,42.5390625 1.42578125,43.5546875 C1.81640625,44.609375 2.32421875,45.4199219 2.94921875,45.9863281 C3.57421875,46.5527344 4.2578125,46.8359375 5,46.8359375 L5,46.8359375 L19.8828125,46.8359375 Z M19.9414062,46.4257812 L5,46.4257812 C4.3359375,46.4257812 3.7109375,46.1621094 3.125,45.6347656 C2.5390625,45.1074219 2.0703125,44.3359375 1.71875,43.3203125 C1.328125,42.3046875 1.02539062,41.0546875 0.810546875,39.5703125 C0.595703125,38.0859375 0.5078125,36.3867188 0.546875,34.4726562 L0.546875,34.4726562 L0.48828125,14.1992188 C0.52734375,11.2695312 0.869140625,8.93554688 1.51367188,7.19726563 C2.15820312,5.45898438 3.046875,4.12109375 4.1796875,3.18359375 C5.3125,2.24609375 6.57226562,1.63085938 7.95898438,1.33789062 C9.34570312,1.04492188 10.859375,0.8984375 12.5,0.8984375 C14.1015625,0.8984375 15.6054688,1.04492188 17.0117188,1.33789062 C18.4179688,1.63085938 19.6875,2.24609375 20.8203125,3.18359375 C21.953125,4.12109375 22.8320312,5.45898438 23.4570312,7.19726563 C24.0820312,8.93554688 24.4140625,11.2695312 24.453125,14.1992188 L24.453125,14.1992188 L24.3945312,34.4726562 C24.4335938,36.3867188 24.3457031,38.0859375 24.1308594,39.5703125 C23.9160156,41.0546875 23.6328125,42.3046875 23.28125,43.3203125 C22.5,45.390625 21.3867188,46.4257812 19.9414062,46.4257812 L19.9414062,46.4257812 Z M12.5,45.4882812 C13.0859375,45.4882812 13.6816406,45.4589844 14.2871094,45.4003906 C14.8925781,45.3417969 15.4492188,45.2734375 15.9570312,45.1953125 C16.9335938,45 17.8125,44.7460938 18.59375,44.4335938 L18.59375,44.4335938 L18.6523438,44.4335938 C19.7460938,43.9257812 20.546875,43.3203125 21.0546875,42.6171875 C22.1484375,41.171875 22.7148438,39.375 22.7539062,37.2265625 L22.7539062,37.2265625 L22.7539062,35.5566406 C22.7539062,34.9902344 22.7734375,34.4140625 22.8125,33.828125 L22.8125,33.828125 L22.7539062,16.953125 C22.7929688,15.5859375 22.734375,14.3457031 22.578125,13.2324219 C22.421875,12.1191406 22.2070312,11.09375 21.9335938,10.15625 C21.6601562,9.2578125 21.2988281,8.46679688 20.8496094,7.78320312 C20.4003906,7.09960938 19.9023438,6.50390625 19.3554688,5.99609375 L19.3554688,5.99609375 L19.3554688,5.9375 L19.296875,5.9375 C18.8671875,5.5859375 18.4179688,5.28320312 17.9492188,5.02929688 C17.4804688,4.77539062 16.9726562,4.5703125 16.4257812,4.4140625 C15.8398438,4.2578125 15.234375,4.13085938 14.609375,4.03320312 C13.984375,3.93554688 13.2617187,3.88671875 12.4414062,3.88671875 C11.6992188,3.88671875 10.9960938,3.93554688 10.3320312,4.03320312 C9.66796875,4.13085938 9.0625,4.2578125 8.515625,4.4140625 C7.96875,4.5703125 7.45117188,4.77539062 6.96289062,5.02929688 C6.47460938,5.28320312 6.0546875,5.5859375 5.703125,5.9375 L5.703125,5.9375 L5.64453125,5.9375 C5.60546875,5.9375 5.5859375,5.95703125 5.5859375,5.99609375 C5.546875,5.99609375 5.546875,6.015625 5.5859375,6.0546875 C5,6.5625 4.50195312,7.1484375 4.09179688,7.8125 C3.68164062,8.4765625 3.3203125,9.2578125 3.0078125,10.15625 C2.6953125,11.09375 2.48046875,12.1191406 2.36328125,13.2324219 C2.24609375,14.3457031 2.16796875,15.5859375 2.12890625,16.953125 L2.12890625,16.953125 L2.1875,33.828125 C2.1484375,35 2.15820312,36.1328125 2.21679688,37.2265625 C2.27539062,38.3203125 2.44140625,39.3164062 2.71484375,40.2148438 C2.94921875,41.1132812 3.34960938,41.9238281 3.91601562,42.6464844 C4.48242188,43.3691406 5.2734375,43.9648438 6.2890625,44.4335938 C6.71875,44.5898438 7.1484375,44.7363281 7.578125,44.8730469 C8.0078125,45.0097656 8.49609375,45.1171875 9.04296875,45.1953125 C9.58984375,45.2734375 10.1367188,45.3417969 10.6835938,45.4003906 C11.2304688,45.4589844 11.8359375,45.4882812 12.5,45.4882812 Z M12.5,6.93359375 C11.40625,6.93359375 10.4492188,6.875 9.62890625,6.7578125 C7.91015625,6.5625 6.77734375,6.34765625 6.23046875,6.11328125 L6.23046875,6.11328125 L6.11328125,6.0546875 C6.85546875,5.4296875 7.6953125,5 8.6328125,4.765625 C9.765625,4.453125 11.0351562,4.296875 12.4414062,4.296875 C13.2226562,4.296875 13.9257812,4.3359375 14.5507812,4.4140625 C15.1757812,4.4921875 15.78125,4.609375 16.3671875,4.765625 C16.875,4.8828125 17.3144531,5.04882812 17.6855469,5.26367188 C18.0566406,5.47851562 18.4375,5.7421875 18.828125,6.0546875 L18.828125,6.0546875 L18.7109375,6.11328125 C18.4765625,6.19140625 18.046875,6.30859375 17.421875,6.46484375 C16.875,6.58203125 16.171875,6.68945312 15.3125,6.78710938 C14.453125,6.88476562 13.515625,6.93359375 12.5,6.93359375 Z M18.4765625,44.0820312 L18.125,43.9648438 C17.96875,43.9257812 17.7832031,43.8867188 17.5683594,43.8476562 C17.3535156,43.8085938 17.0898438,43.7695312 16.7773438,43.7304688 C16.1914062,43.6523438 15.546875,43.5742188 14.84375,43.4960938 C14.140625,43.4179688 13.3398438,43.3789062 12.4414062,43.3789062 C12.0507812,43.3789062 11.6699219,43.3886719 11.2988281,43.4082031 C10.9277344,43.4277344 10.546875,43.4570312 10.15625,43.4960938 C9.375,43.5742188 8.7109375,43.6523438 8.1640625,43.7304688 C7.6171875,43.8085938 7.1875,43.8867188 6.875,43.9648438 L6.875,43.9648438 L6.40625,44.0820312 C4.609375,43.2226562 3.49609375,41.875 3.06640625,40.0390625 C2.83203125,39.140625 2.67578125,38.1640625 2.59765625,37.109375 C2.51953125,36.0546875 2.5,34.9609375 2.5390625,33.828125 L2.5390625,33.828125 L2.48046875,16.953125 C2.51953125,15.625 2.59765625,14.4140625 2.71484375,13.3203125 C2.83203125,12.2265625 3.046875,11.2304688 3.359375,10.3320312 C3.9453125,8.57421875 4.765625,7.24609375 5.8203125,6.34765625 L5.8203125,6.34765625 L6.171875,6.46484375 C6.484375,6.58203125 6.9140625,6.69921875 7.4609375,6.81640625 C8.046875,6.93359375 8.75,7.05078125 9.5703125,7.16796875 C10.390625,7.28515625 11.3671875,7.34375 12.5,7.34375 C13.5546875,7.34375 14.5117188,7.28515625 15.3710938,7.16796875 C16.2304688,7.05078125 16.9335938,6.93359375 17.4804688,6.81640625 C18.0273438,6.69921875 18.4765625,6.58203125 18.828125,6.46484375 L18.828125,6.46484375 L19.1796875,6.34765625 C19.6875,6.81640625 20.15625,7.37304688 20.5859375,8.01757812 C21.015625,8.66210938 21.3671875,9.43359375 21.640625,10.3320312 C21.875,11.2304688 22.0703125,12.2265625 22.2265625,13.3203125 C22.3828125,14.4140625 22.4414062,15.625 22.4023438,16.953125 L22.4023438,16.953125 L22.4609375,33.828125 C22.421875,34.375 22.4023438,34.921875 22.4023438,35.46875 L22.4023438,35.46875 L22.4023438,37.109375 C22.3632812,37.65625 22.3144531,38.1738281 22.2558594,38.6621094 C22.1972656,39.1503906 22.0898438,39.609375 21.9335938,40.0390625 C21.6601562,40.9375 21.2695312,41.7285156 20.7617188,42.4121094 C20.2539062,43.0957031 19.4921875,43.6523438 18.4765625,44.0820312 L18.4765625,44.0820312 Z M19.8828125,35.9960938 C20.3125,35.9960938 20.6835938,35.8398438 20.9960938,35.5273438 C21.2304688,35.3320312 21.3867188,34.9804688 21.4648438,34.4726562 L21.4648438,34.4726562 L21.40625,13.90625 C21.4453125,13.7109375 21.3867188,13.4960938 21.2304688,13.2617188 C21.1523438,13.1835938 21.0449219,13.125 20.9082031,13.0859375 C20.7714844,13.046875 20.6640625,13.0273438 20.5859375,13.0273438 L20.5859375,13.0273438 L4.35546875,13.0273438 C4.27734375,13.0273438 4.1796875,13.046875 4.0625,13.0859375 C3.9453125,13.125 3.84765625,13.1835938 3.76953125,13.2617188 C3.69140625,13.3398438 3.62304688,13.4375 3.56445312,13.5546875 C3.50585938,13.671875 3.49609375,13.7890625 3.53515625,13.90625 L3.53515625,13.90625 L3.4765625,34.4726562 C3.5546875,34.9804688 3.7109375,35.3320312 3.9453125,35.5273438 C4.2578125,35.8398438 4.62890625,35.9960938 5.05859375,35.9960938 L5.05859375,35.9960938 L19.8828125,35.9960938 Z M19.9414062,35.6445312 L5,35.6445312 C4.6875,35.6445312 4.43359375,35.5273438 4.23828125,35.2929688 C4.19921875,35.2148438 4.16015625,35.1464844 4.12109375,35.0878906 C4.08203125,35.0292969 4.04296875,34.9609375 4.00390625,34.8828125 C3.88671875,34.765625 3.84765625,34.6289062 3.88671875,34.4726562 L3.88671875,34.4726562 L3.828125,13.90625 C3.8671875,13.8671875 3.88671875,13.828125 3.88671875,13.7890625 C3.88671875,13.75 3.90625,13.7109375 3.9453125,13.671875 C3.9453125,13.671875 3.959375,13.6578125 3.9875,13.6296875 L4.1796875,13.4375 C4.21875,13.3984375 4.296875,13.3789062 4.4140625,13.3789062 L4.4140625,13.3789062 L20.5273438,13.3789062 C20.6445312,13.3789062 20.7226562,13.3984375 20.7617188,13.4375 C20.8007812,13.4765625 20.8300781,13.4960938 20.8496094,13.4960938 C20.8691406,13.4960938 20.8984375,13.515625 20.9375,13.5546875 L20.9375,13.5546875 L21.0546875,13.671875 C21.0546875,13.7890625 21.0742188,13.8671875 21.1132812,13.90625 L21.1132812,13.90625 L21.0546875,34.4726562 C21.09375,34.5898438 21.0742188,34.7265625 20.9960938,34.8828125 C20.9179688,34.9609375 20.859375,35.0292969 20.8203125,35.0878906 C20.78125,35.1464844 20.7421875,35.2148438 20.703125,35.2929688 C20.546875,35.5273438 20.2929688,35.6445312 19.9414062,35.6445312 L19.9414062,35.6445312 Z M19.4726562,34.8242188 C19.7460938,34.8242188 19.9609375,34.7460938 20.1171875,34.5898438 C20.234375,34.4726562 20.3320312,34.2773438 20.4101562,34.0039062 L20.4101562,34.0039062 L20.3515625,22.8125 L20.3515625,14.4335938 C20.390625,14.3945312 20.390625,14.3554688 20.3515625,14.3164062 C20.3125,14.3164062 20.2929688,14.296875 20.2929688,14.2578125 L20.2929688,14.2578125 L20.1757812,14.1992188 L4.765625,14.1992188 L4.6484375,14.2578125 C4.6484375,14.296875 4.62890625,14.3164062 4.58984375,14.3164062 C4.55078125,14.3554688 4.55078125,14.3945312 4.58984375,14.4335938 L4.58984375,14.4335938 L4.58984375,18.5351562 L4.53125,18.59375 L4.58984375,22.6367188 L4.58984375,22.7539062 L4.53125,34.0039062 C4.609375,34.2773438 4.70703125,34.4726562 4.82421875,34.5898438 C4.98046875,34.7460938 5.1953125,34.8242188 5.46875,34.8242188 L5.46875,34.8242188 L19.4726562,34.8242188 Z M19.9414062,18.4179688 L5,18.4179688 L5,14.609375 L19.9414062,14.609375 L19.9414062,18.4179688 Z M13.4960938,17.7734375 C13.5742188,17.7734375 13.6816406,17.7441406 13.8183594,17.6855469 C13.9550781,17.6269531 14.0625,17.5585938 14.140625,17.4804688 C14.296875,17.2460938 14.3554688,17.0507812 14.3164062,16.8945312 C14.3554688,16.6992188 14.296875,16.484375 14.140625,16.25 C14.0625,16.171875 13.9550781,16.1132812 13.8183594,16.0742188 C13.6816406,16.0351562 13.5742188,16.015625 13.4960938,16.015625 L13.4960938,16.015625 L11.4453125,16.015625 C11.3671875,16.015625 11.2695312,16.0351562 11.1523438,16.0742188 C11.0351562,16.1132812 10.9375,16.171875 10.859375,16.25 C10.78125,16.328125 10.7128906,16.4257812 10.6542969,16.5429688 C10.5957031,16.6601562 10.5859375,16.7773438 10.625,16.8945312 C10.5859375,17.0117188 10.5957031,17.1191406 10.6542969,17.2167969 C10.7128906,17.3144531 10.78125,17.4023438 10.859375,17.4804688 C10.9765625,17.6757812 11.171875,17.7734375 11.4453125,17.7734375 L11.4453125,17.7734375 L13.4960938,17.7734375 Z M13.4960938,17.3632812 L11.4453125,17.3632812 C11.40625,17.3632812 11.3476562,17.3535156 11.2695312,17.3339844 C11.1914062,17.3144531 11.1523438,17.2851562 11.1523438,17.2460938 L11.1523438,17.2460938 L11.0351562,17.0703125 C10.9570312,16.9921875 10.9375,16.9335938 10.9765625,16.8945312 C10.9375,16.8164062 10.9570312,16.7382812 11.0351562,16.6601562 L11.0351562,16.6601562 L11.1523438,16.5429688 C11.1523438,16.5039062 11.1914062,16.4746094 11.2695312,16.4550781 C11.3476562,16.4355469 11.40625,16.4257812 11.4453125,16.4257812 L11.4453125,16.4257812 L13.4960938,16.4257812 C13.6523438,16.4257812 13.7695312,16.4648438 13.8476562,16.5429688 L13.8476562,16.5429688 L13.8664062,16.5617188 C13.8851562,16.5804688 13.9179688,16.6132812 13.9648438,16.6601562 C14.0429688,16.7382812 14.0429688,16.8164062 13.9648438,16.8945312 C14.0429688,16.9335938 14.0429688,16.9921875 13.9648438,17.0703125 C13.8867188,17.1484375 13.8476562,17.2070312 13.8476562,17.2460938 C13.7695312,17.3242188 13.6523438,17.3632812 13.4960938,17.3632812 L13.4960938,17.3632812 Z M19.9414062,22.578125 L5,22.578125 L5,18.7695312 L19.9414062,18.7695312 L19.9414062,22.578125 Z M18.0078125,21.3476562 C18.203125,21.3476562 18.3789062,21.2695312 18.5351562,21.1132812 C18.6914062,20.9570312 18.75,20.8007812 18.7109375,20.6445312 C18.75,20.4492188 18.6914062,20.2734375 18.5351562,20.1171875 C18.4179688,20 18.2421875,19.9414062 18.0078125,19.9414062 L18.0078125,19.9414062 L6.93359375,19.9414062 C6.73828125,19.9414062 6.58203125,20 6.46484375,20.1171875 C6.38671875,20.1953125 6.31835938,20.2734375 6.25976562,20.3515625 C6.20117188,20.4296875 6.19140625,20.5273438 6.23046875,20.6445312 C6.19140625,20.7226562 6.20117188,20.8007812 6.25976562,20.8789062 C6.31835938,20.9570312 6.38671875,21.0351562 6.46484375,21.1132812 C6.62109375,21.2695312 6.77734375,21.3476562 6.93359375,21.3476562 L6.93359375,21.3476562 L18.0078125,21.3476562 Z M18.0078125,20.9960938 L6.93359375,20.9960938 C6.77734375,20.9960938 6.69921875,20.9570312 6.69921875,20.8789062 C6.69921875,20.8398438 6.6796875,20.8007812 6.640625,20.7617188 C6.6015625,20.7226562 6.6015625,20.6835938 6.640625,20.6445312 C6.6015625,20.6054688 6.6015625,20.5664062 6.640625,20.5273438 C6.6796875,20.4882812 6.69921875,20.4492188 6.69921875,20.4101562 C6.69921875,20.3320312 6.77734375,20.2929688 6.93359375,20.2929688 L6.93359375,20.2929688 L18.0078125,20.2929688 C18.1640625,20.2929688 18.2421875,20.3320312 18.2421875,20.4101562 C18.2421875,20.4492188 18.2617188,20.4882812 18.3007812,20.5273438 C18.3398438,20.5664062 18.3398438,20.6054688 18.3007812,20.6445312 C18.3398438,20.6835938 18.3398438,20.7226562 18.3007812,20.7617188 C18.2617188,20.8007812 18.2421875,20.8398438 18.2421875,20.8789062 C18.2421875,20.9570312 18.1640625,20.9960938 18.0078125,20.9960938 L18.0078125,20.9960938 Z M19.4726562,34.4140625 L5.46875,34.4140625 C5.3515625,34.4140625 5.2734375,34.3945312 5.234375,34.3554688 C5.078125,34.3554688 5,34.2773438 5,34.1210938 C5,34.0820312 4.98046875,34.0429688 4.94140625,34.0039062 L4.94140625,34.0039062 L5,22.9296875 L19.9414062,22.9296875 L20,34.0039062 C19.9609375,34.0429688 19.9414062,34.0820312 19.9414062,34.1210938 C19.9414062,34.1992188 19.921875,34.2578125 19.8828125,34.296875 C19.8046875,34.3359375 19.7460938,34.3652344 19.7070312,34.3847656 C19.6679688,34.4042969 19.5898438,34.4140625 19.4726562,34.4140625 L19.4726562,34.4140625 Z M12.5,28.2617188 C12.7734375,28.2617188 13.0566406,28.203125 13.3496094,28.0859375 C13.6425781,27.96875 13.8867188,27.8125 14.0820312,27.6171875 C14.2773438,27.421875 14.4335938,27.1875 14.5507812,26.9140625 C14.6679688,26.640625 14.7070312,26.3476562 14.6679688,26.0351562 C14.7070312,25.7226562 14.6679688,25.4296875 14.5507812,25.15625 C14.4335938,24.8828125 14.2773438,24.6484375 14.0820312,24.453125 C13.8867188,24.2578125 13.6425781,24.1015625 13.3496094,23.984375 C13.0566406,23.8671875 12.7734375,23.8085938 12.5,23.8085938 C11.875,23.8085938 11.3476562,24.0234375 10.9179688,24.453125 C10.5273438,24.8046875 10.2929688,25.3320312 10.2148438,26.0351562 C10.2929688,26.7382812 10.5273438,27.265625 10.9179688,27.6171875 C11.3476562,28.046875 11.875,28.2617188 12.5,28.2617188 Z M12.4414062,27.8515625 C12.2460938,27.8515625 12.0214844,27.8027344 11.7675781,27.7050781 C11.5136719,27.6074219 11.328125,27.4804688 11.2109375,27.3242188 C11.0546875,27.1679688 10.9179688,26.9824219 10.8007812,26.7675781 C10.6835938,26.5527344 10.6445312,26.3085938 10.6835938,26.0351562 C10.6445312,25.8007812 10.6835938,25.5664062 10.8007812,25.3320312 C10.9179688,25.0976562 11.0546875,24.9023438 11.2109375,24.7460938 C11.328125,24.5898438 11.5136719,24.4628906 11.7675781,24.3652344 C12.0214844,24.2675781 12.2460938,24.21875 12.4414062,24.21875 C12.9101562,24.21875 13.359375,24.3945312 13.7890625,24.7460938 C13.984375,24.9023438 14.1113281,25.0976562 14.1699219,25.3320312 C14.2285156,25.5664062 14.2773438,25.8007812 14.3164062,26.0351562 C14.2382812,26.6601562 14.0625,27.0898438 13.7890625,27.3242188 C13.359375,27.6757812 12.9101562,27.8515625 12.4414062,27.8515625 Z M12.5,32.65625 C12.7734375,32.65625 12.96875,32.5585938 13.0859375,32.3632812 C13.125,32.3242188 13.1835938,32.2265625 13.2617188,32.0703125 C13.3398438,31.9921875 13.359375,31.8945312 13.3203125,31.7773438 C13.359375,31.6992188 13.3398438,31.5820312 13.2617188,31.4257812 L13.2617188,31.4257812 L13.0859375,31.1914062 C12.96875,30.9960938 12.7734375,30.8984375 12.5,30.8984375 C12.3046875,30.8984375 12.109375,30.9960938 11.9140625,31.1914062 C11.7578125,31.3085938 11.640625,31.5039062 11.5625,31.7773438 C11.640625,32.0507812 11.7578125,32.2460938 11.9140625,32.3632812 C12.109375,32.5585938 12.3046875,32.65625 12.5,32.65625 Z M12.4414062,32.2460938 C12.4023438,32.2460938 12.34375,32.2363281 12.265625,32.2167969 C12.1875,32.1972656 12.1484375,32.1679688 12.1484375,32.1289062 L12.1484375,32.1289062 L12.03125,31.953125 C11.9921875,31.875 11.9921875,31.8164062 12.03125,31.7773438 C11.953125,31.6992188 11.953125,31.6210938 12.03125,31.5429688 L12.03125,31.5429688 L12.1484375,31.4257812 C12.1484375,31.3867188 12.1875,31.3574219 12.265625,31.3378906 C12.34375,31.3183594 12.4023438,31.3085938 12.4414062,31.3085938 L12.4414062,31.3085938 L12.6757812,31.3085938 C12.7148438,31.3476562 12.7636719,31.3769531 12.8222656,31.3964844 C12.8808594,31.4160156 12.9101562,31.4648438 12.9101562,31.5429688 C12.9101562,31.6601562 12.9296875,31.7382812 12.96875,31.7773438 C12.9296875,31.8164062 12.9101562,31.875 12.9101562,31.953125 C12.9101562,32.03125 12.890625,32.0898438 12.8515625,32.1289062 C12.7734375,32.1679688 12.7148438,32.1972656 12.6757812,32.2167969 C12.6367188,32.2363281 12.5585938,32.2460938 12.4414062,32.2460938 Z M12.5,45.078125 C11.8359375,45.078125 11.2304688,45.0585938 10.6835938,45.0195312 C10.1367188,44.9804688 9.609375,44.921875 9.1015625,44.84375 C8.7109375,44.765625 8.34960938,44.6777344 8.01757812,44.5800781 C7.68554688,44.4824219 7.36328125,44.3945312 7.05078125,44.3164062 C7.24609375,44.2773438 7.43164062,44.2480469 7.60742188,44.2285156 C7.78320312,44.2089844 7.98828125,44.1601562 8.22265625,44.0820312 C8.73046875,44.0039062 9.36523438,43.9355469 10.1269531,43.8769531 C10.8886719,43.8183594 11.6601562,43.7890625 12.4414062,43.7890625 L12.4414062,43.7890625 L13.671875,43.7890625 C14.0625,43.7890625 14.453125,43.8085938 14.84375,43.8476562 C15.5078125,43.9257812 16.1035156,44.0039062 16.6308594,44.0820312 C17.1582031,44.1601562 17.578125,44.2382812 17.890625,44.3164062 C17.578125,44.3945312 17.2460938,44.4824219 16.8945312,44.5800781 C16.5429688,44.6777344 16.1914062,44.765625 15.8398438,44.84375 C15.3710938,44.921875 14.84375,44.9804688 14.2578125,45.0195312 C13.671875,45.0585938 13.0859375,45.078125 12.5,45.078125 Z" id="36" fill="currentColor" fill-rule="nonzero"></path>
    </g>
</svg>