<?xml version="1.0" encoding="UTF-8"?>
<svg width="35px" height="41px" viewBox="0 0 35 41" version="1.1" xmlns="http://www.w3.org/2000/svg" xmlns:xlink="http://www.w3.org/1999/xlink">
    <title>18</title>
    <g id="Page-1" stroke="none" stroke-width="1" fill="none" fill-rule="evenodd">
        <path d="M33.7304688,27.6523438 C33.7695312,27.6523438 33.7890625,27.6328125 33.7890625,27.59375 L33.7890625,27.59375 L33.8476562,27.5351562 C33.8867188,27.4960938 33.8867188,27.4765625 33.8476562,27.4765625 L33.8476562,27.4765625 L33.90625,0.46484375 C33.8671875,0.42578125 33.8476562,0.38671875 33.8476562,0.34765625 L33.8476562,0.34765625 L33.7304688,0.2890625 L1.2109375,0.2890625 L1.09375,0.34765625 C1.09375,0.38671875 1.07421875,0.42578125 1.03515625,0.46484375 L1.03515625,0.46484375 L1.09375,27.4765625 C1.0546875,27.4765625 1.0546875,27.4960938 1.09375,27.5351562 L1.09375,27.5351562 L1.15234375,27.59375 C1.15234375,27.6328125 1.171875,27.6523438 1.2109375,27.6523438 L1.2109375,27.6523438 L33.7304688,27.6523438 Z M33.4960938,27.3007812 L1.4453125,27.3007812 L1.50390625,0.640625 L33.4375,0.640625 L33.4960938,27.3007812 Z M30.9765625,24.9570312 L31.09375,24.8984375 L31.09375,24.8984375 L31.1523438,24.8398438 C31.1914062,24.8007812 31.1914062,24.78125 31.1523438,24.78125 L31.1523438,24.78125 L31.2109375,3.16015625 C31.171875,3.12109375 31.1523438,3.08203125 31.1523438,3.04296875 L31.1523438,3.04296875 L31.0351562,2.984375 L3.90625,2.984375 L3.7890625,3.04296875 C3.7890625,3.08203125 3.76953125,3.12109375 3.73046875,3.16015625 L3.73046875,3.16015625 L3.7890625,24.78125 C3.75,24.78125 3.75,24.8007812 3.7890625,24.8398438 L3.7890625,24.8398438 L3.84765625,24.8984375 L3.96484375,24.9570312 L30.9765625,24.9570312 Z M30.8007812,24.546875 L4.140625,24.546875 L4.19921875,3.3359375 L30.7421875,3.3359375 L30.8007812,24.546875 Z M33.671875,40.8359375 C33.7109375,40.8359375 33.7304688,40.8164062 33.7304688,40.7773438 C33.7695312,40.7773438 33.7890625,40.7578125 33.7890625,40.71875 L33.7890625,40.71875 L33.8476562,40.6601562 C33.8867188,40.6601562 33.8867188,40.640625 33.8476562,40.6015625 L33.8476562,40.6015625 L33.90625,38.140625 L34.3164062,38.140625 C34.3945312,38.140625 34.4335938,38.1210938 34.4335938,38.0820312 L34.4335938,38.0820312 L34.4921875,38.0234375 C34.53125,38.0234375 34.5507812,38.0039062 34.5507812,37.9648438 C34.5117188,37.9648438 34.5117188,37.9453125 34.5507812,37.90625 L34.5507812,37.90625 L34.5507812,34.0976562 L34.4921875,28.8242188 C34.53125,28.7851562 34.5507812,28.7460938 34.5507812,28.7070312 C34.5117188,28.7070312 34.4921875,28.6875 34.4921875,28.6484375 L34.4921875,28.6484375 L0.44921875,28.6484375 L0.44921875,28.7070312 C0.41015625,28.7460938 0.41015625,28.7851562 0.44921875,28.8242188 L0.44921875,28.8242188 L0.390625,34.2148438 L0.390625,37.90625 L0.44921875,37.9648438 C0.41015625,38.0039062 0.41015625,38.0234375 0.44921875,38.0234375 L0.44921875,38.0234375 L0.5078125,38.0820312 C0.5078125,38.1210938 0.546875,38.140625 0.625,38.140625 L0.625,38.140625 L1.03515625,38.140625 L1.09375,40.6015625 C1.0546875,40.640625 1.0546875,40.6601562 1.09375,40.6601562 L1.09375,40.6601562 L1.15234375,40.71875 C1.15234375,40.7578125 1.171875,40.7773438 1.2109375,40.7773438 L1.2109375,40.7773438 L1.26953125,40.8359375 L33.671875,40.8359375 Z M34.140625,34.0390625 L0.80078125,34.0390625 L0.7421875,29 L34.1992188,29 L34.140625,34.0390625 Z M8.7109375,33.21875 C8.828125,33.21875 8.96484375,33.1992188 9.12109375,33.1601562 C9.27734375,33.1210938 9.39453125,33.0429688 9.47265625,32.9257812 L9.47265625,32.9257812 L9.765625,32.6328125 C9.84375,32.4765625 9.86328125,32.3398438 9.82421875,32.2226562 L9.82421875,32.2226562 L13.1640625,32.2226562 C13.203125,32.2226562 13.2226562,32.203125 13.2226562,32.1640625 L13.2226562,32.1640625 L13.28125,32.1054688 C13.28125,32.0664062 13.2617188,32.046875 13.2226562,32.046875 L13.2226562,32.046875 L13.28125,30.9921875 C13.2421875,30.953125 13.2421875,30.9140625 13.28125,30.875 L13.28125,30.875 L13.1640625,30.8164062 L9.8828125,30.8164062 C9.84375,30.5039062 9.70703125,30.25 9.47265625,30.0546875 C9.35546875,29.9765625 9.23828125,29.9082031 9.12109375,29.8496094 C9.00390625,29.7910156 8.84765625,29.7617188 8.65234375,29.7617188 L8.65234375,29.7617188 L8.06640625,29.7617188 C7.87109375,29.7617188 7.71484375,29.7910156 7.59765625,29.8496094 C7.48046875,29.9082031 7.36328125,29.9765625 7.24609375,30.0546875 C7.12890625,30.171875 7.04101562,30.2890625 6.98242188,30.40625 C6.92382812,30.5234375 6.85546875,30.6601562 6.77734375,30.8164062 L6.77734375,30.8164062 L3.49609375,30.8164062 C3.45703125,30.8554688 3.45703125,30.875 3.49609375,30.875 C3.49609375,30.9140625 3.4765625,30.953125 3.4375,30.9921875 L3.4375,30.9921875 L3.49609375,32.046875 C3.45703125,32.046875 3.45703125,32.0664062 3.49609375,32.1054688 L3.49609375,32.1054688 L3.49609375,32.1640625 C3.49609375,32.203125 3.515625,32.2226562 3.5546875,32.2226562 L3.5546875,32.2226562 L6.8359375,32.2226562 C6.8359375,32.3789062 6.89453125,32.515625 7.01171875,32.6328125 C7.05078125,32.7109375 7.12890625,32.8085938 7.24609375,32.9257812 C7.32421875,33.0429688 7.44140625,33.1210938 7.59765625,33.1601562 C7.75390625,33.1992188 7.890625,33.21875 8.0078125,33.21875 L8.0078125,33.21875 L8.7109375,33.21875 Z M8.65234375,32.8671875 L8.06640625,32.8671875 C7.87109375,32.8671875 7.75390625,32.8476562 7.71484375,32.8085938 C7.44140625,32.7304688 7.3046875,32.5742188 7.3046875,32.3398438 C7.265625,32.3007812 7.24609375,32.2617188 7.24609375,32.2226562 C7.24609375,32.1835938 7.2265625,32.125 7.1875,32.046875 C7.2265625,32.0078125 7.2265625,31.96875 7.1875,31.9296875 C7.1484375,31.9296875 7.12890625,31.9101562 7.12890625,31.8710938 L7.12890625,31.8710938 L3.7890625,31.8710938 L3.84765625,31.1679688 L7.0703125,31.1679688 C7.109375,31.1679688 7.12890625,31.1484375 7.12890625,31.109375 C7.16796875,31.109375 7.1875,31.0898438 7.1875,31.0507812 L7.1875,31.0507812 L7.24609375,30.9921875 C7.20703125,30.875 7.21679688,30.7675781 7.27539062,30.6699219 C7.33398438,30.5722656 7.40234375,30.484375 7.48046875,30.40625 C7.59765625,30.25 7.7734375,30.171875 8.0078125,30.171875 L8.0078125,30.171875 L8.7109375,30.171875 C8.7890625,30.171875 8.88671875,30.1914062 9.00390625,30.2304688 C9.12109375,30.2695312 9.21875,30.328125 9.296875,30.40625 C9.453125,30.640625 9.51171875,30.8359375 9.47265625,30.9921875 L9.47265625,30.9921875 L9.53125,31.0507812 C9.53125,31.0898438 9.55078125,31.109375 9.58984375,31.109375 L9.58984375,31.109375 L9.6484375,31.1679688 L12.8710938,31.1679688 L12.9296875,31.8710938 L9.58984375,31.8710938 C9.58984375,31.9101562 9.5703125,31.9296875 9.53125,31.9296875 C9.4921875,31.96875 9.4921875,32.0078125 9.53125,32.046875 C9.4921875,32.125 9.47265625,32.2226562 9.47265625,32.3398438 C9.39453125,32.4960938 9.3359375,32.59375 9.296875,32.6328125 C9.1015625,32.7890625 8.88671875,32.8671875 8.65234375,32.8671875 L8.65234375,32.8671875 Z M29.5703125,32.3984375 C29.6484375,32.3984375 29.6875,32.3789062 29.6875,32.3398438 L29.6875,32.3398438 L29.7460938,32.28125 C29.7851562,32.28125 29.8046875,32.2617188 29.8046875,32.2226562 L29.8046875,32.2226562 L29.8632812,32.1640625 L29.8046875,30.8164062 C29.84375,30.8164062 29.84375,30.796875 29.8046875,30.7578125 C29.765625,30.7578125 29.7460938,30.7382812 29.7460938,30.6992188 L29.7460938,30.6992188 L29.6289062,30.640625 L17.4414062,30.640625 L17.3242188,30.6992188 L17.3242188,30.7578125 C17.2851562,30.796875 17.2851562,30.8164062 17.3242188,30.8164062 L17.3242188,30.8164062 L17.265625,32.1640625 L17.3242188,32.2226562 C17.2851562,32.2617188 17.2851562,32.28125 17.3242188,32.28125 L17.3242188,32.28125 L17.3828125,32.3398438 C17.3828125,32.3789062 17.421875,32.3984375 17.5,32.3984375 L17.5,32.3984375 L29.5703125,32.3984375 Z M31.9140625,32.3984375 C32.1875,32.3984375 32.3828125,32.3007812 32.5,32.1054688 C32.5390625,32.0664062 32.5976562,31.96875 32.6757812,31.8125 C32.7539062,31.734375 32.7734375,31.6367188 32.734375,31.5195312 C32.7734375,31.4023438 32.7636719,31.2851562 32.7050781,31.1679688 C32.6464844,31.0507812 32.578125,30.953125 32.5,30.875 C32.421875,30.796875 32.3242188,30.7382812 32.2070312,30.6992188 C32.0898438,30.6601562 31.9921875,30.640625 31.9140625,30.640625 C31.6796875,30.640625 31.484375,30.71875 31.328125,30.875 C31.171875,30.9921875 31.0546875,31.2070312 30.9765625,31.5195312 C31.0546875,31.7929688 31.171875,31.9882812 31.328125,32.1054688 C31.5234375,32.3007812 31.71875,32.3984375 31.9140625,32.3984375 Z M29.3945312,31.9882812 L17.6757812,31.9882812 L17.6171875,31.0507812 L29.453125,31.0507812 L29.3945312,31.9882812 Z M31.8554688,31.9882812 C31.8164062,31.9882812 31.7578125,31.9785156 31.6796875,31.9589844 C31.6015625,31.9394531 31.5625,31.9101562 31.5625,31.8710938 L31.5625,31.8710938 L31.4453125,31.6953125 C31.40625,31.6171875 31.40625,31.5585938 31.4453125,31.5195312 C31.3671875,31.4414062 31.3671875,31.3632812 31.4453125,31.2851562 L31.4453125,31.2851562 L31.5625,31.1679688 C31.5625,31.1289062 31.6015625,31.0996094 31.6796875,31.0800781 C31.7578125,31.0605469 31.8164062,31.0507812 31.8554688,31.0507812 L31.8554688,31.0507812 L32.0898438,31.0507812 C32.1289062,31.0898438 32.1777344,31.1191406 32.2363281,31.1386719 C32.2949219,31.1582031 32.3242188,31.2070312 32.3242188,31.2851562 C32.3242188,31.4023438 32.34375,31.4804688 32.3828125,31.5195312 C32.34375,31.5585938 32.3242188,31.6171875 32.3242188,31.6953125 C32.3242188,31.7734375 32.3046875,31.8320312 32.265625,31.8710938 C32.1875,31.9101562 32.1289062,31.9394531 32.0898438,31.9589844 C32.0507812,31.9785156 31.9726562,31.9882812 31.8554688,31.9882812 Z M34.140625,37.7304688 L0.80078125,37.7304688 L0.80078125,34.390625 L34.140625,34.390625 L34.140625,37.7304688 Z M17.5,36.96875 C17.578125,36.96875 17.6757812,36.9492188 17.7929688,36.9101562 C17.9101562,36.8710938 18.0078125,36.8125 18.0859375,36.734375 C18.1640625,36.65625 18.2324219,36.5585938 18.2910156,36.4414062 C18.3496094,36.3242188 18.359375,36.2070312 18.3203125,36.0898438 C18.359375,36.0117188 18.3398438,35.8945312 18.2617188,35.7382812 L18.2617188,35.7382812 L18.0859375,35.5039062 C18.0078125,35.4257812 17.9101562,35.3671875 17.7929688,35.328125 C17.6757812,35.2890625 17.578125,35.2695312 17.5,35.2695312 C17.265625,35.2695312 17.0703125,35.3476562 16.9140625,35.5039062 C16.7578125,35.6210938 16.640625,35.8164062 16.5625,36.0898438 C16.640625,36.4023438 16.7578125,36.6171875 16.9140625,36.734375 C17.0703125,36.890625 17.265625,36.96875 17.5,36.96875 Z M17.4414062,36.6171875 C17.4023438,36.6171875 17.34375,36.5976562 17.265625,36.5585938 C17.1875,36.5195312 17.1484375,36.4804688 17.1484375,36.4414062 L17.1484375,36.4414062 L17.03125,36.265625 C16.9921875,36.1875 16.9921875,36.1289062 17.03125,36.0898438 C16.9921875,36.0117188 16.9921875,35.953125 17.03125,35.9140625 L17.03125,35.9140625 L17.1484375,35.7382812 C17.1484375,35.6601562 17.1875,35.6210938 17.265625,35.6210938 L17.265625,35.6210938 L17.6757812,35.6210938 C17.7148438,35.6601562 17.7636719,35.6992188 17.8222656,35.7382812 C17.8808594,35.7773438 17.9101562,35.8359375 17.9101562,35.9140625 C17.9101562,35.9921875 17.9296875,36.0507812 17.96875,36.0898438 C17.9296875,36.1289062 17.9101562,36.1875 17.9101562,36.265625 C17.9101562,36.34375 17.890625,36.4023438 17.8515625,36.4414062 L17.8515625,36.4414062 L17.6757812,36.5585938 C17.6367188,36.5976562 17.5585938,36.6171875 17.4414062,36.6171875 Z M33.4375,40.4257812 L1.50390625,40.4257812 L1.4453125,38.140625 L33.4960938,38.140625 L33.4375,40.4257812 Z" id="18" fill="currentColor" fill-rule="nonzero"></path>
    </g>
</svg>