<?xml version="1.0" encoding="UTF-8"?>
<svg width="41px" height="26px" viewBox="0 0 41 26" version="1.1" xmlns="http://www.w3.org/2000/svg" xmlns:xlink="http://www.w3.org/1999/xlink">
    <title>67</title>
    <g id="Page-1" stroke="none" stroke-width="1" fill="none" fill-rule="evenodd">
        <path d="M39.4257812,25.953125 C39.6210938,25.875 39.7382812,25.8164062 39.7773438,25.7773438 C39.8554688,25.7773438 39.953125,25.71875 40.0703125,25.6015625 C40.1484375,25.484375 40.1972656,25.3964844 40.2167969,25.3378906 C40.2363281,25.2792969 40.265625,25.1523438 40.3046875,24.9570312 L40.3046875,24.9570312 L40.2460938,24.7226562 L40.3046875,24.6640625 L40.3046875,24.546875 L40.2460938,24.4882812 L37.375,22.7304688 L37.3164062,1.28515625 C37.3554688,1.05078125 37.296875,0.85546875 37.140625,0.69921875 C37.0234375,0.58203125 36.828125,0.5234375 36.5546875,0.5234375 L36.5546875,0.5234375 L4.62109375,0.5234375 C4.38671875,0.5234375 4.2109375,0.58203125 4.09375,0.69921875 C4.015625,0.77734375 3.94726562,0.865234375 3.88867188,0.962890625 C3.83007812,1.06054688 3.8203125,1.16796875 3.859375,1.28515625 L3.859375,1.28515625 L3.80078125,22.7304688 L0.8125,24.4296875 L0.87109375,24.4882812 C0.79296875,24.5273438 0.7734375,24.546875 0.8125,24.546875 L0.8125,24.546875 L0.8125,24.6054688 L0.75390625,24.6640625 L0.8125,24.9570312 C0.7734375,25.1132812 0.79296875,25.2304688 0.87109375,25.3085938 C0.91015625,25.3476562 0.96875,25.4453125 1.046875,25.6015625 C1.125,25.71875 1.203125,25.7773438 1.28125,25.7773438 C1.4375,25.8554688 1.53515625,25.9140625 1.57421875,25.953125 L1.57421875,25.953125 L39.484375,25.8359375 L39.4257812,25.953125 Z M36.90625,22.5546875 L4.2109375,22.5546875 L4.15234375,1.28515625 L4.26953125,1.109375 L4.26953125,1.109375 L4.38671875,0.9921875 L4.50390625,0.875 L36.7304688,0.875 L36.7304688,0.875 L36.7492187,0.89375 C36.7679687,0.9125 36.8007812,0.9453125 36.8476562,0.9921875 C36.8867188,1.03125 36.90625,1.0703125 36.90625,1.109375 C36.90625,1.1875 36.9257812,1.24609375 36.9648438,1.28515625 L36.9648438,1.28515625 L36.90625,22.5546875 Z M20.5,1.9296875 C20.5,2.0078125 20.5390625,2.0078125 20.6171875,1.9296875 C20.6171875,1.96875 20.6464844,1.96875 20.7050781,1.9296875 C20.7636719,1.890625 20.7929688,1.8515625 20.7929688,1.8125 L20.7929688,1.8125 L20.8515625,1.75390625 C20.890625,1.71484375 20.890625,1.6953125 20.8515625,1.6953125 C20.9296875,1.578125 20.9296875,1.51953125 20.8515625,1.51953125 C20.8125,1.55859375 20.7929688,1.5390625 20.7929688,1.4609375 C20.7929688,1.3828125 20.7734375,1.34375 20.734375,1.34375 C20.65625,1.421875 20.6171875,1.40234375 20.6171875,1.28515625 C20.5390625,1.36328125 20.5,1.3828125 20.5,1.34375 L20.5,1.34375 L20.48125,1.3625 C20.4625,1.38125 20.4296875,1.4140625 20.3828125,1.4609375 C20.3697917,1.47395833 20.358941,1.48480903 20.3502604,1.49348958 L20.3242188,1.51953125 C20.3242188,1.51953125 20.3046875,1.55859375 20.265625,1.63671875 L20.265625,1.63671875 L20.3242188,1.75390625 C20.3242188,1.79296875 20.34375,1.8125 20.3828125,1.8125 L20.3828125,1.8125 L20.5,1.9296875 Z M35.9101562,21.734375 C35.9492188,21.734375 35.9882812,21.7148438 36.0273438,21.6757812 L36.0273438,21.6757812 L36.0859375,21.6757812 L36.0859375,21.6171875 C36.0859375,21.578125 36.1054688,21.5585938 36.1445312,21.5585938 L36.1445312,21.5585938 L36.0859375,2.45703125 C36.125,2.41796875 36.125,2.37890625 36.0859375,2.33984375 C36.046875,2.33984375 36.046875,2.3203125 36.0859375,2.28125 L36.0859375,2.28125 L5.1484375,2.28125 C5.1484375,2.3203125 5.12890625,2.33984375 5.08984375,2.33984375 C5.05078125,2.37890625 5.05078125,2.41796875 5.08984375,2.45703125 L5.08984375,2.45703125 L5.03125,21.5585938 C5.0703125,21.5585938 5.08984375,21.578125 5.08984375,21.6171875 C5.08984375,21.65625 5.109375,21.6757812 5.1484375,21.6757812 L5.1484375,21.6757812 L5.20703125,21.6757812 C5.20703125,21.7148438 5.2265625,21.734375 5.265625,21.734375 L5.265625,21.734375 L35.9101562,21.734375 Z M35.734375,21.3828125 L5.44140625,21.3828125 L5.3828125,2.6328125 L35.7929688,2.6328125 L35.734375,21.3828125 Z M18.8007812,24.8984375 C18.8789062,24.8203125 18.8789062,24.78125 18.8007812,24.78125 C18.7617188,24.8203125 18.7421875,24.8203125 18.7421875,24.78125 L18.7421875,24.78125 L18.7421875,24.7226562 C18.6640625,24.8007812 18.6640625,24.7617188 18.7421875,24.6054688 C18.703125,24.6445312 18.6835938,24.625 18.6835938,24.546875 C18.6835938,24.5078125 18.6640625,24.4882812 18.625,24.4882812 C18.5859375,24.5273438 18.5664062,24.5273438 18.5664062,24.4882812 C18.5664062,24.4492188 18.5273438,24.46875 18.4492188,24.546875 L18.4492188,24.546875 L1.6328125,24.4296875 L4.09375,22.9648438 L37.0820312,22.9648438 L39.6015625,24.546875 L22.609375,24.4296875 C22.53125,24.5078125 22.4921875,24.5273438 22.4921875,24.4882812 C22.4921875,24.4492188 22.4726562,24.4492188 22.4335938,24.4882812 L22.4335938,24.4882812 L22.375,24.546875 L22.375,24.6054688 C22.375,24.6445312 22.3554688,24.6835938 22.3164062,24.7226562 L22.3164062,24.7226562 L22.3164062,24.78125 C22.3164062,24.7421875 22.296875,24.7421875 22.2578125,24.78125 L22.2578125,24.78125 L18.8007812,24.8984375 Z M39.4257812,25.5429688 L1.6328125,25.4257812 C1.59375,25.4648438 1.53515625,25.4648438 1.45703125,25.4257812 C1.41796875,25.3867188 1.359375,25.3671875 1.28125,25.3671875 C1.203125,25.3671875 1.1640625,25.3085938 1.1640625,25.1914062 C1.1640625,25.1132812 1.14453125,25.0742188 1.10546875,25.0742188 L1.10546875,25.0742188 L1.1640625,24.78125 L18.3320312,24.8984375 C18.3320312,24.8984375 18.3460937,24.9125 18.3742187,24.940625 L18.4492188,25.015625 C18.4492188,25.1328125 18.4882812,25.1523438 18.5664062,25.0742188 C18.6054688,25.0742188 18.6445312,25.09375 18.6835938,25.1328125 C18.7617188,25.171875 18.8203125,25.171875 18.859375,25.1328125 L18.859375,25.1328125 L22.1992188,25.25 C22.2773437,25.171875 22.3359375,25.1328125 22.375,25.1328125 C22.4140625,25.171875 22.4726562,25.1523438 22.5507812,25.0742188 C22.5898438,25.0351562 22.6289062,25.015625 22.6679688,25.015625 L22.6679688,25.015625 L22.7265625,24.78125 L39.8945312,24.8984375 L39.953125,24.9570312 L39.8945312,25.1914062 C39.8945312,25.2304688 39.8554688,25.2890625 39.7773438,25.3671875 C39.6992188,25.4453125 39.640625,25.4648438 39.6015625,25.4257812 C39.5625,25.4257812 39.5039062,25.4648438 39.4257812,25.5429688 L39.4257812,25.5429688 Z" id="67" fill="currentColor" fill-rule="nonzero"></path>
    </g>
</svg>