<?xml version="1.0" encoding="UTF-8"?>
<svg width="43px" height="30px" viewBox="0 0 43 30" version="1.1" xmlns="http://www.w3.org/2000/svg" xmlns:xlink="http://www.w3.org/1999/xlink">
    <title>58</title>
    <g id="Page-1" stroke="none" stroke-width="1" fill="none" fill-rule="evenodd">
        <path d="M41.65625,29.8359375 C41.8125,29.8359375 42.0078125,29.796875 42.2421875,29.71875 C42.359375,29.640625 42.4863281,29.5527344 42.6230469,29.4550781 C42.7597656,29.3574219 42.8476562,29.2304688 42.8867188,29.0742188 C42.8867188,28.8789062 42.90625,28.703125 42.9453125,28.546875 L42.9453125,28.546875 L42.8867188,27.375 L42.9453125,27.3164062 C42.90625,27.3164062 42.90625,27.296875 42.9453125,27.2578125 L42.9453125,27.2578125 L42.9453125,27.1992188 C42.9453125,27.1601562 42.9355469,27.140625 42.9160156,27.140625 C42.8964844,27.140625 42.8867188,27.1210938 42.8867188,27.0820312 L42.8867188,27.0820312 L39.6054688,25.1484375 L39.546875,1.59375 C39.5859375,1.3984375 39.5273438,1.18359375 39.3710938,0.94921875 C39.2929688,0.87109375 39.1855469,0.8125 39.0488281,0.7734375 C38.9121094,0.734375 38.8046875,0.71484375 38.7265625,0.71484375 L38.7265625,0.71484375 L4.33203125,0.71484375 C4.25390625,0.71484375 4.15625,0.734375 4.0390625,0.7734375 C3.921875,0.8125 3.82421875,0.87109375 3.74609375,0.94921875 C3.66796875,1.02734375 3.59960938,1.125 3.54101563,1.2421875 C3.48242188,1.359375 3.47265625,1.4765625 3.51171875,1.59375 L3.51171875,1.59375 L3.453125,25.1484375 L0.171875,27.0820312 C0.171875,27.1601562 0.15234375,27.21875 0.11328125,27.2578125 L0.11328125,27.2578125 L0.171875,27.3164062 L0.171875,27.375 L0.11328125,28.546875 C0.19140625,29.015625 0.30859375,29.328125 0.46484375,29.484375 C0.69921875,29.71875 1.01171875,29.8359375 1.40234375,29.8359375 L1.40234375,29.8359375 L41.65625,29.8359375 Z M39.1367188,25.03125 L3.921875,25.03125 L3.86328125,1.59375 C3.90234375,1.5546875 3.921875,1.4765625 3.921875,1.359375 L3.921875,1.359375 L3.940625,1.340625 C3.959375,1.321875 3.9921875,1.2890625 4.0390625,1.2421875 L4.0390625,1.2421875 L4.15625,1.125 C4.1953125,1.0859375 4.2734375,1.06640625 4.390625,1.06640625 L4.390625,1.06640625 L38.6679688,1.06640625 C38.7851562,1.06640625 38.8632812,1.0859375 38.9023438,1.125 L38.9023438,1.125 L39.078125,1.2421875 C39.1171875,1.28125 39.1367188,1.3203125 39.1367188,1.359375 C39.1367188,1.4765625 39.15625,1.5546875 39.1953125,1.59375 L39.1953125,1.59375 L39.1367188,25.03125 Z M37.0859375,23.6835938 C37.125,23.6835938 37.1445312,23.6640625 37.1445312,23.625 L37.1445312,23.625 L37.203125,23.5664062 C37.2421875,23.5664062 37.2617188,23.546875 37.2617188,23.5078125 L37.2617188,23.5078125 L37.3203125,23.4492188 L37.2617188,3.234375 C37.3007812,3.234375 37.3007812,3.21484375 37.2617188,3.17578125 C37.2226562,3.17578125 37.203125,3.15625 37.203125,3.1171875 L37.203125,3.1171875 L37.1445312,3.05859375 L5.9140625,3.05859375 L5.85546875,3.1171875 C5.85546875,3.15625 5.8359375,3.17578125 5.796875,3.17578125 C5.7578125,3.21484375 5.7578125,3.234375 5.796875,3.234375 L5.796875,3.234375 L5.73828125,23.4492188 L5.796875,23.5078125 C5.796875,23.546875 5.81640625,23.5664062 5.85546875,23.5664062 L5.85546875,23.5664062 L5.9140625,23.625 C5.9140625,23.6640625 5.93359375,23.6835938 5.97265625,23.6835938 L5.97265625,23.6835938 L37.0859375,23.6835938 Z M36.8515625,23.2734375 L6.20703125,23.2734375 L6.1484375,3.46875 L36.9101562,3.46875 L36.8515625,23.2734375 Z M42.0664062,27.0820312 L0.9921875,27.0820312 L3.6875,25.3828125 L39.3710938,25.3828125 L42.0664062,27.0820312 Z M41.65625,29.4257812 L1.40234375,29.4257812 C1.16796875,29.4257812 1.03125,29.40625 0.9921875,29.3671875 C0.71875,29.2890625 0.58203125,29.1328125 0.58203125,28.8984375 C0.58203125,28.8984375 0.54296875,28.78125 0.46484375,28.546875 L0.46484375,28.546875 L0.5234375,27.4335938 L42.5351562,27.4335938 L42.59375,28.546875 C42.5546875,28.6640625 42.5351562,28.8007812 42.5351562,28.9570312 C42.4960938,29.0351562 42.4375,29.1132812 42.359375,29.1914062 C42.28125,29.2695312 42.1933594,29.328125 42.0957031,29.3671875 C41.9980469,29.40625 41.8515625,29.4257812 41.65625,29.4257812 L41.65625,29.4257812 Z M23.3164062,28.3125 C23.3554688,28.3125 23.375,28.2929688 23.375,28.2539062 C23.3359375,28.2539062 23.3359375,28.234375 23.375,28.1953125 C23.4140625,28.1953125 23.4140625,28.1757812 23.375,28.1367188 C23.4140625,28.0976562 23.4140625,28.0585938 23.375,28.0195312 C23.3359375,28.0195312 23.3359375,28 23.375,27.9609375 L23.375,27.9609375 L19.7421875,27.9609375 C19.7421875,28 19.7226562,28.0195312 19.6835938,28.0195312 C19.6445312,28.0585938 19.6445312,28.0976562 19.6835938,28.1367188 C19.6445312,28.1757812 19.6445312,28.1953125 19.6835938,28.1953125 L19.6835938,28.1953125 L19.7421875,28.2539062 C19.703125,28.2929688 19.7226562,28.3125 19.8007812,28.3125 L19.8007812,28.3125 L23.3164062,28.3125 Z" id="58" fill="currentColor" fill-rule="nonzero"></path>
    </g>
</svg>