<?xml version="1.0" encoding="UTF-8"?>
<svg width="45px" height="30px" viewBox="0 0 45 30" version="1.1" xmlns="http://www.w3.org/2000/svg" xmlns:xlink="http://www.w3.org/1999/xlink">
    <title>57</title>
    <g id="Page-1" stroke="none" stroke-width="1" fill="none" fill-rule="evenodd">
        <path d="M43.0664062,29.8359375 C43.4570312,29.8359375 43.7695312,29.71875 44.0039062,29.484375 C44.1992188,29.2109375 44.296875,28.8984375 44.296875,28.546875 L44.296875,28.546875 L44.296875,27.1992188 L44.1796875,27.0820312 L40.8984375,25.0898438 L40.8984375,1.59375 C40.8984375,1.3203125 40.8203125,1.10546875 40.6640625,0.94921875 C40.5078125,0.79296875 40.3125,0.71484375 40.078125,0.71484375 L40.078125,0.71484375 L4.921875,0.71484375 C4.6875,0.71484375 4.4921875,0.79296875 4.3359375,0.94921875 C4.1796875,1.10546875 4.1015625,1.3203125 4.1015625,1.59375 L4.1015625,1.59375 L4.1015625,25.0898438 L0.8203125,27.0820312 L0.76171875,27.140625 L0.703125,27.1992188 L0.703125,28.546875 C0.703125,28.9375 0.8203125,29.25 1.0546875,29.484375 C1.2890625,29.71875 1.58203125,29.8359375 1.93359375,29.8359375 L1.93359375,29.8359375 L43.0664062,29.8359375 Z M40.546875,25.03125 L4.453125,25.03125 L4.453125,1.59375 C4.453125,1.3984375 4.51171875,1.28125 4.62890625,1.2421875 L4.62890625,1.2421875 L4.8046875,1.125 C4.84375,1.0859375 4.8828125,1.06640625 4.921875,1.06640625 L4.921875,1.06640625 L40.078125,1.06640625 C40.15625,1.06640625 40.2148438,1.0859375 40.2539062,1.125 L40.2539062,1.125 L40.4296875,1.2421875 C40.5078125,1.28125 40.546875,1.3984375 40.546875,1.59375 L40.546875,1.59375 L40.546875,25.03125 Z M38.4375,23.6835938 C38.4765625,23.6835938 38.515625,23.6640625 38.5546875,23.625 C38.5546875,23.625 38.5559082,23.6225586 38.5583496,23.6176758 L38.6132812,23.5078125 L38.6132812,3.1171875 C38.5742188,3.1171875 38.5449219,3.10742188 38.5253906,3.08789062 C38.5058594,3.06835938 38.4765625,3.05859375 38.4375,3.05859375 L38.4375,3.05859375 L6.50390625,3.05859375 L6.38671875,3.17578125 L6.38671875,23.5078125 C6.38671875,23.546875 6.40625,23.5664062 6.4453125,23.5664062 C6.4453125,23.6445312 6.484375,23.6835938 6.5625,23.6835938 L6.5625,23.6835938 L38.4375,23.6835938 Z M38.2617188,23.2734375 L6.73828125,23.2734375 L6.73828125,3.46875 L38.2617188,3.46875 L38.2617188,23.2734375 Z M43.4179688,27.0820312 L1.58203125,27.0820312 L4.3359375,25.3828125 L40.6640625,25.3828125 L43.4179688,27.0820312 Z M43.0664062,29.4257812 L1.93359375,29.4257812 C1.66015625,29.4257812 1.46484375,29.3476562 1.34765625,29.1914062 C1.19140625,28.9570312 1.11328125,28.7421875 1.11328125,28.546875 L1.11328125,28.546875 L1.11328125,27.4335938 L43.8867188,27.4335938 L43.8867188,28.546875 C43.8867188,28.8984375 43.828125,29.1132812 43.7109375,29.1914062 C43.4765625,29.3476562 43.2617188,29.4257812 43.0664062,29.4257812 L43.0664062,29.4257812 Z M24.2578125,28.3125 C24.296875,28.3125 24.3164062,28.2929688 24.3164062,28.2539062 L24.3164062,28.2539062 L24.375,28.1953125 L24.375,28.0195312 C24.3359375,28.0195312 24.3164062,28 24.3164062,27.9609375 L24.3164062,27.9609375 L20.6835938,27.9609375 L20.6835938,28.0195312 C20.6445312,28.0585938 20.625,28.0976562 20.625,28.1367188 C20.625,28.1757812 20.6445312,28.1953125 20.6835938,28.1953125 L20.6835938,28.1953125 L20.6835938,28.2539062 C20.6835938,28.2929688 20.703125,28.3125 20.7421875,28.3125 L20.7421875,28.3125 L24.2578125,28.3125 Z" id="57" fill="currentColor" fill-rule="nonzero"></path>
    </g>
</svg>