<?xml version="1.0" encoding="UTF-8"?>
<svg width="47px" height="47px" viewBox="0 0 47 47" version="1.1" xmlns="http://www.w3.org/2000/svg" xmlns:xlink="http://www.w3.org/1999/xlink">
    <title>26</title>
    <g id="Page-1" stroke="none" stroke-width="1" fill="none" fill-rule="evenodd">
        <path d="M34.6328125,46.8359375 C34.671875,46.8359375 34.7109375,46.8164062 34.75,46.7773438 C34.75,46.7773438 34.7695312,46.7382812 34.8085938,46.6601562 L34.8085938,46.6601562 L34.8085938,45.8398438 L34.75,45.78125 L32.3476562,45.78125 L30.296875,44.4335938 L29.9453125,44.0820312 C29.75,43.9648438 29.6328125,43.828125 29.59375,43.671875 C29.515625,43.5546875 29.4472656,43.4082031 29.3886719,43.2324219 C29.3300781,43.0566406 29.28125,42.890625 29.2421875,42.734375 L29.2421875,42.734375 L28.4804688,38.046875 L45.1210938,38.046875 C45.5507812,38.046875 45.921875,37.890625 46.234375,37.578125 C46.5078125,37.3046875 46.6445312,36.953125 46.6445312,36.5234375 L46.6445312,36.5234375 L46.6445312,2.0703125 C46.6445312,1.6796875 46.5078125,1.30859375 46.234375,0.95703125 C45.8828125,0.68359375 45.5117188,0.546875 45.1210938,0.546875 L45.1210938,0.546875 L1.87890625,0.546875 C1.44921875,0.546875 1.09765625,0.68359375 0.82421875,0.95703125 C0.51171875,1.26953125 0.35546875,1.640625 0.35546875,2.0703125 L0.35546875,2.0703125 L0.35546875,36.5234375 C0.35546875,36.9921875 0.51171875,37.34375 0.82421875,37.578125 C1.05859375,37.890625 1.41015625,38.046875 1.87890625,38.046875 L1.87890625,38.046875 L18.5195312,38.046875 L17.7578125,42.734375 L17.640625,43.203125 C17.5234375,43.5546875 17.3476562,43.8476562 17.1132812,44.0820312 C16.9960938,44.1601562 16.859375,44.2773438 16.703125,44.4335938 L16.703125,44.4335938 L14.6523437,45.78125 L12.3085938,45.78125 C12.2695313,45.78125 12.2304688,45.8007812 12.1914062,45.8398438 L12.1914062,45.8398438 L12.1914062,46.6601562 C12.1914062,46.6992188 12.2109375,46.71875 12.25,46.71875 C12.25,46.796875 12.2890625,46.8359375 12.3671875,46.8359375 L12.3671875,46.8359375 L34.6328125,46.8359375 Z M45.1210938,37.6367188 L1.87890625,37.6367188 C1.56640625,37.6367188 1.3125,37.5195312 1.1171875,37.2851562 C0.8828125,37.0898438 0.765625,36.8359375 0.765625,36.5234375 L0.765625,36.5234375 L0.765625,2.0703125 C0.765625,1.7578125 0.8828125,1.484375 1.1171875,1.25 C1.3125,1.015625 1.56640625,0.8984375 1.87890625,0.8984375 L1.87890625,0.8984375 L45.1210938,0.8984375 C45.4335938,0.8984375 45.7070312,1.015625 45.9414062,1.25 C46.1367188,1.5234375 46.234375,1.796875 46.234375,2.0703125 L46.234375,2.0703125 L46.234375,36.5234375 C46.234375,36.8359375 46.1367188,37.0898438 45.9414062,37.2851562 C45.7070312,37.5195312 45.4335938,37.6367188 45.1210938,37.6367188 L45.1210938,37.6367188 Z M43.7734375,28.6132812 L43.890625,28.4960938 L43.890625,28.4960938 L43.9492188,28.3789062 L43.9492188,3.30078125 C43.9101562,3.30078125 43.8710938,3.28125 43.8320312,3.2421875 L43.8320312,3.2421875 L3.16796875,3.2421875 C3.08984375,3.3203125 3.05078125,3.37890625 3.05078125,3.41796875 L3.05078125,3.41796875 L3.05078125,28.3789062 C3.05078125,28.4179688 3.0703125,28.4375 3.109375,28.4375 C3.109375,28.515625 3.1484375,28.5546875 3.2265625,28.5546875 L3.2265625,28.5546875 L3.2265625,28.6132812 L43.7734375,28.6132812 Z M43.5390625,28.203125 L3.4609375,28.203125 L3.4609375,3.59375 L43.5390625,3.59375 L43.5390625,28.203125 Z M23.5,31.8359375 C23.578125,31.875 23.65625,31.8554688 23.734375,31.7773438 C23.8515625,31.7773438 23.9296875,31.71875 23.96875,31.6015625 C24.0078125,31.6015625 24.046875,31.5820312 24.0859375,31.5429688 C24.0859375,31.5039062 24.0957031,31.4648438 24.1152344,31.4257812 C24.1347656,31.3867188 24.1445312,31.3476562 24.1445312,31.3085938 L24.1445312,31.3085938 L24.1445312,31.0742188 L24.0859375,31.1328125 L23.96875,31.1328125 C23.9296875,31.1328125 23.890625,31.1523438 23.8515625,31.1914062 L23.8515625,31.1914062 L23.7929688,31.25 C23.7148438,31.25 23.6757812,31.2890625 23.6757812,31.3671875 L23.6757812,31.3671875 L23.6171875,31.4257812 C23.5390625,31.5039062 23.5,31.5820312 23.5,31.6601562 L23.5,31.6601562 L23.5,31.8359375 Z M23.0898438,34.4140625 L23.1484375,34.3554688 L23.265625,34.3554688 C23.3046875,34.3164062 23.34375,34.296875 23.3828125,34.296875 L23.3828125,34.296875 L23.7929688,34.296875 L23.8515625,34.3554688 L24.0273438,34.3554688 C24.0273438,34.3945312 24.046875,34.4140625 24.0859375,34.4140625 L24.0859375,34.4140625 L24.203125,34.4140625 L24.3789062,34.296875 L24.4960938,34.1796875 L24.6132812,34.0625 L24.671875,34.0039062 L24.671875,34.0039062 L24.671875,33.8867188 L24.7304688,33.828125 L24.7890625,33.7109375 L24.7890625,33.6523438 C24.7890625,33.6523438 24.8085938,33.6132812 24.8476562,33.5351562 L24.8476562,33.5351562 L24.7890625,33.4765625 C24.75,33.4765625 24.7304688,33.4570312 24.7304688,33.4179688 C24.6914062,33.4179688 24.6523438,33.3984375 24.6132812,33.359375 C24.5742188,33.3203125 24.5546875,33.28125 24.5546875,33.2421875 C24.4765625,33.1640625 24.4375,33.0859375 24.4375,33.0078125 C24.3984375,32.96875 24.3789062,32.9101562 24.3789062,32.8320312 C24.3789062,32.7539062 24.4179688,32.6367188 24.4960938,32.4804688 C24.5351562,32.3632812 24.6328125,32.2851562 24.7890625,32.2460938 C24.75,32.0898438 24.671875,31.9921875 24.5546875,31.953125 C24.4765625,31.953125 24.4082031,31.9433594 24.3496094,31.9238281 C24.2910156,31.9042969 24.2226562,31.8945312 24.1445312,31.8945312 L24.1445312,31.8945312 L23.9101562,31.8945312 C23.8710938,31.9335938 23.8320312,31.953125 23.7929688,31.953125 C23.7539062,31.9921875 23.7148438,32.0117188 23.6757812,32.0117188 L23.6757812,32.0117188 L23.6171875,32.0117188 L23.5585938,32.0703125 L23.5,32.0703125 C23.4609375,32.0703125 23.4414062,32.0507812 23.4414062,32.0117188 L23.4414062,32.0117188 L23.3828125,32.0117188 C23.34375,32.0117188 23.3046875,31.9921875 23.265625,31.953125 L23.265625,31.953125 L23.2070312,31.953125 C23.1679688,31.953125 23.1484375,31.9335938 23.1484375,31.8945312 L23.1484375,31.8945312 L22.796875,31.8945312 C22.71875,31.9726562 22.640625,32.0117188 22.5625,32.0117188 C22.5625,32.0507812 22.5429688,32.0703125 22.5039062,32.0703125 C22.4257812,32.1484375 22.3867188,32.2070312 22.3867188,32.2460938 C22.3476562,32.2851562 22.3085938,32.3046875 22.2695312,32.3046875 L22.2695312,32.3046875 L22.2109375,32.5976562 C22.171875,32.6367188 22.1523438,32.6757812 22.1523438,32.7148438 L22.1523438,32.7148438 L22.1523438,33.0078125 C22.1523438,33.0859375 22.171875,33.1445312 22.2109375,33.1835938 L22.2109375,33.1835938 L22.2109375,33.3007812 C22.2109375,33.3789062 22.2304688,33.4375 22.2695312,33.4765625 C22.2695312,33.515625 22.2890625,33.5546875 22.328125,33.59375 C22.328125,33.7109375 22.3671875,33.8085938 22.4453125,33.8867188 C22.4453125,34.0039062 22.484375,34.0625 22.5625,34.0625 L22.5625,34.0625 L22.6796875,34.1796875 C22.6796875,34.2578125 22.71875,34.296875 22.796875,34.296875 C22.8359375,34.3359375 22.875,34.3554688 22.9140625,34.3554688 C22.9140625,34.3945312 22.9335938,34.4140625 22.9726562,34.4140625 L22.9726562,34.4140625 L23.0898438,34.4140625 Z M34.4570312,46.4257812 L12.5429688,46.4257812 L12.5429688,46.1328125 L14.828125,46.1328125 L16.8789062,44.7265625 C17.0351562,44.609375 17.1914062,44.4824219 17.3476562,44.3457031 C17.5039062,44.2089844 17.640625,44.0625 17.7578125,43.90625 C17.9921875,43.5546875 18.1289062,43.1835938 18.1679688,42.7929688 L18.1679688,42.7929688 L18.9296875,38.046875 L28.0703125,38.046875 L28.8320312,42.7929688 C28.9101562,43.2226562 29.0664062,43.59375 29.3007812,43.90625 C29.3789062,44.0625 29.4960938,44.2089844 29.6523438,44.3457031 C29.8085938,44.4824219 29.9648438,44.609375 30.1210938,44.7265625 L30.1210938,44.7265625 L32.171875,46.1328125 L34.4570312,46.1328125 L34.4570312,46.4257812 Z" id="26" fill="currentColor" fill-rule="nonzero"></path>
    </g>
</svg>