<?xml version="1.0" encoding="UTF-8"?>
<svg width="21px" height="7px" viewBox="0 0 21 7" version="1.1" xmlns="http://www.w3.org/2000/svg" xmlns:xlink="http://www.w3.org/1999/xlink">
    <title>42</title>
    <g id="Page-1" stroke="none" stroke-width="1" fill="none" fill-rule="evenodd">
        <path d="M20.4023438,6.8359375 C20.4804688,6.8359375 20.5195312,6.81640625 20.5195312,6.77734375 L20.5195312,6.77734375 L20.578125,6.71875 C20.6171875,6.71875 20.6367188,6.69921875 20.6367188,6.66015625 C20.5976562,6.66015625 20.5976562,6.640625 20.6367188,6.6015625 L20.6367188,6.6015625 L20.578125,0.5078125 C20.6171875,0.46875 20.6367188,0.4296875 20.6367188,0.390625 C20.5976562,0.390625 20.578125,0.37109375 20.578125,0.33203125 L20.578125,0.33203125 L0.36328125,0.33203125 L0.36328125,0.390625 C0.32421875,0.4296875 0.32421875,0.46875 0.36328125,0.5078125 L0.36328125,0.5078125 L0.3046875,6.6015625 L0.36328125,6.66015625 C0.32421875,6.69921875 0.32421875,6.71875 0.36328125,6.71875 L0.36328125,6.71875 L0.421875,6.77734375 C0.421875,6.81640625 0.4609375,6.8359375 0.5390625,6.8359375 L0.5390625,6.8359375 L20.4023438,6.8359375 Z M20.2265625,6.42578125 L0.71484375,6.42578125 L0.65625,0.68359375 L20.2851562,0.68359375 L20.2265625,6.42578125 Z M17.8242188,2.20703125 C17.8632812,2.20703125 17.8828125,2.1875 17.8828125,2.1484375 L17.8828125,2.1484375 L17.9414062,2.08984375 C17.9804688,2.08984375 17.9804688,2.0703125 17.9414062,2.03125 C17.9804688,1.9921875 17.9804688,1.953125 17.9414062,1.9140625 C17.9023438,1.9140625 17.8828125,1.89453125 17.8828125,1.85546875 L17.8828125,1.85546875 L3.05859375,1.85546875 C3.05859375,1.89453125 3.0390625,1.9140625 3,1.9140625 C2.9609375,1.953125 2.9609375,1.9921875 3,2.03125 C2.9609375,2.0703125 2.9609375,2.08984375 3,2.08984375 L3,2.08984375 L3.05859375,2.1484375 C3.05859375,2.1875 3.078125,2.20703125 3.1171875,2.20703125 L3.1171875,2.20703125 L17.8242188,2.20703125 Z" id="42" fill="currentColor" fill-rule="nonzero"></path>
    </g>
</svg>