<?xml version="1.0" encoding="UTF-8"?>
<svg width="23px" height="55px" viewBox="0 0 23 55" version="1.1" xmlns="http://www.w3.org/2000/svg" xmlns:xlink="http://www.w3.org/1999/xlink">
    <title>40</title>
    <g id="Page-1" stroke="none" stroke-width="1" fill="none" fill-rule="evenodd">
        <path d="M19.5859375,54.8359375 C20.3671875,54.8359375 21.0507812,54.5429688 21.6367188,53.9570312 C22.1835938,53.4101562 22.4570312,52.7265625 22.4570312,51.90625 L22.4570312,51.90625 L22.4570312,3.44921875 C22.4570312,3.05859375 22.3789062,2.6875 22.2226562,2.3359375 C22.0664062,1.984375 21.8710938,1.671875 21.6367188,1.3984375 C21.0898438,0.8515625 20.40625,0.578125 19.5859375,0.578125 L19.5859375,0.578125 L3.4140625,0.578125 C2.5546875,0.578125 1.890625,0.8515625 1.421875,1.3984375 C0.8359375,1.984375 0.54296875,2.66796875 0.54296875,3.44921875 L0.54296875,3.44921875 L0.54296875,51.90625 C0.54296875,52.765625 0.8359375,53.4492188 1.421875,53.9570312 C1.9296875,54.5429688 2.59375,54.8359375 3.4140625,54.8359375 L3.4140625,54.8359375 L19.5859375,54.8359375 Z M19.5859375,54.4257812 L3.4140625,54.4257812 C2.75,54.4257812 2.1640625,54.171875 1.65625,53.6640625 C1.1484375,53.234375 0.89453125,52.6484375 0.89453125,51.90625 L0.89453125,51.90625 L0.89453125,3.44921875 C0.89453125,2.74609375 1.1484375,2.140625 1.65625,1.6328125 C2.203125,1.1640625 2.7890625,0.9296875 3.4140625,0.9296875 L3.4140625,0.9296875 L19.5859375,0.9296875 C20.2109375,0.9296875 20.796875,1.1640625 21.34375,1.6328125 C21.8515625,2.140625 22.1054688,2.74609375 22.1054688,3.44921875 L22.1054688,3.44921875 L22.1054688,51.90625 C22.1054688,52.6484375 21.8515625,53.234375 21.34375,53.6640625 C20.8359375,54.171875 20.25,54.4257812 19.5859375,54.4257812 L19.5859375,54.4257812 Z M19.4101562,53.8984375 C19.9960938,53.8984375 20.5039062,53.6835938 20.9335938,53.2539062 C21.3632812,52.8242188 21.578125,52.3164062 21.578125,51.7304688 L21.578125,51.7304688 L21.578125,3.56640625 C21.578125,2.98046875 21.3632812,2.47265625 20.9335938,2.04296875 C20.5039062,1.61328125 19.9960938,1.3984375 19.4101562,1.3984375 L19.4101562,1.3984375 L3.58984375,1.3984375 C3.00390625,1.3984375 2.49609375,1.61328125 2.06640625,2.04296875 C1.63671875,2.47265625 1.421875,2.98046875 1.421875,3.56640625 L1.421875,3.56640625 L1.421875,51.7304688 C1.421875,52.3164062 1.63671875,52.8242188 2.06640625,53.2539062 C2.49609375,53.6835938 3.00390625,53.8984375 3.58984375,53.8984375 L3.58984375,53.8984375 L19.4101562,53.8984375 Z M21.2265625,5.08984375 L1.7734375,5.08984375 L1.7734375,3.56640625 C1.7734375,3.13671875 1.94921875,2.70703125 2.30078125,2.27734375 C2.45703125,2.08203125 2.65234375,1.95507812 2.88671875,1.89648438 C3.12109375,1.83789062 3.35546875,1.80859375 3.58984375,1.80859375 L3.58984375,1.80859375 L19.4101562,1.80859375 C19.6445312,1.80859375 19.8789062,1.83789062 20.1132812,1.89648438 C20.3476562,1.95507812 20.5429688,2.08203125 20.6992188,2.27734375 C21.0507812,2.70703125 21.2265625,3.13671875 21.2265625,3.56640625 L21.2265625,3.56640625 L21.2265625,5.08984375 Z M21.2265625,49.9140625 L1.7734375,49.9140625 L1.7734375,5.44140625 L21.2265625,5.44140625 L21.2265625,49.9140625 Z M19.8203125,10.2460938 C19.859375,10.2460938 19.8789062,10.2265625 19.8789062,10.1875 L19.8789062,10.1875 L19.9375,10.1289062 L19.9375,8.37109375 L19.9375,8.37109375 L19.8789062,8.25390625 L19.8203125,8.1953125 L3.1796875,8.1953125 L3.12109375,8.25390625 C3.12109375,8.29296875 3.1015625,8.33203125 3.0625,8.37109375 L3.0625,8.37109375 L3.0625,10.0703125 C3.0625,10.109375 3.08203125,10.1289062 3.12109375,10.1289062 L3.12109375,10.1289062 L3.12109375,10.1875 C3.12109375,10.2265625 3.140625,10.2460938 3.1796875,10.2460938 L3.1796875,10.2460938 L19.8203125,10.2460938 Z M19.5859375,9.89453125 L3.4140625,9.89453125 L3.4140625,8.60546875 L19.5859375,8.60546875 L19.5859375,9.89453125 Z M19.7617188,15.109375 L19.8789062,15.0507812 L19.9375,14.9335938 L19.9375,13.234375 L19.8789062,13.1171875 L19.7617188,13.0585938 L3.23828125,13.0585938 L3.12109375,13.1171875 L3.0625,13.234375 L3.0625,14.9335938 L3.12109375,15.0507812 L3.23828125,15.109375 L19.7617188,15.109375 Z M19.5859375,14.6992188 L3.4140625,14.6992188 L3.4140625,13.4101562 L19.5859375,13.4101562 L19.5859375,14.6992188 Z M5.9921875,43.4101562 C5.9921875,43.4101562 6.01171875,43.3710938 6.05078125,43.2929688 L6.05078125,43.2929688 L6.05078125,31.3984375 C6.01171875,31.3984375 5.9921875,31.3789062 5.9921875,31.3398438 L5.9921875,31.3398438 L2.88671875,31.3398438 L2.828125,31.3984375 L2.828125,31.4570312 C2.7890625,31.4960938 2.76953125,31.5351562 2.76953125,31.5742188 L2.76953125,31.5742188 L2.76953125,43.234375 C2.76953125,43.2734375 2.7890625,43.2929688 2.828125,43.2929688 L2.828125,43.2929688 L2.828125,43.3515625 C2.828125,43.390625 2.84765625,43.4101562 2.88671875,43.4101562 L2.88671875,43.4101562 L5.9921875,43.4101562 Z M5.69921875,43.0585938 L3.12109375,43.0585938 L3.12109375,31.75 L5.69921875,31.75 L5.69921875,43.0585938 Z M4.41015625,34.3867188 C4.68359375,34.3867188 4.8984375,34.3085938 5.0546875,34.1523438 C5.25,33.9570312 5.34765625,33.7421875 5.34765625,33.5078125 C5.34765625,33.3125 5.25,33.078125 5.0546875,32.8046875 C4.8984375,32.6484375 4.68359375,32.5703125 4.41015625,32.5703125 C4.13671875,32.5703125 3.921875,32.6484375 3.765625,32.8046875 C3.5703125,33.078125 3.47265625,33.3125 3.47265625,33.5078125 C3.47265625,33.7421875 3.5703125,33.9570312 3.765625,34.1523438 C3.921875,34.3085938 4.13671875,34.3867188 4.41015625,34.3867188 Z M4.41015625,34.0351562 C4.29296875,34.0351562 4.17578125,33.9765625 4.05859375,33.859375 C3.94140625,33.7421875 3.8828125,33.625 3.8828125,33.5078125 C3.8828125,33.2734375 3.94140625,33.1367188 4.05859375,33.0976562 C4.13671875,33.0585938 4.1953125,33.0195312 4.234375,32.9804688 C4.2734375,32.9414062 4.33203125,32.921875 4.41015625,32.921875 C4.56640625,32.921875 4.703125,32.9804688 4.8203125,33.0976562 C4.9375,33.2148438 4.99609375,33.3515625 4.99609375,33.5078125 C4.99609375,33.5859375 4.9765625,33.6445312 4.9375,33.6835938 C4.8984375,33.7226562 4.859375,33.78125 4.8203125,33.859375 C4.78125,33.9765625 4.64453125,34.0351562 4.41015625,34.0351562 Z M4.41015625,36.2617188 C4.56640625,36.2617188 4.703125,36.203125 4.8203125,36.0859375 C4.9375,35.96875 4.99609375,35.8320312 4.99609375,35.6757812 C4.99609375,35.5585938 4.9765625,35.4804688 4.9375,35.4414062 L4.9375,35.4414062 L4.8203125,35.265625 C4.78125,35.1875 4.64453125,35.1484375 4.41015625,35.1484375 C4.25390625,35.1484375 4.13671875,35.1875 4.05859375,35.265625 C3.94140625,35.3828125 3.8828125,35.5195312 3.8828125,35.6757812 C3.8828125,35.8710938 3.94140625,36.0078125 4.05859375,36.0859375 L4.05859375,36.0859375 L4.234375,36.203125 C4.2734375,36.2421875 4.33203125,36.2617188 4.41015625,36.2617188 Z M5.0546875,37.7265625 L5.23046875,37.5507812 L5.23046875,36.9648438 C5.19140625,36.9648438 5.171875,36.9453125 5.171875,36.90625 L5.171875,36.90625 L3.765625,36.90625 C3.7265625,36.90625 3.6875,36.9257812 3.6484375,36.9648438 L3.6484375,36.9648438 L3.6484375,37.5507812 C3.6484375,37.5898438 3.66796875,37.609375 3.70703125,37.609375 C3.70703125,37.6484375 3.7265625,37.6679688 3.765625,37.6679688 C3.765625,37.7070312 3.78515625,37.7265625 3.82421875,37.7265625 L3.82421875,37.7265625 L5.0546875,37.7265625 Z M5.0546875,39.015625 L5.11328125,38.9570312 L5.23046875,38.8398438 L5.23046875,38.2539062 C5.15234375,38.2539062 5.11328125,38.2148438 5.11328125,38.1367188 L5.11328125,38.1367188 L3.765625,38.1367188 L3.70703125,38.1953125 L3.6484375,38.2539062 L3.6484375,38.8398438 C3.6484375,38.8789062 3.66796875,38.8984375 3.70703125,38.8984375 C3.70703125,38.9375 3.7265625,38.9570312 3.765625,38.9570312 C3.765625,38.9960938 3.78515625,39.015625 3.82421875,39.015625 L3.82421875,39.015625 L5.0546875,39.015625 Z M19.4101562,53.546875 L3.58984375,53.546875 C3.08203125,53.546875 2.65234375,53.3710938 2.30078125,53.0195312 C1.94921875,52.6679688 1.7734375,52.2382812 1.7734375,51.7304688 L1.7734375,51.7304688 L1.7734375,50.3242188 L21.2265625,50.3242188 L21.2265625,51.7304688 C21.2265625,52.2382812 21.0507812,52.6679688 20.6992188,53.0195312 C20.3476562,53.3710938 19.9179688,53.546875 19.4101562,53.546875 L19.4101562,53.546875 Z" id="40" fill="currentColor" fill-rule="nonzero"></path>
    </g>
</svg>