<?xml version="1.0" encoding="UTF-8"?>
<svg width="21px" height="7px" viewBox="0 0 21 7" version="1.1" xmlns="http://www.w3.org/2000/svg" xmlns:xlink="http://www.w3.org/1999/xlink">
    <title>43</title>
    <g id="Page-1" stroke="none" stroke-width="1" fill="none" fill-rule="evenodd">
        <path d="M20.4609375,6.8359375 C20.5,6.8359375 20.5390625,6.81640625 20.578125,6.77734375 C20.578125,6.77734375 20.5976562,6.73828125 20.6367188,6.66015625 L20.6367188,6.66015625 L20.6367188,0.390625 L20.578125,0.33203125 L0.48046875,0.33203125 C0.44140625,0.33203125 0.40234375,0.3515625 0.36328125,0.390625 L0.36328125,0.390625 L0.36328125,6.66015625 C0.36328125,6.69921875 0.3828125,6.71875 0.421875,6.71875 C0.421875,6.796875 0.4609375,6.8359375 0.5390625,6.8359375 L0.5390625,6.8359375 L20.4609375,6.8359375 Z M20.2851562,6.42578125 L0.71484375,6.42578125 L0.71484375,0.68359375 L20.2851562,0.68359375 L20.2851562,6.42578125 Z M18.8203125,2.32421875 C18.8984375,2.32421875 18.9765625,2.28515625 19.0546875,2.20703125 C19.0546875,2.16796875 19.0742188,2.12890625 19.1132812,2.08984375 L19.1132812,2.08984375 L19.1132812,1.9140625 C19.0664062,1.8671875 19.0289063,1.8296875 19.0007813,1.8015625 L18.9375,1.73828125 L18.703125,1.73828125 C18.6640625,1.73828125 18.6445312,1.7578125 18.6445312,1.796875 C18.5664062,1.875 18.5273438,1.953125 18.5273438,2.03125 C18.5273438,2.0703125 18.546875,2.08984375 18.5859375,2.08984375 C18.5859375,2.12890625 18.6054688,2.16796875 18.6445312,2.20703125 C18.6445312,2.28515625 18.703125,2.32421875 18.8203125,2.32421875 Z" id="43" fill="currentColor" fill-rule="nonzero"></path>
    </g>
</svg>