<?xml version="1.0" encoding="UTF-8"?>
<svg width="19px" height="28px" viewBox="0 0 19 28" version="1.1" xmlns="http://www.w3.org/2000/svg" xmlns:xlink="http://www.w3.org/1999/xlink">
    <title>41</title>
    <g id="Page-1" stroke="none" stroke-width="1" fill="none" fill-rule="evenodd">
        <path d="M15.59375,27.8359375 C16.375,27.8359375 17.0585938,27.5429688 17.6445312,26.9570312 C18.1914062,26.4101562 18.484375,25.7265625 18.5234375,24.90625 L18.5234375,24.90625 L18.4648438,3.34375 C18.5039062,2.9140625 18.4355469,2.53320312 18.2597656,2.20117188 C18.0839844,1.86914062 17.8789062,1.56640625 17.6445312,1.29296875 C17.1367188,0.70703125 16.4726562,0.4140625 15.6523438,0.4140625 L15.6523438,0.4140625 L3.40625,0.4140625 C2.5859375,0.4140625 1.921875,0.70703125 1.4140625,1.29296875 C1.1796875,1.56640625 0.974609375,1.86914062 0.798828125,2.20117188 C0.623046875,2.53320312 0.5546875,2.9140625 0.59375,3.34375 L0.59375,3.34375 L0.53515625,24.90625 C0.57421875,25.7265625 0.8671875,26.4101562 1.4140625,26.9570312 C2,27.5429688 2.68359375,27.8359375 3.46484375,27.8359375 L3.46484375,27.8359375 L15.59375,27.8359375 Z M15.6523438,27.4257812 L3.40625,27.4257812 C2.703125,27.4257812 2.13671875,27.171875 1.70703125,26.6640625 C1.47265625,26.46875 1.27734375,26.2148438 1.12109375,25.9023438 C0.96484375,25.5898438 0.90625,25.2578125 0.9453125,24.90625 L0.9453125,24.90625 L0.88671875,3.34375 C0.96484375,2.5625 1.23828125,1.95703125 1.70703125,1.52734375 C1.94140625,1.33203125 2.1953125,1.16601562 2.46875,1.02929688 C2.7421875,0.892578125 3.07421875,0.82421875 3.46484375,0.82421875 L3.46484375,0.82421875 L15.59375,0.82421875 C15.984375,0.82421875 16.3164062,0.892578125 16.5898438,1.02929688 C16.8632812,1.16601562 17.1367188,1.33203125 17.4101562,1.52734375 C17.8398438,1.95703125 18.09375,2.5625 18.171875,3.34375 L18.171875,3.34375 L18.1132812,24.90625 C18.1523438,25.2578125 18.09375,25.5898438 17.9375,25.9023438 C17.78125,26.2148438 17.6054688,26.46875 17.4101562,26.6640625 C16.9023438,27.171875 16.3164062,27.4257812 15.6523438,27.4257812 L15.6523438,27.4257812 Z" id="41" fill="currentColor" fill-rule="nonzero"></path>
    </g>
</svg>