<?xml version="1.0" encoding="UTF-8"?>
<svg width="27px" height="26px" viewBox="0 0 27 26" version="1.1" xmlns="http://www.w3.org/2000/svg" xmlns:xlink="http://www.w3.org/1999/xlink">
    <title>63</title>
    <g id="Page-1" stroke="none" stroke-width="1" fill="none" fill-rule="evenodd">
        <path d="M21.3515625,25.8359375 C21.6640625,25.8359375 21.9960938,25.8261719 22.3476562,25.8066406 C22.6992188,25.7871094 23.03125,25.7578125 23.34375,25.71875 C23.96875,25.6796875 24.5742188,25.484375 25.1601562,25.1328125 L25.1601562,25.1328125 L25.1601562,25.0742188 C25.1601562,25.0742188 25.1796875,25.0351562 25.21875,24.9570312 L25.21875,24.9570312 L25.21875,24.7226562 L25.2773438,24.7226562 C25.2773438,24.7617188 25.296875,24.78125 25.3359375,24.78125 L25.3359375,24.78125 L25.453125,24.78125 L25.5117188,24.7226562 C25.5898438,24.6445312 25.6484375,24.5273438 25.6875,24.3710938 C25.7265625,24.2929688 25.765625,24.1660156 25.8046875,23.9902344 C25.84375,23.8144531 25.9023438,23.609375 25.9804688,23.375 C26.0976562,22.90625 26.2050781,22.28125 26.3027344,21.5 C26.4003906,20.71875 26.4492188,19.7226562 26.4492188,18.5117188 L26.4492188,18.5117188 L26.4492188,7.0859375 C26.4492188,6.4609375 26.4394531,5.89453125 26.4199219,5.38671875 C26.4003906,4.87890625 26.3710938,4.41015625 26.3320312,3.98046875 C26.2148438,3.16015625 26.1074219,2.4765625 26.0097656,1.9296875 C25.9121094,1.3828125 25.8242188,0.97265625 25.7460938,0.69921875 C25.6289062,0.38671875 25.5703125,0.23046875 25.5703125,0.23046875 C25.53125,0.23046875 25.5117188,0.2109375 25.5117188,0.171875 L25.5117188,0.171875 L25.453125,0.11328125 L25.3359375,0.11328125 C25.296875,0.11328125 25.2578125,0.1328125 25.21875,0.171875 L25.21875,0.171875 L25.21875,0.23046875 L25.1601562,0.2890625 L25.1601562,23.9609375 C25.1210938,23.9609375 25.1015625,23.9414062 25.1015625,23.9023438 L25.1015625,23.9023438 L25.0429688,23.9023438 L0.7265625,24.2539062 L0.66796875,24.3125 C0.58984375,24.3125 0.55078125,24.3515625 0.55078125,24.4296875 L0.55078125,24.4296875 L0.55078125,24.4882812 C0.55078125,24.5273438 0.5703125,24.546875 0.609375,24.546875 L0.609375,24.546875 L0.66796875,24.546875 L0.66796875,24.6054688 C1.44921875,24.8789062 2.31835938,25.09375 3.27539062,25.25 C4.23242188,25.40625 5.19921875,25.5234375 6.17578125,25.6015625 C7.11328125,25.6796875 8.00195312,25.7382812 8.84179688,25.7773438 C9.68164062,25.8164062 10.3554688,25.8359375 10.8632812,25.8359375 L21.3515625,25.8359375 Z M25.5703125,23.5507812 L25.5703125,1.63671875 C25.609375,1.79296875 25.6386719,1.93945312 25.6582031,2.07617188 C25.6777344,2.21289062 25.7070312,2.37890625 25.7460938,2.57421875 L25.7460938,2.57421875 L25.921875,3.74609375 C26,4.21484375 26.0390625,4.72265625 26.0390625,5.26953125 L26.0390625,5.26953125 L26.0390625,20.2695312 C26.0390625,20.7773438 26,21.2460938 25.921875,21.6757812 C25.84375,22.1054688 25.7753906,22.4765625 25.7167969,22.7890625 C25.6582031,23.1015625 25.609375,23.3554688 25.5703125,23.5507812 L25.5703125,23.5507812 Z M18.1289062,25.4257812 L10.8632812,25.4257812 C9.96484375,25.4257812 9.11523438,25.40625 8.31445312,25.3671875 C7.51367188,25.328125 6.72265625,25.2695312 5.94140625,25.1914062 C4.33984375,25.0742188 3.03125,24.8789062 2.015625,24.6054688 L2.015625,24.6054688 L24.8671875,24.3125 L24.8671875,24.8398438 C24.6328125,25.0351562 24.3789062,25.1523438 24.1054688,25.1914062 C23.8710938,25.2695312 23.6464844,25.3183594 23.4316406,25.3378906 C23.2167969,25.3574219 22.9921875,25.3867188 22.7578125,25.4257812 L22.7578125,25.4257812 L22.7578125,24.7226562 C22.71875,24.7226562 22.6894531,24.7128906 22.6699219,24.6933594 C22.6503906,24.6738281 22.6210938,24.6640625 22.5820312,24.6640625 L22.5820312,24.6640625 L18.3632812,24.6640625 C18.3242188,24.6640625 18.2851562,24.6835938 18.2460938,24.7226562 C18.1679688,24.8007812 18.1289062,24.859375 18.1289062,24.8984375 L18.1289062,24.8984375 L18.1289062,25.4257812 Z M22.40625,25.4257812 L18.5390625,25.4257812 L18.5390625,25.0742188 L22.40625,25.0742188 L22.40625,25.4257812 Z" id="63" fill="currentColor" fill-rule="nonzero"></path>
    </g>
</svg>