<?xml version="1.0" encoding="UTF-8"?>
<svg width="27px" height="37px" viewBox="0 0 27 37" version="1.1" xmlns="http://www.w3.org/2000/svg" xmlns:xlink="http://www.w3.org/1999/xlink">
    <title>8</title>
    <g id="Page-1" stroke="none" stroke-width="1" fill="none" fill-rule="evenodd">
        <path d="M24.984375,36.8359375 C25.0234375,36.8359375 25.0625,36.8164062 25.1015625,36.7773438 C25.1015625,36.7773438 25.1210938,36.7382812 25.1601562,36.6601562 L25.1601562,36.6601562 L25.1601562,31.3867188 L25.6289062,31.3867188 C25.9023438,31.3867188 26.1171875,31.3085938 26.2734375,31.1523438 C26.4296875,30.9960938 26.5078125,30.8007812 26.5078125,30.5664062 L26.5078125,30.5664062 L26.5078125,1.50390625 C26.5078125,1.26953125 26.4296875,1.07421875 26.2734375,0.91796875 C26.1171875,0.76171875 25.9023438,0.68359375 25.6289062,0.68359375 L25.6289062,0.68359375 L1.37109375,0.68359375 C1.09765625,0.68359375 0.8828125,0.76171875 0.7265625,0.91796875 C0.5703125,1.07421875 0.4921875,1.26953125 0.4921875,1.50390625 L0.4921875,1.50390625 L0.4921875,30.5664062 C0.4921875,30.8007812 0.5703125,30.9960938 0.7265625,31.1523438 C0.8828125,31.3085938 1.09765625,31.3867188 1.37109375,31.3867188 L1.37109375,31.3867188 L1.83984375,31.3867188 L1.83984375,36.6601562 C1.83984375,36.6992188 1.859375,36.71875 1.8984375,36.71875 C1.8984375,36.7578125 1.91796875,36.7773438 1.95703125,36.7773438 L1.95703125,36.7773438 L2.015625,36.8359375 L24.984375,36.8359375 Z M25.6289062,31.0351562 L1.37109375,31.0351562 C1.21484375,31.0351562 1.09765625,30.9765625 1.01953125,30.859375 L1.01953125,30.859375 L0.90234375,30.6835938 C0.86328125,30.6445312 0.84375,30.6054688 0.84375,30.5664062 L0.84375,30.5664062 L0.84375,25.9960938 L12.9140625,25.9960938 L12.9726562,25.9375 C12.9726562,25.9375 12.9921875,25.8984375 13.03125,25.8203125 L13.03125,25.8203125 L13.03125,25.703125 C12.9921875,25.703125 12.953125,25.6835938 12.9140625,25.6445312 L12.9140625,25.6445312 L0.84375,25.6445312 L0.84375,24.6484375 L12.9140625,24.6484375 L12.9726562,24.5898438 C12.9726562,24.5898438 12.9921875,24.5507812 13.03125,24.4726562 L13.03125,24.4726562 L13.03125,24.3554688 C12.9921875,24.3554688 12.953125,24.3359375 12.9140625,24.296875 L12.9140625,24.296875 L0.84375,24.296875 L0.84375,1.50390625 C0.84375,1.42578125 0.86328125,1.3671875 0.90234375,1.328125 L0.90234375,1.328125 L1.01953125,1.15234375 C1.05859375,1.07421875 1.17578125,1.03515625 1.37109375,1.03515625 L1.37109375,1.03515625 L25.6289062,1.03515625 C25.8242188,1.03515625 25.9414062,1.07421875 25.9804688,1.15234375 L25.9804688,1.15234375 L26.0976562,1.328125 C26.1367188,1.3671875 26.15625,1.42578125 26.15625,1.50390625 L26.15625,1.50390625 L26.15625,24.296875 L23.578125,24.296875 C23.5390625,24.296875 23.5,24.3164062 23.4609375,24.3554688 L23.4609375,24.3554688 L23.4609375,24.53125 C23.4609375,24.609375 23.5,24.6484375 23.578125,24.6484375 L23.578125,24.6484375 L26.15625,24.6484375 L26.15625,25.6445312 L23.578125,25.6445312 C23.5390625,25.6445312 23.5,25.6640625 23.4609375,25.703125 L23.4609375,25.703125 L23.4609375,25.8789062 C23.4609375,25.9570312 23.5,25.9960938 23.578125,25.9960938 L23.578125,25.9960938 L26.15625,25.9960938 L26.15625,30.5664062 C26.15625,30.6054688 26.1367188,30.6445312 26.0976562,30.6835938 L26.0976562,30.6835938 L25.9804688,30.859375 C25.9414062,30.9765625 25.8242188,31.0351562 25.6289062,31.0351562 L25.6289062,31.0351562 Z M23.6367188,21.3085938 L23.6953125,21.25 C23.7734375,21.25 23.8125,21.2109375 23.8125,21.1328125 L23.8125,21.1328125 L23.8125,3.4375 C23.8125,3.4375 23.7734375,3.41796875 23.6953125,3.37890625 L23.6953125,3.37890625 L3.24609375,3.37890625 L3.24609375,3.4375 C3.20703125,3.4765625 3.1875,3.515625 3.1875,3.5546875 L3.1875,3.5546875 L3.1875,21.0742188 C3.1875,21.1132812 3.20703125,21.1328125 3.24609375,21.1328125 L3.24609375,21.1328125 L3.24609375,21.1914062 C3.24609375,21.2304688 3.265625,21.25 3.3046875,21.25 L3.3046875,21.25 L3.36328125,21.3085938 L23.6367188,21.3085938 Z M23.4609375,20.8984375 L3.5390625,20.8984375 L3.5390625,3.73046875 L23.4609375,3.73046875 L23.4609375,20.8984375 Z M20.9414062,19.9609375 C21.3320312,19.9609375 21.703125,19.7851562 22.0546875,19.4335938 C22.328125,19.1601562 22.4648438,18.8085938 22.4648438,18.3789062 L22.4648438,18.3789062 L22.4648438,6.25 C22.4648438,5.859375 22.328125,5.48828125 22.0546875,5.13671875 C21.703125,4.86328125 21.3320312,4.7265625 20.9414062,4.7265625 L20.9414062,4.7265625 L6.05859375,4.7265625 C5.62890625,4.7265625 5.27734375,4.86328125 5.00390625,5.13671875 C4.69140625,5.44921875 4.53515625,5.8203125 4.53515625,6.25 L4.53515625,6.25 L4.53515625,18.3789062 C4.53515625,18.8476562 4.69140625,19.1992188 5.00390625,19.4335938 C5.27734375,19.7851562 5.62890625,19.9609375 6.05859375,19.9609375 L6.05859375,19.9609375 L20.9414062,19.9609375 Z M20.9414062,19.5507812 L6.05859375,19.5507812 C5.74609375,19.5507812 5.4921875,19.4335938 5.296875,19.1992188 C5.0234375,19.0039062 4.88671875,18.7304688 4.88671875,18.3789062 L4.88671875,18.3789062 L4.88671875,6.25 C4.88671875,5.9765625 5.0234375,5.703125 5.296875,5.4296875 C5.4921875,5.1953125 5.74609375,5.078125 6.05859375,5.078125 L6.05859375,5.078125 L20.9414062,5.078125 C21.2539062,5.078125 21.5273438,5.1953125 21.7617188,5.4296875 C21.9960938,5.7421875 22.1132812,6.015625 22.1132812,6.25 L22.1132812,6.25 L22.1132812,18.3789062 C22.1132812,18.6914062 21.9960938,18.9648438 21.7617188,19.1992188 C21.5273438,19.4335938 21.2539062,19.5507812 20.9414062,19.5507812 L20.9414062,19.5507812 Z M22.3476562,25.9960938 C22.3867188,25.9960938 22.40625,25.9765625 22.40625,25.9375 L22.40625,25.9375 L22.4648438,25.8789062 L22.4648438,24.3554688 C22.4257812,24.3554688 22.40625,24.3359375 22.40625,24.296875 L22.40625,24.296875 L14.0859375,24.296875 C14.0078125,24.375 13.96875,24.4335938 13.96875,24.4726562 L13.96875,24.4726562 L13.96875,25.8203125 C13.96875,25.859375 13.9882812,25.8789062 14.0273438,25.8789062 C14.0273438,25.9570312 14.0664062,25.9960938 14.1445312,25.9960938 L14.1445312,25.9960938 L22.3476562,25.9960938 Z M22.1132812,25.6445312 L14.3789062,25.6445312 L14.3789062,24.6484375 L22.1132812,24.6484375 L22.1132812,25.6445312 Z M3.421875,29.8632812 C3.65625,29.8632812 3.8515625,29.7851562 4.0078125,29.6289062 C4.203125,29.4335938 4.30078125,29.2382812 4.30078125,29.0429688 C4.30078125,28.8085938 4.203125,28.59375 4.0078125,28.3984375 C3.8515625,28.2421875 3.65625,28.1640625 3.421875,28.1640625 C3.1875,28.1640625 2.9921875,28.2421875 2.8359375,28.3984375 C2.640625,28.59375 2.54296875,28.8085938 2.54296875,29.0429688 C2.54296875,29.2382812 2.640625,29.4335938 2.8359375,29.6289062 C2.9921875,29.7851562 3.1875,29.8632812 3.421875,29.8632812 Z M3.421875,29.5117188 C3.265625,29.5117188 3.1484375,29.453125 3.0703125,29.3359375 C2.9921875,29.1796875 2.953125,29.0820312 2.953125,29.0429688 C2.953125,28.8867188 2.9921875,28.7695312 3.0703125,28.6914062 C3.1875,28.5742188 3.3046875,28.515625 3.421875,28.515625 C3.5390625,28.515625 3.65625,28.5742188 3.7734375,28.6914062 C3.8515625,28.7695312 3.890625,28.8867188 3.890625,29.0429688 C3.890625,29.0820312 3.8515625,29.1796875 3.7734375,29.3359375 C3.734375,29.453125 3.6171875,29.5117188 3.421875,29.5117188 Z M24.8085938,36.4257812 L2.19140625,36.4257812 L2.19140625,31.3867188 L24.8085938,31.3867188 L24.8085938,36.4257812 Z" id="8" fill="currentColor" fill-rule="nonzero"></path>
    </g>
</svg>