<?xml version="1.0" encoding="UTF-8"?>
<svg width="31px" height="40px" viewBox="0 0 31 40" version="1.1" xmlns="http://www.w3.org/2000/svg" xmlns:xlink="http://www.w3.org/1999/xlink">
    <title>14</title>
    <g id="Page-1" stroke="none" stroke-width="1" fill="none" fill-rule="evenodd">
        <path d="M8.76171875,29.0546875 C8.83984375,29.0546875 8.95703125,29.0253906 9.11328125,28.9667969 C9.26953125,28.9082031 9.38671875,28.8203125 9.46484375,28.703125 L9.46484375,28.703125 L9.5234375,28.6445312 L30.6171875,28.6445312 C30.65625,28.6445312 30.6757812,28.625 30.6757812,28.5859375 L30.6757812,28.5859375 L30.734375,28.5273438 L30.6757812,28.46875 L30.734375,26.9453125 C30.6953125,26.8671875 30.6953125,26.8085938 30.734375,26.7695312 L30.734375,26.7695312 L30.6757812,26.7695312 L30.734375,0.578125 C30.6953125,0.5390625 30.6953125,0.5 30.734375,0.4609375 L30.734375,0.4609375 L30.6757812,0.40234375 C30.6367188,0.40234375 30.6171875,0.3828125 30.6171875,0.34375 L30.6171875,0.34375 L0.3828125,0.34375 L0.265625,0.4609375 C0.265625,0.5 0.24609375,0.5390625 0.20703125,0.578125 L0.20703125,0.578125 L0.265625,26.7695312 C0.265625,26.8085938 0.24609375,26.8476562 0.20703125,26.8867188 L0.20703125,26.8867188 L0.265625,28.46875 C0.2265625,28.5078125 0.2265625,28.5273438 0.265625,28.5273438 L0.265625,28.5273438 L0.265625,28.5859375 C0.265625,28.625 0.3046875,28.6445312 0.3828125,28.6445312 L0.3828125,28.6445312 L3.6640625,28.6445312 L3.72265625,28.703125 C3.83984375,28.8203125 3.94726562,28.9082031 4.04492188,28.9667969 C4.14257812,29.0253906 4.2890625,29.0546875 4.484375,29.0546875 C4.5625,29.0546875 4.6796875,29.0253906 4.8359375,28.9667969 C4.9921875,28.9082031 5.109375,28.8203125 5.1875,28.703125 L5.1875,28.703125 L5.24609375,28.6445312 L7.94140625,28.6445312 L8,28.703125 C8.1171875,28.8203125 8.22460938,28.9082031 8.32226562,28.9667969 C8.41992188,29.0253906 8.56640625,29.0546875 8.76171875,29.0546875 Z M30.3828125,26.7109375 L0.55859375,26.7109375 L0.6171875,0.75390625 L30.3242188,0.75390625 L30.3828125,26.7109375 Z M28.390625,23.078125 C28.4296875,23.078125 28.4492188,23.0585938 28.4492188,23.0195312 C28.4882812,23.0195312 28.5078125,23 28.5078125,22.9609375 L28.5078125,22.9609375 L28.5664062,22.9023438 C28.6054688,22.9023438 28.6054688,22.8828125 28.5664062,22.84375 L28.5664062,22.84375 L28.625,3.625 C28.5859375,3.625 28.5664062,3.60546875 28.5664062,3.56640625 L28.5664062,3.56640625 L28.5078125,3.5078125 C28.46875,3.5078125 28.4492188,3.48828125 28.4492188,3.44921875 L28.4492188,3.44921875 L2.4921875,3.44921875 C2.4921875,3.48828125 2.47265625,3.5078125 2.43359375,3.5078125 L2.43359375,3.5078125 L2.375,3.56640625 C2.375,3.60546875 2.35546875,3.625 2.31640625,3.625 L2.31640625,3.625 L2.375,22.84375 C2.3359375,22.8828125 2.3359375,22.9023438 2.375,22.9023438 L2.375,22.9023438 L2.43359375,22.9609375 C2.43359375,23 2.453125,23.0195312 2.4921875,23.0195312 L2.4921875,23.0195312 L2.55078125,23.078125 L28.390625,23.078125 Z M28.2148438,22.6679688 L2.7265625,22.6679688 L2.78515625,3.859375 L28.15625,3.859375 L28.2148438,22.6679688 Z M3.4296875,28.2929688 L0.55859375,28.2929688 L0.6171875,27.0625 L3.95703125,27.0625 L3.72265625,27.2382812 C3.56640625,27.3945312 3.44921875,27.6484375 3.37109375,28 L3.37109375,28 L3.4296875,28.2929688 Z M7.70703125,28.2929688 L5.48046875,28.2929688 L5.48046875,28 C5.51953125,27.8046875 5.421875,27.5507812 5.1875,27.2382812 C5.1484375,27.1992188 5.05078125,27.140625 4.89453125,27.0625 L4.89453125,27.0625 L8.234375,27.0625 L8,27.2382812 C7.84375,27.3945312 7.7265625,27.6484375 7.6484375,28 L7.6484375,28 L7.70703125,28.2929688 Z M25.8125,28.2929688 L9.7578125,28.2929688 L9.7578125,28 C9.796875,27.8046875 9.69921875,27.5507812 9.46484375,27.2382812 C9.42578125,27.1992188 9.328125,27.140625 9.171875,27.0625 L9.171875,27.0625 L25.7539062,27.0625 L25.8125,28.2929688 Z M28.15625,28.2929688 L26.2226562,28.2929688 L26.1640625,27.0625 L28.2148438,27.0625 L28.15625,28.2929688 Z M30.3828125,28.2929688 L28.5664062,28.2929688 L28.625,27.0625 L30.3242188,27.0625 L30.3828125,28.2929688 Z M4.42578125,28.6445312 C4.15234375,28.6445312 3.99609375,28.5859375 3.95703125,28.46875 C3.95703125,28.4296875 3.9375,28.390625 3.8984375,28.3515625 L3.8984375,28.3515625 L3.83984375,28.234375 C3.76171875,28.1171875 3.7421875,28.0390625 3.78125,28 C3.7421875,27.921875 3.75195312,27.8339844 3.81054688,27.7363281 C3.86914062,27.6386719 3.91796875,27.5507812 3.95703125,27.4726562 C3.99609375,27.3945312 4.15234375,27.3554688 4.42578125,27.3554688 L4.42578125,27.3554688 L4.71875,27.3554688 C4.9140625,27.4335938 5.03125,27.5507812 5.0703125,27.7070312 C5.0703125,27.8632812 5.08984375,27.9609375 5.12890625,28 C5.08984375,28.0390625 5.0703125,28.1171875 5.0703125,28.234375 L5.0703125,28.234375 L4.89453125,28.46875 C4.77734375,28.5859375 4.62109375,28.6445312 4.42578125,28.6445312 Z M8.703125,28.6445312 C8.4296875,28.6445312 8.2734375,28.5859375 8.234375,28.46875 C8.1953125,28.4296875 8.17578125,28.390625 8.17578125,28.3515625 C8.17578125,28.3125 8.15625,28.2734375 8.1171875,28.234375 C8.0390625,28.1171875 8.01953125,28.0390625 8.05859375,28 C8.01953125,27.921875 8.02929688,27.8339844 8.08789062,27.7363281 C8.14648438,27.6386719 8.1953125,27.5507812 8.234375,27.4726562 C8.2734375,27.3945312 8.4296875,27.3554688 8.703125,27.3554688 L8.703125,27.3554688 L8.99609375,27.3554688 C9.19140625,27.4335938 9.30859375,27.5507812 9.34765625,27.7070312 C9.34765625,27.8632812 9.3671875,27.9609375 9.40625,28 C9.3671875,28.0390625 9.34765625,28.1171875 9.34765625,28.234375 L9.34765625,28.234375 L9.2890625,28.2929688 L9.171875,28.46875 C9.0546875,28.5859375 8.8984375,28.6445312 8.703125,28.6445312 Z M27.5117188,39.8359375 C27.5507812,39.8359375 27.5703125,39.8164062 27.5703125,39.7773438 C27.609375,39.7773438 27.6289062,39.7578125 27.6289062,39.71875 L27.6289062,39.71875 L27.6875,39.6601562 L27.6289062,39.6015625 L27.6875,37.84375 L27.921875,37.84375 C27.921875,37.84375 27.9414062,37.8242188 27.9804688,37.7851562 L27.9804688,37.7851562 L28.0390625,37.7265625 C28.078125,37.7265625 28.0976562,37.7070312 28.0976562,37.6679688 L28.0976562,37.6679688 L28.0390625,35.0898438 L28.0390625,33.859375 C28.078125,33.8203125 28.0976562,33.78125 28.0976562,33.7421875 L28.0976562,33.7421875 L28.0976562,29.6992188 C28.0585938,29.6601562 28.0585938,29.6210938 28.0976562,29.5820312 L28.0976562,29.5820312 L28.0390625,29.5234375 C28,29.5234375 27.9804688,29.5039062 27.9804688,29.4648438 L27.9804688,29.4648438 L2.9609375,29.4648438 C2.9609375,29.5039062 2.94140625,29.5234375 2.90234375,29.5234375 C2.86328125,29.5625 2.86328125,29.5820312 2.90234375,29.5820312 C2.90234375,29.6210938 2.8828125,29.6601562 2.84375,29.6992188 L2.84375,29.6992188 L2.90234375,33.8007812 L2.90234375,37.609375 C2.86328125,37.6484375 2.86328125,37.6679688 2.90234375,37.6679688 L2.90234375,37.6679688 L2.90234375,37.7265625 C2.90234375,37.765625 2.921875,37.7851562 2.9609375,37.7851562 L2.9609375,37.7851562 L3.01953125,37.84375 L3.25390625,37.84375 L3.3125,39.6015625 C3.2734375,39.640625 3.2734375,39.6601562 3.3125,39.6601562 L3.3125,39.6601562 L3.3125,39.71875 C3.3125,39.7578125 3.33203125,39.7773438 3.37109375,39.7773438 L3.37109375,39.7773438 L3.4296875,39.8359375 L27.5117188,39.8359375 Z M27.7460938,33.6835938 L3.1953125,33.6835938 L3.25390625,29.875 L27.6875,29.875 L27.7460938,33.6835938 Z M22.2382812,33.2734375 C22.4335938,33.2734375 22.5703125,33.2539062 22.6484375,33.2148438 C22.921875,33.1367188 23.078125,32.9804688 23.1171875,32.7460938 C23.15625,32.7070312 23.2148438,32.609375 23.2929688,32.453125 L23.2929688,32.453125 L25.8125,32.453125 C25.890625,32.453125 25.9296875,32.4335938 25.9296875,32.3945312 L25.9296875,32.3945312 L25.9882812,32.3945312 C26.0273438,32.3945312 26.046875,32.375 26.046875,32.3359375 C26.0078125,32.296875 26.0078125,32.2773438 26.046875,32.2773438 L26.046875,32.2773438 L25.9882812,31.3398438 C26.0273438,31.3007812 26.046875,31.2617188 26.046875,31.2226562 C26.0078125,31.2226562 25.9882812,31.203125 25.9882812,31.1640625 L25.9882812,31.1640625 L25.8710938,31.1054688 L23.234375,31.1054688 C23.234375,30.9101562 23.1367188,30.7148438 22.9414062,30.5195312 C22.7851562,30.3632812 22.5703125,30.2851562 22.296875,30.2851562 L22.296875,30.2851562 L21.7109375,30.2851562 C21.515625,30.2851562 21.3007812,30.3632812 21.0664062,30.5195312 C20.8320312,30.6757812 20.734375,30.8710938 20.7734375,31.1054688 L20.7734375,31.1054688 L18.1367188,31.1054688 L18.0195312,31.1640625 C18.0195312,31.203125 18,31.2226562 17.9609375,31.2226562 C17.921875,31.2617188 17.921875,31.3007812 17.9609375,31.3398438 L17.9609375,31.3398438 L17.9023438,32.2773438 C17.9414062,32.2773438 17.9609375,32.296875 17.9609375,32.3359375 C17.9609375,32.375 17.9804688,32.3945312 18.0195312,32.3945312 L18.0195312,32.3945312 L18.078125,32.3945312 C18.078125,32.4335938 18.1171875,32.453125 18.1953125,32.453125 L18.1953125,32.453125 L20.7148438,32.453125 C20.7929688,32.7265625 20.9101562,32.921875 21.0664062,33.0390625 C21.1835938,33.1171875 21.28125,33.1757812 21.359375,33.2148438 C21.4375,33.2539062 21.5742188,33.2734375 21.7695312,33.2734375 L21.7695312,33.2734375 L22.2382812,33.2734375 Z M5.24609375,32.1601562 C5.44140625,32.1601562 5.55859375,32.140625 5.59765625,32.1015625 C5.79296875,32.0234375 5.9296875,31.8867188 6.0078125,31.6914062 C6.0078125,31.5742188 6.02734375,31.4765625 6.06640625,31.3984375 C6.02734375,31.3203125 6.0078125,31.2226562 6.0078125,31.1054688 L6.0078125,31.1054688 L5.83203125,30.8710938 C5.67578125,30.7148438 5.48046875,30.6367188 5.24609375,30.6367188 C5.20703125,30.6367188 5.12890625,30.65625 5.01171875,30.6953125 C4.89453125,30.734375 4.81640625,30.7929688 4.77734375,30.8710938 C4.73828125,30.9101562 4.71875,30.9492188 4.71875,30.9882812 C4.71875,31.0273438 4.69921875,31.0664062 4.66015625,31.1054688 C4.58203125,31.1835938 4.5625,31.28125 4.6015625,31.3984375 C4.5625,31.515625 4.58203125,31.6132812 4.66015625,31.6914062 C4.69921875,31.7304688 4.71875,31.7695312 4.71875,31.8085938 C4.71875,31.8476562 4.73828125,31.8867188 4.77734375,31.9257812 C4.81640625,32.0039062 4.89453125,32.0625 5.01171875,32.1015625 C5.12890625,32.140625 5.20703125,32.1601562 5.24609375,32.1601562 Z M22.296875,32.921875 L21.7109375,32.921875 C21.4765625,32.921875 21.3203125,32.84375 21.2421875,32.6875 C21.203125,32.609375 21.1640625,32.5410156 21.125,32.4824219 C21.0859375,32.4238281 21.0859375,32.3554688 21.125,32.2773438 C21.0859375,32.2382812 21.0664062,32.1992188 21.0664062,32.1601562 L21.0664062,32.1601562 L20.9492188,32.1015625 L18.3710938,32.1015625 L18.3125,31.515625 L20.890625,31.515625 C20.9296875,31.515625 20.9492188,31.4960938 20.9492188,31.4570312 C20.9882812,31.4570312 21.0078125,31.4375 21.0078125,31.3984375 L21.0078125,31.3984375 L21.0664062,31.3398438 C21.1054688,31.2617188 21.125,31.1640625 21.125,31.046875 C21.125,30.96875 21.1640625,30.890625 21.2421875,30.8125 C21.359375,30.734375 21.5351562,30.6953125 21.7695312,30.6953125 L21.7695312,30.6953125 L22.53125,30.6953125 C22.7265625,30.7734375 22.84375,30.890625 22.8828125,31.046875 C22.8828125,31.1640625 22.9023438,31.2617188 22.9414062,31.3398438 L22.9414062,31.3398438 L22.9414062,31.3984375 C22.9414062,31.4375 22.9609375,31.4570312 23,31.4570312 L23,31.4570312 L23.0585938,31.515625 L25.6953125,31.515625 L25.6367188,32.1015625 L22.9414062,32.1015625 C22.9023438,32.140625 22.9023438,32.1601562 22.9414062,32.1601562 C22.9414062,32.1992188 22.921875,32.2382812 22.8828125,32.2773438 C22.9609375,32.3554688 22.9609375,32.4335938 22.8828125,32.5117188 L22.8828125,32.5117188 L22.7070312,32.6875 C22.6679688,32.765625 22.5996094,32.8242188 22.5019531,32.8632812 C22.4042969,32.9023438 22.3359375,32.921875 22.296875,32.921875 L22.296875,32.921875 Z M5.3046875,31.75 C5.2265625,31.75 5.1875,31.7304688 5.1875,31.6914062 C5.1484375,31.6914062 5.109375,31.671875 5.0703125,31.6328125 L5.0703125,31.6328125 L4.9953125,31.5578125 C4.9671875,31.5296875 4.953125,31.515625 4.953125,31.515625 C4.953125,31.4765625 4.93359375,31.4375 4.89453125,31.3984375 C4.93359375,31.359375 4.953125,31.3007812 4.953125,31.2226562 C4.953125,31.2226562 4.9671875,31.2085938 4.9953125,31.1804688 L5.0703125,31.1054688 C5.109375,31.1054688 5.1484375,31.0859375 5.1875,31.046875 L5.1875,31.046875 L5.3046875,31.046875 L5.59765625,31.1054688 C5.59765625,31.1445312 5.6171875,31.1933594 5.65625,31.2519531 C5.6953125,31.3105469 5.6953125,31.359375 5.65625,31.3984375 C5.6953125,31.4375 5.6953125,31.4765625 5.65625,31.515625 C5.6171875,31.5546875 5.59765625,31.59375 5.59765625,31.6328125 C5.51953125,31.7109375 5.421875,31.75 5.3046875,31.75 Z M12.8632812,37.4335938 L3.1953125,37.4335938 L3.1953125,34.0351562 L12.921875,34.0351562 L12.8632812,37.4335938 Z M27.7460938,37.4335938 L13.2148438,37.4335938 L13.2734375,34.0351562 L27.6875,34.0351562 L27.7460938,37.4335938 Z M25.9296875,36.5546875 C25.96875,36.5546875 25.9882812,36.5351562 25.9882812,36.4960938 C26.0273438,36.4960938 26.046875,36.4765625 26.046875,36.4375 C26.0078125,36.4375 26.0078125,36.4179688 26.046875,36.3789062 L26.046875,36.3789062 L25.9882812,34.6796875 C26.0273438,34.640625 26.046875,34.6015625 26.046875,34.5625 C26.0078125,34.5625 25.9882812,34.5429688 25.9882812,34.5039062 L25.9882812,34.5039062 L14.9140625,34.5039062 C14.9140625,34.5429688 14.8945312,34.5625 14.8554688,34.5625 C14.8164062,34.6015625 14.8164062,34.640625 14.8554688,34.6796875 L14.8554688,34.6796875 L14.796875,36.3789062 L14.8554688,36.4375 C14.8554688,36.515625 14.8945312,36.5546875 14.9726562,36.5546875 L14.9726562,36.5546875 L25.9296875,36.5546875 Z M25.6367188,36.203125 L15.2070312,36.203125 L15.1484375,34.8554688 L25.6953125,34.8554688 L25.6367188,36.203125 Z M27.2773438,39.4257812 L3.6640625,39.4257812 L3.60546875,37.84375 L27.3359375,37.84375 L27.2773438,39.4257812 Z" id="14" fill="currentColor" fill-rule="nonzero"></path>
    </g>
</svg>