<?xml version="1.0" encoding="UTF-8"?>
<svg width="27px" height="38px" viewBox="0 0 27 38" version="1.1" xmlns="http://www.w3.org/2000/svg" xmlns:xlink="http://www.w3.org/1999/xlink">
    <title>3</title>
    <g id="Page-1" stroke="none" stroke-width="1" fill="none" fill-rule="evenodd">
        <path d="M24.984375,37.8359375 C25.0234375,37.8359375 25.0625,37.8164062 25.1015625,37.7773438 C25.1015625,37.7773438 25.1210938,37.7382812 25.1601562,37.6601562 L25.1601562,37.6601562 L25.1601562,32.3867188 L25.6289062,32.3867188 C25.9023438,32.3867188 26.1171875,32.3085938 26.2734375,32.1523438 C26.4296875,31.9960938 26.5078125,31.8007812 26.5078125,31.5664062 L26.5078125,31.5664062 L26.5078125,1.859375 C26.5078125,1.5859375 26.4296875,1.37109375 26.2734375,1.21484375 C26.1171875,1.05859375 25.9023438,0.98046875 25.6289062,0.98046875 L25.6289062,0.98046875 L1.37109375,0.98046875 C1.09765625,0.98046875 0.8828125,1.05859375 0.7265625,1.21484375 C0.5703125,1.37109375 0.4921875,1.5859375 0.4921875,1.859375 L0.4921875,1.859375 L0.4921875,31.5664062 C0.4921875,31.8007812 0.5703125,31.9960938 0.7265625,32.1523438 C0.8828125,32.3085938 1.09765625,32.3867188 1.37109375,32.3867188 L1.37109375,32.3867188 L1.83984375,32.3867188 L1.83984375,37.6601562 C1.83984375,37.6992188 1.859375,37.71875 1.8984375,37.71875 C1.8984375,37.796875 1.9375,37.8359375 2.015625,37.8359375 L2.015625,37.8359375 L24.984375,37.8359375 Z M25.6289062,32.0351562 L1.37109375,32.0351562 C1.21484375,32.0351562 1.09765625,31.9765625 1.01953125,31.859375 L1.01953125,31.859375 L0.90234375,31.6835938 C0.86328125,31.6445312 0.84375,31.6054688 0.84375,31.5664062 L0.84375,31.5664062 L0.84375,1.859375 C0.84375,1.7421875 0.90234375,1.625 1.01953125,1.5078125 C1.09765625,1.4296875 1.21484375,1.390625 1.37109375,1.390625 L1.37109375,1.390625 L25.6289062,1.390625 C25.7851562,1.390625 25.9023438,1.4296875 25.9804688,1.5078125 C26.0976562,1.625 26.15625,1.7421875 26.15625,1.859375 L26.15625,1.859375 L26.15625,31.5664062 C26.15625,31.6054688 26.1367188,31.6445312 26.0976562,31.6835938 L26.0976562,31.6835938 L25.9804688,31.859375 C25.9414062,31.9765625 25.8242188,32.0351562 25.6289062,32.0351562 L25.6289062,32.0351562 Z M23.6953125,21.6054688 C23.7734375,21.6054688 23.8125,21.5664062 23.8125,21.4882812 L23.8125,21.4882812 L23.8125,3.734375 L23.6953125,3.67578125 L3.36328125,3.67578125 L3.24609375,3.734375 L3.24609375,3.79296875 L3.1875,3.8515625 L3.1875,21.4296875 C3.1875,21.46875 3.20703125,21.4882812 3.24609375,21.4882812 L3.24609375,21.4882812 L3.24609375,21.546875 C3.24609375,21.5859375 3.265625,21.6054688 3.3046875,21.6054688 L3.3046875,21.6054688 L23.6953125,21.6054688 Z M23.4609375,21.2539062 L3.5390625,21.2539062 L3.5390625,4.0859375 L23.4609375,4.0859375 L23.4609375,21.2539062 Z M20.9414062,20.2578125 C21.3710938,20.2578125 21.7421875,20.1015625 22.0546875,19.7890625 C22.328125,19.515625 22.4648438,19.1640625 22.4648438,18.734375 L22.4648438,18.734375 L22.4648438,6.546875 C22.4648438,6.15625 22.328125,5.78515625 22.0546875,5.43359375 C21.703125,5.16015625 21.3320312,5.0234375 20.9414062,5.0234375 L20.9414062,5.0234375 L6.05859375,5.0234375 C5.62890625,5.0234375 5.27734375,5.16015625 5.00390625,5.43359375 C4.69140625,5.74609375 4.53515625,6.1171875 4.53515625,6.546875 L4.53515625,6.546875 L4.53515625,18.734375 C4.53515625,19.203125 4.69140625,19.5546875 5.00390625,19.7890625 C5.23828125,20.1015625 5.58984375,20.2578125 6.05859375,20.2578125 L6.05859375,20.2578125 L20.9414062,20.2578125 Z M20.9414062,19.90625 L6.05859375,19.90625 C5.74609375,19.90625 5.4921875,19.7890625 5.296875,19.5546875 C5.0234375,19.28125 4.88671875,19.0078125 4.88671875,18.734375 L4.88671875,18.734375 L4.88671875,6.546875 C4.88671875,6.2734375 5.0234375,6 5.296875,5.7265625 C5.4921875,5.53125 5.74609375,5.43359375 6.05859375,5.43359375 L6.05859375,5.43359375 L20.9414062,5.43359375 C21.2148438,5.43359375 21.4882812,5.53125 21.7617188,5.7265625 C21.9960938,6.0390625 22.1132812,6.3125 22.1132812,6.546875 L22.1132812,6.546875 L22.1132812,18.734375 C22.1132812,18.96875 21.9960938,19.2421875 21.7617188,19.5546875 C21.5273438,19.7890625 21.2539062,19.90625 20.9414062,19.90625 L20.9414062,19.90625 Z M22.9335938,28.34375 C23.2070312,28.34375 23.421875,28.265625 23.578125,28.109375 C23.734375,27.953125 23.8125,27.7578125 23.8125,27.5234375 L23.8125,27.5234375 L23.8125,26.1757812 C23.8125,25.9023438 23.734375,25.6875 23.578125,25.53125 C23.421875,25.375 23.2070312,25.296875 22.9335938,25.296875 L22.9335938,25.296875 L20.9414062,25.296875 C20.7070312,25.296875 20.53125,25.3554688 20.4140625,25.4726562 C20.3359375,25.5507812 20.2675781,25.6289062 20.2089844,25.7070312 C20.1503906,25.7851562 20.1015625,25.8632812 20.0625,25.9414062 L20.0625,25.9414062 L14.203125,25.9414062 C14.1640625,25.9414062 14.125,25.9609375 14.0859375,26 C14.0078125,26.078125 13.96875,26.1367188 13.96875,26.1757812 L13.96875,26.1757812 L13.96875,27.5234375 L14.0273438,27.5234375 C14.0273438,27.5625 14.046875,27.5820312 14.0859375,27.5820312 C14.0859375,27.6601562 14.125,27.6992188 14.203125,27.6992188 L14.203125,27.6992188 L20.0625,27.6992188 C20.1015625,27.7773438 20.1503906,27.8554688 20.2089844,27.9335938 C20.2675781,28.0117188 20.3359375,28.0898438 20.4140625,28.1679688 C20.4921875,28.2851562 20.6679688,28.34375 20.9414062,28.34375 L20.9414062,28.34375 L22.9335938,28.34375 Z M22.9335938,27.9921875 L20.9414062,27.9921875 C20.7851562,27.9921875 20.6679688,27.9335938 20.5898438,27.8164062 L20.5898438,27.8164062 L20.4726562,27.640625 C20.4335938,27.6015625 20.4140625,27.5625 20.4140625,27.5234375 L20.4140625,27.5234375 L20.4140625,27.3476562 C20.375,27.3476562 20.3457031,27.3378906 20.3261719,27.3183594 C20.3066406,27.2988281 20.2773438,27.2890625 20.2382812,27.2890625 L20.2382812,27.2890625 L14.3789062,27.2890625 L14.3789062,26.3515625 L20.2382812,26.3515625 C20.2773438,26.3515625 20.3164062,26.3320312 20.3554688,26.2929688 C20.3554688,26.2929688 20.3566895,26.2905273 20.3591309,26.2856445 L20.4140625,26.1757812 C20.4140625,26.0585938 20.4726562,25.9414062 20.5898438,25.8242188 C20.7070312,25.7070312 20.8242188,25.6484375 20.9414062,25.6484375 L20.9414062,25.6484375 L22.9335938,25.6484375 C23.0507812,25.6484375 23.1679688,25.7070312 23.2851562,25.8242188 C23.4023438,25.9414062 23.4609375,26.0585938 23.4609375,26.1757812 L23.4609375,26.1757812 L23.4609375,27.5234375 C23.4609375,27.5625 23.4414062,27.6015625 23.4023438,27.640625 L23.4023438,27.640625 L23.2851562,27.8164062 C23.2460938,27.9335938 23.1289062,27.9921875 22.9335938,27.9921875 L22.9335938,27.9921875 Z M4.06640625,27.6992188 C4.26171875,27.6992188 4.45703125,27.6015625 4.65234375,27.40625 C4.80859375,27.25 4.88671875,27.0546875 4.88671875,26.8203125 C4.88671875,26.5859375 4.80859375,26.390625 4.65234375,26.234375 C4.45703125,26.0390625 4.26171875,25.9414062 4.06640625,25.9414062 C3.83203125,25.9414062 3.6171875,26.0390625 3.421875,26.234375 C3.265625,26.390625 3.1875,26.5859375 3.1875,26.8203125 C3.1875,27.0546875 3.265625,27.25 3.421875,27.40625 C3.6171875,27.6015625 3.83203125,27.6992188 4.06640625,27.6992188 Z M4.06640625,27.2890625 C3.91015625,27.2890625 3.79296875,27.25 3.71484375,27.171875 C3.59765625,27.0546875 3.5390625,26.9375 3.5390625,26.8203125 C3.5390625,26.703125 3.59765625,26.5859375 3.71484375,26.46875 C3.79296875,26.390625 3.91015625,26.3515625 4.06640625,26.3515625 C4.14453125,26.3515625 4.26171875,26.390625 4.41796875,26.46875 C4.49609375,26.5078125 4.53515625,26.625 4.53515625,26.8203125 C4.53515625,27.015625 4.49609375,27.1328125 4.41796875,27.171875 C4.26171875,27.25 4.14453125,27.2890625 4.06640625,27.2890625 Z M24.8085938,37.4257812 L2.19140625,37.4257812 L2.19140625,32.3867188 L24.8085938,32.3867188 L24.8085938,37.4257812 Z M23.6953125,35.7851562 C23.734375,35.7851562 23.7539062,35.765625 23.7539062,35.7265625 L23.7539062,35.7265625 L23.8125,35.6679688 L23.8125,34.1445312 C23.7734375,34.1445312 23.7539062,34.125 23.7539062,34.0859375 L23.7539062,34.0859375 L22.2304688,34.0859375 C22.1914062,34.0859375 22.1523438,34.1054688 22.1132812,34.1445312 L22.1132812,34.1445312 L22.1132812,35.6679688 L22.2890625,35.7851562 L23.6953125,35.7851562 Z M23.4609375,35.4335938 L22.4648438,35.4335938 L22.4648438,34.4375 L23.4609375,34.4375 L23.4609375,35.4335938 Z" id="3" fill="currentColor" fill-rule="nonzero"></path>
    </g>
</svg>