<?xml version="1.0" encoding="UTF-8"?>
<svg width="27px" height="38px" viewBox="0 0 27 38" version="1.1" xmlns="http://www.w3.org/2000/svg" xmlns:xlink="http://www.w3.org/1999/xlink">
    <title>1</title>
    <g id="Page-1" stroke="none" stroke-width="1" fill="none" fill-rule="evenodd">
        <path d="M1.78125,37.8359375 L25.1601562,37.7773438 C25.2773438,37.7773438 25.3359375,37.71875 25.3359375,37.6015625 L25.3359375,37.6015625 L25.3359375,32.5039062 L25.5117188,32.5039062 C25.7851562,32.5039062 26.0195312,32.40625 26.2148438,32.2109375 C26.4101562,32.015625 26.5078125,31.8007812 26.5078125,31.5664062 L26.5078125,31.5664062 L26.5078125,1.44921875 C26.5078125,1.17578125 26.4101562,0.94140625 26.2148438,0.74609375 C26.0195312,0.55078125 25.7851562,0.453125 25.5117188,0.453125 L25.5117188,0.453125 L1.4296875,0.453125 C1.15625,0.453125 0.931640625,0.55078125 0.755859375,0.74609375 C0.580078125,0.94140625 0.4921875,1.17578125 0.4921875,1.44921875 L0.4921875,1.44921875 L0.4921875,31.5664062 C0.4921875,31.8007812 0.580078125,32.015625 0.755859375,32.2109375 C0.931640625,32.40625 1.15625,32.5039062 1.4296875,32.5039062 L1.4296875,32.5039062 L1.60546875,32.5039062 L1.60546875,37.6015625 C1.60546875,37.6796875 1.625,37.7382812 1.6640625,37.7773438 C1.6640625,37.7773438 1.703125,37.796875 1.78125,37.8359375 L1.78125,37.8359375 Z M25.5117188,32.1523438 L1.4296875,32.1523438 C1.0390625,32.1523438 0.84375,31.9570312 0.84375,31.5664062 L0.84375,31.5664062 L0.84375,1.44921875 C0.84375,1.05859375 1.0390625,0.86328125 1.4296875,0.86328125 L1.4296875,0.86328125 L25.5117188,0.86328125 C25.9023438,0.86328125 26.0976562,1.05859375 26.0976562,1.44921875 L26.0976562,1.44921875 L26.0976562,31.5664062 C26.0976562,31.9570312 25.9023438,32.1523438 25.5117188,32.1523438 L25.5117188,32.1523438 Z M23.6367188,21.6054688 C23.7539062,21.6054688 23.8125,21.546875 23.8125,21.4296875 L23.8125,21.4296875 L23.8125,3.32421875 C23.8125,3.16796875 23.7539062,3.08984375 23.6367188,3.08984375 L23.6367188,3.08984375 L3.3046875,3.08984375 C3.1875,3.08984375 3.12890625,3.16796875 3.12890625,3.32421875 L3.12890625,3.32421875 L3.0703125,21.4296875 C3.0703125,21.46875 3.08984375,21.5078125 3.12890625,21.546875 C3.16796875,21.5859375 3.2265625,21.6054688 3.3046875,21.6054688 L3.3046875,21.6054688 L23.6367188,21.6054688 Z M3.48046875,21.2539062 L3.48046875,3.5 L23.4609375,3.5 L23.4609375,21.1953125 L3.48046875,21.2539062 Z M21.1171875,20.0820312 C21.9375,20.0820312 22.3476562,19.6523438 22.3476562,18.7929688 L22.3476562,18.7929688 L22.3476562,5.9609375 C22.3476562,5.0625 21.8984375,4.61328125 21,4.61328125 L21,4.61328125 L5.94140625,4.61328125 C5.04296875,4.61328125 4.59375,5.0625 4.59375,5.9609375 L4.59375,5.9609375 L4.59375,18.7929688 C4.59375,19.1445312 4.69140625,19.4570312 4.88671875,19.7304688 C5.12109375,19.9648438 5.4140625,20.0820312 5.765625,20.0820312 L5.765625,20.0820312 L21.1171875,20.0820312 Z M21.1171875,19.7304688 L5.94140625,19.7304688 C5.58984375,19.7304688 5.3359375,19.6523438 5.1796875,19.4960938 C5.0625,19.3007812 5.00390625,19.0664062 5.00390625,18.7929688 L5.00390625,18.7929688 L5.00390625,5.9609375 C5.00390625,5.3359375 5.31640625,5.0234375 5.94140625,5.0234375 L5.94140625,5.0234375 L21,5.0234375 C21.625,5.0234375 21.9375,5.3359375 21.9375,5.9609375 L21.9375,5.9609375 L21.9375,18.7929688 C21.9375,18.9882812 21.8886719,19.1933594 21.7910156,19.4082031 C21.6933594,19.6230469 21.46875,19.7304688 21.1171875,19.7304688 L21.1171875,19.7304688 Z M22.875,28.4023438 C23.109375,28.4023438 23.3242188,28.3046875 23.5195312,28.109375 C23.7148438,27.9140625 23.8125,27.6992188 23.8125,27.4648438 L23.8125,27.4648438 L23.8125,25.9414062 C23.8125,25.7070312 23.7148438,25.4921875 23.5195312,25.296875 C23.3242188,25.1015625 23.109375,25.0039062 22.875,25.0039062 L22.875,25.0039062 L21,25.0039062 C20.8046875,25.0039062 20.6289062,25.0820312 20.4726562,25.2382812 C20.3164062,25.3945312 20.1992188,25.5703125 20.1210938,25.765625 L20.1210938,25.765625 L14.203125,25.765625 C14.0859375,25.765625 14.0273438,25.8242188 14.0273438,25.9414062 L14.0273438,25.9414062 L14.0273438,27.4648438 C14.0273438,27.4648438 14.046875,27.5039062 14.0859375,27.5820312 C14.125,27.5820312 14.1640625,27.6015625 14.203125,27.640625 L14.203125,27.640625 L20.1210938,27.640625 C20.1992188,28.1484375 20.4921875,28.4023438 21,28.4023438 L21,28.4023438 L22.875,28.4023438 Z M22.875,27.9921875 L21,27.9921875 C20.8828125,27.9921875 20.765625,27.9335938 20.6484375,27.8164062 C20.53125,27.6992188 20.4726562,27.5820312 20.4726562,27.4648438 C20.4726562,27.4257812 20.4628906,27.3964844 20.4433594,27.3769531 C20.4238281,27.3574219 20.4140625,27.328125 20.4140625,27.2890625 C20.375,27.2890625 20.3457031,27.2792969 20.3261719,27.2597656 C20.3066406,27.2402344 20.2773438,27.2304688 20.2382812,27.2304688 L20.2382812,27.2304688 L14.4375,27.2304688 L14.4375,26.1171875 L20.2382812,26.1171875 C20.3945312,26.1171875 20.4726562,26.0585938 20.4726562,25.9414062 C20.4726562,25.8632812 20.53125,25.7460938 20.6484375,25.5898438 C20.765625,25.4335938 20.8828125,25.3554688 21,25.3554688 L21,25.3554688 L22.875,25.3554688 C23.265625,25.3554688 23.4609375,25.5507812 23.4609375,25.9414062 L23.4609375,25.9414062 L23.4609375,27.4648438 C23.4609375,27.5820312 23.4023438,27.6992188 23.2851562,27.8164062 C23.1679688,27.9335938 23.03125,27.9921875 22.875,27.9921875 L22.875,27.9921875 Z M4.06640625,30.2773438 C4.69140625,30.2773438 5.00390625,29.9648438 5.00390625,29.3398438 C5.00390625,28.7148438 4.69140625,28.4023438 4.06640625,28.4023438 C3.44140625,28.4023438 3.12890625,28.7148438 3.12890625,29.3398438 C3.12890625,29.9648438 3.44140625,30.2773438 4.06640625,30.2773438 Z M4.06640625,29.8671875 C3.67578125,29.8671875 3.48046875,29.6914062 3.48046875,29.3398438 C3.48046875,28.9492188 3.67578125,28.7539062 4.06640625,28.7539062 C4.41796875,28.7539062 4.59375,28.9492188 4.59375,29.3398438 C4.59375,29.6914062 4.41796875,29.8671875 4.06640625,29.8671875 Z M24.984375,37.4257812 L1.95703125,37.4257812 L1.95703125,32.5039062 L24.984375,32.5039062 L24.984375,37.4257812 Z M23.7539062,35.7851562 C23.8710938,35.7851562 23.9296875,35.7265625 23.9296875,35.609375 L23.9296875,35.609375 L23.9296875,34.203125 C23.9296875,34.0859375 23.8710938,34.0273438 23.7539062,34.0273438 L23.7539062,34.0273438 L22.3476562,34.0273438 C22.2304688,34.0273438 22.171875,34.0859375 22.171875,34.203125 L22.171875,34.203125 L22.171875,35.609375 C22.171875,35.7265625 22.2304688,35.7851562 22.3476562,35.7851562 L22.3476562,35.7851562 L23.7539062,35.7851562 Z M23.5195312,35.375 L22.5820312,35.375 L22.5820312,34.4375 L23.5195312,34.4375 L23.5195312,35.375 Z" id="1" fill="currentColor" fill-rule="nonzero"></path>
    </g>
</svg>