<?xml version="1.0" encoding="UTF-8"?>
<svg width="29px" height="37px" viewBox="0 0 29 37" version="1.1" xmlns="http://www.w3.org/2000/svg" xmlns:xlink="http://www.w3.org/1999/xlink">
    <title>6</title>
    <g id="Page-1" stroke="none" stroke-width="1" fill="none" fill-rule="evenodd">
        <path d="M27.2148438,23.4765625 C27.4882812,23.4765625 27.703125,23.3984375 27.859375,23.2421875 C28.0546875,23.046875 28.1523438,22.8320312 28.1523438,22.5976562 L28.1523438,22.5976562 L28.1523438,1.85546875 C28.1523438,1.62109375 28.0546875,1.40625 27.859375,1.2109375 C27.703125,1.0546875 27.4882812,0.9765625 27.2148438,0.9765625 L27.2148438,0.9765625 L1.78515625,0.9765625 C1.51171875,0.9765625 1.296875,1.0546875 1.140625,1.2109375 C0.9453125,1.40625 0.84765625,1.62109375 0.84765625,1.85546875 L0.84765625,1.85546875 L0.84765625,22.5976562 C0.84765625,22.8320312 0.9453125,23.046875 1.140625,23.2421875 C1.296875,23.3984375 1.51171875,23.4765625 1.78515625,23.4765625 L1.78515625,23.4765625 L27.2148438,23.4765625 Z M27.2148438,23.125 L1.78515625,23.125 C1.70703125,23.125 1.6484375,23.1054688 1.609375,23.0664062 L1.609375,23.0664062 L1.43359375,22.9492188 C1.31640625,22.8710938 1.2578125,22.7539062 1.2578125,22.5976562 L1.2578125,22.5976562 L1.2578125,1.85546875 C1.2578125,1.66015625 1.31640625,1.54296875 1.43359375,1.50390625 L1.43359375,1.50390625 L1.609375,1.38671875 C1.6484375,1.34765625 1.70703125,1.328125 1.78515625,1.328125 L1.78515625,1.328125 L27.2148438,1.328125 C27.3320312,1.328125 27.4101562,1.34765625 27.4492188,1.38671875 L27.4492188,1.38671875 L27.625,1.50390625 C27.703125,1.54296875 27.7421875,1.66015625 27.7421875,1.85546875 L27.7421875,1.85546875 L27.7421875,22.5976562 C27.7421875,22.7929688 27.703125,22.9101562 27.625,22.9492188 L27.625,22.9492188 L27.4492188,23.0664062 C27.4101562,23.1054688 27.3320312,23.125 27.2148438,23.125 L27.2148438,23.125 Z M24.8710938,20.546875 C24.8710938,20.546875 24.890625,20.5078125 24.9296875,20.4296875 L24.9296875,20.4296875 L24.9296875,4.43359375 C24.890625,4.43359375 24.8613281,4.42382812 24.8417969,4.40429688 C24.8222656,4.38476562 24.7929688,4.375 24.7539062,4.375 L24.7539062,4.375 L4.1875,4.375 L4.0703125,4.4921875 L4.0703125,20.4296875 C4.0703125,20.5078125 4.109375,20.546875 4.1875,20.546875 L4.1875,20.546875 L24.8710938,20.546875 Z M24.578125,20.1953125 L4.421875,20.1953125 L4.421875,4.78515625 L24.578125,4.78515625 L24.578125,20.1953125 Z M27.9179688,36.8945312 C27.9570312,36.8945312 27.9960938,36.875 28.0351562,36.8359375 C28.0351562,36.8359375 28.0546875,36.796875 28.09375,36.71875 L28.09375,36.71875 L28.09375,24.4140625 C28.0546875,24.4140625 28.0253906,24.4042969 28.0058594,24.3847656 C27.9863281,24.3652344 27.9570312,24.3554688 27.9179688,24.3554688 L27.9179688,24.3554688 L1.0234375,24.3554688 L0.90625,24.4726562 L0.90625,36.71875 C0.90625,36.7578125 0.92578125,36.7773438 0.96484375,36.7773438 C0.96484375,36.8554688 1.00390625,36.8945312 1.08203125,36.8945312 L1.08203125,36.8945312 L27.9179688,36.8945312 Z M27.7421875,25.6445312 L1.2578125,25.6445312 L1.2578125,24.765625 L27.7421875,24.765625 L27.7421875,25.6445312 Z M27.7421875,30.2734375 L1.2578125,30.2734375 L1.2578125,25.9960938 L27.7421875,25.9960938 L27.7421875,30.2734375 Z M26.21875,27.578125 C26.2578125,27.578125 26.296875,27.5585938 26.3359375,27.5195312 L26.3359375,27.5195312 L26.453125,27.4023438 C26.453125,27.3632812 26.4433594,27.3339844 26.4238281,27.3144531 C26.4042969,27.2949219 26.3945312,27.265625 26.3945312,27.2265625 C26.3554688,27.2265625 26.3261719,27.2167969 26.3066406,27.1972656 C26.2871094,27.1777344 26.2578125,27.1679688 26.21875,27.1679688 L26.21875,27.1679688 L2.72265625,27.1679688 C2.68359375,27.1679688 2.64453125,27.1875 2.60546875,27.2265625 C2.52734375,27.3046875 2.48828125,27.3632812 2.48828125,27.4023438 L2.48828125,27.4023438 L2.546875,27.4023438 C2.546875,27.4414062 2.56640625,27.4609375 2.60546875,27.4609375 C2.60546875,27.5390625 2.64453125,27.578125 2.72265625,27.578125 L2.72265625,27.578125 L26.21875,27.578125 Z M26.21875,29.0429688 C26.2578125,29.0429688 26.3164062,29.0039062 26.3945312,28.9257812 C26.3945312,28.9257812 26.4140625,28.8867188 26.453125,28.8085938 L26.453125,28.8085938 L26.453125,28.75 C26.4140625,28.75 26.3945312,28.7304688 26.3945312,28.6914062 C26.3554688,28.6914062 26.3261719,28.6816406 26.3066406,28.6621094 C26.2871094,28.6425781 26.2578125,28.6328125 26.21875,28.6328125 L26.21875,28.6328125 L2.6640625,28.6328125 L2.546875,28.75 L2.48828125,28.8085938 C2.48828125,28.8867188 2.52734375,28.9257812 2.60546875,28.9257812 C2.60546875,29.0039062 2.64453125,29.0429688 2.72265625,29.0429688 L2.72265625,29.0429688 L26.21875,29.0429688 Z M27.7421875,35.078125 L1.2578125,35.078125 L1.2578125,30.625 L17.6640625,30.625 L17.6640625,31.796875 C17.6640625,31.8359375 17.6835938,31.8554688 17.7226562,31.8554688 C17.7226562,31.9335938 17.7617188,31.9726562 17.8398438,31.9726562 L17.8398438,31.9726562 L17.8398438,32.03125 L26.1601562,32.03125 C26.1992188,32.03125 26.21875,32.0117188 26.21875,31.9726562 C26.2578125,31.9726562 26.2773438,31.953125 26.2773438,31.9140625 L26.2773438,31.9140625 L26.3359375,31.8554688 L26.3359375,30.625 L27.7421875,30.625 L27.7421875,35.078125 Z M25.9257812,31.6210938 L18.0742188,31.6210938 L18.015625,30.6835938 L25.9257812,30.6835938 L25.9257812,31.6210938 Z M3.30859375,34.7265625 C3.58203125,34.7265625 3.796875,34.6484375 3.953125,34.4921875 C4.109375,34.3359375 4.1875,34.1210938 4.1875,33.8476562 C4.1875,33.6132812 4.109375,33.4179688 3.953125,33.2617188 C3.796875,33.1054688 3.58203125,33.0273438 3.30859375,33.0273438 C3.07421875,33.0273438 2.87890625,33.1054688 2.72265625,33.2617188 C2.56640625,33.4179688 2.48828125,33.6132812 2.48828125,33.8476562 C2.48828125,34.1210938 2.56640625,34.3359375 2.72265625,34.4921875 C2.87890625,34.6484375 3.07421875,34.7265625 3.30859375,34.7265625 Z M3.30859375,34.375 C3.26953125,34.375 3.23046875,34.3554688 3.19140625,34.3164062 L3.19140625,34.3164062 L3.015625,34.1992188 C2.8984375,34.1210938 2.83984375,34.0039062 2.83984375,33.8476562 C2.83984375,33.7304688 2.8984375,33.6132812 3.015625,33.4960938 C3.09375,33.4179688 3.19140625,33.3789062 3.30859375,33.3789062 C3.50390625,33.3789062 3.62109375,33.4179688 3.66015625,33.4960938 L3.66015625,33.4960938 L3.77734375,33.671875 C3.81640625,33.7109375 3.8359375,33.7695312 3.8359375,33.8476562 C3.8359375,33.9648438 3.77734375,34.0820312 3.66015625,34.1992188 C3.54296875,34.3164062 3.42578125,34.375 3.30859375,34.375 Z M27.7421875,36.484375 L1.2578125,36.484375 L1.2578125,35.4882812 L27.7421875,35.4882812 L27.7421875,36.484375 Z" id="6" fill="currentColor" fill-rule="nonzero"></path>
    </g>
</svg>