<?xml version="1.0" encoding="UTF-8"?>
<svg width="33px" height="28px" viewBox="0 0 33 28" version="1.1" xmlns="http://www.w3.org/2000/svg" xmlns:xlink="http://www.w3.org/1999/xlink">
    <title>52</title>
    <g id="Page-1" stroke="none" stroke-width="1" fill="none" fill-rule="evenodd">
        <path d="M30.6796875,27.8359375 C31.0703125,27.8359375 31.4414062,27.6601562 31.7929688,27.3085938 C32.0664062,27.0351562 32.203125,26.6835938 32.203125,26.2539062 L32.203125,26.2539062 L32.203125,24.7890625 L28.8632812,20.1601562 L28.8632812,0.47265625 C28.7851562,0.47265625 28.7460938,0.43359375 28.7460938,0.35546875 L28.7460938,0.35546875 L28.3652344,0.35546875 C28.1894531,0.35546875 27.9257812,0.3359375 27.5742188,0.296875 C27.2226562,0.2578125 26.8125,0.23828125 26.34375,0.23828125 C25.875,0.23828125 25.3671875,0.21875 24.8203125,0.1796875 L24.8203125,0.1796875 L23.0332031,0.1796875 C22.3886719,0.1796875 21.6953125,0.16015625 20.953125,0.12109375 C20.2109375,0.08203125 19.46875,0.0625 18.7265625,0.0625 L18.7265625,0.0625 L14.3027344,0.0625 C13.5800781,0.0625 12.8476562,0.08203125 12.1054688,0.12109375 C11.3632812,0.16015625 10.6601562,0.1796875 9.99609375,0.1796875 L9.99609375,0.1796875 L8.1796875,0.1796875 C7.6328125,0.21875 7.125,0.23828125 6.65625,0.23828125 C6.1875,0.23828125 5.77734375,0.2578125 5.42578125,0.296875 C5.07421875,0.3359375 4.81054688,0.35546875 4.63476562,0.35546875 L4.63476562,0.35546875 L4.3125,0.35546875 L4.13671875,0.53125 L4.13671875,20.1601562 L0.796875,24.7890625 L0.796875,26.2539062 C0.796875,26.7226562 0.953125,27.0742188 1.265625,27.3085938 C1.5390625,27.6601562 1.890625,27.8359375 2.3203125,27.8359375 L2.3203125,27.8359375 L30.6796875,27.8359375 Z M28.453125,19.984375 L4.546875,19.984375 L4.546875,0.70703125 L4.546875,0.70703125 L5.16210938,0.70703125 C5.41601562,0.70703125 5.73828125,0.6875 6.12890625,0.6484375 C6.51953125,0.609375 6.93945312,0.58984375 7.38867188,0.58984375 C7.83789062,0.58984375 8.3359375,0.5703125 8.8828125,0.53125 L8.8828125,0.53125 L10.6113281,0.53125 C11.2167969,0.53125 11.8515625,0.51171875 12.515625,0.47265625 C13.1796875,0.43359375 13.84375,0.4140625 14.5078125,0.4140625 L14.5078125,0.4140625 L18.5214844,0.4140625 C19.2050781,0.4140625 19.8789062,0.43359375 20.5429688,0.47265625 C21.2070312,0.51171875 21.8320312,0.53125 22.4179688,0.53125 L22.4179688,0.53125 L24.1171875,0.53125 C24.6640625,0.5703125 25.171875,0.58984375 25.640625,0.58984375 C26.109375,0.58984375 26.5390625,0.609375 26.9296875,0.6484375 C27.3203125,0.6875 27.6328125,0.70703125 27.8671875,0.70703125 L27.8671875,0.70703125 L28.453125,0.70703125 L28.453125,19.984375 Z M27.1640625,17.7578125 L27.2226562,17.6992188 L27.2226562,17.6992188 L27.2556152,17.6333008 L27.2556152,17.6333008 L27.28125,17.5820312 L27.28125,1.76171875 C27.28125,1.72265625 27.2714844,1.69335938 27.2519531,1.67382812 C27.2324219,1.65429688 27.2226562,1.625 27.2226562,1.5859375 C27.1835938,1.5859375 27.1542969,1.57617188 27.1347656,1.55664062 L27.1119792,1.54036458 C27.0946181,1.53168403 27.0729167,1.52734375 27.046875,1.52734375 L27.046875,1.52734375 L5.953125,1.52734375 C5.9140625,1.52734375 5.875,1.546875 5.8359375,1.5859375 C5.7578125,1.6640625 5.71875,1.72265625 5.71875,1.76171875 L5.71875,1.76171875 L5.71875,17.5820312 C5.71875,17.6210938 5.73828125,17.640625 5.77734375,17.640625 C5.77734375,17.71875 5.81640625,17.7578125 5.89453125,17.7578125 L5.89453125,17.7578125 L27.1640625,17.7578125 Z M26.8710938,17.40625 L6.12890625,17.40625 L6.12890625,1.9375 L26.8710938,1.9375 L26.8710938,17.40625 Z M16.5,19.6914062 C16.734375,19.6914062 16.9296875,19.6132812 17.0859375,19.4570312 C17.28125,19.2617188 17.3789062,19.046875 17.3789062,18.8125 C17.3789062,18.6171875 17.28125,18.421875 17.0859375,18.2265625 C16.9296875,18.0703125 16.734375,17.9921875 16.5,17.9921875 C16.265625,17.9921875 16.0703125,18.0703125 15.9140625,18.2265625 C15.71875,18.421875 15.6210938,18.6171875 15.6210938,18.8125 C15.6210938,19.046875 15.71875,19.2617188 15.9140625,19.4570312 C16.0703125,19.6132812 16.265625,19.6914062 16.5,19.6914062 Z M16.5,19.3398438 C16.3828125,19.3398438 16.265625,19.28125 16.1484375,19.1640625 C16.0703125,19.0859375 16.03125,18.96875 16.03125,18.8125 C16.03125,18.734375 16.0703125,18.6171875 16.1484375,18.4609375 C16.1875,18.3828125 16.3046875,18.34375 16.5,18.34375 C16.6953125,18.34375 16.8125,18.3828125 16.8515625,18.4609375 C16.9296875,18.6171875 16.96875,18.734375 16.96875,18.8125 C16.96875,18.96875 16.9296875,19.0859375 16.8515625,19.1640625 C16.734375,19.28125 16.6171875,19.3398438 16.5,19.3398438 Z M30.6796875,27.4257812 L2.3203125,27.4257812 C2.0078125,27.4257812 1.734375,27.3085938 1.5,27.0742188 C1.265625,26.8789062 1.1484375,26.6054688 1.1484375,26.2539062 L1.1484375,26.2539062 L1.1484375,24.9648438 L4.4296875,20.3945312 L28.5703125,20.3945312 L31.8515625,24.9648438 L31.8515625,26.2539062 C31.8515625,26.6054688 31.734375,26.8789062 31.5,27.0742188 C31.265625,27.3085938 30.9921875,27.4257812 30.6796875,27.4257812 L30.6796875,27.4257812 Z M19.6640625,26.546875 C19.6640625,26.546875 19.6835938,26.5078125 19.7226562,26.4296875 L19.7226562,26.4296875 L19.7226562,25.0234375 L18.9023438,23.0898438 L29.15625,23.0898438 L29.2148438,23.03125 L29.2734375,23.03125 L29.3320312,22.9726562 L29.3320312,22.796875 L28.1015625,20.9804688 L28.1015625,20.921875 L4.8984375,20.921875 L4.8984375,20.9804688 L3.66796875,22.796875 L3.609375,22.8554688 C3.609375,22.8945312 3.62890625,22.9140625 3.66796875,22.9140625 L3.66796875,22.9140625 L3.66796875,22.9726562 L3.7265625,23.03125 L3.78515625,23.03125 C3.78515625,23.0703125 3.8046875,23.0898438 3.84375,23.0898438 L3.84375,23.0898438 L14.0976562,23.0898438 L13.2773438,25.0234375 L13.2773438,26.4296875 C13.2773438,26.5078125 13.3164062,26.546875 13.3945312,26.546875 L13.3945312,26.546875 L19.6640625,26.546875 Z M28.8046875,22.6796875 L4.1953125,22.6796875 L5.1328125,21.2734375 L27.8671875,21.2734375 L28.8046875,22.6796875 Z M19.3710938,26.1953125 L13.6289062,26.1953125 L13.6289062,25.140625 L14.5078125,23.0898438 L18.4921875,23.0898438 L19.3710938,25.140625 L19.3710938,26.1953125 Z" id="52" fill="currentColor" fill-rule="nonzero"></path>
    </g>
</svg>