<?xml version="1.0" encoding="UTF-8"?>
<svg width="27px" height="46px" viewBox="0 0 27 46" version="1.1" xmlns="http://www.w3.org/2000/svg" xmlns:xlink="http://www.w3.org/1999/xlink">
    <title>33</title>
    <g id="Page-1" stroke="none" stroke-width="1" fill="none" fill-rule="evenodd">
        <path d="M5.8828125,45.8359375 L5.94140625,45.7773438 L6,45.71875 C6,45.71875 6.01953125,45.6796875 6.05859375,45.6015625 L6.05859375,45.6015625 L6.05859375,44.546875 L20.9414062,44.546875 L20.9414062,45.6015625 C20.9414062,45.640625 20.9609375,45.6601562 21,45.6601562 C21,45.7382812 21.0390625,45.7773438 21.1171875,45.7773438 L21.1171875,45.7773438 L21.1171875,45.8359375 L25.9804688,45.8359375 L26.0390625,45.7773438 C26.1171875,45.7773438 26.15625,45.7382812 26.15625,45.6601562 L26.15625,45.6601562 L26.15625,35.9921875 C26.15625,35.40625 26.0585938,34.859375 25.8632812,34.3515625 C25.7070312,33.921875 25.53125,33.6289062 25.3359375,33.4726562 L25.3359375,33.4726562 L25.3359375,0.42578125 C25.296875,0.42578125 25.2675781,0.416015625 25.2480469,0.396484375 C25.2285156,0.376953125 25.1992188,0.3671875 25.1601562,0.3671875 L25.1601562,0.3671875 L0.9609375,0.3671875 L0.84375,0.484375 L0.84375,45.6601562 C0.84375,45.6992188 0.86328125,45.71875 0.90234375,45.71875 C0.90234375,45.7578125 0.921875,45.7773438 0.9609375,45.7773438 L0.9609375,45.7773438 L1.01953125,45.8359375 L5.8828125,45.8359375 Z M20.1796875,6.8125 L1.1953125,6.8125 L1.1953125,0.77734375 L20.1796875,0.77734375 L20.1796875,6.8125 Z M25.8046875,45.4257812 L21.3515625,45.4257812 L21.3515625,44.2539062 C21.3125,44.2539062 21.2734375,44.234375 21.234375,44.1953125 L21.234375,44.1953125 L20.53125,44.1953125 L20.53125,0.77734375 L24.984375,0.77734375 L24.984375,33.5898438 C24.984375,33.6289062 25.0039062,33.6484375 25.0429688,33.6484375 L25.0429688,33.6484375 L25.0429688,33.7070312 L25.1601562,33.8242188 C25.1992188,33.9023438 25.2382812,33.9707031 25.2773438,34.0292969 C25.3164062,34.0878906 25.375,34.15625 25.453125,34.234375 C25.53125,34.4296875 25.609375,34.6738281 25.6875,34.9667969 C25.765625,35.2597656 25.8046875,35.6015625 25.8046875,35.9921875 L25.8046875,35.9921875 L25.8046875,45.4257812 Z M17.1914062,4.76171875 C17.2695312,4.76171875 17.3085938,4.72265625 17.3085938,4.64453125 L17.3085938,4.64453125 L17.3085938,2.88671875 L17.25,2.828125 L4.18359375,2.828125 C4.14453125,2.828125 4.10546875,2.84765625 4.06640625,2.88671875 L4.06640625,2.88671875 L4.06640625,4.64453125 C4.06640625,4.72265625 4.10546875,4.76171875 4.18359375,4.76171875 L4.18359375,4.76171875 L17.1914062,4.76171875 Z M16.9570312,4.41015625 L4.41796875,4.41015625 L4.41796875,3.1796875 L16.9570312,3.1796875 L16.9570312,4.41015625 Z M20.1796875,13.2578125 L1.1953125,13.2578125 L1.1953125,7.22265625 L20.1796875,7.22265625 L20.1796875,13.2578125 Z M10.6875,11.6171875 C10.9609375,11.6171875 11.15625,11.5976562 11.2734375,11.5585938 C11.46875,11.5585938 11.6445312,11.5390625 11.8007812,11.5 C11.9570312,11.4609375 12.1132812,11.421875 12.2695312,11.3828125 L12.2695312,11.3828125 L12.7382812,11.265625 C12.8945312,11.2265625 13.0507812,11.1875 13.2070312,11.1484375 L13.2070312,11.1484375 L13.6757812,11.03125 C13.8320312,11.03125 13.9980469,11.0214844 14.1738281,11.0019531 C14.3496094,10.9824219 14.5351562,10.9726562 14.7304688,10.9726562 L14.7304688,10.9726562 L15.4921875,10.9726562 C15.53125,10.9726562 15.5898438,10.9335938 15.6679688,10.8554688 C15.6679688,10.8554688 15.6875,10.8164062 15.7265625,10.7382812 L15.7265625,10.7382812 L15.7265625,9.33203125 C15.6875,9.33203125 15.6679688,9.3125 15.6679688,9.2734375 C15.6289062,9.2734375 15.609375,9.25390625 15.609375,9.21484375 L15.609375,9.21484375 L5.8828125,9.21484375 C5.84375,9.21484375 5.8046875,9.234375 5.765625,9.2734375 C5.6875,9.3515625 5.6484375,9.41015625 5.6484375,9.44921875 L5.6484375,9.44921875 L5.6484375,10.7382812 C5.6484375,10.8164062 5.6875,10.8554688 5.765625,10.8554688 C5.765625,10.9335938 5.8046875,10.9726562 5.8828125,10.9726562 L5.8828125,10.9726562 L7.23046875,10.9726562 L8.16796875,11.1484375 C8.24609375,11.1875 8.32421875,11.2070312 8.40234375,11.2070312 C8.48046875,11.2070312 8.55859375,11.2265625 8.63671875,11.265625 L8.63671875,11.265625 L9.57421875,11.5 C9.96484375,11.578125 10.3359375,11.6171875 10.6875,11.6171875 Z M10.6875,11.265625 C10.375,11.265625 10.0234375,11.2265625 9.6328125,11.1484375 L9.6328125,11.1484375 L8.6953125,10.9140625 C8.578125,10.875 8.45117188,10.8359375 8.31445312,10.796875 C8.17773438,10.7578125 8.01171875,10.71875 7.81640625,10.6796875 C7.62109375,10.640625 7.43554688,10.6113281 7.25976562,10.5917969 C7.08398438,10.5722656 6.87890625,10.5625 6.64453125,10.5625 L6.64453125,10.5625 L6.05859375,10.5625 L6.05859375,9.625 L15.3164062,9.625 L15.3164062,10.5625 L14.7304688,10.5625 C14.4960938,10.5625 14.3007812,10.5722656 14.1445312,10.5917969 C13.9882812,10.6113281 13.8125,10.640625 13.6171875,10.6796875 C13.421875,10.71875 13.2460938,10.7578125 13.0898438,10.796875 L13.0898438,10.796875 L12.6210938,10.9140625 C12.5429688,10.953125 12.4746094,10.9726562 12.4160156,10.9726562 C12.3574219,10.9726562 12.2890625,10.9921875 12.2109375,11.03125 L12.2109375,11.03125 L11.7421875,11.1484375 C11.3515625,11.2265625 11,11.265625 10.6875,11.265625 Z M20.1796875,21.2851562 L1.1953125,21.2851562 L1.1953125,13.609375 L20.1796875,13.609375 L20.1796875,21.2851562 Z M5.6484375,45.4257812 L1.1953125,45.4257812 L1.1953125,21.6953125 L20.1796875,21.6953125 L20.1796875,44.1953125 L5.765625,44.1953125 C5.6875,44.2734375 5.6484375,44.3320312 5.6484375,44.3710938 L5.6484375,44.3710938 L5.6484375,45.4257812 Z M10.6875,38.5703125 C10.9609375,38.5703125 11.1953125,38.4726562 11.390625,38.2773438 C11.5859375,38.0820312 11.6835938,37.8476562 11.6835938,37.5742188 C11.6835938,37.3007812 11.5859375,37.0664062 11.390625,36.8710938 C11.1953125,36.6757812 10.9609375,36.578125 10.6875,36.578125 C10.4140625,36.578125 10.1796875,36.6757812 9.984375,36.8710938 C9.7890625,37.0664062 9.69140625,37.3007812 9.69140625,37.5742188 C9.69140625,37.8476562 9.7890625,38.0820312 9.984375,38.2773438 C10.1796875,38.4726562 10.4140625,38.5703125 10.6875,38.5703125 Z M10.6875,38.21875 C10.5703125,38.21875 10.4335938,38.140625 10.2773438,37.984375 C10.1210938,37.828125 10.0429688,37.6914062 10.0429688,37.5742188 C10.0429688,37.4179688 10.1210938,37.2617188 10.2773438,37.1054688 C10.3554688,37.0273438 10.4921875,36.9882812 10.6875,36.9882812 C10.921875,36.9882812 11.078125,37.0273438 11.15625,37.1054688 C11.234375,37.1835938 11.2734375,37.3398438 11.2734375,37.5742188 C11.2734375,37.7695312 11.234375,37.90625 11.15625,37.984375 C11,38.140625 10.84375,38.21875 10.6875,38.21875 Z M10.6875,42.6132812 C11.15625,42.6132812 11.5273438,42.5546875 11.8007812,42.4375 C12.4648438,42.2421875 12.8945312,42.046875 13.0898438,41.8515625 L13.0898438,41.8515625 L13.2070312,41.734375 C13.2460938,41.734375 13.265625,41.7148438 13.265625,41.6757812 L13.265625,41.6757812 L13.265625,39.859375 C13.2265625,39.859375 13.2070312,39.8398438 13.2070312,39.8007812 L13.2070312,39.8007812 L8.2265625,39.8007812 L8.16796875,39.859375 C8.12890625,39.859375 8.109375,39.8789062 8.109375,39.9179688 L8.109375,39.9179688 L8.109375,41.734375 C8.109375,41.734375 8.1375,41.7484375 8.19375,41.7765625 L8.34375,41.8515625 C8.421875,41.96875 8.578125,42.0664062 8.8125,42.1445312 C9.0078125,42.2617188 9.26171875,42.3691406 9.57421875,42.4667969 C9.88671875,42.5644531 10.2578125,42.6132812 10.6875,42.6132812 Z M10.6875,42.203125 C10.453125,42.203125 10.1796875,42.1640625 9.8671875,42.0859375 C9.28125,41.96875 8.890625,41.8320312 8.6953125,41.6757812 C8.6171875,41.6367188 8.5390625,41.578125 8.4609375,41.5 L8.4609375,41.5 L8.4609375,40.1523438 L12.9140625,40.1523438 L12.9140625,41.5 C12.8359375,41.578125 12.7578125,41.6367188 12.6796875,41.6757812 C12.6015625,41.7148438 12.5234375,41.7539062 12.4453125,41.7929688 C12.3671875,41.8320312 12.2890625,41.8710938 12.2109375,41.9101562 C11.7421875,42.1054688 11.234375,42.203125 10.6875,42.203125 Z" id="33" fill="currentColor" fill-rule="nonzero"></path>
    </g>
</svg>