<?xml version="1.0" encoding="UTF-8"?>
<svg width="33px" height="27px" viewBox="0 0 33 27" version="1.1" xmlns="http://www.w3.org/2000/svg" xmlns:xlink="http://www.w3.org/1999/xlink">
    <title>50</title>
    <g id="Page-1" stroke="none" stroke-width="1" fill="none" fill-rule="evenodd">
        <path d="M31.1484375,26.8359375 C31.421875,26.8359375 31.5976562,26.8164062 31.6757812,26.7773438 C31.8710938,26.7382812 32.0078125,26.5429688 32.0859375,26.1914062 C32.0859375,25.9960938 32.1054688,25.8203125 32.1445312,25.6640625 C32.1445312,25.390625 32.1640625,25.1953125 32.203125,25.078125 L32.203125,25.078125 L32.203125,24.1992188 L32.203125,24.1992188 L32.170166,24.1333008 L32.170166,24.1333008 L32.1445312,24.0820312 L32.0273438,23.90625 C31.9882812,23.75 31.8710938,23.5546875 31.6757812,23.3203125 C31.5585938,23.203125 31.421875,23.0273438 31.265625,22.7929688 L31.265625,22.7929688 L31.0898438,22.6171875 L31.03125,22.5585938 L28.8046875,19.453125 L28.7460938,19.3945312 L28.5703125,19.3945312 L28.5703125,19.3359375 L28.6289062,19.2773438 L28.6289062,18.8085938 L28.5703125,18.75 C28.5703125,18.7109375 28.5507812,18.671875 28.5117188,18.6328125 C28.5117188,18.6328125 28.3554688,18.59375 28.0429688,18.515625 L28.0429688,18.515625 L28.3945312,18.4570312 C28.4726562,18.4179688 28.5507812,18.3984375 28.6289062,18.3984375 L28.6289062,18.3984375 L28.6875,18.3984375 C28.765625,18.3984375 28.8046875,18.359375 28.8046875,18.28125 L28.8046875,18.28125 L28.8632812,18.2226562 L28.8632812,18.2226562 L28.8632812,17.9589844 C28.8632812,17.8222656 28.8828125,17.6171875 28.921875,17.34375 L28.921875,17.34375 L28.921875,16.4355469 C28.921875,16.1035156 28.9414062,15.7226562 28.9804688,15.2929688 C28.9804688,14.4335938 28.9902344,13.4960938 29.0097656,12.4804688 C29.0292969,11.4648438 29.0390625,10.4492188 29.0390625,9.43359375 L29.0390625,9.43359375 L29.0390625,6.38671875 C29,5.37109375 28.9707031,4.44335938 28.9511719,3.60351562 C28.9316406,2.76367188 28.921875,2.0703125 28.921875,1.5234375 C28.8828125,1.25 28.8632812,1.04492188 28.8632812,0.908203125 L28.8632812,0.908203125 L28.8632812,0.5859375 C28.7851562,0.5859375 28.7460938,0.546875 28.7460938,0.46875 L28.7460938,0.46875 L28.3652344,0.46875 C28.1894531,0.46875 27.9257812,0.44921875 27.5742188,0.41015625 L27.5742188,0.41015625 L26.34375,0.41015625 C25.875,0.41015625 25.3671875,0.390625 24.8203125,0.3515625 C23.6875,0.3515625 22.3984375,0.341796875 20.953125,0.322265625 C19.5078125,0.302734375 18.0234375,0.29296875 16.5,0.29296875 L16.5,0.29296875 L12.1054688,0.29296875 C10.6601562,0.33203125 9.36132812,0.361328125 8.20898438,0.380859375 C7.05664062,0.400390625 6.12890625,0.41015625 5.42578125,0.41015625 C5.15234375,0.44921875 4.8984375,0.46875 4.6640625,0.46875 L4.6640625,0.46875 L4.3125,0.46875 L4.1953125,0.5859375 L4.1953125,0.87890625 C4.1953125,0.99609375 4.17578125,1.15234375 4.13671875,1.34765625 C4.09765625,1.58203125 4.078125,1.85546875 4.078125,2.16796875 L4.078125,2.16796875 L4.078125,3.22265625 C4.0390625,4.04296875 4.00976562,4.9609375 3.99023438,5.9765625 C3.97070312,6.9921875 3.9609375,8.06640625 3.9609375,9.19921875 L3.9609375,9.19921875 L3.9609375,10.8398438 C3.9609375,11.3867188 3.98046875,11.9335938 4.01953125,12.4804688 C4.01953125,13.5742187 4.02929688,14.53125 4.04882812,15.3515625 C4.06835938,16.171875 4.09765625,16.8554688 4.13671875,17.4023438 C4.17578125,17.5976562 4.1953125,17.7929688 4.1953125,17.9882812 L4.1953125,17.9882812 L4.1953125,18.2226562 C4.1953125,18.3007812 4.234375,18.3398438 4.3125,18.3398438 L4.3125,18.3398438 L4.3125,18.3984375 L4.3125,18.3984375 L4.37109375,18.3984375 C4.44921875,18.3984375 4.52734375,18.4179688 4.60546875,18.4570312 L4.60546875,18.4570312 L4.95703125,18.515625 C4.68359375,18.59375 4.546875,18.6328125 4.546875,18.6328125 L4.546875,18.6328125 L4.471875,18.7078125 C4.44375,18.7359375 4.4296875,18.75 4.4296875,18.75 L4.4296875,18.75 L4.4296875,19.3359375 L4.48828125,19.3945312 L4.25390625,19.3945312 L4.1953125,19.453125 L2.02734375,22.5 L1.96875,22.5585938 L1.79296875,22.7929688 C1.71484375,22.9101562 1.55859375,23.0859375 1.32421875,23.3203125 C1.12890625,23.5546875 1.01171875,23.75 0.97265625,23.90625 L0.97265625,23.90625 L0.85546875,24.0820312 C0.81640625,24.1210938 0.796875,24.1601562 0.796875,24.1992188 L0.796875,24.1992188 L0.796875,24.6679688 C0.796875,24.8242188 0.81640625,24.9609375 0.85546875,25.078125 L0.85546875,25.078125 L0.85546875,25.6640625 C0.89453125,25.78125 0.9140625,25.8789062 0.9140625,25.9570312 C0.9140625,26.0351562 0.93359375,26.1132812 0.97265625,26.1914062 C0.97265625,26.3476562 1.01171875,26.4648438 1.08984375,26.5429688 C1.20703125,26.7382812 1.4609375,26.8359375 1.8515625,26.8359375 L1.8515625,26.8359375 L31.1484375,26.8359375 Z M24.703125,18.3398438 L7.50585938,18.3398438 C7.29101562,18.3398438 7.0859375,18.3203125 6.890625,18.28125 C6.5,18.28125 6.1484375,18.2617188 5.8359375,18.2226562 C5.5234375,18.1835938 5.26953125,18.1445312 5.07421875,18.1054688 C4.91796875,18.0664062 4.7421875,18.046875 4.546875,18.046875 L4.546875,18.046875 L4.546875,17.6367188 C4.546875,17.4414062 4.52734375,17.1875 4.48828125,16.875 C4.44921875,16.6015625 4.4296875,16.2988281 4.4296875,15.9667969 L4.4296875,15.9667969 L4.4296875,14.8242188 C4.390625,14.0429688 4.36132812,13.1640625 4.34179688,12.1875 C4.32226562,11.2109375 4.3125,10.2148438 4.3125,9.19921875 L4.3125,9.19921875 L4.3125,7.734375 C4.3125,7.265625 4.33203125,6.796875 4.37109375,6.328125 C4.37109375,5.4296875 4.38085938,4.59960938 4.40039062,3.83789062 C4.41992188,3.07617188 4.44921875,2.44140625 4.48828125,1.93359375 C4.52734375,1.66015625 4.546875,1.43554688 4.546875,1.25976562 L4.546875,1.25976562 L4.546875,0.87890625 C4.6640625,0.83984375 4.84960938,0.8203125 5.10351562,0.8203125 C5.35742188,0.8203125 5.6796875,0.80078125 6.0703125,0.76171875 L6.0703125,0.76171875 L7.359375,0.76171875 C7.828125,0.76171875 8.3359375,0.7421875 8.8828125,0.703125 C9.9765625,0.703125 11.1777344,0.693359375 12.4863281,0.673828125 C13.7949219,0.654296875 15.1328125,0.64453125 16.5,0.64453125 L16.5,0.64453125 L20.5429688,0.64453125 C21.8710938,0.68359375 23.0722656,0.712890625 24.1464844,0.732421875 C25.2207031,0.751953125 26.1484375,0.76171875 26.9296875,0.76171875 C27.3203125,0.80078125 27.6425781,0.8203125 27.8964844,0.8203125 C28.1503906,0.8203125 28.3359375,0.83984375 28.453125,0.87890625 C28.4921875,1.07421875 28.5214844,1.47460938 28.5410156,2.08007812 C28.5605469,2.68554688 28.5898438,3.37890625 28.6289062,4.16015625 C28.6289062,4.94140625 28.6386719,5.80078125 28.6582031,6.73828125 C28.6777344,7.67578125 28.6875,8.57421875 28.6875,9.43359375 C28.6875,10.3320312 28.6777344,11.25 28.6582031,12.1875 C28.6386719,13.125 28.6289062,13.984375 28.6289062,14.765625 C28.5898438,15.546875 28.5605469,16.2402344 28.5410156,16.8457031 C28.5214844,17.4511719 28.4921875,17.8515625 28.453125,18.046875 C28.296875,18.046875 28.140625,18.0664062 27.984375,18.1054688 C27.8671875,18.1445312 27.7402344,18.1640625 27.6035156,18.1640625 C27.4667969,18.1640625 27.3203125,18.1835938 27.1640625,18.2226562 C26.8125,18.2617188 26.4316406,18.2910156 26.0214844,18.3105469 C25.6113281,18.3300781 25.171875,18.3398438 24.703125,18.3398438 L24.703125,18.3398438 Z M26.4023438,16.7578125 L26.4609375,16.6992188 L26.5195312,16.6992188 L26.578125,16.5820312 L26.578125,1.7578125 C26.5,1.7578125 26.4609375,1.71875 26.4609375,1.640625 L26.4609375,1.640625 L6.59765625,1.640625 L6.48046875,1.7578125 L6.48046875,16.640625 L6.59765625,16.6992188 C6.59765625,16.7382812 6.6171875,16.7578125 6.65625,16.7578125 L6.65625,16.7578125 L26.4023438,16.7578125 Z M26.1679688,16.40625 L6.83203125,16.40625 L6.83203125,2.05078125 L26.1679688,2.05078125 L26.1679688,16.40625 Z M16.5,18.046875 C16.65625,18.046875 16.8125,17.96875 16.96875,17.8125 C17.046875,17.734375 17.0859375,17.5976562 17.0859375,17.4023438 C17.0859375,17.2070312 17.046875,17.0703125 16.96875,16.9921875 C16.8515625,16.875 16.6953125,16.8164062 16.5,16.8164062 C16.3046875,16.8164062 16.1679688,16.875 16.0898438,16.9921875 C16.0507812,17.0703125 16.0117188,17.1386719 15.9726562,17.1972656 C15.9335938,17.2558594 15.9140625,17.3242188 15.9140625,17.4023438 C15.9140625,17.5195312 15.9335938,17.5976562 15.9726562,17.6367188 C16.0117188,17.6757812 16.0507812,17.734375 16.0898438,17.8125 C16.1679688,17.96875 16.3046875,18.046875 16.5,18.046875 Z M16.6171875,17.6367188 L16.4414062,17.6367188 C16.4023438,17.6367188 16.3828125,17.6171875 16.3828125,17.578125 C16.3046875,17.578125 16.265625,17.5195312 16.265625,17.4023438 L16.265625,17.4023438 L16.3242188,17.34375 C16.3242188,17.265625 16.3632812,17.2265625 16.4414062,17.2265625 L16.4414062,17.2265625 L16.6171875,17.2265625 L16.734375,17.34375 L16.734375,17.5195312 L16.6171875,17.6367188 Z M24.7617188,19.3945312 L8.23828125,19.3945312 C7.61328125,19.3945312 7.0859375,19.3847656 6.65625,19.3652344 C6.2265625,19.3457031 5.89453125,19.3164062 5.66015625,19.2773438 C5.34765625,19.2773438 5.15234375,19.2578125 5.07421875,19.21875 C4.91796875,19.21875 4.8203125,19.1992188 4.78125,19.1601562 L4.78125,19.1601562 L4.78125,18.9257812 C4.8984375,18.9257812 4.99609375,18.90625 5.07421875,18.8671875 C5.26953125,18.8671875 5.46484375,18.8476562 5.66015625,18.8085938 C5.81640625,18.7695312 6.1484375,18.75 6.65625,18.75 L6.65625,18.75 L26.4023438,18.75 C26.8710938,18.75 27.203125,18.7695312 27.3984375,18.8085938 C27.5546875,18.8476562 27.75,18.8671875 27.984375,18.8671875 C28.0625,18.90625 28.140625,18.9257812 28.21875,18.9257812 L28.21875,18.9257812 L28.21875,19.1601562 C28.1796875,19.1992188 28.1015625,19.21875 27.984375,19.21875 C27.8671875,19.2578125 27.671875,19.2773438 27.3984375,19.2773438 C27.125,19.3164062 26.7832031,19.3457031 26.3730469,19.3652344 C25.9628906,19.3847656 25.4257812,19.3945312 24.7617188,19.3945312 L24.7617188,19.3945312 Z M31.5,26.4257812 L1.55859375,26.4257812 C1.40234375,26.4257812 1.32421875,26.3085938 1.32421875,26.0742188 C1.28515625,26.0351562 1.265625,25.8789062 1.265625,25.6054688 C1.1875,25.2148438 1.1484375,24.9414062 1.1484375,24.7851562 L1.1484375,24.7851562 L1.1484375,24.375 C1.1484375,24.296875 1.16796875,24.2382812 1.20703125,24.1992188 C1.24609375,24.1601562 1.265625,24.1308594 1.265625,24.1113281 C1.265625,24.0917969 1.28515625,24.0625 1.32421875,24.0234375 L1.32421875,24.0234375 L1.5,23.7890625 C1.5390625,23.75 1.55859375,23.7109375 1.55859375,23.671875 C1.55859375,23.6328125 1.578125,23.59375 1.6171875,23.5546875 C1.8515625,23.3203125 2.0078125,23.1445312 2.0859375,23.0273438 C2.125,22.9882812 2.14453125,22.9589844 2.14453125,22.9394531 C2.14453125,22.9199219 2.1640625,22.890625 2.203125,22.8515625 L2.203125,22.8515625 L2.3203125,22.734375 L4.4296875,19.7460938 L28.5703125,19.7460938 L30.7382812,22.7929688 L30.796875,22.8515625 L30.9726562,23.0273438 C31.1289062,23.2617188 31.265625,23.4375 31.3828125,23.5546875 L31.3828125,23.5546875 L31.5585938,23.7890625 C31.5976562,23.828125 31.6171875,23.8671875 31.6171875,23.90625 C31.6171875,23.9453125 31.6367188,23.984375 31.6757812,24.0234375 L31.6757812,24.0234375 L31.7929688,24.1992188 C31.8320312,24.2382812 31.8515625,24.296875 31.8515625,24.375 L31.8515625,24.375 L31.8515625,24.7851562 C31.8515625,24.9023438 31.8417969,25.0292969 31.8222656,25.1660156 C31.8027344,25.3027344 31.7734375,25.46875 31.734375,25.6640625 L31.734375,25.6640625 L31.734375,26.0742188 C31.6953125,26.3085938 31.6171875,26.4257812 31.5,26.4257812 L31.5,26.4257812 Z M19.78125,24.3164062 C19.8203125,24.3164062 19.859375,24.296875 19.8984375,24.2578125 C19.8984375,24.2578125 19.9179688,24.21875 19.9570312,24.140625 L19.9570312,24.140625 L19.9570312,24.0234375 L19.3710938,22.4414062 L29.2148438,22.4414062 L29.2148438,22.3828125 L29.2734375,22.3242188 L29.2734375,22.2070312 C29.234375,22.2070312 29.2148438,22.1875 29.2148438,22.1484375 L29.2148438,22.1484375 L27.984375,20.2734375 L27.984375,20.2148438 L5.1328125,20.2148438 C5.09375,20.2148438 5.0546875,20.234375 5.015625,20.2734375 L5.015625,20.2734375 L3.78515625,22.1484375 L3.78515625,22.3828125 C3.78515625,22.3828125 3.82421875,22.4023438 3.90234375,22.4414062 L3.90234375,22.4414062 L13.6875,22.4414062 L13.1015625,24.0820312 L13.1015625,24.0820312 L13.1015625,24.1992188 C13.1015625,24.2382812 13.1210938,24.2578125 13.1601562,24.2578125 L13.1601562,24.2578125 L13.21875,24.2578125 L13.21875,24.3164062 L19.78125,24.3164062 Z M28.7460938,22.0898438 L4.3125,22.0898438 L5.30859375,20.5664062 L27.75,20.5664062 L28.7460938,22.0898438 Z M19.4882812,23.90625 L13.5117188,23.90625 L14.0390625,22.4414062 L19.0195312,22.4414062 L19.4882812,23.90625 Z" id="50" fill="currentColor" fill-rule="nonzero"></path>
    </g>
</svg>