<?xml version="1.0" encoding="UTF-8"?>
<svg width="23px" height="45px" viewBox="0 0 23 45" version="1.1" xmlns="http://www.w3.org/2000/svg" xmlns:xlink="http://www.w3.org/1999/xlink">
    <title>34</title>
    <g id="Page-1" stroke="none" stroke-width="1" fill="none" fill-rule="evenodd">
        <path d="M3.70703125,44.8359375 C3.86328125,44.8359375 4.0390625,44.8164062 4.234375,44.7773438 C4.5859375,44.7382812 4.9375,44.6796875 5.2890625,44.6015625 L5.2890625,44.6015625 L6.34375,44.3671875 C6.6953125,44.2890625 7.046875,44.2109375 7.3984375,44.1328125 C7.75,44.0546875 8.1015625,43.9570312 8.453125,43.8398438 C8.609375,43.8007812 8.765625,43.7617188 8.921875,43.7226562 C9.078125,43.6835938 9.25390625,43.6445312 9.44921875,43.6054688 C10.1523438,43.4882812 10.8359375,43.4296875 11.5,43.4296875 L11.5,43.4296875 L12.0273438,43.4296875 C12.1835938,43.4296875 12.359375,43.4492188 12.5546875,43.4882812 C13.21875,43.5664062 13.9023438,43.6835938 14.6054688,43.8398438 C14.9570312,43.9960938 15.2890625,44.09375 15.6015625,44.1328125 C15.953125,44.2109375 16.3046875,44.2890625 16.65625,44.3671875 L16.65625,44.3671875 L17.7109375,44.6015625 C18.3359375,44.7578125 19.0390625,44.8359375 19.8203125,44.8359375 L19.8203125,44.8359375 L21.1679688,44.8359375 C21.2070312,44.8359375 21.2460938,44.8164062 21.2851562,44.7773438 C21.2851562,44.7773438 21.3046875,44.7382812 21.34375,44.6601562 L21.34375,44.6601562 L21.34375,40.6757812 L21.8710938,40.6757812 C21.9101562,40.6757812 21.9492188,40.65625 21.9882812,40.6171875 C21.9882812,40.6171875 22.0078125,40.578125 22.046875,40.5 L22.046875,40.5 L22.046875,2.47265625 C22.046875,2.08203125 21.8808594,1.75976562 21.5488281,1.50585938 C21.2167969,1.25195312 20.6601562,1.046875 19.8789062,0.890625 C18.2382812,0.65625 15.4453125,0.5390625 11.5,0.5390625 L11.0321875,0.539625 C7.3346875,0.548625 4.7171875,0.665625 3.1796875,0.890625 C2.359375,1.046875 1.78320312,1.25195312 1.45117188,1.50585938 C1.11914062,1.75976562 0.953125,2.08203125 0.953125,2.47265625 L0.953125,2.47265625 L0.953125,40.5 C0.953125,40.5390625 0.97265625,40.5585938 1.01171875,40.5585938 C1.01171875,40.6367188 1.05078125,40.6757812 1.12890625,40.6757812 L1.12890625,40.6757812 L1.65625,40.6757812 L1.65625,44.6601562 C1.65625,44.6992188 1.67578125,44.71875 1.71484375,44.71875 C1.71484375,44.796875 1.75390625,44.8359375 1.83203125,44.8359375 L1.83203125,44.8359375 L3.70703125,44.8359375 Z M21.6953125,7.8046875 L1.3046875,7.8046875 L1.3046875,2.47265625 C1.3046875,2.08203125 1.5390625,1.80859375 2.0078125,1.65234375 C2.4765625,1.45703125 3.12109375,1.30078125 3.94140625,1.18359375 C4.80078125,1.06640625 5.86523438,0.98828125 7.13476563,0.94921875 C8.40429688,0.91015625 9.859375,0.890625 11.5,0.890625 L11.5,0.890625 L13.8144531,0.890625 C14.5371094,0.890625 15.2304688,0.91015625 15.8945312,0.94921875 C18.3945312,0.98828125 20.1132812,1.22265625 21.0507812,1.65234375 C21.4804688,1.84765625 21.6953125,2.12109375 21.6953125,2.47265625 L21.6953125,2.47265625 L21.6953125,7.8046875 Z M21.6953125,9.15234375 L1.3046875,9.15234375 L1.3046875,8.15625 L21.6953125,8.15625 L21.6953125,9.15234375 Z M21.6953125,40.265625 L1.3046875,40.265625 L1.3046875,9.5625 L21.6953125,9.5625 L21.6953125,40.265625 Z M17.828125,14.3671875 C17.828125,14.3671875 17.8476562,14.328125 17.8867188,14.25 L17.8867188,14.25 L17.8867188,12.0234375 L17.828125,11.9648438 L5.23046875,11.9648438 C5.19140625,11.9648438 5.15234375,11.984375 5.11328125,12.0234375 L5.11328125,12.0234375 L5.11328125,14.25 L5.2890625,14.3671875 L17.828125,14.3671875 Z M17.5351562,14.015625 L5.46484375,14.015625 L5.46484375,12.3164062 L17.5351562,12.3164062 L17.5351562,14.015625 Z M11.7929688,21.1054688 C12.0273438,21.1054688 12.28125,21.0078125 12.5546875,20.8125 C12.828125,20.6171875 12.9648438,20.3828125 12.9648438,20.109375 L12.9648438,20.109375 L16.2460938,20.109375 C16.2851562,20.109375 16.3242188,20.0898438 16.3632812,20.0507812 C16.3632812,20.0507812 16.3828125,20.0117188 16.421875,19.9335938 L16.421875,19.9335938 L16.421875,18.7617188 L16.3632812,18.703125 L12.9648438,18.703125 C12.9648438,18.46875 12.828125,18.2148438 12.5546875,17.9414062 C12.28125,17.7460938 12.0078125,17.6484375 11.734375,17.6484375 L11.734375,17.6484375 L11.0898438,17.6484375 C10.8164062,17.6484375 10.5429688,17.7460938 10.2695312,17.9414062 C10.0742188,18.1367188 9.9375,18.390625 9.859375,18.703125 L9.859375,18.703125 L6.51953125,18.703125 C6.48046875,18.703125 6.44140625,18.7226562 6.40234375,18.7617188 L6.40234375,18.7617188 L6.40234375,19.9335938 C6.40234375,19.9726562 6.421875,19.9921875 6.4609375,19.9921875 C6.4609375,20.0703125 6.5,20.109375 6.578125,20.109375 L6.578125,20.109375 L9.859375,20.109375 C9.9375,20.421875 10.0742188,20.65625 10.2695312,20.8125 C10.5429688,21.0078125 10.8164062,21.1054688 11.0898438,21.1054688 L11.0898438,21.1054688 L11.7929688,21.1054688 Z M11.7929688,20.7539062 L11.0898438,20.7539062 C10.9726562,20.7539062 10.8554688,20.7246094 10.7382812,20.6660156 C10.6210938,20.6074219 10.5234375,20.5390625 10.4453125,20.4609375 C10.2890625,20.34375 10.2109375,20.1679688 10.2109375,19.9335938 L10.2109375,19.9335938 L10.2109375,19.7578125 C10.171875,19.7578125 10.1425781,19.7480469 10.1230469,19.7285156 C10.1035156,19.7089844 10.0742188,19.6992188 10.0351562,19.6992188 L10.0351562,19.6992188 L6.75390625,19.6992188 L6.75390625,19.0546875 L10.0351562,19.0546875 C10.0742188,19.0546875 10.1132812,19.0351562 10.1523438,18.9960938 L10.1523438,18.9960938 L10.2109375,18.9960938 L10.2109375,18.8789062 C10.2109375,18.6445312 10.2890625,18.4492188 10.4453125,18.2929688 C10.6015625,18.1367188 10.8164062,18.0585938 11.0898438,18.0585938 L11.0898438,18.0585938 L11.734375,18.0585938 C12.0078125,18.0585938 12.2226562,18.1367188 12.3789062,18.2929688 C12.5351562,18.4492188 12.6132812,18.6445312 12.6132812,18.8789062 L12.6132812,18.8789062 L12.6132812,18.9375 C12.6132812,18.9765625 12.6328125,18.9960938 12.671875,18.9960938 L12.671875,18.9960938 L12.7304688,18.9960938 L12.7890625,19.0546875 L16.0703125,19.0546875 L16.0703125,19.6992188 L12.7890625,19.6992188 L12.671875,19.7578125 L12.671875,19.8164062 C12.6328125,19.8554688 12.6132812,19.8945312 12.6132812,19.9335938 C12.6132812,20.1679688 12.5351562,20.34375 12.3789062,20.4609375 C12.3007812,20.5390625 12.2128906,20.6074219 12.1152344,20.6660156 C12.0175781,20.7246094 11.9101562,20.7539062 11.7929688,20.7539062 L11.7929688,20.7539062 Z M11.5,26.1445312 C11.7734375,26.1445312 11.9882812,26.0664062 12.1445312,25.9101562 C12.3007812,25.7539062 12.3789062,25.5390625 12.3789062,25.265625 C12.3789062,24.9921875 12.3007812,24.7773438 12.1445312,24.6210938 C11.9882812,24.4648438 11.7734375,24.3867188 11.5,24.3867188 C11.2265625,24.3867188 11.0117188,24.4648438 10.8554688,24.6210938 C10.6992188,24.7773438 10.6210938,24.9921875 10.6210938,25.265625 C10.6210938,25.5390625 10.6992188,25.7539062 10.8554688,25.9101562 C11.0117188,26.0664062 11.2265625,26.1445312 11.5,26.1445312 Z M11.5,25.7929688 C11.3828125,25.7929688 11.265625,25.734375 11.1484375,25.6171875 C11.03125,25.5 10.9726562,25.3828125 10.9726562,25.265625 C10.9726562,25.1484375 11.03125,25.03125 11.1484375,24.9140625 C11.265625,24.796875 11.3828125,24.7382812 11.5,24.7382812 C11.6171875,24.7382812 11.734375,24.796875 11.8515625,24.9140625 C11.96875,25.03125 12.0273438,25.1484375 12.0273438,25.265625 C12.0273438,25.3828125 11.96875,25.5 11.8515625,25.6171875 C11.734375,25.734375 11.6171875,25.7929688 11.5,25.7929688 Z M11.5,28.8984375 C11.7734375,28.8984375 11.9882812,28.8203125 12.1445312,28.6640625 C12.3007812,28.5078125 12.3789062,28.2929688 12.3789062,28.0195312 C12.3789062,27.7851562 12.3007812,27.5898438 12.1445312,27.4335938 C11.9492188,27.2382812 11.734375,27.140625 11.5,27.140625 C11.265625,27.140625 11.0507812,27.2382812 10.8554688,27.4335938 C10.6992188,27.5898438 10.6210938,27.7851562 10.6210938,28.0195312 C10.6210938,28.2929688 10.6992188,28.5078125 10.8554688,28.6640625 C11.0117188,28.8203125 11.2265625,28.8984375 11.5,28.8984375 Z M11.5,28.546875 C11.3828125,28.546875 11.265625,28.4882812 11.1484375,28.3710938 C11.03125,28.2539062 10.9726562,28.1367188 10.9726562,28.0195312 C10.9726562,27.9023438 11.03125,27.7851562 11.1484375,27.6679688 C11.2265625,27.5898438 11.34375,27.5507812 11.5,27.5507812 C11.65625,27.5507812 11.7734375,27.5898438 11.8515625,27.6679688 C11.96875,27.7851562 12.0273438,27.9023438 12.0273438,28.0195312 C12.0273438,28.1367188 11.96875,28.2539062 11.8515625,28.3710938 C11.734375,28.4882812 11.6171875,28.546875 11.5,28.546875 Z M14.2539062,33.0585938 C14.2929688,33.0585938 14.3320312,33.0390625 14.3710938,33 L14.3710938,33 L14.4296875,33 L14.4296875,32.765625 L14.3710938,32.7070312 L8.6875,32.7070312 C8.6484375,32.7070312 8.609375,32.7265625 8.5703125,32.765625 L8.5703125,32.765625 L8.5703125,32.9414062 C8.5703125,32.9804688 8.58984375,33 8.62890625,33 L8.62890625,33 L8.6875,33 C8.6875,33.0390625 8.70703125,33.0585938 8.74609375,33.0585938 L8.74609375,33.0585938 L14.2539062,33.0585938 Z M14.2539062,34.1132812 C14.2929688,34.1132812 14.3320312,34.09375 14.3710938,34.0546875 C14.3710938,34.0546875 14.390625,34.015625 14.4296875,33.9375 L14.4296875,33.9375 L14.4296875,33.7617188 C14.390625,33.7617188 14.3613281,33.7519531 14.3417969,33.7324219 C14.3222656,33.7128906 14.2929688,33.703125 14.2539062,33.703125 L14.2539062,33.703125 L8.6875,33.703125 L8.5703125,33.8203125 L8.5703125,33.9375 C8.5703125,33.9765625 8.58984375,33.9960938 8.62890625,33.9960938 C8.62890625,34.0742188 8.66796875,34.1132812 8.74609375,34.1132812 L8.74609375,34.1132812 L14.2539062,34.1132812 Z M11.5,37.9804688 C11.734375,37.9804688 11.9296875,37.9023438 12.0859375,37.7460938 C12.28125,37.5507812 12.3789062,37.3554688 12.3789062,37.1601562 C12.3789062,36.9257812 12.28125,36.7109375 12.0859375,36.515625 C11.9296875,36.359375 11.734375,36.28125 11.5,36.28125 C11.265625,36.28125 11.0703125,36.359375 10.9140625,36.515625 C10.71875,36.7109375 10.6210938,36.9257812 10.6210938,37.1601562 C10.6210938,37.3554688 10.71875,37.5507812 10.9140625,37.7460938 C11.0703125,37.9023438 11.265625,37.9804688 11.5,37.9804688 Z M11.5,37.6289062 C11.34375,37.6289062 11.2265625,37.5703125 11.1484375,37.453125 C11.0703125,37.296875 11.03125,37.1992188 11.03125,37.1601562 C11.03125,37.0039062 11.0703125,36.8867188 11.1484375,36.8085938 C11.265625,36.6914062 11.3828125,36.6328125 11.5,36.6328125 C11.6171875,36.6328125 11.734375,36.6914062 11.8515625,36.8085938 C11.9296875,36.8867188 11.96875,37.0039062 11.96875,37.1601562 C11.96875,37.1992188 11.9296875,37.296875 11.8515625,37.453125 C11.8125,37.5703125 11.6953125,37.6289062 11.5,37.6289062 Z M3.1796875,44.4257812 L2.0078125,44.4257812 L2.0078125,40.6757812 L20.9921875,40.6757812 L20.9921875,44.4257812 L19.8203125,44.4257812 C19.46875,44.4257812 19.1171875,44.40625 18.765625,44.3671875 C18.4140625,44.328125 18.0820312,44.2695312 17.7695312,44.1914062 C17.4179688,44.1132812 17.0664062,44.0449219 16.7148438,43.9863281 C16.3632812,43.9277344 16.03125,43.8398438 15.71875,43.7226562 L15.71875,43.7226562 L14.6640625,43.4882812 C14.3125,43.4101562 13.9609375,43.3320312 13.609375,43.2539062 C12.90625,43.1367188 12.203125,43.078125 11.5,43.078125 C10.796875,43.078125 10.09375,43.1367188 9.390625,43.2539062 L9.390625,43.2539062 L8.3359375,43.4882812 L8.3359375,43.4882812 L7.28125,43.7226562 C6.96875,43.8398438 6.63671875,43.9277344 6.28515625,43.9863281 C5.93359375,44.0449219 5.6015625,44.1132812 5.2890625,44.1914062 C4.9375,44.2695312 4.5859375,44.328125 4.234375,44.3671875 C3.8828125,44.40625 3.53125,44.4257812 3.1796875,44.4257812 L3.1796875,44.4257812 Z" id="34" fill="currentColor" fill-rule="nonzero"></path>
    </g>
</svg>