<?xml version="1.0" encoding="UTF-8"?>
<svg width="31px" height="31px" viewBox="0 0 31 31" version="1.1" xmlns="http://www.w3.org/2000/svg" xmlns:xlink="http://www.w3.org/1999/xlink">
    <title>47</title>
    <g id="Page-1" stroke="none" stroke-width="1" fill="none" fill-rule="evenodd">
        <path d="M27.1601562,22.3984375 L27.21875,22.3398438 L27.3359375,22.2226562 L30.03125,1.3046875 L30.03125,1.1875 L29.9140625,1.0703125 L29.8554688,1.0703125 L27.1601562,0.71875 L27.1015625,0.71875 L27.0429688,0.77734375 L26.984375,0.77734375 L26.984375,0.89453125 L24.2304688,21.8125 L24.2304688,21.8710938 L24.2890625,21.9296875 L24.2890625,21.9882812 L24.3476562,21.9882812 C24.3476562,22.0273438 24.3671875,22.046875 24.40625,22.046875 L24.40625,22.046875 L27.1015625,22.3984375 L27.1601562,22.3984375 Z M26.984375,21.9882812 L24.640625,21.6953125 L27.2773438,1.12890625 L29.6210938,1.421875 L26.984375,21.9882812 Z M25.4609375,24.0390625 C25.6953125,24.0390625 25.890625,23.9609375 26.046875,23.8046875 C26.2421875,23.609375 26.3398438,23.4140625 26.3398438,23.21875 C26.3398438,22.984375 26.2421875,22.7695312 26.046875,22.5742188 C25.890625,22.4179688 25.6953125,22.3398438 25.4609375,22.3398438 C25.2265625,22.3398438 25.03125,22.4179688 24.875,22.5742188 C24.6796875,22.7695312 24.5820312,22.984375 24.5820312,23.21875 C24.5820312,23.4140625 24.6796875,23.609375 24.875,23.8046875 C25.03125,23.9609375 25.2265625,24.0390625 25.4609375,24.0390625 Z M25.4609375,23.6875 C25.3046875,23.6875 25.1875,23.6289062 25.109375,23.5117188 C25.03125,23.3554688 24.9921875,23.2578125 24.9921875,23.21875 C24.9921875,23.0625 25.03125,22.9453125 25.109375,22.8671875 C25.2265625,22.75 25.34375,22.6914062 25.4609375,22.6914062 C25.578125,22.6914062 25.6953125,22.75 25.8125,22.8671875 C25.890625,22.9453125 25.9296875,23.0625 25.9296875,23.21875 C25.9296875,23.2578125 25.890625,23.3554688 25.8125,23.5117188 C25.7734375,23.6289062 25.65625,23.6875 25.4609375,23.6875 Z M1.49609375,30.484375 L18.8984375,28.140625 L18.9570312,28.84375 C18.9570312,28.921875 18.9960938,28.9609375 19.0742188,28.9609375 L19.0742188,28.9609375 L19.1328125,28.9609375 C19.1328125,29 19.1523438,29.0195312 19.1914062,29.0195312 L19.1914062,29.0195312 L23.9375,28.4921875 L24.0546875,28.4921875 L24.0546875,28.3164062 L23.9375,27.3789062 C23.9375,27.0273438 24.0351562,26.7539062 24.2304688,26.5585938 C24.4257812,26.3242188 24.6796875,26.1679688 24.9921875,26.0898438 C25.3828125,26.0898438 25.6757812,26.1679688 25.8710938,26.3242188 C26.1054688,26.6367188 26.2421875,26.890625 26.28125,27.0859375 L26.28125,27.0859375 L26.3984375,28.0234375 C26.3984375,28.0625 26.4179688,28.0820312 26.4570312,28.0820312 L26.4570312,28.0820312 L26.4570312,28.140625 L26.5742188,28.1992188 L27.1601562,28.0820312 L27.2773438,28.0820312 C27.2773438,28.0820312 27.296875,28.0429688 27.3359375,27.9648438 L27.3359375,27.9648438 L27.3359375,27.90625 L27.21875,27.203125 L27.8632812,27.0859375 L27.921875,27.0273438 L27.9804688,27.0273438 L27.9804688,27.0273438 L27.9804688,26.96875 C28.0195312,26.9296875 28.0195312,26.9101562 27.9804688,26.9101562 L27.9804688,26.9101562 L27.6875,24.2148438 L27.6875,24.15625 C27.6484375,24.15625 27.6289062,24.1367188 27.6289062,24.0976562 L27.6289062,24.0976562 L27.5703125,24.0390625 L27.453125,24.0390625 L1.14453125,27.3789062 L1.0859375,27.3789062 L0.96875,27.4960938 L0.96875,27.6132812 L1.3203125,30.3085938 L1.3203125,30.3671875 L1.4375,30.484375 L1.49609375,30.484375 Z M1.671875,30.0742188 L1.37890625,27.7304688 L27.3359375,24.4492188 L27.6289062,26.734375 L26.984375,26.8515625 C26.90625,26.8515625 26.8671875,26.890625 26.8671875,26.96875 L26.8671875,26.96875 L26.8671875,27.0273438 L26.9257812,27.7890625 L26.75,27.7890625 L26.6328125,27.0859375 C26.6328125,26.734375 26.4765625,26.4023438 26.1640625,26.0898438 C25.890625,25.8554688 25.5390625,25.7382812 25.109375,25.7382812 L25.109375,25.7382812 L24.9335938,25.7382812 C24.7382812,25.7382812 24.5527344,25.796875 24.3769531,25.9140625 C24.2011719,26.03125 24.0546875,26.1679688 23.9375,26.3242188 C23.625,26.6367188 23.5078125,27.0078125 23.5859375,27.4375 L23.5859375,27.4375 L23.703125,28.140625 L19.3085938,28.609375 L19.25,27.90625 L19.25,27.8476562 C19.2109375,27.8476562 19.1914062,27.828125 19.1914062,27.7890625 L19.1914062,27.7890625 L19.1328125,27.7890625 L19.1328125,27.7304688 L19.015625,27.7304688 L1.671875,30.0742188 Z M25.578125,30.8359375 L25.578125,30.7773438 C25.8515625,30.7773438 26.046875,30.6796875 26.1640625,30.484375 C26.28125,30.2890625 26.3398438,30.0742188 26.3398438,29.8398438 L26.3398438,29.8398438 L25.9882812,27.1445312 C25.9492188,26.9492188 25.8320312,26.7539062 25.6367188,26.5585938 C25.5195312,26.4414062 25.3046875,26.3828125 24.9921875,26.3828125 C24.7578125,26.421875 24.5820312,26.5390625 24.4648438,26.734375 C24.3085938,26.96875 24.25,27.1835938 24.2890625,27.3789062 L24.2890625,27.3789062 L24.5820312,30.0742188 C24.6210938,30.1132812 24.640625,30.1523438 24.640625,30.1914062 C24.640625,30.2304688 24.6601562,30.2695312 24.6992188,30.3085938 C24.7773438,30.4648438 24.8359375,30.5625 24.875,30.6015625 C25.03125,30.7578125 25.2265625,30.8359375 25.4609375,30.8359375 L25.4609375,30.8359375 L25.578125,30.8359375 Z M25.5195312,30.4257812 C25.3632812,30.4257812 25.2460938,30.3867188 25.1679688,30.3085938 L25.1679688,30.3085938 L25.0507812,30.1914062 C25.0117188,30.1523438 24.9921875,30.09375 24.9921875,30.015625 L24.9921875,30.015625 L24.640625,27.3203125 C24.640625,27.203125 24.6796875,27.0664062 24.7578125,26.9101562 C24.796875,26.8320312 24.8945312,26.7929688 25.0507812,26.7929688 L25.0507812,26.7929688 L25.109375,26.7929688 L25.109375,26.734375 C25.2265625,26.734375 25.34375,26.7929688 25.4609375,26.9101562 C25.5390625,26.9882812 25.578125,27.0859375 25.578125,27.203125 L25.578125,27.203125 L25.9296875,29.8984375 C25.9296875,30.0546875 25.890625,30.171875 25.8125,30.25 L25.8125,30.25 L25.6953125,30.3671875 C25.65625,30.40625 25.5976562,30.4257812 25.5195312,30.4257812 Z" id="47" fill="currentColor" fill-rule="nonzero"></path>
    </g>
</svg>