<?xml version="1.0" encoding="UTF-8"?>
<svg width="33px" height="30px" viewBox="0 0 33 30" version="1.1" xmlns="http://www.w3.org/2000/svg" xmlns:xlink="http://www.w3.org/1999/xlink">
    <title>48</title>
    <g id="Page-1" stroke="none" stroke-width="1" fill="none" fill-rule="evenodd">
        <path d="M30.6796875,29.8359375 C31.0703125,29.8359375 31.4414062,29.6601562 31.7929688,29.3085938 C32.0664062,29.0351562 32.203125,28.6835938 32.203125,28.2539062 L32.203125,28.2539062 L32.203125,26.8476562 L28.8632812,20.7539062 L28.8632812,1.7109375 C28.7851562,1.7109375 28.7460938,1.671875 28.7460938,1.59375 L28.7460938,1.59375 L28.6875,1.59375 L27.5742188,1.4765625 C27.2226562,1.4375 26.8125,1.40820312 26.34375,1.38867188 C25.875,1.36914062 25.3671875,1.3203125 24.8203125,1.2421875 C23.6875,1.1640625 22.3984375,1.09570312 20.953125,1.03710938 C19.5078125,0.978515625 18.0234375,0.94921875 16.5,0.94921875 C15.015625,0.94921875 13.5410156,0.978515625 12.0761719,1.03710938 C10.6113281,1.09570312 9.3125,1.1640625 8.1796875,1.2421875 C7.6328125,1.3203125 7.125,1.36914062 6.65625,1.38867188 C6.1875,1.40820312 5.77734375,1.4375 5.42578125,1.4765625 C5.07421875,1.515625 4.81054688,1.54492188 4.63476562,1.56445312 C4.45898438,1.58398438 4.3515625,1.59375 4.3125,1.59375 L4.3125,1.59375 L4.25390625,1.65234375 C4.17578125,1.73046875 4.13671875,1.7890625 4.13671875,1.828125 L4.13671875,1.828125 L4.13671875,20.6953125 L0.796875,26.8476562 L0.796875,28.2539062 C0.796875,28.7226562 0.953125,29.0742188 1.265625,29.3085938 C1.5390625,29.6601562 1.890625,29.8359375 2.3203125,29.8359375 L2.3203125,29.8359375 L30.6796875,29.8359375 Z M28.453125,20.5195312 L4.546875,20.5195312 L4.546875,1.9453125 C4.6640625,1.9453125 4.84960938,1.93554688 5.10351562,1.91601562 C5.35742188,1.89648438 5.6796875,1.8671875 6.0703125,1.828125 C6.4609375,1.7890625 6.890625,1.75 7.359375,1.7109375 C7.828125,1.671875 8.3359375,1.6328125 8.8828125,1.59375 C9.9765625,1.515625 11.1777344,1.44726562 12.4863281,1.38867188 C13.7949219,1.33007812 15.1328125,1.30078125 16.5,1.30078125 L16.5,1.30078125 L18.5214844,1.30078125 C19.2050781,1.30078125 19.8789062,1.3203125 20.5429688,1.359375 C21.8320312,1.4375 23.0234375,1.515625 24.1171875,1.59375 C25.2109375,1.671875 26.1484375,1.75 26.9296875,1.828125 C27.3203125,1.8671875 27.6425781,1.89648438 27.8964844,1.91601562 C28.1503906,1.93554688 28.3359375,1.9453125 28.453125,1.9453125 L28.453125,1.9453125 L28.453125,20.5195312 Z M24.8203125,16.7109375 C24.8203125,16.7109375 24.8398438,16.671875 24.8789062,16.59375 L24.8789062,16.59375 L24.8789062,4.69921875 L24.8203125,4.640625 L8.23828125,4.640625 C8.19921875,4.640625 8.16015625,4.66015625 8.12109375,4.69921875 L8.12109375,4.69921875 L8.12109375,16.59375 L8.296875,16.7109375 L24.8203125,16.7109375 Z M24.5273438,16.359375 L8.47265625,16.359375 L8.47265625,4.9921875 L24.5273438,4.9921875 L24.5273438,16.359375 Z M16.5,19.3476562 C16.734375,19.3476562 16.9492188,19.25 17.1445312,19.0546875 C17.3007812,18.8984375 17.3789062,18.703125 17.3789062,18.46875 C17.3789062,18.1953125 17.3007812,17.9804688 17.1445312,17.8242188 C16.9882812,17.6679688 16.7734375,17.5898438 16.5,17.5898438 C16.2265625,17.5898438 16.0117188,17.6679688 15.8554688,17.8242188 C15.6992188,17.9804688 15.6210938,18.1953125 15.6210938,18.46875 C15.6210938,18.703125 15.6992188,18.8984375 15.8554688,19.0546875 C16.0507812,19.25 16.265625,19.3476562 16.5,19.3476562 Z M16.5,18.9375 C16.34375,18.9375 16.2265625,18.8984375 16.1484375,18.8203125 C16.03125,18.703125 15.9726562,18.5859375 15.9726562,18.46875 C15.9726562,18.3515625 15.9921875,18.2734375 16.03125,18.234375 L16.03125,18.234375 L16.1484375,18.0585938 C16.1875,17.9804688 16.3046875,17.9414062 16.5,17.9414062 C16.6953125,17.9414062 16.8125,17.9804688 16.8515625,18.0585938 L16.8515625,18.0585938 L16.96875,18.234375 C17.0078125,18.2734375 17.0273438,18.3515625 17.0273438,18.46875 C17.0273438,18.5859375 16.96875,18.703125 16.8515625,18.8203125 C16.7734375,18.8984375 16.65625,18.9375 16.5,18.9375 Z M30.6796875,29.4257812 L2.3203125,29.4257812 C2.0078125,29.4257812 1.734375,29.3085938 1.5,29.0742188 C1.265625,28.8789062 1.1484375,28.6054688 1.1484375,28.2539062 L1.1484375,28.2539062 L1.1484375,26.9648438 L4.48828125,20.8710938 L28.5117188,20.8710938 L31.8515625,26.9648438 L31.8515625,28.2539062 C31.8515625,28.6054688 31.734375,28.8789062 31.5,29.0742188 C31.265625,29.3085938 30.9921875,29.4257812 30.6796875,29.4257812 L30.6796875,29.4257812 Z M29.390625,24.9140625 L29.4492188,24.8554688 L29.4492188,24.6796875 L27.8085938,21.28125 L27.75,21.2226562 C27.7109375,21.2226562 27.6914062,21.203125 27.6914062,21.1640625 L27.6914062,21.1640625 L5.42578125,21.1640625 L5.3671875,21.2226562 C5.328125,21.2226562 5.2890625,21.2421875 5.25,21.28125 L5.25,21.28125 L3.609375,24.6796875 L3.609375,24.8554688 L3.66796875,24.8554688 C3.66796875,24.8945312 3.6875,24.9140625 3.7265625,24.9140625 L3.7265625,24.9140625 L29.390625,24.9140625 Z M28.9804688,24.5625 L4.078125,24.5625 L5.54296875,21.5742188 L27.515625,21.5742188 L28.9804688,24.5625 Z M16.5,27.1992188 C16.578125,27.1992188 16.7734375,27.1601562 17.0859375,27.0820312 C17.203125,27.0820312 17.3789062,27.0429688 17.6132812,26.9648438 C17.6523438,26.9648438 17.671875,26.9453125 17.671875,26.90625 L17.671875,26.90625 L17.7304688,26.8476562 L17.7304688,26.7304688 C17.7304688,26.3789062 17.6132812,26.0859375 17.3789062,25.8515625 C17.1445312,25.6171875 16.8515625,25.5 16.5,25.5 C16.1484375,25.5 15.8554688,25.6171875 15.6210938,25.8515625 C15.3867188,26.0859375 15.2695312,26.3789062 15.2695312,26.7304688 L15.2695312,26.7304688 L15.2695312,26.8476562 C15.2695312,26.8867188 15.2890625,26.90625 15.328125,26.90625 C15.328125,26.9453125 15.3476562,26.9648438 15.3867188,26.9648438 C15.6210938,27.0429688 15.8164062,27.0820312 15.9726562,27.0820312 C16.2070312,27.1601562 16.3828125,27.1992188 16.5,27.1992188 Z M16.5,26.7890625 C16.3046875,26.7890625 16.0117188,26.75 15.6210938,26.671875 C15.6210938,26.4765625 15.71875,26.28125 15.9140625,26.0859375 C16.0703125,25.9296875 16.265625,25.8515625 16.5,25.8515625 C16.734375,25.8515625 16.9296875,25.9296875 17.0859375,26.0859375 C17.28125,26.28125 17.3789062,26.4765625 17.3789062,26.671875 C16.9882812,26.75 16.6953125,26.7890625 16.5,26.7890625 Z" id="48" fill="currentColor" fill-rule="nonzero"></path>
    </g>
</svg>