<?xml version="1.0" encoding="UTF-8"?>
<svg width="23px" height="55px" viewBox="0 0 23 55" version="1.1" xmlns="http://www.w3.org/2000/svg" xmlns:xlink="http://www.w3.org/1999/xlink">
    <title>39</title>
    <g id="Page-1" stroke="none" stroke-width="1" fill="none" fill-rule="evenodd">
        <path d="M19.5859375,54.8359375 C20.3671875,54.8359375 21.0507812,54.5429688 21.6367188,53.9570312 C22.2226562,53.3710938 22.515625,52.6875 22.515625,51.90625 L22.515625,51.90625 L22.515625,3.33203125 C22.515625,2.55078125 22.2226562,1.8671875 21.6367188,1.28125 C21.0898438,0.734375 20.40625,0.4609375 19.5859375,0.4609375 L19.5859375,0.4609375 L3.4140625,0.4609375 C2.59375,0.4609375 1.91015625,0.734375 1.36328125,1.28125 C0.77734375,1.8671875 0.484375,2.55078125 0.484375,3.33203125 L0.484375,3.33203125 L0.484375,51.90625 C0.484375,52.6875 0.77734375,53.3710938 1.36328125,53.9570312 C1.94921875,54.5429688 2.6328125,54.8359375 3.4140625,54.8359375 L3.4140625,54.8359375 L19.5859375,54.8359375 Z M19.5859375,54.4257812 L3.4140625,54.4257812 C2.671875,54.4257812 2.0859375,54.171875 1.65625,53.6640625 C1.1484375,53.234375 0.89453125,52.6484375 0.89453125,51.90625 L0.89453125,51.90625 L0.89453125,3.33203125 C0.89453125,2.62890625 1.1484375,2.0234375 1.65625,1.515625 C2.125,1.046875 2.7109375,0.8125 3.4140625,0.8125 L3.4140625,0.8125 L19.5859375,0.8125 C20.25,0.8125 20.8554688,1.046875 21.4023438,1.515625 C21.8710938,2.0625 22.1054688,2.66796875 22.1054688,3.33203125 L22.1054688,3.33203125 L22.1054688,51.90625 C22.1054688,52.609375 21.8710938,53.1953125 21.4023438,53.6640625 C20.8945312,54.171875 20.2890625,54.4257812 19.5859375,54.4257812 L19.5859375,54.4257812 Z M19.5859375,54.1328125 C20.2109375,54.1328125 20.7382812,53.9179688 21.1679688,53.4882812 C21.5976562,53.0585938 21.8125,52.53125 21.8125,51.90625 L21.8125,51.90625 L21.8125,3.33203125 C21.8125,2.70703125 21.5976562,2.1796875 21.1679688,1.75 C20.7382812,1.3203125 20.2109375,1.10546875 19.5859375,1.10546875 L19.5859375,1.10546875 L3.4140625,1.10546875 C2.7890625,1.10546875 2.26171875,1.3203125 1.83203125,1.75 C1.40234375,2.1796875 1.1875,2.70703125 1.1875,3.33203125 L1.1875,3.33203125 L1.1875,51.90625 C1.1875,52.53125 1.40234375,53.0585938 1.83203125,53.4882812 C2.26171875,53.9179688 2.7890625,54.1328125 3.4140625,54.1328125 L3.4140625,54.1328125 L19.5859375,54.1328125 Z M21.4609375,4.50390625 L1.5390625,4.50390625 L1.5390625,3.33203125 C1.5390625,2.82421875 1.734375,2.375 2.125,1.984375 C2.4375,1.671875 2.8671875,1.515625 3.4140625,1.515625 L3.4140625,1.515625 L19.5859375,1.515625 C20.171875,1.515625 20.6210938,1.671875 20.9335938,1.984375 C21.2851562,2.3359375 21.4609375,2.78515625 21.4609375,3.33203125 L21.4609375,3.33203125 L21.4609375,4.50390625 Z M21.4609375,50.3828125 L1.5390625,50.3828125 L1.5390625,4.85546875 L21.4609375,4.85546875 L21.4609375,50.3828125 Z M20.3476562,11.59375 C20.3867188,11.59375 20.40625,11.5742188 20.40625,11.5351562 L20.40625,11.5351562 L20.4648438,11.4765625 L20.4648438,8.60546875 C20.4257812,8.60546875 20.40625,8.5859375 20.40625,8.546875 L20.40625,8.546875 L2.59375,8.546875 L2.59375,8.60546875 C2.5546875,8.64453125 2.53515625,8.68359375 2.53515625,8.72265625 L2.53515625,8.72265625 L2.53515625,11.4179688 C2.53515625,11.4570312 2.5546875,11.4765625 2.59375,11.4765625 L2.59375,11.4765625 L2.59375,11.5351562 C2.59375,11.5742188 2.61328125,11.59375 2.65234375,11.59375 L2.65234375,11.59375 L20.3476562,11.59375 Z M20.1132812,11.2421875 L2.88671875,11.2421875 L2.88671875,8.8984375 L20.1132812,8.8984375 L20.1132812,11.2421875 Z M5.40625,41.6523438 C5.4453125,41.6523438 5.484375,41.6328125 5.5234375,41.59375 L5.5234375,41.59375 L5.58203125,41.59375 L5.640625,41.5351562 L5.640625,31.2226562 C5.6015625,31.2226562 5.58203125,31.203125 5.58203125,31.1640625 L5.58203125,31.1640625 L2.59375,31.1640625 L2.59375,31.2226562 C2.5546875,31.2617188 2.53515625,31.3007812 2.53515625,31.3398438 L2.53515625,31.3398438 L2.53515625,41.4765625 L2.59375,41.59375 L2.7109375,41.6523438 L5.40625,41.6523438 Z M5.23046875,41.3007812 L2.88671875,41.3007812 L2.88671875,31.515625 L5.23046875,31.515625 L5.23046875,41.3007812 Z M4.05859375,34.5625 C4.33203125,34.5625 4.546875,34.484375 4.703125,34.328125 C4.859375,34.171875 4.9375,33.9570312 4.9375,33.6835938 C4.9375,33.4492188 4.859375,33.2539062 4.703125,33.0976562 C4.546875,32.9414062 4.33203125,32.8632812 4.05859375,32.8632812 C3.82421875,32.8632812 3.62890625,32.9414062 3.47265625,33.0976562 C3.31640625,33.2539062 3.23828125,33.4492188 3.23828125,33.6835938 C3.23828125,33.9570312 3.31640625,34.171875 3.47265625,34.328125 C3.62890625,34.484375 3.82421875,34.5625 4.05859375,34.5625 Z M4.05859375,34.2109375 C4.01953125,34.2109375 3.98046875,34.1914062 3.94140625,34.1523438 C3.90234375,34.1132812 3.84375,34.0742188 3.765625,34.0351562 C3.6484375,33.9570312 3.58984375,33.8398438 3.58984375,33.6835938 C3.58984375,33.5664062 3.6484375,33.4492188 3.765625,33.3320312 C3.84375,33.2539062 3.94140625,33.2148438 4.05859375,33.2148438 C4.25390625,33.2148438 4.37109375,33.2539062 4.41015625,33.3320312 C4.44921875,33.4101562 4.48828125,33.4785156 4.52734375,33.5371094 C4.56640625,33.5957031 4.5859375,33.6445312 4.5859375,33.6835938 C4.5859375,33.8007812 4.52734375,33.9179688 4.41015625,34.0351562 C4.29296875,34.1523438 4.17578125,34.2109375 4.05859375,34.2109375 Z M4.05859375,36.2617188 C4.17578125,36.2617188 4.25390625,36.2421875 4.29296875,36.203125 L4.29296875,36.203125 L4.46875,36.0859375 C4.546875,36.046875 4.5859375,35.9296875 4.5859375,35.734375 C4.5859375,35.5390625 4.546875,35.4023438 4.46875,35.3242188 C4.390625,35.2460938 4.25390625,35.2070312 4.05859375,35.2070312 C3.86328125,35.2070312 3.74609375,35.2460938 3.70703125,35.3242188 L3.70703125,35.3242188 L3.58984375,35.5 C3.55078125,35.5390625 3.53125,35.6171875 3.53125,35.734375 C3.53125,35.8515625 3.58984375,35.96875 3.70703125,36.0859375 C3.82421875,36.203125 3.94140625,36.2617188 4.05859375,36.2617188 Z M19.5859375,53.78125 L3.4140625,53.78125 C2.9453125,53.78125 2.515625,53.5859375 2.125,53.1953125 C1.734375,52.8046875 1.5390625,52.375 1.5390625,51.90625 L1.5390625,51.90625 L1.5390625,50.734375 L21.4609375,50.734375 L21.4609375,51.90625 C21.4609375,52.4140625 21.2851562,52.84375 20.9335938,53.1953125 C20.5429688,53.5859375 20.09375,53.78125 19.5859375,53.78125 L19.5859375,53.78125 Z" id="39" fill="currentColor" fill-rule="nonzero"></path>
    </g>
</svg>