<?xml version="1.0" encoding="UTF-8"?>
<svg width="25px" height="47px" viewBox="0 0 25 47" version="1.1" xmlns="http://www.w3.org/2000/svg" xmlns:xlink="http://www.w3.org/1999/xlink">
    <title>38</title>
    <g id="Page-1" stroke="none" stroke-width="1" fill="none" fill-rule="evenodd">
        <path d="M20,46.8359375 C20.7421875,46.8359375 21.4257812,46.5527344 22.0507812,45.9863281 C22.6757812,45.4199219 23.1835938,44.609375 23.5742188,43.5546875 C23.9648438,42.5390625 24.2871094,41.2695312 24.5410156,39.7460938 C24.7949219,38.2226562 24.9023438,36.4648438 24.8632812,34.4726562 L24.8632812,34.4726562 L24.921875,14.1992188 C24.8828125,11.7382812 24.6386719,9.65820312 24.1894531,7.95898438 C23.7402344,6.25976562 23.0078125,4.84375 21.9921875,3.7109375 C20.9765625,2.578125 19.6972656,1.76757812 18.1542969,1.27929688 C16.6113281,0.791015625 14.7265625,0.546875 12.5,0.546875 C10.3515625,0.546875 8.48632812,0.791015625 6.90429688,1.27929688 C5.32226562,1.76757812 4.04296875,2.578125 3.06640625,3.7109375 C2.08984375,4.84375 1.35742188,6.25976562 0.869140625,7.95898438 C0.380859375,9.65820312 0.15625,11.7382812 0.1953125,14.1992188 L0.1953125,14.1992188 L0.13671875,34.4726562 C0.17578125,36.4648438 0.302734375,38.2226562 0.517578125,39.7460938 C0.732421875,41.2695312 1.0546875,42.5390625 1.484375,43.5546875 C1.9140625,44.609375 2.421875,45.4199219 3.0078125,45.9863281 C3.59375,46.5527344 4.296875,46.8359375 5.1171875,46.8359375 L5.1171875,46.8359375 L20,46.8359375 Z M19.9414062,46.4257812 L5.1171875,46.4257812 C3.7109375,46.4257812 2.59765625,45.390625 1.77734375,43.3203125 C1.34765625,42.3046875 1.04492188,41.0546875 0.869140625,39.5703125 C0.693359375,38.0859375 0.5859375,36.3867188 0.546875,34.4726562 L0.546875,34.4726562 L0.60546875,14.1992188 C0.56640625,11.2695312 0.888671875,8.93554688 1.57226562,7.19726563 C2.25585938,5.45898438 3.14453125,4.12109375 4.23828125,3.18359375 C5.33203125,2.24609375 6.6015625,1.63085938 8.046875,1.33789062 C9.4921875,1.04492188 10.9765625,0.8984375 12.5,0.8984375 L12.5,0.8984375 L12.5585938,0.8984375 C14.0820312,0.8984375 15.5761719,1.04492188 17.0410156,1.33789062 C18.5058594,1.63085938 19.7851562,2.24609375 20.8789062,3.18359375 C21.9335938,4.12109375 22.8027344,5.45898438 23.4863281,7.19726563 C24.1699219,8.93554688 24.4921875,11.2695312 24.453125,14.1992188 L24.453125,14.1992188 L24.5117188,34.4726562 C24.4726562,36.3867188 24.375,38.0859375 24.21875,39.5703125 C24.0625,41.0546875 23.7695312,42.3046875 23.3398438,43.3203125 C22.5195312,45.390625 21.3867188,46.4257812 19.9414062,46.4257812 L19.9414062,46.4257812 Z M12.5,45.4882812 C13.1640625,45.4882812 13.7792969,45.4589844 14.3457031,45.4003906 C14.9121094,45.3417969 15.46875,45.2734375 16.015625,45.1953125 C16.5625,45.1171875 17.0410156,45.0097656 17.4511719,44.8730469 C17.8613281,44.7363281 18.28125,44.5898438 18.7109375,44.4335938 C19.7265625,43.9648438 20.5175781,43.3691406 21.0839844,42.6464844 C21.6503906,41.9238281 22.0703125,41.1132812 22.34375,40.2148438 C22.578125,39.3164062 22.7246094,38.3203125 22.7832031,37.2265625 C22.8417969,36.1328125 22.8515625,35 22.8125,33.828125 L22.8125,33.828125 L22.8710938,16.953125 C22.8320312,15.5859375 22.7539062,14.3457031 22.6367188,13.2324219 C22.5195312,12.1191406 22.3046875,11.09375 21.9921875,10.15625 C21.6796875,9.2578125 21.3183594,8.4765625 20.9082031,7.8125 C20.4980469,7.1484375 20,6.5625 19.4140625,6.0546875 C19.453125,6.015625 19.453125,5.99609375 19.4140625,5.99609375 L19.4140625,5.99609375 L19.3554688,5.9375 L19.296875,5.9375 C18.9453125,5.5859375 18.5253906,5.28320312 18.0371094,5.02929688 C17.5488281,4.77539062 17.03125,4.5703125 16.484375,4.4140625 C15.9375,4.2578125 15.3320312,4.13085938 14.6679688,4.03320312 C14.0039062,3.93554688 13.3007812,3.88671875 12.5585938,3.88671875 C11.7382812,3.88671875 11.015625,3.93554688 10.390625,4.03320312 C9.765625,4.13085938 9.16015625,4.2578125 8.57421875,4.4140625 C8.02734375,4.5703125 7.51953125,4.77539062 7.05078125,5.02929688 C6.58203125,5.28320312 6.1328125,5.5859375 5.703125,5.9375 L5.703125,5.9375 L5.64453125,5.9375 L5.64453125,5.99609375 C5.09765625,6.50390625 4.59960938,7.09960938 4.15039062,7.78320312 C3.70117188,8.46679688 3.33984375,9.2578125 3.06640625,10.15625 C2.79296875,11.09375 2.578125,12.1191406 2.421875,13.2324219 C2.265625,14.3457031 2.20703125,15.5859375 2.24609375,16.953125 L2.24609375,16.953125 L2.1875,33.828125 C2.2265625,34.4140625 2.24609375,34.9902344 2.24609375,35.5566406 C2.24609375,36.1230469 2.265625,36.6796875 2.3046875,37.2265625 C2.3046875,38.28125 2.4609375,39.2773438 2.7734375,40.2148438 C3.0859375,41.1132812 3.49609375,41.9238281 4.00390625,42.6464844 C4.51171875,43.3691406 5.29296875,43.9648438 6.34765625,44.4335938 L6.34765625,44.4335938 L6.40625,44.4335938 C7.1875,44.7460938 8.0859375,45 9.1015625,45.1953125 C10.15625,45.390625 11.2890625,45.4882812 12.5,45.4882812 Z M12.5,6.93359375 C11.5234375,6.93359375 10.5859375,6.875 9.6875,6.7578125 C8.828125,6.6796875 8.125,6.58203125 7.578125,6.46484375 C7.03125,6.34765625 6.6015625,6.23046875 6.2890625,6.11328125 L6.2890625,6.11328125 L6.171875,6.0546875 C6.5625,5.7421875 6.94335938,5.47851562 7.31445312,5.26367188 C7.68554688,5.04882812 8.14453125,4.8828125 8.69140625,4.765625 C9.23828125,4.609375 9.82421875,4.4921875 10.4492188,4.4140625 C11.0742188,4.3359375 11.7773438,4.296875 12.5585938,4.296875 C14.0039062,4.296875 15.2929688,4.453125 16.4257812,4.765625 C17.4023438,5 18.2226562,5.4296875 18.8867188,6.0546875 L18.8867188,6.0546875 L18.7695312,6.11328125 C18.4570312,6.23046875 18.0273438,6.34765625 17.4804688,6.46484375 C16.8945312,6.58203125 16.1914062,6.68945312 15.3710938,6.78710938 C14.5507812,6.88476562 13.59375,6.93359375 12.5,6.93359375 Z M18.59375,44.0820312 L18.1835938,43.9648438 C17.9882812,43.9257812 17.7832031,43.8867188 17.5683594,43.8476562 C17.3535156,43.8085938 17.109375,43.7695312 16.8359375,43.7304688 C16.2890625,43.6523438 15.6445312,43.5742188 14.9023438,43.4960938 C14.1601562,43.4179688 13.3789062,43.3789062 12.5585938,43.3789062 C12.1289062,43.3789062 11.71875,43.3886719 11.328125,43.4082031 C10.9375,43.4277344 10.5664062,43.4570312 10.2148438,43.4960938 C9.47265625,43.5742188 8.81835938,43.6523438 8.25195312,43.7304688 C7.68554688,43.8085938 7.24609375,43.8867188 6.93359375,43.9648438 L6.93359375,43.9648438 L6.5234375,44.0820312 C5.5078125,43.6523438 4.74609375,43.0957031 4.23828125,42.4121094 C3.73046875,41.7285156 3.359375,40.9375 3.125,40.0390625 C2.8515625,39.140625 2.6953125,38.1640625 2.65625,37.109375 C2.6171875,36.0546875 2.578125,34.9609375 2.5390625,33.828125 L2.5390625,33.828125 L2.59765625,16.953125 C2.55859375,15.625 2.6171875,14.4140625 2.7734375,13.3203125 C2.9296875,12.2265625 3.14453125,11.2304688 3.41796875,10.3320312 C3.65234375,9.43359375 3.99414062,8.66210938 4.44335938,8.01757812 C4.89257812,7.37304688 5.3515625,6.81640625 5.8203125,6.34765625 L5.8203125,6.34765625 L6.23046875,6.46484375 C6.46484375,6.54296875 6.89453125,6.66015625 7.51953125,6.81640625 C8.06640625,6.93359375 8.76953125,7.05078125 9.62890625,7.16796875 C10.4882812,7.28515625 11.4453125,7.34375 12.5,7.34375 C13.6328125,7.34375 14.609375,7.28515625 15.4296875,7.16796875 C16.25,7.05078125 16.953125,6.93359375 17.5390625,6.81640625 C18.125,6.69921875 18.5742188,6.58203125 18.8867188,6.46484375 L18.8867188,6.46484375 L19.1796875,6.34765625 C19.765625,6.81640625 20.2539062,7.3828125 20.6445312,8.046875 C21.0351562,8.7109375 21.3867188,9.47265625 21.6992188,10.3320312 C22.0117188,11.2304688 22.2167969,12.2265625 22.3144531,13.3203125 C22.4121094,14.4140625 22.4804688,15.625 22.5195312,16.953125 L22.5195312,16.953125 L22.4609375,33.828125 C22.5,34.9609375 22.4902344,36.0546875 22.4316406,37.109375 C22.3730469,38.1640625 22.2265625,39.140625 21.9921875,40.0390625 C21.5234375,41.9140625 20.390625,43.2617188 18.59375,44.0820312 L18.59375,44.0820312 Z M12.5585938,14.0820312 C12.8320312,14.1601562 13.1152344,14.1308594 13.4082031,13.9941406 C13.7011719,13.8574219 13.9453125,13.6914062 14.140625,13.4960938 C14.3359375,13.3007812 14.4921875,13.0664062 14.609375,12.7929688 C14.7265625,12.5195312 14.765625,12.265625 14.7265625,12.03125 C14.765625,11.6796875 14.7265625,11.3671875 14.609375,11.09375 C14.453125,10.859375 14.296875,10.625 14.140625,10.390625 C13.984375,10.15625 13.75,10 13.4375,9.921875 C13.28125,9.8828125 13.1347656,9.84375 12.9980469,9.8046875 C12.8613281,9.765625 12.7148438,9.7265625 12.5585938,9.6875 C12.2070312,9.765625 11.9042969,9.84375 11.6503906,9.921875 C11.3964844,10 11.171875,10.15625 10.9765625,10.390625 C10.546875,10.8203125 10.3125,11.3671875 10.2734375,12.03125 C10.3125,12.265625 10.3808594,12.5195312 10.4785156,12.7929688 C10.5761719,13.0664062 10.7421875,13.3007812 10.9765625,13.4960938 C11.171875,13.6914062 11.3964844,13.8574219 11.6503906,13.9941406 C11.9042969,14.1308594 12.2070312,14.1601562 12.5585938,14.0820312 Z M12.5,13.8476562 C12.421875,13.8085938 12.3242188,13.7695312 12.2070312,13.7304688 C12.0898438,13.6914062 11.9726562,13.6523438 11.8554688,13.6132812 C11.5820312,13.5742188 11.3867188,13.4570312 11.2695312,13.2617188 C11.1132812,13.0664062 10.9765625,12.8710938 10.859375,12.6757812 C10.7421875,12.4804688 10.703125,12.2265625 10.7421875,11.9140625 C10.703125,11.71875 10.7421875,11.4941406 10.859375,11.2402344 C10.9765625,10.9863281 11.1132812,10.78125 11.2695312,10.625 C11.3867188,10.5078125 11.5722656,10.3808594 11.8261719,10.2441406 C12.0800781,10.1074219 12.3046875,10.078125 12.5,10.15625 C12.7734375,10.078125 13.0175781,10.1074219 13.2324219,10.2441406 C13.4472656,10.3808594 13.6523438,10.5078125 13.8476562,10.625 C14.0429688,10.78125 14.1699219,10.9863281 14.2285156,11.2402344 C14.2871094,11.4941406 14.3359375,11.71875 14.375,11.9140625 L14.375,11.9140625 L14.1992188,12.6757812 C13.9648438,13.1835938 13.6523438,13.4960938 13.2617188,13.6132812 C13.1445312,13.6523438 13.0273438,13.6914062 12.9101562,13.7304688 C12.7929688,13.7695312 12.65625,13.8085938 12.5,13.8476562 Z M19.1210938,29.9609375 C19.4726562,29.9609375 19.8242188,29.8242188 20.1757812,29.5507812 C20.4101562,29.3164062 20.546875,29.0039062 20.5859375,28.6132812 L20.5859375,28.6132812 L20.5273438,19.6484375 C20.5664062,19.453125 20.5371094,19.2773438 20.4394531,19.1210938 C20.3417969,18.9648438 20.2539062,18.828125 20.1757812,18.7109375 C19.9023438,18.4375 19.5703125,18.3007812 19.1796875,18.3007812 L19.1796875,18.3007812 L5.87890625,18.3007812 C5.48828125,18.3007812 5.15625,18.4375 4.8828125,18.7109375 C4.609375,18.984375 4.4921875,19.296875 4.53125,19.6484375 L4.53125,19.6484375 L4.47265625,28.6132812 C4.51171875,28.8085938 4.55078125,28.9941406 4.58984375,29.1699219 C4.62890625,29.3457031 4.7265625,29.4921875 4.8828125,29.609375 C5.0390625,29.7265625 5.18554688,29.8144531 5.32226562,29.8730469 C5.45898438,29.9316406 5.6640625,29.9609375 5.9375,29.9609375 L5.9375,29.9609375 L19.1210938,29.9609375 Z M19.1796875,29.5507812 L5.87890625,29.5507812 C5.76171875,29.5507812 5.63476562,29.53125 5.49804688,29.4921875 C5.36132812,29.453125 5.25390625,29.3945312 5.17578125,29.3164062 C5.09765625,29.2382812 5.01953125,29.140625 4.94140625,29.0234375 C4.86328125,28.90625 4.84375,28.7695312 4.8828125,28.6132812 L4.8828125,28.6132812 L4.82421875,19.6484375 C4.90234375,19.296875 5.01953125,19.0625 5.17578125,18.9453125 C5.33203125,18.7890625 5.5859375,18.7109375 5.9375,18.7109375 L5.9375,18.7109375 L19.1210938,18.7109375 C19.3164062,18.7109375 19.4628906,18.7304688 19.5605469,18.7695312 C19.6582031,18.8085938 19.765625,18.8671875 19.8828125,18.9453125 C20.078125,19.1015625 20.1953125,19.3359375 20.234375,19.6484375 L20.234375,19.6484375 L20.1757812,28.6132812 C20.2148438,28.8476562 20.1171875,29.0820312 19.8828125,29.3164062 C19.7265625,29.4726562 19.4921875,29.5507812 19.1796875,29.5507812 L19.1796875,29.5507812 Z M12.2070312,20.46875 C12.2460938,20.5859375 12.3632812,20.6054688 12.5585938,20.5273438 C12.6367188,20.6054688 12.734375,20.5859375 12.8515625,20.46875 C13.0078125,20.390625 13.1054688,20.3320312 13.1445312,20.2929688 C13.2226562,20.2539062 13.2910156,20.1660156 13.3496094,20.0292969 C13.4082031,19.8925781 13.4179688,19.8046875 13.3789062,19.765625 C13.4570312,19.5703125 13.4375,19.4335938 13.3203125,19.3554688 C13.28125,19.3164062 13.2226562,19.21875 13.1445312,19.0625 C13.1054688,18.9453125 13.0078125,18.8867188 12.8515625,18.8867188 C12.734375,18.8867188 12.6367188,18.8476562 12.5585938,18.7695312 C12.4246652,18.8141741 12.3290019,18.8460619 12.271604,18.8651945 L12.214206,18.8843272 L12.214206,18.8843272 C12.1312978,18.8859216 12.0507812,18.9453125 11.9726562,19.0625 C11.8554688,19.1796875 11.7773438,19.2773438 11.7382812,19.3554688 C11.6992188,19.4335938 11.6601562,19.5703125 11.6210938,19.765625 C11.6210938,19.765625 11.6351562,19.79375 11.6632812,19.85 L11.7382812,20 C11.7773438,20.15625 11.8554688,20.2539062 11.9726562,20.2929688 L11.9726562,20.2929688 L12.2070312,20.46875 Z M12.5,20.234375 C12.421875,20.15625 12.3632812,20.1171875 12.3242188,20.1171875 C12.2460938,20.1953125 12.2070312,20.1757812 12.2070312,20.0585938 L12.2070312,20.0585938 L12.0898438,19.8828125 C12.0507812,19.8828125 12.0507812,19.8046875 12.0898438,19.6484375 C12.0507812,19.6484375 12.0507812,19.5996094 12.0898438,19.5019531 C12.1289062,19.4042969 12.1679688,19.3554688 12.2070312,19.3554688 L12.2070312,19.3554688 L12.3242188,19.2382812 C12.3632812,19.1992188 12.421875,19.21875 12.5,19.296875 C12.6171875,19.21875 12.6953125,19.1992188 12.734375,19.2382812 C12.8125,19.3164062 12.8710938,19.3554688 12.9101562,19.3554688 C12.9492188,19.3554688 12.96875,19.3945312 12.96875,19.4726562 C12.96875,19.5898438 12.9882812,19.6484375 13.0273438,19.6484375 L13.0273438,19.6484375 L12.96875,19.8828125 C12.96875,19.921875 12.9394531,19.9804688 12.8808594,20.0585938 C12.8222656,20.1367188 12.7734375,20.15625 12.734375,20.1171875 C12.734375,20.1171875 12.70625,20.13125 12.65,20.159375 L12.5,20.234375 Z M18.2421875,29.0820312 C18.5546875,29.1601562 18.8671875,29.0429688 19.1796875,28.7304688 C19.453125,28.4570312 19.5507812,28.1835938 19.4726562,27.9101562 L19.4726562,27.9101562 L19.53125,21.875 C19.4921875,21.796875 19.4726562,21.71875 19.4726562,21.640625 C19.4726562,21.5625 19.453125,21.484375 19.4140625,21.40625 C19.3359375,21.2109375 19.2578125,21.09375 19.1796875,21.0546875 C19.0234375,20.9765625 18.8769531,20.8984375 18.7402344,20.8203125 C18.6035156,20.7421875 18.4179688,20.7226562 18.1835938,20.7617188 L18.1835938,20.7617188 L6.875,20.703125 C6.4453125,20.7421875 6.1328125,20.859375 5.9375,21.0546875 C5.7421875,21.2109375 5.60546875,21.5039062 5.52734375,21.9335938 L5.52734375,21.9335938 L5.5859375,27.8515625 C5.546875,28.203125 5.6640625,28.4960938 5.9375,28.7304688 C6.015625,28.8476562 6.14257812,28.9355469 6.31835938,28.9941406 C6.49414062,29.0527344 6.66015625,29.0820312 6.81640625,29.0820312 L6.81640625,29.0820312 L18.2421875,29.0820312 Z M5.9375,24.8046875 L5.9375,21.875 C5.8984375,21.796875 5.91796875,21.6992188 5.99609375,21.5820312 C6.07421875,21.4648438 6.15234375,21.3671875 6.23046875,21.2890625 C6.38671875,21.1328125 6.58203125,21.0742188 6.81640625,21.1132812 L6.81640625,21.1132812 L6.81640625,21.171875 L18.2421875,21.0546875 C18.3203125,21.1328125 18.4375,21.171875 18.59375,21.171875 C18.75,21.171875 18.8476562,21.2304688 18.8867188,21.3476562 C18.9257812,21.4257812 18.984375,21.5039062 19.0625,21.5820312 C19.1796875,21.6601562 19.1992188,21.796875 19.1210938,21.9921875 L19.1210938,21.9921875 L19.1210938,24.6875 L5.9375,24.8046875 Z M18.1835938,28.7890625 L6.875,28.7304688 C6.71875,28.7695312 6.58203125,28.75 6.46484375,28.671875 L6.46484375,28.671875 L6.23046875,28.4960938 C6.11328125,28.4570312 6.03515625,28.3789062 5.99609375,28.2617188 C5.95703125,28.1835938 5.9375,28.125 5.9375,28.0859375 C5.9375,28.046875 5.91796875,27.9882812 5.87890625,27.9101562 L5.87890625,27.9101562 L5.87890625,25.2148438 L19.1796875,25.0976562 L19.1796875,27.8515625 C19.140625,27.9296875 19.1210938,28.0078125 19.1210938,28.0859375 C19.1210938,28.1640625 19.1015625,28.2226562 19.0625,28.2617188 C18.984375,28.5351562 18.828125,28.671875 18.59375,28.671875 C18.515625,28.7109375 18.4472656,28.7304688 18.3886719,28.7304688 C18.3300781,28.7304688 18.2617188,28.75 18.1835938,28.7890625 L18.1835938,28.7890625 Z M7.9296875,38.6914062 C8.0859375,38.7695312 8.25195312,38.75 8.42773438,38.6328125 C8.60351562,38.515625 8.75,38.4179688 8.8671875,38.3398438 C8.9453125,38.2617188 9.03320312,38.125 9.13085938,37.9296875 C9.22851562,37.734375 9.2578125,37.578125 9.21875,37.4609375 L9.21875,37.4609375 L9.27734375,35.46875 C9.23828125,35.390625 9.21875,35.3125 9.21875,35.234375 C9.21875,35.15625 9.19921875,35.078125 9.16015625,35 C9.08203125,34.8046875 8.984375,34.6679688 8.8671875,34.5898438 C8.75,34.5507812 8.61328125,34.453125 8.45703125,34.296875 C8.30078125,34.21875 8.18359375,34.1796875 8.10546875,34.1796875 C8.06640625,34.1796875 8.03710938,34.1699219 8.01757812,34.1503906 L7.99479167,34.1341146 C7.97743056,34.125434 7.95572917,34.1210938 7.9296875,34.1210938 L7.9296875,34.1210938 L7.75390625,34.1796875 C7.59765625,34.1796875 7.45117188,34.2285156 7.31445312,34.3261719 C7.17773438,34.4238281 7.0703125,34.5117188 6.9921875,34.5898438 C6.875,34.6679688 6.77734375,34.8046875 6.69921875,35 C6.62109375,35.1953125 6.6015625,35.3515625 6.640625,35.46875 L6.640625,35.46875 L6.58203125,37.4609375 C6.62109375,37.5390625 6.640625,37.6171875 6.640625,37.6953125 C6.640625,37.7734375 6.66015625,37.8515625 6.69921875,37.9296875 C6.77734375,38.1640625 6.875,38.3007812 6.9921875,38.3398438 C7.0703125,38.3789062 7.13867188,38.4179688 7.19726562,38.4570312 C7.25585938,38.4960938 7.32421875,38.5546875 7.40234375,38.6328125 C7.51953125,38.75 7.6953125,38.7695312 7.9296875,38.6914062 Z M11.1523438,38.6914062 C11.2695312,38.7695312 11.4257812,38.75 11.6210938,38.6328125 C11.8164062,38.515625 11.9726562,38.4179688 12.0898438,38.3398438 C12.1679688,38.2617188 12.2460938,38.125 12.3242188,37.9296875 C12.4023438,37.734375 12.421875,37.578125 12.3828125,37.4609375 L12.3828125,37.4609375 L12.4414062,35.46875 C12.4023438,35.390625 12.3828125,35.3125 12.3828125,35.234375 C12.3828125,35.15625 12.3632812,35.078125 12.3242188,35 C12.2460938,34.765625 12.1679688,34.6289062 12.0898438,34.5898438 C12.0117188,34.5507812 11.9335938,34.5117188 11.8554688,34.4726562 C11.7773438,34.4335938 11.6992188,34.375 11.6210938,34.296875 C11.4648438,34.21875 11.3476562,34.1796875 11.2695312,34.1796875 C11.2304688,34.1796875 11.1914062,34.1601562 11.1523438,34.1210938 L11.1523438,34.1210938 L10.9179688,34.1796875 C10.8007812,34.1796875 10.6738281,34.2285156 10.5371094,34.3261719 C10.4003906,34.4238281 10.2929688,34.5117188 10.2148438,34.5898438 C10.0976562,34.6679688 9.99023438,34.8046875 9.89257812,35 C9.79492188,35.1953125 9.765625,35.3515625 9.8046875,35.46875 L9.8046875,35.46875 L9.74609375,37.4609375 L9.921875,37.9296875 C10,38.1640625 10.0976562,38.3007812 10.2148438,38.3398438 C10.2929688,38.3789062 10.3613281,38.4179688 10.4199219,38.4570312 C10.4785156,38.4960938 10.546875,38.5546875 10.625,38.6328125 C10.7421875,38.75 10.9179688,38.7695312 11.1523438,38.6914062 Z M14.3164062,38.6914062 C14.4726562,38.7695312 14.6386719,38.75 14.8144531,38.6328125 C14.9902344,38.515625 15.1367188,38.4179688 15.2539062,38.3398438 C15.3320312,38.2617188 15.4199219,38.125 15.5175781,37.9296875 C15.6152344,37.734375 15.6445312,37.578125 15.6054688,37.4609375 L15.6054688,37.4609375 L15.6640625,35.46875 C15.625,35.390625 15.6054688,35.3125 15.6054688,35.234375 C15.6054688,35.15625 15.5859375,35.078125 15.546875,35 C15.46875,34.8046875 15.3710938,34.6679688 15.2539062,34.5898438 C15.1367188,34.5507812 15,34.453125 14.84375,34.296875 C14.6875,34.21875 14.5703125,34.1796875 14.4921875,34.1796875 C14.453125,34.1796875 14.4238281,34.1699219 14.4042969,34.1503906 L14.3815104,34.1341146 C14.3641493,34.125434 14.3424479,34.1210938 14.3164062,34.1210938 L14.3164062,34.1210938 L14.140625,34.1796875 C13.984375,34.1796875 13.8378906,34.2285156 13.7011719,34.3261719 C13.5644531,34.4238281 13.4570312,34.5117188 13.3789062,34.5898438 C13.2617188,34.6679688 13.1640625,34.8046875 13.0859375,35 C13.0078125,35.1953125 12.9882812,35.3515625 13.0273438,35.46875 L13.0273438,35.46875 L12.96875,37.4609375 C13.0078125,37.5390625 13.0273438,37.6171875 13.0273438,37.6953125 C13.0273438,37.7734375 13.046875,37.8515625 13.0859375,37.9296875 C13.1640625,38.1640625 13.2617188,38.3007812 13.3789062,38.3398438 C13.4570312,38.3789062 13.5253906,38.4179688 13.5839844,38.4570312 C13.6425781,38.4960938 13.7109375,38.5546875 13.7890625,38.6328125 C13.9453125,38.75 14.1210938,38.7695312 14.3164062,38.6914062 Z M17.5390625,38.6914062 C17.65625,38.7695312 17.8125,38.75 18.0078125,38.6328125 C18.203125,38.515625 18.359375,38.4179688 18.4765625,38.3398438 C18.5546875,38.2617188 18.6328125,38.125 18.7109375,37.9296875 C18.7890625,37.734375 18.8085938,37.578125 18.7695312,37.4609375 L18.7695312,37.4609375 L18.828125,35.46875 C18.7890625,35.390625 18.7695312,35.3125 18.7695312,35.234375 C18.7695312,35.15625 18.75,35.078125 18.7109375,35 C18.6328125,34.765625 18.5546875,34.6289062 18.4765625,34.5898438 C18.3984375,34.5507812 18.3203125,34.5117188 18.2421875,34.4726562 C18.1640625,34.4335938 18.0859375,34.375 18.0078125,34.296875 C17.8515625,34.21875 17.734375,34.1796875 17.65625,34.1796875 C17.6171875,34.1796875 17.578125,34.1601562 17.5390625,34.1210938 L17.5390625,34.1210938 L17.3046875,34.1796875 C17.1875,34.1796875 17.0605469,34.2285156 16.9238281,34.3261719 C16.7871094,34.4238281 16.6796875,34.5117188 16.6015625,34.5898438 C16.484375,34.6679688 16.3769531,34.8046875 16.2792969,35 C16.1816406,35.1953125 16.1523438,35.3515625 16.1914062,35.46875 L16.1914062,35.46875 L16.1328125,37.4609375 L16.3085938,37.9296875 C16.3867188,38.1640625 16.484375,38.3007812 16.6015625,38.3398438 C16.6796875,38.3789062 16.7480469,38.4179688 16.8066406,38.4570312 C16.8652344,38.4960938 16.9335938,38.5546875 17.0117188,38.6328125 C17.1289062,38.75 17.3046875,38.7695312 17.5390625,38.6914062 Z M7.87109375,35.7617188 C7.79296875,35.6835938 7.734375,35.6445312 7.6953125,35.6445312 C7.65625,35.6835938 7.59765625,35.6445312 7.51953125,35.5273438 L7.51953125,35.5273438 L7.40234375,35.3515625 C7.32421875,35.3515625 7.3046875,35.2734375 7.34375,35.1171875 C7.3046875,35.1171875 7.31445312,35.0585938 7.37304688,34.9414062 C7.43164062,34.8242188 7.48046875,34.7460938 7.51953125,34.7070312 C7.55859375,34.7070312 7.6171875,34.6679688 7.6953125,34.5898438 C7.7734375,34.5898438 7.83203125,34.609375 7.87109375,34.6484375 C7.94921875,34.609375 8.046875,34.5898438 8.1640625,34.5898438 C8.2421875,34.6679688 8.30078125,34.7070312 8.33984375,34.7070312 C8.33984375,34.7070312 8.37890625,34.7851562 8.45703125,34.9414062 C8.45703125,35.0585938 8.4765625,35.1171875 8.515625,35.1171875 L8.515625,35.1171875 L8.45703125,35.2929688 L8.45703125,35.3515625 L8.33984375,35.5273438 C8.26171875,35.6445312 8.203125,35.6835938 8.1640625,35.6445312 C8.125,35.6445312 8.02734375,35.6835938 7.87109375,35.7617188 Z M17.4804688,35.7617188 C17.4023438,35.6835938 17.34375,35.6445312 17.3046875,35.6445312 C17.2265625,35.6835938 17.1484375,35.6445312 17.0703125,35.5273438 L17.0703125,35.5273438 L16.953125,35.3515625 C16.9140625,35.3515625 16.9140625,35.2734375 16.953125,35.1171875 C16.9140625,35.1171875 16.9140625,35.0585938 16.953125,34.9414062 C16.9921875,34.8242188 17.03125,34.7460938 17.0703125,34.7070312 C17.0703125,34.7070312 17.1484375,34.6679688 17.3046875,34.5898438 C17.3828125,34.5898438 17.4414062,34.609375 17.4804688,34.6484375 L17.4804688,34.6484375 L17.7148438,34.5898438 C17.7929688,34.6679688 17.8515625,34.7070312 17.890625,34.7070312 C17.96875,34.7851562 18.0078125,34.8632812 18.0078125,34.9414062 C18.0078125,35.0585938 18.0273438,35.1171875 18.0664062,35.1171875 L18.0664062,35.1171875 L18.0078125,35.3515625 C18.0078125,35.390625 17.96875,35.4589844 17.890625,35.5566406 C17.8125,35.6542969 17.7539062,35.6835938 17.7148438,35.6445312 C17.7148438,35.6445312 17.6867187,35.6585938 17.6304687,35.6867188 L17.4804688,35.7617188 Z M14.2578125,35.7617188 C14.1796875,35.6835938 14.1210938,35.6445312 14.0820312,35.6445312 C14.0429688,35.6835938 13.984375,35.6445312 13.90625,35.5273438 L13.90625,35.5273438 L13.7890625,35.3515625 C13.7109375,35.3515625 13.6914062,35.2734375 13.7304688,35.1171875 C13.6914062,35.1171875 13.7011719,35.0585938 13.7597656,34.9414062 C13.8183594,34.8242188 13.8671875,34.7460938 13.90625,34.7070312 C13.9453125,34.7070312 14.0039062,34.6679688 14.0820312,34.5898438 C14.1601562,34.5898438 14.21875,34.609375 14.2578125,34.6484375 C14.3359375,34.609375 14.4335938,34.5898438 14.5507812,34.5898438 C14.6289062,34.6679688 14.6875,34.7070312 14.7265625,34.7070312 C14.7265625,34.7070312 14.740625,34.7351563 14.76875,34.7914063 L14.84375,34.9414062 C14.84375,35.0585938 14.8632812,35.1171875 14.9023438,35.1171875 L14.9023438,35.1171875 L14.84375,35.2929688 L14.84375,35.3515625 L14.7265625,35.5273438 C14.6484375,35.6445312 14.5898438,35.6835938 14.5507812,35.6445312 C14.5117188,35.6445312 14.4140625,35.6835938 14.2578125,35.7617188 Z M11.09375,35.7617188 C11.015625,35.6835938 10.9570312,35.6445312 10.9179688,35.6445312 C10.8398438,35.6835938 10.7617188,35.6445312 10.6835938,35.5273438 L10.6835938,35.5273438 L10.5664062,35.3515625 C10.5273438,35.3515625 10.5273438,35.2734375 10.5664062,35.1171875 C10.5273438,35.1171875 10.5273438,35.0585938 10.5664062,34.9414062 C10.6054688,34.8242188 10.6445312,34.7460938 10.6835938,34.7070312 C10.6835938,34.7070312 10.7617188,34.6679688 10.9179688,34.5898438 C10.9960938,34.5898438 11.0546875,34.609375 11.09375,34.6484375 L11.09375,34.6484375 L11.328125,34.5898438 C11.40625,34.6679688 11.4648438,34.7070312 11.5039062,34.7070312 C11.5820312,34.7851562 11.6210938,34.8632812 11.6210938,34.9414062 C11.6210938,35.0585938 11.640625,35.1171875 11.6796875,35.1171875 L11.6796875,35.1171875 L11.6210938,35.3515625 C11.6210938,35.390625 11.5820312,35.4589844 11.5039062,35.5566406 C11.4257812,35.6542969 11.3671875,35.6835938 11.328125,35.6445312 L11.328125,35.6445312 L11.290625,35.6632813 C11.253125,35.6820313 11.1875,35.7148438 11.09375,35.7617188 Z M17.5390625,38.28125 C17.34375,38.359375 17.2070312,38.359375 17.1289062,38.28125 C17.0507812,38.2421875 16.953125,38.1640625 16.8359375,38.046875 C16.71875,38.0078125 16.640625,37.9101562 16.6015625,37.7539062 C16.5625,37.5585938 16.5234375,37.4609375 16.484375,37.4609375 L16.484375,37.4609375 L16.5429688,35.46875 L16.5429688,35.3515625 L16.6015625,35.5273438 C16.640625,35.6835938 16.71875,35.78125 16.8359375,35.8203125 C16.875,35.859375 16.9726562,35.9179688 17.1289062,35.9960938 C17.1679688,36.1132812 17.3046875,36.1328125 17.5390625,36.0546875 C17.6171875,36.1328125 17.734375,36.1132812 17.890625,35.9960938 C18.046875,35.9179688 18.1445312,35.859375 18.1835938,35.8203125 C18.2617188,35.7421875 18.3398438,35.5859375 18.4179688,35.3515625 L18.4179688,35.3515625 L18.4765625,35.46875 L18.4179688,37.4609375 C18.4570312,37.5 18.4472656,37.5878906 18.3886719,37.7246094 C18.3300781,37.8613281 18.2617188,37.96875 18.1835938,38.046875 C18.1054688,38.125 17.9980469,38.203125 17.8613281,38.28125 C17.7246094,38.359375 17.6171875,38.359375 17.5390625,38.28125 Z M14.6679688,38.28125 C14.5507812,38.359375 14.4335938,38.359375 14.3164062,38.28125 C14.1601562,38.3203125 14.0429688,38.3203125 13.9648438,38.28125 C13.8867188,38.2421875 13.7890625,38.1640625 13.671875,38.046875 C13.5546875,38.0078125 13.4765625,37.9101562 13.4375,37.7539062 C13.3984375,37.5585938 13.359375,37.4609375 13.3203125,37.4609375 L13.3203125,37.4609375 L13.3789062,35.46875 L13.3789062,35.3515625 L13.4375,35.5273438 C13.4765625,35.6835938 13.5546875,35.78125 13.671875,35.8203125 C13.7109375,35.859375 13.8085938,35.9179688 13.9648438,35.9960938 C14.0039062,36.1132812 14.1210938,36.1328125 14.3164062,36.0546875 C14.4335938,36.1328125 14.5507812,36.1132812 14.6679688,35.9960938 C14.8242188,35.9179688 14.921875,35.859375 14.9609375,35.8203125 C15.1171875,35.7421875 15.1953125,35.5859375 15.1953125,35.3515625 L15.1953125,35.3515625 L15.2539062,35.46875 L15.1953125,37.4609375 C15.234375,37.5 15.2246094,37.5878906 15.1660156,37.7246094 C15.1074219,37.8613281 15.0390625,37.96875 14.9609375,38.046875 C14.8828125,38.125 14.7851562,38.203125 14.6679688,38.28125 Z M11.1523438,38.28125 C10.9570312,38.359375 10.8203125,38.359375 10.7421875,38.28125 C10.6640625,38.2421875 10.5664062,38.1640625 10.4492188,38.046875 C10.3320312,38.0078125 10.2539062,37.9101562 10.2148438,37.7539062 C10.1757812,37.5585938 10.1367188,37.4609375 10.0976562,37.4609375 L10.0976562,37.4609375 L10.15625,35.46875 L10.15625,35.3515625 L10.2148438,35.5273438 C10.2539062,35.6835938 10.3320312,35.78125 10.4492188,35.8203125 C10.4882812,35.859375 10.5859375,35.9179688 10.7421875,35.9960938 C10.78125,36.1132812 10.9179688,36.1328125 11.1523438,36.0546875 C11.2304688,36.1328125 11.3476562,36.1132812 11.5039062,35.9960938 C11.6601562,35.9179688 11.7578125,35.859375 11.796875,35.8203125 C11.875,35.7421875 11.953125,35.5859375 12.03125,35.3515625 L12.03125,35.3515625 L12.0898438,35.46875 L12.03125,37.4609375 C12.0703125,37.5 12.0605469,37.5878906 12.0019531,37.7246094 C11.9433594,37.8613281 11.875,37.96875 11.796875,38.046875 C11.71875,38.125 11.6113281,38.203125 11.4746094,38.28125 C11.3378906,38.359375 11.2304688,38.359375 11.1523438,38.28125 Z M8.28125,38.28125 C8.1640625,38.359375 8.046875,38.359375 7.9296875,38.28125 C7.7734375,38.3203125 7.65625,38.3203125 7.578125,38.28125 C7.5,38.2421875 7.40234375,38.1640625 7.28515625,38.046875 C7.16796875,38.0078125 7.08984375,37.9101562 7.05078125,37.7539062 C7.01171875,37.5585938 6.97265625,37.4609375 6.93359375,37.4609375 L6.93359375,37.4609375 L6.9921875,35.46875 L6.9921875,35.3515625 L7.05078125,35.5273438 C7.08984375,35.6835938 7.16796875,35.78125 7.28515625,35.8203125 C7.32421875,35.859375 7.421875,35.9179688 7.578125,35.9960938 C7.6171875,36.1132812 7.734375,36.1328125 7.9296875,36.0546875 C8.046875,36.1328125 8.1640625,36.1132812 8.28125,35.9960938 C8.4375,35.9179688 8.53515625,35.859375 8.57421875,35.8203125 C8.73046875,35.7421875 8.80859375,35.5859375 8.80859375,35.3515625 L8.80859375,35.3515625 L8.8671875,35.46875 L8.80859375,37.4609375 C8.84765625,37.5 8.83789062,37.5878906 8.77929688,37.7246094 C8.72070312,37.8613281 8.65234375,37.96875 8.57421875,38.046875 C8.49609375,38.125 8.3984375,38.203125 8.28125,38.28125 Z M12.5,45.078125 C11.9140625,45.078125 11.328125,45.0585938 10.7421875,45.0195312 C10.15625,44.9804688 9.62890625,44.921875 9.16015625,44.84375 C8.80859375,44.765625 8.45703125,44.6777344 8.10546875,44.5800781 C7.75390625,44.4824219 7.421875,44.3945312 7.109375,44.3164062 C7.265625,44.2773438 7.44140625,44.2480469 7.63671875,44.2285156 C7.83203125,44.2089844 8.046875,44.1601562 8.28125,44.0820312 C8.828125,44.0039062 9.46289062,43.9355469 10.1855469,43.8769531 C10.9082031,43.8183594 11.6992188,43.7890625 12.5585938,43.7890625 C13.3398438,43.7890625 14.1113281,43.8183594 14.8730469,43.8769531 C15.6347656,43.9355469 16.2695312,44.0039062 16.7773438,44.0820312 C17.0117188,44.1601562 17.2167969,44.2089844 17.3925781,44.2285156 C17.5683594,44.2480469 17.7539062,44.2773438 17.9492188,44.3164062 C17.6367188,44.3945312 17.3144531,44.4824219 16.9824219,44.5800781 C16.6503906,44.6777344 16.2890625,44.765625 15.8984375,44.84375 C15.390625,44.921875 14.8632812,44.9804688 14.3164062,45.0195312 C13.7695312,45.0585938 13.1640625,45.078125 12.5,45.078125 Z" id="38" fill="currentColor" fill-rule="nonzero"></path>
    </g>
</svg>